<svg width="32" height="32" viewBox="0 0 32 32" fill="none" xmlns="http://www.w3.org/2000/svg">
<path d="M4.22656 9.91992L15.9999 16.7333L27.6932 9.95992" stroke="url(#paint0_linear_304_22491)" stroke-width="1.5" stroke-linecap="round" stroke-linejoin="round"/>
<path d="M16 28.814V16.7207" stroke="url(#paint1_linear_304_22491)" stroke-width="1.5" stroke-linecap="round" stroke-linejoin="round"/>
<path d="M13.2399 3.30574L6.11986 7.25241C4.50652 8.14574 3.18652 10.3857 3.18652 12.2257V19.7591C3.18652 21.5991 4.50652 23.8391 6.11986 24.7324L13.2399 28.6924C14.7599 29.5324 17.2532 29.5324 18.7732 28.6924L25.8932 24.7324C27.5065 23.8391 28.8265 21.5991 28.8265 19.7591V12.2257C28.8265 10.3857 27.5065 8.14574 25.8932 7.25241L18.7732 3.29241C17.2399 2.45241 14.7599 2.45241 13.2399 3.30574Z" stroke="url(#paint2_linear_304_22491)" stroke-width="1.5" stroke-linecap="round" stroke-linejoin="round"/>
<defs>
<linearGradient id="paint0_linear_304_22491" x1="15.9599" y1="9.91992" x2="15.9599" y2="16.7333" gradientUnits="userSpaceOnUse">
<stop stop-color="#1A79FF"/>
<stop offset="1" stop-color="#1A79FF"/>
</linearGradient>
<linearGradient id="paint1_linear_304_22491" x1="16.5" y1="16.7207" x2="16.5" y2="28.814" gradientUnits="userSpaceOnUse">
<stop stop-color="#1A79FF"/>
<stop offset="1" stop-color="#1A79FF"/>
</linearGradient>
<linearGradient id="paint2_linear_304_22491" x1="16.0065" y1="2.66406" x2="16.0065" y2="29.3224" gradientUnits="userSpaceOnUse">
<stop stop-color="#1A79FF"/>
<stop offset="1" stop-color="#1A79FF"/>
</linearGradient>
</defs>
</svg>
