<svg width="16" height="16" viewBox="0 0 16 16" fill="none" xmlns="http://www.w3.org/2000/svg">
<path d="M13.4733 5.21329L8.34001 8.18663C8.13334 8.30663 7.87334 8.30663 7.66001 8.18663L2.52667 5.21329C2.16001 4.99996 2.06667 4.49996 2.34667 4.18663C2.54001 3.96663 2.76001 3.78663 2.99334 3.65996L6.60667 1.65996C7.38001 1.22663 8.63334 1.22663 9.40667 1.65996L13.02 3.65996C13.2533 3.78663 13.4733 3.97329 13.6667 4.18663C13.9333 4.49996 13.84 4.99996 13.4733 5.21329Z" fill="white" fill-opacity="0.5"/>
<path d="M7.61966 9.42675V13.9734C7.61966 14.4801 7.10633 14.8134 6.65299 14.5934C5.27966 13.9201 2.96633 12.6601 2.96633 12.6601C2.15299 12.2001 1.48633 11.0401 1.48633 10.0867V6.64675C1.48633 6.12008 2.03966 5.78675 2.49299 6.04675L7.28633 8.82675C7.48633 8.95342 7.61966 9.18008 7.61966 9.42675Z" fill="white" fill-opacity="0.5"/>
<path d="M8.38 9.42675V13.9734C8.38 14.4801 8.89334 14.8134 9.34667 14.5934C10.72 13.9201 13.0333 12.6601 13.0333 12.6601C13.8467 12.2001 14.5133 11.0401 14.5133 10.0867V6.64675C14.5133 6.12008 13.96 5.78675 13.5067 6.04675L8.71334 8.82675C8.51334 8.95342 8.38 9.18008 8.38 9.42675Z" fill="white" fill-opacity="0.5"/>
</svg>
