<svg width="16" height="16" viewBox="0 0 16 16" fill="none" xmlns="http://www.w3.org/2000/svg">
  <g opacity="0.5"> <path d="M7.54657 2H3.39324C2.06657 2 1.3999 2.67333 1.3999 4.01333V14.6667H4.9999V12.1667C4.9999 11.8933 5.22657 11.6667 5.4999 11.6667C5.77324 11.6667 5.9999 11.8867 5.9999 12.1667V14.6667H9.53324V4.01333C9.53324 2.67333 8.87324 2 7.54657 2ZM7.16657 8.5H3.86657C3.59324 8.5 3.36657 8.27333 3.36657 8C3.36657 7.72667 3.59324 7.5 3.86657 7.5H7.16657C7.4399 7.5 7.66657 7.72667 7.66657 8C7.66657 8.27333 7.4399 8.5 7.16657 8.5ZM7.16657 6H3.86657C3.59324 6 3.36657 5.77333 3.36657 5.5C3.36657 5.22667 3.59324 5 3.86657 5H7.16657C7.4399 5 7.66657 5.22667 7.66657 5.5C7.66657 5.77333 7.4399 6 7.16657 6Z" fill="white"/>
  <path d="M15.3334 14.1666H13.8201V12.1666C14.4534 11.9599 14.9134 11.3666 14.9134 10.6666V9.33325C14.9134 8.45992 14.2001 7.74658 13.3267 7.74658C12.4534 7.74658 11.7401 8.45992 11.7401 9.33325V10.6666C11.7401 11.3599 12.1934 11.9466 12.8134 12.1599V14.1666H0.666748C0.393415 14.1666 0.166748 14.3932 0.166748 14.6666C0.166748 14.9399 0.393415 15.1666 0.666748 15.1666H13.2867C13.3001 15.1666 13.3067 15.1732 13.3201 15.1732C13.3334 15.1732 13.3401 15.1666 13.3534 15.1666H15.3334C15.6067 15.1666 15.8334 14.9399 15.8334 14.6666C15.8334 14.3932 15.6067 14.1666 15.3334 14.1666Z" fill="white"/>
</g> </svg>
  