<svg width="32" height="32" viewBox="0 0 32 32" fill="none" xmlns="http://www.w3.org/2000/svg">
<path d="M9.01323 29.3327H22.9866C26.6666 29.3327 28.1332 27.0793 28.3066 24.3327L28.9999 13.3193C29.1866 10.4393 26.8932 7.99935 23.9999 7.99935C23.1866 7.99935 22.4399 7.53268 22.0666 6.81268L21.1066 4.87935C20.4932 3.66602 18.8932 2.66602 17.5332 2.66602H14.4799C13.1066 2.66602 11.5066 3.66602 10.8932 4.87935L9.93323 6.81268C9.5599 7.53268 8.81323 7.99935 7.9999 7.99935C5.10656 7.99935 2.81323 10.4393 2.9999 13.3193L3.69323 24.3327C3.85323 27.0793 5.33323 29.3327 9.01323 29.3327Z" stroke="#7F92A0" stroke-width="1.5" stroke-linecap="round" stroke-linejoin="round"/>
<path d="M14 10.666H18" stroke="#7F92A0" stroke-width="1.5" stroke-linecap="round" stroke-linejoin="round"/>
<path d="M16.0003 24.0007C18.387 24.0007 20.3337 22.054 20.3337 19.6673C20.3337 17.2807 18.387 15.334 16.0003 15.334C13.6137 15.334 11.667 17.2807 11.667 19.6673C11.667 22.054 13.6137 24.0007 16.0003 24.0007Z" stroke="#7F92A0" stroke-width="1.5" stroke-linecap="round" stroke-linejoin="round"/>
</svg>
