<svg width="32" height="32" viewBox="0 0 32 32" fill="none" xmlns="http://www.w3.org/2000/svg">
<path d="M22.6665 13.3327H25.3332C27.9998 13.3327 29.3332 11.9993 29.3332 9.33268V6.66602C29.3332 3.99935 27.9998 2.66602 25.3332 2.66602H22.6665C19.9998 2.66602 18.6665 3.99935 18.6665 6.66602V9.33268C18.6665 11.9993 19.9998 13.3327 22.6665 13.3327Z" stroke="white" stroke-width="1.5" stroke-miterlimit="10" stroke-linecap="round" stroke-linejoin="round"/>
<path d="M6.6665 29.3327H9.33317C11.9998 29.3327 13.3332 27.9994 13.3332 25.3327V22.666C13.3332 19.9993 11.9998 18.666 9.33317 18.666H6.6665C3.99984 18.666 2.6665 19.9993 2.6665 22.666V25.3327C2.6665 27.9994 3.99984 29.3327 6.6665 29.3327Z" stroke="white" stroke-width="1.5" stroke-miterlimit="10" stroke-linecap="round" stroke-linejoin="round"/>
<path d="M7.99984 13.3327C10.9454 13.3327 13.3332 10.9449 13.3332 7.99935C13.3332 5.05383 10.9454 2.66602 7.99984 2.66602C5.05432 2.66602 2.6665 5.05383 2.6665 7.99935C2.6665 10.9449 5.05432 13.3327 7.99984 13.3327Z" stroke="white" stroke-width="1.5" stroke-miterlimit="10" stroke-linecap="round" stroke-linejoin="round"/>
<path d="M23.9998 29.3327C26.9454 29.3327 29.3332 26.9449 29.3332 23.9993C29.3332 21.0538 26.9454 18.666 23.9998 18.666C21.0543 18.666 18.6665 21.0538 18.6665 23.9993C18.6665 26.9449 21.0543 29.3327 23.9998 29.3327Z" stroke="white" stroke-width="1.5" stroke-miterlimit="10" stroke-linecap="round" stroke-linejoin="round"/>
</svg>
