<svg width="284" height="300" viewBox="0 0 284 300" fill="none" xmlns="http://www.w3.org/2000/svg">
<path d="M75.3595 300C39.8973 300 11.1482 293.803 11.1482 286.158C11.1482 281.842 20.3132 277.988 34.6773 275.449C33.6881 278.103 33.428 281.745 36.1515 285.034C39.0488 288.533 44.8913 288.641 45.55 288.642H63.894C63.9484 288.642 64.0038 288.638 64.0582 288.633C64.2938 288.611 69.8623 288.008 72.0006 281.872C72.2778 281.075 72.5858 277.957 72.9568 272.328C73.7541 272.321 74.5547 272.318 75.3595 272.318C75.9319 272.318 76.5011 272.319 77.0692 272.322C77.162 276.931 77.3954 280.144 77.9817 281.826C80.1189 287.962 85.6875 288.564 85.9231 288.587C85.9785 288.593 86.0329 288.595 86.0883 288.595H102.043C102.535 288.619 103.467 288.654 104.647 288.654C108.425 288.654 114.745 288.288 117.243 285.997C120.121 283.355 120.721 279.368 118.929 275.992C131.623 278.52 139.571 282.139 139.571 286.158C139.571 293.803 110.823 300 75.3595 300Z" fill="#67C1DA"/>
<path d="M166.088 155.609C166.088 155.609 133.52 160.453 109.804 174.747C106.515 176.722 103.395 178.887 100.558 181.244L99.7709 175.383L98.5216 166.029L95.0796 140.31C95.0796 140.31 145.021 125.352 169.124 132.715C174.311 134.3 177.826 136.669 179.838 139.292C185.388 146.509 179.6 155.645 166.088 155.609Z" fill="white"/>
<path d="M105.993 145.016C105.834 144.224 105.645 143.35 105.426 142.409C107.195 141.631 108.943 140.783 110.665 139.865C111.196 139.581 111.726 139.29 112.255 138.991C110.535 141.158 108.428 143.178 105.993 145.016Z" fill="#D7D1DA"/>
<path d="M172.336 137.441C172.276 137.158 172.25 136.995 172.25 136.995C172.25 136.995 172.293 137.153 172.336 137.441Z" fill="#D8D8D8"/>
<path d="M117.031 168.852C116.807 168.184 116.578 167.52 116.342 166.856C114.527 161.746 112.34 156.73 109.489 152.098C112.707 153.594 120.295 156.272 133.362 156.272C138.079 156.272 143.51 155.923 149.708 155.043C168.108 152.432 167.613 142.366 167.278 140.178C167.617 141.824 169.12 147.73 173.417 148.582C174.335 148.765 175.156 148.851 175.885 148.851C177.712 148.851 178.964 148.311 179.745 147.393C178.368 150.822 173.916 153.892 166.175 153.892C166.148 153.892 166.12 153.892 166.094 153.892C166.075 153.888 166.055 153.887 166.034 153.887C165.971 153.887 165.901 153.901 165.836 153.91C164.479 154.112 139.205 157.983 117.031 168.852Z" fill="#D7D1DA"/>
<path d="M100.558 182.963C100.064 182.963 99.5748 182.751 99.2348 182.344C98.6261 181.614 98.7253 180.532 99.4565 179.925C122.858 160.488 164.092 154.171 165.836 153.911C165.921 153.899 166.018 153.877 166.094 153.893C166.12 153.893 166.148 153.893 166.175 153.893C174.994 153.893 179.544 149.908 180.143 145.948C180.852 141.261 176.33 136.711 168.622 134.358C145.291 127.234 96.0668 141.806 95.5722 141.955C94.664 142.228 93.7035 141.713 93.4296 140.804C93.1567 139.896 93.6737 138.938 94.5829 138.666C96.6434 138.049 145.303 123.643 169.629 131.074C181.089 134.574 184.288 141.55 183.545 146.46C182.728 151.869 177.053 157.311 166.22 157.327C163.698 157.723 123.702 164.256 101.658 182.565C101.336 182.832 100.946 182.963 100.558 182.963Z" fill="#371A45"/>
<path d="M59.3051 136.036L59.9937 145.57L60.3454 150.426L66.4011 234.17C66.4011 234.17 60.6567 234.258 52.9445 233.758C51.4362 233.66 49.8511 233.541 48.2213 233.393C36.0673 232.3 21.3122 229.679 15.7094 223.444C7.33448 214.12 5.93744 168.592 13.4153 150.54C16.8404 142.265 34.2477 138.66 46.6096 137.126C47.991 136.951 49.3117 136.806 50.5397 136.684C55.7203 136.161 59.3051 136.036 59.3051 136.036Z" fill="white"/>
<path d="M35.3008 229.928C27.4927 228.433 20.3705 226.06 16.9909 222.298C15.8985 221.082 14.8954 219.052 14.0156 216.375C16.3112 217.84 19.0703 218.573 21.8075 218.573C24.9738 218.573 28.1109 217.592 30.4678 215.628C32.8811 213.617 33.9662 210.223 34.3052 206.471C34.3468 206.473 34.3873 206.474 34.4278 206.476C34.5632 207.587 34.7422 208.697 34.9757 209.802C35.0322 210.073 35.093 210.344 35.159 210.615C35.1793 216.054 35.2326 222.841 35.3008 229.928Z" fill="#D7D1DA"/>
<path d="M57.7091 137.826C45.7246 138.446 18.9121 141.758 15.0029 151.195C11.6277 159.343 9.83933 174.294 10.3361 190.212C10.8206 205.743 13.4327 218.339 16.9907 222.299C25.3563 231.612 56.641 232.406 64.5536 232.456L57.7091 137.826ZM65.0482 235.896C57.6771 235.896 24.0463 235.299 14.4284 224.591C5.62935 214.796 4.0221 168.714 11.8229 149.882C14.3103 143.878 23.1455 139.438 38.0817 136.688C48.8766 134.699 59.1428 134.325 59.2451 134.321L60.9016 134.264L68.2503 235.86L66.4296 235.888C66.274 235.89 65.7954 235.896 65.0482 235.896Z" fill="#371A45"/>
<path d="M11.8837 189.094L28.4051 189.9C29.8794 189.971 31.1212 191.024 31.4218 192.468C32.524 197.751 34.4331 210.088 29.3656 214.31C25.1593 217.815 18.1765 217.599 14.0002 214.254C9.3284 210.512 8.564 198.383 8.48054 192.372C8.45474 190.503 10.0132 189.003 11.8837 189.094Z" fill="white"/>
<path d="M21.1427 215.123C18.94 214.999 16.7594 214.261 15.0771 212.914C13.7314 211.837 12.6181 209.61 11.7959 206.483C12.0496 206.782 12.3131 207.058 12.5856 207.309C15.0452 209.572 17.2911 210.377 19.2417 210.377C22.2737 210.377 24.5923 208.432 25.8906 206.995C25.8778 207.066 25.8639 207.136 25.8501 207.208C25.4674 208.96 24.8236 210.63 23.9058 212.087C23.4655 212.826 22.9198 213.486 22.3441 214.086C22.0544 214.385 21.7463 214.662 21.4285 214.908C21.3343 214.985 21.2388 215.056 21.1427 215.123ZM25.3875 214.571C25.6497 214.159 25.8885 213.736 26.0963 213.301C27.0205 211.466 27.5556 209.5 27.7944 207.541C27.8189 207.3 27.8423 207.061 27.8637 206.82C28.2336 207.341 28.6749 207.826 29.0607 207.875C29.1322 207.883 29.2014 207.887 29.2686 207.887C29.9743 207.887 30.4859 207.408 30.8494 206.596C30.519 209.625 29.6513 211.834 28.2634 212.992C27.4288 213.687 26.4481 214.213 25.3875 214.571Z" fill="#D7D1DA"/>
<path d="M11.7223 190.808C11.3254 190.808 10.9527 190.958 10.6656 191.235C10.3603 191.53 10.1953 191.924 10.2014 192.349C10.3476 202.899 12.1703 210.586 15.0773 212.915C18.7472 215.855 24.7853 215.891 28.2635 212.993C31.293 210.468 31.8441 202.926 29.7378 192.818C29.5971 192.144 29.015 191.65 28.3211 191.616L11.7998 190.81C11.7738 190.809 11.748 190.808 11.7223 190.808ZM21.8077 218.574C18.6204 218.574 15.4038 217.581 12.9235 215.594C8.04112 211.683 6.877 200.821 6.76049 192.397C6.74141 191.034 7.29367 189.71 8.27531 188.764C9.25748 187.818 10.601 187.317 11.9679 187.379L28.4885 188.185C30.7483 188.295 32.6468 189.913 33.1072 192.119C34.5207 198.9 36.0567 210.973 30.4679 215.629C28.1111 217.593 24.974 218.574 21.8077 218.574Z" fill="#371A45"/>
<path d="M20.5334 215.499C20.5951 215.475 20.8036 215.353 20.9489 215.256C21.1096 215.149 21.2709 215.036 21.4285 214.908C21.7462 214.663 22.0544 214.385 22.344 214.086C22.9197 213.486 23.4655 212.826 23.9057 212.087C24.8235 210.63 25.4674 208.96 25.85 207.208C26.0217 206.327 26.1858 205.436 26.254 204.528C26.3649 203.63 26.3809 202.683 26.4118 201.763C26.4331 200.836 26.4203 199.91 26.3617 198.991C26.3297 198.533 26.2913 198.074 26.2295 197.622C26.1709 197.179 26.0867 196.699 25.979 196.327L25.9641 196.277C25.8948 196.037 26.0334 195.785 26.2743 195.716C26.5013 195.651 26.739 195.774 26.8233 195.99C27.2038 196.982 27.3626 197.896 27.53 198.859C27.6813 199.811 27.7837 200.767 27.853 201.722C27.9105 202.684 27.9841 203.623 27.9596 204.604C27.9777 205.58 27.8945 206.559 27.7943 207.541C27.5556 209.5 27.0205 211.467 26.0963 213.301C25.6539 214.226 25.0751 215.097 24.4206 215.919C24.0901 216.33 23.732 216.722 23.3376 217.094C23.1457 217.281 22.9368 217.461 22.721 217.637C22.4876 217.82 22.3071 217.966 21.9598 218.177L21.8859 218.221C21.1643 218.656 20.2253 218.427 19.7884 217.706C19.3516 216.986 19.5823 216.049 20.3039 215.613C20.3758 215.57 20.4579 215.53 20.5334 215.499Z" fill="#371A45"/>
<path d="M38.2376 149.503C36.2368 149.421 34.2115 149.391 32.199 149.389C30.1843 149.389 28.1707 149.422 26.1667 149.512C24.1638 149.603 22.1637 149.725 20.1952 149.954C18.2315 150.18 16.2739 150.471 14.4552 150.957L14.4427 150.96C13.5243 151.207 12.58 150.662 12.3336 149.746C12.0873 148.829 12.6321 147.886 13.5506 147.641C13.5879 147.631 13.6298 147.622 13.6672 147.614C15.8052 147.198 17.8887 147.043 19.9638 146.944C22.0377 146.847 24.0945 146.862 26.1443 146.91C28.1952 146.958 30.2376 147.064 32.2746 147.203C34.3149 147.345 36.3391 147.514 38.3815 147.739C38.8686 147.792 39.2204 148.229 39.166 148.715C39.1149 149.18 38.7119 149.522 38.2514 149.504L38.2376 149.503Z" fill="#371A45"/>
<path d="M74.6281 205.725C74.2933 210.75 73.6122 226.073 72.866 241.635C71.9674 260.438 70.9761 279.587 70.3749 281.309C68.5734 286.475 63.8939 286.926 63.8939 286.926H45.5499C45.5499 286.926 39.943 286.917 37.4764 283.94C33.4257 279.049 37.5446 273.726 37.5446 273.726C37.5446 273.726 37.2344 251.543 37.0329 231.239C36.9487 222.513 36.8837 214.13 36.872 208.006L74.6281 205.725Z" fill="white"/>
<path d="M70.4763 241.711C58.2605 241.711 48.0625 235.8 38.7621 231.936C38.7141 227.115 38.6725 222.384 38.6416 218.071C38.7418 218.11 38.8495 218.13 38.9593 218.13C39.0563 218.13 39.1543 218.114 39.2513 218.08C39.2918 218.065 39.3313 218.047 39.3697 218.027C42.3266 223.317 47.1522 227.481 53.0043 230.486C58.4726 233.292 64.8396 235.089 71.4197 235.848C71.3291 237.763 71.2364 239.725 71.1415 241.705C70.9187 241.709 70.697 241.711 70.4763 241.711Z" fill="#D7D1DA"/>
<path d="M63.7862 285.207H45.5541C44.2153 285.201 40.3917 284.764 38.8035 282.846C37.5243 281.301 37.2951 279.689 37.4763 278.315C40.4322 280.246 44.7483 280.251 44.7483 280.251H64.623C64.623 280.251 66.9702 280.026 69.084 278.12C68.9604 279.487 68.8474 280.4 68.7493 280.745C67.436 284.517 64.2659 285.135 63.7862 285.207Z" fill="#D7D1DA"/>
<path d="M63.8939 288.641H45.5499C44.8911 288.64 39.0487 288.532 36.1514 285.033C32.5271 280.657 34.1868 275.652 35.8167 273.19C35.7442 267.911 35.1856 226.928 35.1515 208.01C35.1505 207.061 35.919 206.29 36.8688 206.289H36.872C37.8217 206.289 38.5914 207.057 38.5935 208.003C38.6287 228.123 39.2586 273.249 39.265 273.703C39.2704 274.091 39.1446 274.469 38.9069 274.777C38.779 274.945 35.6984 279.094 38.8035 282.844C40.3918 284.763 44.2153 285.199 45.5542 285.205H63.7862C64.2659 285.133 67.4361 284.515 68.7493 280.743C69.4305 278.348 70.8258 248.535 71.75 228.807C72.2414 218.313 72.6656 209.249 72.9087 205.609C72.9726 204.662 73.7945 203.945 74.7411 204.009C75.6887 204.072 76.4061 204.89 76.3421 205.837C76.1012 209.444 75.678 218.491 75.1877 228.968C73.5834 263.217 72.6976 279.87 72.0005 281.871C69.8622 288.007 64.2936 288.61 64.0581 288.632C64.0037 288.637 63.9483 288.641 63.8939 288.641Z" fill="#371A45"/>
<path d="M116.583 275.553C118.728 278.204 119.014 282.038 116.08 284.734C113.141 287.428 102.085 286.877 102.085 286.877H86.0873C86.0873 286.877 81.4078 286.427 79.6063 281.262C78.211 277.254 79.0371 260.713 78.5372 241.824C78.4327 237.813 78.2675 233.698 78.0095 229.574L118.236 210.014C117.612 217.38 116.926 224.589 116.232 231.344C113.863 254.532 111.457 272.319 111.457 272.319C111.457 272.319 114.745 273.276 116.583 275.553Z" fill="white"/>
<path d="M104.484 285.217C103.668 285.217 102.885 285.198 102.172 285.163C102.144 285.161 102.115 285.16 102.086 285.16H86.2005C85.6792 285.08 82.5389 284.448 81.232 280.697C81.1265 280.396 81.0359 279.992 80.957 279.497C82.2351 280.07 83.2147 280.164 83.2147 280.164H101.302C101.302 280.164 102.348 280.215 103.914 280.215C107.356 280.215 113.311 279.965 116.223 278.366C116.806 280.013 116.594 281.926 114.914 283.468C113.533 284.736 108.581 285.217 104.484 285.217Z" fill="#D7D1DA"/>
<path d="M80.2607 241.822C80.2127 239.984 80.1519 238.122 80.0752 236.247C83.1419 236.178 86.1874 235.887 89.1497 235.367C96.9791 233.997 104.211 231.047 109.602 226.469C109.607 226.465 109.609 226.464 109.614 226.459C109.615 226.458 109.614 226.459 109.615 226.458C110.398 225.792 111.143 225.092 111.845 224.357C112.009 224.51 112.22 224.587 112.431 224.587C112.645 224.587 112.861 224.507 113.028 224.346C113.912 223.5 114.724 222.578 115.465 221.602C115.128 225.155 114.782 228.635 114.435 231.997C112.201 232.85 109.761 233.931 107.143 235.306C96.7147 240.792 85.7056 241.734 80.2607 241.822Z" fill="#D7D1DA"/>
<path d="M104.647 288.654C103.467 288.654 102.535 288.619 102.043 288.595H86.0883C86.0328 288.595 85.9785 288.593 85.923 288.587C85.6875 288.564 80.1189 287.962 77.9817 281.826C77.0095 279.039 77.0085 272.042 77.0074 261.453C77.0053 252.341 77.0042 240.998 76.2922 229.683C76.2335 228.736 76.9541 227.92 77.9017 227.861C78.8504 227.793 79.668 228.521 79.7267 229.467C80.4451 240.891 80.4472 252.292 80.4483 261.452C80.4494 270.577 80.4515 278.458 81.2318 280.697C82.5386 284.448 85.6789 285.08 86.2002 285.16H102.086C102.115 285.16 102.144 285.161 102.171 285.163C106.467 285.377 113.257 284.989 114.914 283.468C117.237 281.337 116.754 278.498 115.245 276.63C113.786 274.822 111.004 273.974 110.976 273.967C110.159 273.729 109.638 272.931 109.751 272.088C109.792 271.792 113.787 242.101 116.522 209.87C116.602 208.925 117.429 208.225 118.382 208.303C119.329 208.384 120.031 209.215 119.951 210.16C117.54 238.569 114.153 265.01 113.342 271.193C114.646 271.759 116.581 272.81 117.924 274.474C120.853 278.1 120.567 282.946 117.243 285.997C114.745 288.288 108.425 288.654 104.647 288.654Z" fill="#371A45"/>
<path d="M120.205 202.713C119.623 210.927 117.28 218.35 112.388 223.771C94.7095 243.375 47.3577 239.541 37.8622 214.813C36.6257 211.585 36.0096 207.415 35.8636 202.713C35.386 186.947 40.218 165.183 44.696 152.847C44.696 152.847 44.7014 152.525 44.727 151.941C45.0062 146.383 47.6765 116.969 73.2668 111.484C95.9151 106.622 103.766 133.943 105.993 145.016C106.544 147.767 106.751 149.516 106.751 149.516C114.128 162.286 121.51 184.453 120.205 202.713Z" fill="white"/>
<path d="M68.8486 156.021C61.0234 156.021 53.6289 154.843 47.0786 152.747L47.0807 152.74C47.0818 152.741 47.0818 152.741 47.0829 152.741L49.8288 144.757C57.8064 147.509 66.1794 148.891 74.577 148.891C85.0586 148.891 95.5795 146.739 105.426 142.411C105.645 143.351 105.834 144.226 105.993 145.017C97.074 151.749 83.741 156.021 68.8486 156.021Z" fill="#D7D1DA"/>
<path d="M52.7112 136.376L47.083 152.74C40.9718 150.789 35.5973 148.038 31.2898 144.698C37.871 140.902 45.2048 137.992 52.7112 136.376Z" fill="#D8D8D8"/>
<path d="M76.6296 236.23C76.0359 236.211 75.4423 236.184 74.8486 236.149C75.4423 236.184 76.0359 236.211 76.6296 236.23Z" fill="#67C1DA"/>
<path d="M71.4196 235.848C64.8394 235.089 58.4725 233.292 53.0042 230.486C58.4736 233.293 64.8373 235.089 71.4196 235.848Z" fill="#B7ACBC"/>
<path d="M74.8483 236.148C73.7005 236.079 72.559 235.979 71.4197 235.847C72.5569 235.978 73.7015 236.079 74.8483 236.148Z" fill="#371A45"/>
<path d="M80.0752 236.248C83.1398 236.179 86.1895 235.886 89.1497 235.368C86.1874 235.887 83.1419 236.179 80.0752 236.248Z" fill="#B7ACBC"/>
<path d="M78.6626 236.264C77.9858 236.264 77.3069 236.252 76.6301 236.231C77.3069 236.252 77.9847 236.264 78.6615 236.264C79.1337 236.264 79.6037 236.258 80.0748 236.248C79.6047 236.258 79.1326 236.264 78.6626 236.264Z" fill="#371A45"/>
<path d="M109.602 226.469C109.605 226.466 109.611 226.462 109.614 226.459C109.608 226.463 109.607 226.464 109.602 226.469ZM109.615 226.458C110.398 225.792 111.143 225.092 111.844 224.357C111.143 225.092 110.398 225.792 109.615 226.458Z" fill="#B7ACBC"/>
<path d="M78.6616 236.264C77.9847 236.264 77.3068 236.252 76.6299 236.231C76.0362 236.212 75.4424 236.184 74.8487 236.149C73.7017 236.08 72.5569 235.979 71.4195 235.848C64.8372 235.089 58.4735 233.293 53.0041 230.486C47.1499 227.481 42.3285 223.318 39.3705 218.027C39.7425 217.827 39.9227 217.381 39.7767 216.972C39.3247 215.711 38.9441 214.441 38.6542 213.18C38.618 213.004 38.5828 212.83 38.5476 212.654C38.5956 212.698 38.6446 212.741 38.6926 212.782C39.4825 213.453 40.4034 213.975 41.3297 214.319C42.9788 214.924 44.6395 215.144 46.2641 215.144C46.4666 215.144 46.6691 215.141 46.8706 215.134C47.7798 215.107 48.6816 215.017 49.5685 214.862C50.4575 214.716 51.3327 214.509 52.1918 214.246C54.0796 213.676 55.9152 212.842 57.5813 211.73C60.3325 211.605 63.0219 211.234 65.3915 210.486L65.4182 211.764C65.4192 211.818 65.4214 211.873 65.4235 211.928L65.4395 212.712C65.4885 215.15 66.4916 217.429 68.2664 219.128C69.9922 220.782 72.2371 221.686 74.6056 221.686C74.6707 221.686 74.7368 221.686 74.8018 221.684L75.6258 221.667C75.6684 221.667 75.711 221.666 75.7537 221.666L106.191 221.04L107.874 221.016L107.873 221.006L108.484 220.993C110.731 220.948 112.792 220.171 114.449 218.897C113.681 220.398 112.787 221.837 111.75 223.198L111.745 223.205C111.491 223.536 111.51 224.013 111.808 224.322C111.82 224.335 111.832 224.347 111.845 224.357C111.143 225.093 110.398 225.793 109.615 226.459L109.614 226.46C109.61 226.463 109.605 226.466 109.602 226.469C104.213 231.045 96.9757 233.998 89.1495 235.368C86.1894 235.886 83.1397 236.179 80.075 236.248C79.6039 236.258 79.1338 236.264 78.6616 236.264ZM118.282 204.751L118.239 202.712H118.457C118.416 203.388 118.365 204.063 118.3 204.737C118.294 204.741 118.287 204.745 118.282 204.751Z" fill="#D7D1DA"/>
<path d="M38.2493 217.765C37.4178 216.59 36.7591 215.306 36.2069 213.947C35.6867 212.594 35.2657 211.203 34.9757 209.803C34.3831 207 34.14 204.166 34.0899 201.354C33.9801 195.727 34.4204 190.151 35.1634 184.634C35.5268 181.875 35.9809 179.131 36.4969 176.4C37.0075 173.669 37.5895 170.951 38.2418 168.25C38.8835 165.547 39.6137 162.863 40.411 160.197C41.2062 157.53 42.0707 154.879 43.0759 152.263C43.416 151.376 44.4116 150.934 45.2984 151.274C46.1619 151.604 46.6053 152.553 46.3164 153.419L46.3122 153.432C45.453 155.992 44.661 158.589 43.934 161.207C43.2113 163.827 42.5589 166.469 41.9364 169.119C41.3256 171.772 40.7639 174.436 40.2511 177.107C39.7438 179.781 39.2961 182.464 38.8995 185.151C38.5062 187.84 38.196 190.537 37.9615 193.233C37.7248 195.929 37.582 198.628 37.5809 201.315C37.5863 204.001 37.7099 206.672 38.0201 209.294C38.148 210.614 38.3911 211.898 38.6544 213.18C38.9443 214.441 39.3248 215.711 39.7768 216.972C39.9378 217.423 39.7022 217.919 39.2513 218.081C38.8761 218.214 38.4689 218.074 38.2493 217.765Z" fill="#371A45"/>
<path d="M92.5691 235.542C90.5268 236.393 88.3821 236.959 86.2097 237.345C84.0373 237.73 81.8318 237.945 79.6242 237.972C77.4177 238.006 75.209 237.86 73.027 237.544C70.8471 237.227 68.6886 236.74 66.6164 235.976L66.6132 235.975C66.1612 235.809 65.931 235.309 66.0972 234.858C66.2305 234.497 66.5791 234.278 66.9447 234.291L73.2935 234.504C75.3924 234.561 77.4838 234.569 79.573 234.538C81.6623 234.502 83.7505 234.434 85.844 234.308L92.1716 233.871C92.6523 233.837 93.0691 234.198 93.1032 234.678C93.1298 235.059 92.9039 235.401 92.5691 235.542Z" fill="#371A45"/>
<path d="M107.498 149.084C111.355 154.518 114.126 160.615 116.342 166.855C118.558 173.104 120.279 179.547 121.254 186.144C122.218 192.73 122.515 199.488 121.527 206.182C121.022 209.52 120.151 212.837 118.764 215.955C117.386 219.068 115.482 221.992 113.028 224.345C112.685 224.675 112.139 224.665 111.809 224.321C111.51 224.011 111.491 223.535 111.745 223.204L111.75 223.196C115.605 218.143 117.48 211.991 118.194 205.735C118.921 199.455 118.497 193.029 117.531 186.706C116.553 180.375 114.998 174.11 113.018 167.982C111.002 161.861 108.634 155.871 106.008 149.942L106.003 149.931C105.81 149.496 106.008 148.986 106.444 148.794C106.827 148.625 107.266 148.757 107.498 149.084Z" fill="#371A45"/>
<path d="M155.176 131.443C155.176 131.443 162.548 122.569 166.723 125.605C169.667 127.745 166.115 132.71 165.657 134.381C165.606 134.964 167.98 137.193 167.218 146.389" fill="white"/>
<path d="M153.851 130.347C154.528 129.486 155.193 128.75 155.932 128.008C156.661 127.273 157.427 126.564 158.255 125.894C159.095 125.238 159.988 124.614 161.012 124.085C162.037 123.574 163.209 123.114 164.653 123.085C165.368 123.072 166.153 123.207 166.867 123.526C167.574 123.853 168.195 124.291 168.731 124.958C169.259 125.614 169.581 126.446 169.673 127.192C169.775 127.945 169.718 128.632 169.603 129.243C169.36 130.467 168.919 131.479 168.478 132.428C168.255 132.9 168.024 133.351 167.809 133.781L167.507 134.394C167.417 134.579 167.337 134.775 167.317 134.833L167.371 134.53C167.381 134.444 167.38 134.356 167.371 134.27L167.359 134.179L167.348 134.124C167.325 134.029 167.321 134.025 167.314 134.005C167.302 133.978 167.31 134.006 167.327 134.045L167.465 134.365C167.576 134.615 167.691 134.889 167.795 135.161C167.999 135.711 168.176 136.268 168.299 136.825C168.543 137.94 168.68 139.039 168.706 140.126C168.744 141.213 168.694 142.284 168.591 143.339C168.474 144.394 168.317 145.435 168.076 146.459C167.965 146.926 167.497 147.215 167.029 147.106C166.651 147.016 166.389 146.693 166.361 146.325V146.317C166.286 145.303 166.236 144.302 166.142 143.314C166.064 142.326 165.941 141.351 165.792 140.401C165.624 139.455 165.444 138.527 165.158 137.668C165.018 137.237 164.87 136.822 164.691 136.424C164.6 136.224 164.506 136.03 164.396 135.819L164.209 135.446C164.173 135.37 164.129 135.279 164.075 135.132C164.047 135.052 164.021 134.988 163.986 134.829L163.966 134.727L163.957 134.676L163.948 134.59C163.937 134.472 163.936 134.35 163.943 134.233C163.95 134.141 163.965 134.053 163.987 133.966L163.998 133.929C164.111 133.516 164.223 133.26 164.33 132.997L164.648 132.278C164.854 131.824 165.052 131.394 165.229 130.973C165.585 130.135 165.872 129.31 165.981 128.604C166.042 128.254 166.04 127.949 166.004 127.733C165.968 127.508 165.902 127.403 165.813 127.296C165.736 127.195 165.535 127.051 165.349 126.975C165.163 126.906 164.964 126.855 164.696 126.863C164.168 126.864 163.445 127.096 162.726 127.461C162 127.818 161.265 128.305 160.554 128.846C159.834 129.38 159.13 129.971 158.452 130.6C158.112 130.914 157.778 131.237 157.452 131.567C157.124 131.885 156.781 132.235 156.501 132.54L156.469 132.573C155.824 133.27 154.736 133.312 154.037 132.668C153.376 132.058 153.307 131.044 153.851 130.347Z" fill="#371A45"/>
<path d="M121.733 201.254C121.733 204.636 118.986 207.379 115.596 207.379C112.207 207.379 109.46 204.636 109.46 201.254C109.46 197.872 112.207 195.13 115.596 195.13C118.986 195.13 121.733 197.872 121.733 201.254Z" fill="white"/>
<path d="M115.596 196.847C113.161 196.847 111.181 198.824 111.181 201.254C111.181 203.684 113.161 205.66 115.596 205.66C118.031 205.66 120.012 203.684 120.012 201.254C120.012 198.824 118.031 196.847 115.596 196.847ZM115.596 209.096C111.264 209.096 107.74 205.577 107.74 201.254C107.74 196.93 111.264 193.411 115.596 193.411C119.929 193.411 123.453 196.93 123.453 201.254C123.453 205.577 119.929 209.096 115.596 209.096Z" fill="#371A45"/>
<path d="M109.399 219.256L74.7666 219.965C70.6681 220.05 67.2421 216.771 67.1568 212.675L66.7795 194.28C66.7048 190.694 69.2162 187.63 72.5964 186.866C73.075 186.755 73.5728 186.696 74.0834 186.685L108.711 185.975C112.816 185.889 116.242 189.169 116.322 193.265L116.625 207.834L116.704 211.66C116.79 215.756 113.498 219.17 109.399 219.256Z" fill="white"/>
<path d="M109.399 219.256L74.7666 219.965C70.6681 220.05 67.2421 216.771 67.1568 212.675L66.7795 194.28C66.7048 190.694 69.2162 187.63 72.5964 186.866C73.075 186.755 73.5728 186.696 74.0834 186.685L108.711 185.975C112.816 185.889 116.242 189.169 116.322 193.265L116.625 207.834L116.704 211.66C116.79 215.756 113.498 219.17 109.399 219.256Z" fill="white"/>
<path d="M109.399 219.256L74.7666 219.965C70.6681 220.05 67.2421 216.771 67.1568 212.675L66.7795 194.28C66.7048 190.694 69.2162 187.63 72.5964 186.866C73.075 186.755 73.5728 186.696 74.0834 186.685L108.711 185.975C112.816 185.889 116.242 189.169 116.322 193.265L116.625 207.834L116.704 211.66C116.79 215.756 113.498 219.17 109.399 219.256Z" fill="white"/>
<path d="M83.4754 217.938C81.9926 217.938 80.5899 217.374 79.5079 216.336C78.3972 215.272 77.7693 213.849 77.7384 212.327L77.4165 196.665C77.8194 198.092 78.2906 199.412 78.8491 200.623C78.6189 201.428 78.4995 202.294 78.5134 203.196C78.5411 205.13 79.17 206.954 80.2818 208.328C81.4501 209.773 83.0085 210.566 84.6778 210.566C84.7034 210.566 84.73 210.566 84.7556 210.565L87.4535 210.525C88.2509 210.514 88.9693 210.158 89.4575 209.593C92.39 210.445 95.9662 210.87 100.35 210.87C100.445 210.87 100.541 210.87 100.637 210.87C107.225 210.84 111.776 209.933 114.92 208.658L114.964 210.748C115.039 214.428 112.101 217.483 108.413 217.56L105.66 217.616L105.552 217.618C105.513 217.617 105.473 217.617 105.434 217.617C105.331 217.617 105.23 217.619 105.136 217.62L83.5894 217.936C83.5511 217.936 83.5138 217.938 83.4754 217.938Z" fill="#D7D1DA"/>
<path d="M107.938 187.708C107.891 187.708 107.845 187.708 107.799 187.709L75.0684 188.38C71.3813 188.457 68.4435 191.513 68.5192 195.193L68.8593 211.693C68.9349 215.373 72.0038 218.314 75.6835 218.231L108.414 217.559C112.101 217.483 115.04 214.427 114.964 210.747L114.624 194.247C114.548 190.612 111.562 187.708 107.938 187.708ZM75.7187 219.948H75.724H75.7187ZM75.5439 221.666C70.0531 221.667 65.5313 217.267 65.4183 211.763L65.0783 195.263C64.9643 189.689 69.4135 185.062 74.9981 184.947L107.728 184.275C113.321 184.136 117.95 188.603 118.064 194.177L118.404 210.677C118.519 216.251 114.068 220.878 108.484 220.993L75.7538 221.665C75.6846 221.666 75.6131 221.666 75.5439 221.666Z" fill="#371A45"/>
<path d="M97.1477 219.379L97.0806 219.511L74.7648 219.967C71.761 220.026 69.1206 218.285 67.8926 215.731C67.4417 214.805 67.1816 213.772 67.1614 212.676L66.9898 204.504L66.9333 201.807L66.8395 197.073L66.7808 194.282C66.6977 190.185 69.983 186.771 74.0826 186.685L81.5656 186.535C78.1301 187.254 75.5675 190.344 75.6389 193.963L75.7498 199.423L75.8446 203.9L76.0152 212.367C76.1037 216.454 79.5286 219.736 83.6261 219.656L97.1477 219.379Z" fill="white"/>
<path d="M74.5727 218.252C73.1081 218.252 71.7202 217.676 70.6489 216.65C69.5382 215.586 68.9104 214.163 68.8795 212.642L68.7942 208.51C69.8228 207.295 71.4793 204.869 71.5134 201.813C71.5284 200.567 71.2789 199.357 70.7694 198.193C71.022 198.466 71.2544 198.796 71.458 199.192C72.1743 200.582 72.8928 201.115 73.5718 201.115C73.7381 201.115 73.9033 201.084 74.0643 201.024L74.2988 212.396C74.3414 214.557 75.1345 216.593 76.5501 218.212L74.7305 218.25C74.6772 218.251 74.625 218.252 74.5727 218.252Z" fill="#D7D1DA"/>
<path d="M75.7205 188.367L74.1195 188.399C70.9557 188.466 68.4337 191.088 68.5008 194.244L68.8792 212.642C68.9102 214.164 69.538 215.586 70.6487 216.65C71.7584 217.714 73.2081 218.293 74.7303 218.25L76.5498 218.212C75.1343 216.594 74.3412 214.557 74.2986 212.397L73.9201 194.001C73.8764 191.914 74.5448 189.951 75.7205 188.367ZM74.6055 221.686C72.237 221.686 69.9921 220.781 68.2663 219.128C66.4915 217.429 65.4884 215.15 65.4394 212.711L65.0599 194.315C64.9533 189.267 68.9858 185.072 74.0481 184.966L81.53 184.813L81.9191 188.212C79.2211 188.778 77.3035 191.183 77.36 193.93L77.7384 212.327C77.7693 213.849 78.3971 215.272 79.5079 216.336C80.6175 217.4 82.064 217.965 83.5894 217.936L105.136 217.62C105.268 217.618 105.408 217.615 105.552 217.618L106.084 217.608L106.085 217.642C106.966 217.721 107.829 218.048 107.847 219.298L107.874 221.015L106.146 221.041L74.8017 221.683C74.7367 221.686 74.6706 221.686 74.6055 221.686Z" fill="#371A45"/>
<path d="M89.4865 203.033C89.4971 203.714 88.6199 209.219 88.6199 209.219C88.6199 209.219 86.877 209.245 84.7366 209.277C82.0632 209.316 79.8535 206.585 79.8034 203.176C79.7533 199.768 81.8798 196.972 84.5533 196.932C86.3579 196.906 88.4365 196.875 88.4365 196.875C88.4365 196.875 89.4705 201.924 89.4865 203.033Z" fill="#22A7F0"/>
<path d="M89.4865 203.033C89.4971 203.714 88.6199 209.219 88.6199 209.219C88.6199 209.219 86.877 209.245 84.7366 209.277C82.0632 209.316 79.8535 206.585 79.8034 203.176C79.7533 199.768 81.8798 196.972 84.5533 196.932C86.3579 196.906 88.4365 196.875 88.4365 196.875C88.4365 196.875 89.4705 201.924 89.4865 203.033Z" fill="#1C7AEA"/>
<path d="M87.2863 198.179H87.2852L84.5724 198.219C82.6473 198.248 81.0547 200.508 81.0942 203.156C81.1144 204.518 81.5387 205.78 82.2902 206.71C82.9681 207.546 83.8443 207.98 84.7173 207.989L87.4142 207.948C87.4718 207.947 87.5197 207.907 87.5283 207.853C88.0111 204.731 88.1902 203.314 88.1966 203.045C88.1881 202.661 87.976 201.209 87.4004 198.273C87.3897 198.218 87.3417 198.179 87.2863 198.179ZM84.6779 210.564C83.0086 210.564 81.4502 209.772 80.2819 208.327C79.1701 206.952 78.5412 205.129 78.5135 203.195C78.4517 199.081 81.1528 195.693 84.5351 195.643L87.2458 195.604C87.2596 195.604 87.2735 195.603 87.2874 195.603C88.5761 195.603 89.6858 196.512 89.9331 197.779C90.4831 200.586 90.7677 202.348 90.7773 203.013V203.014C90.7794 203.194 90.7869 203.673 90.078 208.245C89.8776 209.545 88.7733 210.504 87.4536 210.524L84.7557 210.563C84.7301 210.564 84.7035 210.564 84.6779 210.564Z" fill="#371A45"/>
<path d="M93.3706 202.974C93.4207 206.383 91.2941 209.179 88.6196 209.218C85.9462 209.258 83.7376 206.527 83.6864 203.118C83.6363 199.709 85.7629 196.913 88.4363 196.874C91.1108 196.834 93.3194 199.565 93.3706 202.974Z" fill="#22A7F0"/>
<path d="M93.3023 204.133C93.3481 203.791 93.3716 203.441 93.3705 203.084C93.3716 203.441 93.3492 203.791 93.3023 204.133ZM93.2916 201.974C93.0422 200.235 92.2248 198.748 91.0972 197.837C92.2248 198.748 93.0422 200.234 93.2916 201.974Z" fill="white"/>
<path d="M85.4636 198.24C85.4743 198.229 85.4849 198.218 85.4955 198.207C85.4849 198.218 85.4743 198.229 85.4636 198.24Z" fill="#BAD7F9"/>
<path d="M85.4958 198.207C86.243 197.447 87.1723 196.965 88.1923 196.887C87.1723 196.967 86.243 197.447 85.4958 198.207Z" fill="#C3BAC7"/>
<path d="M93.2548 204.434C92.919 201.409 90.8777 199.085 88.426 199.085C88.4079 199.085 88.3877 199.085 88.3685 199.086C86.0873 199.12 84.2081 201.16 83.7348 203.872C83.7071 203.626 83.6921 203.377 83.6879 203.12C83.6591 201.151 84.3552 199.386 85.4637 198.239C85.4744 198.228 85.4851 198.217 85.4957 198.207C86.243 197.447 87.1725 196.966 88.1926 196.886C88.2736 196.88 88.3546 196.876 88.4378 196.874C88.4559 196.874 88.474 196.874 88.4932 196.874C89.4483 196.874 90.3416 197.227 91.0973 197.836C92.2251 198.748 93.0427 200.234 93.2921 201.974C93.339 202.299 93.3657 202.633 93.3699 202.974C93.371 203.011 93.371 203.047 93.371 203.083C93.3721 203.441 93.3486 203.791 93.3028 204.133C93.2889 204.234 93.2729 204.334 93.2548 204.434Z" fill="#BCE4FA"/>
<path d="M83.6877 203.12C83.7389 206.525 85.9465 209.259 88.621 209.22C91.2965 209.178 93.421 206.384 93.3698 202.974C93.3634 202.438 93.3016 201.914 93.1918 201.421C92.5202 203.731 90.7902 205.381 88.7382 205.411C86.4891 205.447 84.564 203.517 83.983 200.869C83.7826 201.567 83.6771 202.326 83.6877 203.12Z" fill="#1C7AEA"/>
<path d="M88.494 198.163C88.4812 198.163 88.4684 198.163 88.4556 198.163C86.5305 198.192 84.938 200.453 84.9774 203.1C85.0158 205.73 86.6552 207.931 88.5644 207.931C88.5772 207.931 88.5889 207.931 88.6006 207.931C90.5257 207.902 92.1193 205.641 92.0799 202.994C92.0596 201.632 91.6343 200.37 90.8839 199.441C90.2155 198.615 89.3681 198.163 88.494 198.163ZM88.5633 210.508C85.2162 210.508 82.4575 207.22 82.3968 203.138C82.336 199.024 85.0361 195.637 88.4183 195.587C90.1207 195.545 91.7057 196.356 92.8921 197.823C94.0039 199.198 94.6318 201.021 94.6606 202.956C94.7213 207.07 92.0202 210.457 88.639 210.507C88.6145 210.508 88.5889 210.508 88.5633 210.508Z" fill="#371A45"/>
<path d="M98.6314 220.631H98.6272C97.9141 220.629 97.3385 220.051 97.3406 219.339L97.3694 210.03C97.3779 207.434 98.6794 205.032 100.853 203.604C102.337 202.63 103.204 200.991 103.173 199.219L102.95 186.098C102.937 185.388 103.505 184.801 104.217 184.789C104.925 184.774 105.518 185.344 105.53 186.055L105.754 199.175C105.8 201.835 104.498 204.294 102.272 205.756C100.824 206.707 99.9554 208.309 99.95 210.039L99.9213 219.348C99.9191 220.057 99.3424 220.631 98.6314 220.631Z" fill="#371A45"/>
<path d="M39.9526 194.39C39.9526 194.39 35.968 195.848 35.2304 199.843C34.3734 204.478 37.8132 207.862 37.8132 207.862C37.8132 207.862 57.1198 212.654 66.8392 208.088C66.8392 208.088 73.5269 202.009 66.7795 195.587C66.7795 195.587 47.7596 198.061 39.9526 194.39Z" fill="white"/>
<path d="M61.7429 207.852C62.1448 207.317 62.504 206.748 62.8483 206.174C63.2875 205.355 63.7021 204.514 63.9857 203.628C64.1317 203.245 64.2309 202.85 64.3353 202.456C65.6582 202.225 66.9139 201.903 68.0672 201.473C68.0715 201.566 68.0736 201.657 68.0736 201.75C68.0566 204.142 66.3809 206.09 65.8436 206.653C64.6199 207.194 63.231 207.583 61.7429 207.852Z" fill="#D7D1DA"/>
<path d="M38.7301 206.312C41.7436 206.997 57.5549 210.321 65.8437 206.652C66.381 206.09 68.0567 204.142 68.0737 201.75C68.0833 200.262 67.4363 198.799 66.1454 197.392C62.3858 197.822 47.5445 199.266 39.9784 196.27C39.0574 196.764 37.3263 197.967 36.9223 200.153C36.3754 203.115 38.0341 205.477 38.7301 206.312ZM55.3451 211.777C46.6086 211.777 37.9392 209.662 37.3987 209.528L36.9414 209.414L36.6057 209.085C36.4394 208.921 32.5273 204.998 33.5379 199.53C34.4439 194.627 39.1608 192.85 39.3612 192.777L40.0359 192.53L40.6862 192.835C47.9453 196.248 66.3714 193.907 66.5569 193.883L67.3712 193.777L67.966 194.343C70.3516 196.612 71.5445 199.125 71.5135 201.813C71.4645 206.156 68.1387 209.228 67.998 209.357L67.8061 209.53L67.5716 209.641C64.1691 211.24 59.7475 211.777 55.3451 211.777Z" fill="#371A45"/>
<path d="M62.8015 201.498C62.7887 201.566 62.7717 201.639 62.7546 201.713C60.3168 212.294 46.5745 215.45 40.877 212.222C36.7379 209.875 37.2805 204.772 37.2805 204.772C37.2805 204.772 8.51686 206.289 5.08012 183.779C4.42136 179.481 5.02853 175.101 6.64782 170.82C6.65219 170.803 6.65646 170.794 6.65646 170.794C12.5694 155.169 31.9709 140.843 52.7112 136.376L43.2029 164.011C41.5059 166.517 39.8825 170.021 38.7493 171.8C40.5412 172.362 42.6646 173.08 42.6646 173.08C54.3474 177.4 66.51 184.91 62.8015 201.498Z" fill="white"/>
<path d="M47.0829 152.74C47.0819 152.74 47.0819 152.74 47.0808 152.739L49.8284 144.755V144.756L47.0829 152.74Z" fill="#B8B2BB"/>
<path d="M47.0809 152.74C41.6658 151.011 36.8285 148.654 32.8003 145.815C35.7189 144.169 38.7494 142.72 41.8641 141.484C43.5409 142.289 45.2432 143.029 46.9658 143.702C47.9145 144.074 48.8674 144.425 49.8289 144.756L47.0809 152.74Z" fill="#D7D1DA"/>
<path d="M46.2566 211.711C44.9487 211.711 43.6621 211.517 42.5546 211.109C41.3213 210.654 40.3768 209.85 39.7788 208.74C39.4782 208.187 39.2608 207.563 39.1297 206.901C39.0646 206.571 39.0199 206.232 38.9953 205.892C38.9836 205.722 38.9772 205.553 38.9762 205.386C38.9751 205.235 38.9836 205.024 38.99 204.955L38.9911 204.938C38.9964 204.87 38.9985 204.802 38.9953 204.733C38.9602 203.794 38.1874 203.058 37.2546 203.058C37.2333 203.058 37.2109 203.059 37.1875 203.059C36.8475 203.072 36.4925 203.078 36.1301 203.078C35.3583 203.078 34.5535 203.052 33.7775 203.008C32.622 202.942 31.4676 202.835 30.3196 202.685C28.0235 202.385 25.7541 201.92 23.5582 201.258C19.1812 199.94 15.0441 197.792 12.0088 194.569C10.491 192.968 9.26057 191.118 8.37466 189.099C7.48821 187.085 6.92911 184.889 6.66976 182.68C6.6008 182.067 6.55997 181.451 6.5459 180.834C7.71461 185.708 11.0436 191.326 19.4469 195.175C26.4288 198.372 31.862 199.106 35.3807 199.106C38.3739 199.106 39.9814 198.575 39.9814 198.575C39.9814 198.575 41.0558 208.507 49.9864 208.507C50.2422 208.507 50.5045 208.5 50.7731 208.483C54.3057 208.263 57.221 206.899 59.5203 205.021C59.2463 205.451 58.9543 205.87 58.6142 206.256C56.7531 208.487 54.0786 210.093 51.1931 210.959C49.753 211.4 48.2478 211.656 46.7651 211.701C46.5945 211.708 46.4251 211.711 46.2566 211.711Z" fill="#D7D1DA"/>
<path d="M53.0724 138.056C43.9297 140.049 35.1559 143.88 27.4213 149.159C23.5583 151.805 19.9529 154.826 16.7861 158.23C13.6264 161.632 10.9009 165.438 9.01675 169.593C7.13832 173.734 6.1731 178.267 6.66984 182.68C6.92918 184.889 7.48828 187.085 8.37473 189.099C9.26064 191.118 10.4911 192.968 12.0089 194.569C15.0442 197.792 19.1813 199.94 23.5583 201.258C25.7541 201.92 28.0236 202.385 30.3196 202.685C31.4677 202.835 32.6221 202.942 33.7776 203.008C34.9192 203.072 36.1216 203.1 37.1876 203.059C38.1501 203.023 38.9592 203.772 38.9954 204.733C38.9986 204.802 38.9965 204.87 38.9912 204.938L38.9901 204.955C38.9837 205.024 38.9752 205.235 38.9762 205.386C38.9773 205.553 38.9837 205.722 38.9954 205.892C39.0199 206.232 39.0647 206.571 39.1297 206.901C39.2609 207.563 39.4783 208.187 39.7789 208.741C40.3769 209.85 41.3213 210.655 42.5547 211.109C43.805 211.571 45.2846 211.758 46.7652 211.701C48.2479 211.656 49.753 211.4 51.1931 210.959C54.0787 210.093 56.7532 208.487 58.6143 206.256C59.0951 205.711 59.4799 205.098 59.854 204.484C60.1877 203.849 60.5138 203.205 60.7302 202.517C60.8613 202.182 60.9392 201.827 61.0372 201.48C61.13 201.128 61.1961 200.725 61.2781 200.349C61.3645 199.969 61.421 199.586 61.4764 199.203C61.5329 198.82 61.599 198.438 61.6256 198.054C61.9678 194.992 61.664 191.915 60.5575 189.136C59.4564 186.354 57.5622 183.911 55.2288 181.891C52.8944 179.863 50.1549 178.233 47.2704 176.865C45.8293 176.179 44.3359 175.555 42.8403 174.984C41.3672 174.413 39.7491 173.998 38.2151 173.488C37.276 173.175 36.7676 172.161 37.081 171.223C37.1215 171.1 37.1748 170.987 37.2377 170.879L37.2537 170.854C37.5905 170.29 37.9838 169.674 38.3921 169.06C38.7929 168.44 39.2044 167.809 39.6318 167.181C40.0582 166.552 40.5155 165.935 40.9749 165.316C41.4439 164.702 41.9407 164.1 42.4875 163.532C42.8211 163.184 43.3744 163.173 43.7219 163.506C43.9916 163.765 44.0587 164.155 43.9191 164.479L43.9137 164.492C43.6227 165.164 43.3424 165.84 43.0599 166.52L42.2199 168.575C41.9353 169.263 41.6465 169.953 41.3352 170.648C41.0293 171.348 40.7042 172.045 40.2458 172.749L39.2832 170.114C40.0816 170.372 40.8704 170.657 41.6624 170.929C42.4576 171.2 43.2443 171.45 44.0566 171.771C45.648 172.378 47.2043 173.03 48.7489 173.762C51.8263 175.225 54.828 176.992 57.4876 179.3C60.1397 181.591 62.4262 184.499 63.7575 187.873C65.1006 191.239 65.4396 194.929 65.0484 198.411C65.0154 198.851 64.9429 199.282 64.8789 199.715C64.816 200.148 64.751 200.581 64.6561 201.005C64.5634 201.436 64.4952 201.849 64.3801 202.294C64.2575 202.742 64.1519 203.193 63.9857 203.63C63.7021 204.516 63.2875 205.356 62.8483 206.175C62.3707 206.973 61.8644 207.759 61.2568 208.456C58.868 211.307 55.6168 213.212 52.1919 214.246C51.3328 214.509 50.4576 214.717 49.5686 214.862C48.6818 215.018 47.78 215.107 46.8707 215.135C45.0543 215.193 43.1846 215 41.3299 214.32C40.4036 213.975 39.4826 213.454 38.6927 212.782C37.9028 212.105 37.2355 211.277 36.7537 210.378C36.2666 209.48 35.9447 208.526 35.7549 207.57C35.6601 207.091 35.5961 206.612 35.562 206.129C35.546 205.887 35.5364 205.645 35.5353 205.399C35.5364 205.138 35.5375 204.936 35.5684 204.594L37.3698 206.489C36.0374 206.539 34.8382 206.504 33.5825 206.437C32.3428 206.367 31.1063 206.251 29.8741 206.09C27.4106 205.768 24.9632 205.269 22.5625 204.547C20.1644 203.82 17.8096 202.872 15.5902 201.619C13.3712 200.372 11.2865 198.814 9.50794 196.929C7.72524 195.051 6.26264 192.851 5.22451 190.481C4.18212 188.106 3.54862 185.607 3.24972 183.06C2.67048 177.914 3.80764 172.744 5.879 168.182C7.9606 163.598 10.9041 159.513 14.2622 155.896C17.6298 152.277 21.4248 149.102 25.4749 146.327C33.5868 140.794 42.7284 136.798 52.3465 134.699C53.2749 134.496 54.1927 135.084 54.3953 136.01C54.5978 136.936 54.0105 137.852 53.082 138.054H53.0809L53.0724 138.056Z" fill="#371A45"/>
<path d="M148.613 66.6318C148.647 66.9818 148.681 67.3329 148.705 67.6861C149.706 79.4392 147.809 91.5242 142.802 102.857C141.75 105.237 140.569 107.581 139.243 109.878C138.601 110.999 137.917 112.11 137.208 113.218C135.051 116.544 132.669 119.641 130.091 122.505C127.872 124.977 125.505 127.273 123.021 129.386C120.028 131.941 116.85 134.23 113.535 136.254C112.319 136.985 111.094 137.686 109.851 138.351C87.0773 150.5 58.6441 150.533 35.4585 135.99C23.5795 128.545 14.6417 118.258 8.96698 106.575C-1.68798 84.6672 -0.87348 57.8523 13.4955 35.6878C17.7399 29.1426 22.8579 23.4709 28.6033 18.7503C29.2685 18.1907 29.955 17.6534 30.6478 17.1278C32.5015 15.7054 34.4053 14.3829 36.3635 13.1541C40.8949 10.3156 45.7012 7.98991 50.675 6.19508C55.6477 4.39708 60.7994 3.12672 66.0237 2.41072C67.6855 2.18091 69.3537 2.00856 71.0294 1.89259C73.5482 1.72131 76.0681 1.67133 78.604 1.75858C91.2175 2.1586 103.864 5.78015 115.244 12.9126C134.894 25.2264 146.488 45.3152 148.613 66.6318Z" fill="white"/>
<path d="M148.614 66.6323C149.813 78.7183 147.96 91.1853 142.804 102.856C141.749 105.236 140.569 107.58 139.243 109.88C138.599 111.001 137.914 112.11 137.207 113.218C136.672 114.046 136.121 114.857 135.556 115.653C134.825 116.148 134.072 116.625 133.294 117.092C80.5686 148.754 37.1129 103.798 37.1129 103.798C37.1129 103.798 17.6778 44.4231 70.4026 12.7621C71.3982 12.1641 72.3938 11.6088 73.3915 11.0938C86.5923 4.27628 102.503 4.95826 115.104 12.8259C115.15 12.8546 115.196 12.8833 115.242 12.9121C134.893 25.2269 146.493 45.3189 148.614 66.6323Z" fill="#371A45"/>
<path d="M74.577 145.455C62.9954 145.455 51.466 142.703 41.0527 137.23C39.4645 136.396 37.9039 135.499 36.3721 134.538C35.6334 134.074 34.9054 133.601 34.188 133.114C37.9711 132.152 42.6112 130.86 44.0832 129.976C45.9753 128.84 47.6126 127.383 48.9642 125.657C52.6716 127.841 56.8427 129.997 61.4146 131.904C68.7665 134.971 78.279 137.563 89.4342 137.563C97.4161 137.563 106.239 136.236 115.71 132.806C114.705 133.49 113.68 134.15 112.64 134.784C111.442 135.51 110.231 136.2 109.041 136.837C98.2454 142.594 86.3846 145.455 74.577 145.455ZM89.4215 134.119C78.795 134.118 69.7376 131.654 62.7417 128.736C58.367 126.91 54.3772 124.855 50.8275 122.77C51.8924 120.749 52.6482 118.475 53.0639 116.004C63.2288 122.181 77.6533 128.387 94.5903 128.387C96.8853 128.387 99.2282 128.272 101.611 128.028C111.033 127.064 121.111 124.078 131.567 118.105C130.681 119.215 129.759 120.301 128.807 121.358C128.792 121.376 128.776 121.394 128.76 121.412C128.747 121.427 128.732 121.443 128.718 121.459C128.717 121.461 128.715 121.462 128.713 121.464C128.699 121.48 128.684 121.497 128.669 121.513C128.668 121.514 128.667 121.515 128.666 121.517C128.652 121.532 128.637 121.548 128.623 121.563C128.621 121.566 128.619 121.568 128.617 121.57C128.603 121.586 128.589 121.601 128.575 121.616C128.573 121.618 128.571 121.621 128.569 121.623C128.555 121.638 128.541 121.653 128.528 121.669C128.525 121.671 128.523 121.673 128.521 121.677C128.507 121.691 128.493 121.706 128.479 121.722C128.477 121.724 128.475 121.727 128.473 121.73C128.459 121.745 128.446 121.76 128.432 121.774C128.429 121.777 128.427 121.78 128.424 121.783C128.411 121.798 128.397 121.813 128.383 121.828C128.381 121.83 128.379 121.833 128.376 121.835C128.363 121.85 128.349 121.865 128.335 121.88C128.333 121.883 128.33 121.886 128.327 121.889C128.314 121.903 128.301 121.918 128.287 121.932C128.284 121.936 128.281 121.939 128.278 121.943C128.265 121.956 128.252 121.97 128.24 121.984C128.236 121.988 128.232 121.993 128.228 121.998C128.216 122.011 128.203 122.025 128.191 122.037C128.187 122.042 128.183 122.047 128.178 122.051C128.167 122.064 128.155 122.077 128.143 122.089C128.138 122.095 128.133 122.101 128.126 122.106C128.116 122.118 128.105 122.13 128.094 122.143C128.088 122.149 128.081 122.156 128.075 122.163C128.065 122.173 128.056 122.184 128.046 122.195C128.038 122.203 128.029 122.213 128.021 122.221C128.012 122.23 128.005 122.238 127.996 122.248C127.982 122.263 127.967 122.279 127.954 122.294C127.951 122.296 127.95 122.298 127.948 122.299C127.727 122.538 127.503 122.776 127.277 123.012C126.747 123.565 126.206 124.112 125.656 124.651C112.325 131.638 100.081 134.119 89.4215 134.119Z" fill="#D7D1DA"/>
<path d="M94.5903 128.389C77.6534 128.389 63.2289 122.183 53.064 116.006C53.064 116.005 53.064 116.005 53.064 116.005C63.2289 122.182 77.6555 128.39 94.5925 128.388C96.8875 128.388 99.2283 128.274 101.611 128.03C99.2283 128.274 96.8853 128.389 94.5903 128.389ZM102.607 107.752C86.536 107.752 72.5539 102.578 61.9487 96.7968C63.5668 96.267 64.6466 94.4647 64.4366 92.4635C64.3908 92.0252 64.2853 91.6092 64.1328 91.2251L147.02 68.1573C147.169 70.0107 147.241 71.8682 147.241 73.7237C147.24 76.3335 147.093 78.9401 146.803 81.5307C146.25 86.4566 145.177 91.324 143.601 96.0404C129.063 104.58 115.195 107.753 102.607 107.752ZM57.4951 94.0923C57.1444 93.853 56.798 93.6093 56.4558 93.3614L57.315 93.1221C57.3182 93.1636 57.3225 93.204 57.3267 93.2444C57.3576 93.5381 57.4141 93.821 57.4951 94.0923Z" fill="#371A45"/>
<path d="M76.1726 1.89148C74.4852 1.89148 72.768 1.94998 71.0433 2.06702C69.4038 2.17979 67.7239 2.35431 66.0482 2.58517C60.8335 3.298 55.6818 4.56828 50.7358 6.35991C45.7375 8.16219 40.9343 10.4986 36.4584 13.302C34.5109 14.5233 32.5922 15.8564 30.7545 17.265C30.0317 17.813 29.3453 18.3566 28.7142 18.8854C22.8781 23.6783 17.8062 29.3628 13.639 35.7825C2.96823 52.2465 -0.590555 71.7587 3.61783 90.7219C7.79264 109.534 19.1327 125.561 35.5491 135.848C57.8435 149.827 86.2832 150.729 109.769 138.202C111.004 137.542 112.239 136.836 113.443 136.108C116.787 134.069 119.973 131.763 122.912 129.256C125.424 127.115 127.796 124.805 129.961 122.39C132.551 119.516 134.94 116.399 137.061 113.127C137.836 111.916 138.501 110.826 139.092 109.795C140.387 107.547 141.583 105.19 142.644 102.79C147.659 91.4443 149.662 78.9476 148.439 66.6498C146.232 44.4661 134.099 24.9337 115.151 13.0615C104.193 6.19078 91.5533 2.34261 78.5966 1.933C77.7971 1.90533 76.9881 1.89148 76.1726 1.89148ZM74.578 147.348C60.8783 147.348 47.2544 143.595 35.3647 136.141C18.8696 125.803 7.47466 109.7 3.2795 90.7964C-0.949038 71.7417 2.6268 52.138 13.3482 35.5941C17.535 29.1447 22.6303 23.4336 28.4925 18.6194C29.1267 18.0885 29.8175 17.5406 30.5445 16.9906C32.3896 15.5755 34.3169 14.2361 36.274 13.0094C40.7712 10.1922 45.5968 7.84515 50.6174 6.03438C55.5869 4.23531 60.7621 2.95967 66.0013 2.24153C67.6834 2.01065 69.3718 1.8351 71.0198 1.72234C73.5909 1.54785 76.1438 1.50211 78.6083 1.58722C91.6247 1.99895 104.326 5.8652 115.335 12.7679C134.375 24.6986 146.566 44.3246 148.783 66.6158C150.012 78.972 148 91.5294 142.962 102.928C141.895 105.34 140.694 107.708 139.392 109.967C138.798 111.002 138.131 112.097 137.352 113.314C135.22 116.603 132.821 119.734 130.219 122.621C128.044 125.047 125.661 127.367 123.136 129.519C120.184 132.038 116.983 134.354 113.623 136.403C112.414 137.135 111.172 137.843 109.932 138.507C98.8604 144.412 86.6893 147.348 74.578 147.348Z" fill="#371A45"/>
<path d="M76.1717 3.0488C74.5109 3.0488 72.8203 3.10626 71.1223 3.22223C69.5105 3.33287 67.8562 3.50414 66.2061 3.73074C61.0724 4.43399 56.0006 5.6841 51.1314 7.44701C46.2098 9.22162 41.4813 11.5218 37.0757 14.2816C35.1591 15.4838 33.2702 16.7956 31.4624 18.183C30.7482 18.7234 30.0766 19.2554 29.4594 19.7714C23.7076 24.4952 18.7157 30.0914 14.6132 36.411C4.11286 52.6133 0.610251 71.8117 4.75106 90.4695C8.85818 108.977 20.015 124.744 36.1664 134.866C58.1102 148.623 86.1032 149.51 109.223 137.18C110.437 136.528 111.655 135.834 112.842 135.116C116.129 133.111 119.265 130.842 122.157 128.375C124.631 126.266 126.965 123.992 129.096 121.617C131.647 118.786 133.999 115.717 136.087 112.497C136.848 111.307 137.502 110.233 138.084 109.219C139.36 107.003 140.537 104.682 141.584 102.32C146.516 91.1579 148.487 78.8622 147.284 66.7623C145.113 44.9393 133.176 25.7229 114.534 14.0412C103.75 7.27892 91.3104 3.49246 78.5605 3.08925C77.7727 3.06158 76.9754 3.0488 76.1717 3.0488ZM74.577 148.504C60.6631 148.504 46.8238 144.692 34.7476 137.121C17.9874 126.617 6.40925 110.254 2.1465 91.0462C-2.14961 71.6861 1.48231 51.7697 12.374 34.9641C16.6259 28.4136 21.8008 22.6131 27.755 17.7234C28.3956 17.1871 29.1023 16.6265 29.8442 16.0658C31.7107 14.6338 33.6689 13.273 35.6569 12.0272C40.2234 9.16629 45.1247 6.78206 50.2232 4.9436C55.2683 3.11687 60.5235 1.82104 65.8426 1.09332C67.5513 0.8582 69.2664 0.680511 70.94 0.565598C73.5516 0.387924 76.144 0.342194 78.649 0.428375C91.8679 0.846497 104.768 4.77339 115.953 11.7867C135.298 23.9079 147.685 43.8509 149.938 66.4995C151.187 79.0548 149.142 91.8133 144.024 103.395C142.94 105.844 141.72 108.249 140.398 110.543C139.796 111.592 139.119 112.703 138.331 113.936C136.161 117.281 133.724 120.461 131.082 123.394C128.875 125.856 126.454 128.214 123.889 130.398C120.891 132.957 117.64 135.309 114.228 137.39C112.998 138.135 111.739 138.853 110.483 139.527C99.2379 145.524 86.8781 148.504 74.577 148.504Z" fill="#371A45"/>
<path d="M76.1717 3.43445C74.5184 3.43445 72.8373 3.49297 71.1478 3.60786C69.5457 3.71745 67.8999 3.88765 66.2594 4.11427C61.1524 4.81326 56.1072 6.05699 51.2624 7.81033C46.3676 9.57643 41.6635 11.8638 37.2803 14.6098C35.3755 15.8046 33.4962 17.11 31.6979 18.4888C30.9859 19.0272 30.3196 19.5559 29.7078 20.0677C23.9836 24.7691 19.0185 30.3355 14.9379 36.6211C4.49446 52.7352 1.0105 71.8303 5.1286 90.3871C9.21344 108.793 20.3091 124.474 36.3721 134.539C58.1975 148.224 86.0424 149.106 109.04 136.84C110.248 136.193 111.46 135.501 112.641 134.786C115.91 132.793 119.029 130.535 121.905 128.082C124.367 125.983 126.689 123.723 128.807 121.36C131.345 118.542 133.684 115.491 135.762 112.287C136.518 111.106 137.17 110.036 137.748 109.027C139.019 106.822 140.19 104.515 141.23 102.165C146.136 91.0637 148.096 78.8351 146.899 66.8012C144.74 45.0973 132.869 25.9862 114.329 14.3683C103.602 7.64328 91.2293 3.87595 78.5477 3.47592C77.7642 3.44826 76.9711 3.43445 76.1717 3.43445ZM74.577 148.891C60.5927 148.891 46.6799 145.058 34.5419 137.448C17.6934 126.89 6.05438 110.44 1.76882 91.1297C-2.5499 71.6685 1.1011 51.6478 12.0492 34.755C16.3229 28.1715 21.5241 22.3413 27.5098 17.426C28.1526 16.8876 28.8636 16.3238 29.6108 15.7588C31.4847 14.3204 33.4535 12.9533 35.4511 11.701C40.0411 8.82423 44.9669 6.42937 50.091 4.58134C55.1617 2.74504 60.4446 1.44279 65.7903 0.710831C67.5076 0.47464 69.2312 0.296951 70.9133 0.180984C73.5377 0.00224304 76.1439 -0.0435028 78.6617 0.0426788C91.9488 0.462921 104.916 4.41112 116.159 11.4595C135.606 23.6456 148.059 43.6929 150.324 66.4618C151.578 79.083 149.523 91.9084 144.378 103.551C143.288 106.013 142.061 108.43 140.733 110.735C140.13 111.791 139.449 112.907 138.656 114.144C136.476 117.509 134.025 120.705 131.369 123.652C129.151 126.127 126.718 128.498 124.141 130.692C121.127 133.264 117.859 135.629 114.43 137.721C113.193 138.469 111.928 139.19 110.665 139.866C99.3626 145.895 86.9421 148.891 74.577 148.891Z" fill="#371A45"/>
<path d="M76.1717 3.43445C74.5184 3.43445 72.8373 3.49297 71.1478 3.60786C69.5457 3.71745 67.8999 3.88765 66.2594 4.11427C61.1524 4.81326 56.1072 6.05699 51.2624 7.81033C46.3676 9.57643 41.6635 11.8638 37.2803 14.6098C35.3755 15.8046 33.4962 17.11 31.6979 18.4888C30.9859 19.0272 30.3196 19.5559 29.7078 20.0677C23.9836 24.7691 19.0185 30.3355 14.9379 36.6211C4.49446 52.7352 1.0105 71.8303 5.1286 90.3871C9.21344 108.793 20.3091 124.474 36.3721 134.539C58.1975 148.224 86.0424 149.106 109.04 136.84C110.248 136.193 111.46 135.501 112.641 134.786C115.91 132.793 119.029 130.535 121.905 128.082C124.367 125.983 126.689 123.723 128.807 121.36C131.345 118.542 133.684 115.491 135.762 112.287C136.518 111.106 137.17 110.036 137.748 109.027C139.019 106.822 140.19 104.515 141.23 102.165C146.136 91.0637 148.096 78.8351 146.899 66.8012C144.74 45.0973 132.869 25.9862 114.329 14.3683C103.602 7.64328 91.2293 3.87595 78.5477 3.47592C77.7642 3.44826 76.9711 3.43445 76.1717 3.43445ZM74.577 148.891C60.5927 148.891 46.6799 145.058 34.5419 137.448C17.6934 126.89 6.05438 110.44 1.76882 91.1297C-2.5499 71.6685 1.1011 51.6478 12.0492 34.755C16.3229 28.1715 21.5241 22.3413 27.5098 17.426C28.1526 16.8876 28.8636 16.3238 29.6108 15.7588C31.4847 14.3204 33.4535 12.9533 35.4511 11.701C40.0411 8.82423 44.9669 6.42937 50.091 4.58134C55.1617 2.74504 60.4446 1.44279 65.7903 0.710831C67.5076 0.47464 69.2312 0.296951 70.9133 0.180984C73.5377 0.00224304 76.1439 -0.0435028 78.6617 0.0426788C91.9488 0.462921 104.916 4.41112 116.159 11.4595C135.606 23.6456 148.059 43.6929 150.324 66.4618C151.578 79.083 149.523 91.9084 144.378 103.551C143.288 106.013 142.061 108.43 140.733 110.735C140.13 111.791 139.449 112.907 138.656 114.144C136.476 117.509 134.025 120.705 131.369 123.652C129.151 126.127 126.718 128.498 124.141 130.692C121.127 133.264 117.859 135.629 114.43 137.721C113.193 138.469 111.928 139.19 110.665 139.866C99.3626 145.895 86.9421 148.891 74.577 148.891Z" fill="#371A45"/>
<path d="M76.1845 3.43356C74.5216 3.43356 72.8385 3.49205 71.1522 3.60802C69.5778 3.71442 67.9319 3.88358 66.2584 4.11339C61.1652 4.80812 56.1201 6.05185 51.2647 7.8105C46.3783 9.57127 41.6743 11.8587 37.2804 14.61C35.4022 15.7867 33.524 17.091 31.6948 18.489C30.9145 19.0816 30.2867 19.5816 29.7132 20.0657C23.9816 24.7704 19.0163 30.3357 14.9371 36.6224C4.49475 52.7353 1.01164 71.8294 5.12974 90.3851C9.21448 108.792 20.3104 124.473 36.3733 134.54C58.1998 148.222 86.0446 149.103 109.042 136.838C110.231 136.2 111.442 135.51 112.64 134.784C115.916 132.787 119.035 130.531 121.905 128.08C123.114 127.05 124.317 125.955 125.482 124.823C126.624 123.711 127.744 122.545 128.808 121.359C130.724 119.23 132.52 116.979 134.148 114.666C134.7 113.889 135.242 113.09 135.762 112.286C136.551 111.051 137.184 110.011 137.75 109.026C139.005 106.849 140.176 104.54 141.231 102.162C146.135 91.0628 148.096 78.8342 146.901 66.8013C144.741 45.0975 132.869 25.9864 114.328 14.3674C109.925 11.6055 105.222 9.32338 100.349 7.58495C95.2321 5.7614 89.8842 4.52301 84.4553 3.90167C82.5248 3.68144 80.5379 3.53674 78.5488 3.47292C77.7675 3.44737 76.9776 3.43356 76.1845 3.43356ZM74.5771 148.889C60.5918 148.889 46.6821 145.058 34.543 137.448C17.6948 126.889 6.05542 110.439 1.76996 91.1288C-2.54875 71.6677 1.10151 51.648 12.048 34.7562C16.3203 28.1717 21.5221 22.3414 27.5099 17.4272C28.11 16.9208 28.7826 16.3857 29.6055 15.759C31.5157 14.2993 33.4835 12.9332 35.4512 11.7012C40.053 8.81909 44.9787 6.42421 50.0932 4.5815C55.1757 2.74094 60.4585 1.43765 65.7926 0.70993C67.5418 0.470551 69.2665 0.292892 70.9177 0.181183C73.5239 0.00244141 76.1312 -0.0443573 78.6629 0.0407562C80.7415 0.107773 82.8233 0.25885 84.8465 0.489716C90.5365 1.13977 96.1413 2.4388 101.506 4.35065C106.615 6.17313 111.545 8.56482 116.158 11.4587C135.606 23.6458 148.06 43.6942 150.326 66.4619V66.463C151.578 79.0832 149.522 91.9076 144.379 103.549C143.274 106.041 142.048 108.458 140.733 110.737C140.143 111.767 139.483 112.849 138.659 114.14C138.106 114.996 137.536 115.836 136.959 116.647C135.258 119.065 133.375 121.424 131.37 123.652C130.256 124.893 129.083 126.117 127.883 127.284C126.664 128.468 125.405 129.615 124.141 130.69C121.133 133.259 117.865 135.624 114.429 137.719C113.175 138.478 111.91 139.199 110.666 139.866C99.3637 145.894 86.9411 148.889 74.5771 148.889Z" fill="#371A45"/>
<path d="M30.9848 107.479L32.0977 108.629C32.5827 109.13 44.2176 121.009 62.7417 128.737C76.7558 134.583 99.0321 138.607 125.658 124.652C126.741 123.592 127.799 122.485 128.807 121.36C130.724 119.231 132.52 116.98 134.148 114.667C134.7 113.89 135.241 113.091 135.762 112.287C136.55 111.052 137.184 110.012 137.75 109.027C139.005 106.85 140.176 104.542 141.231 102.163C146.134 91.064 148.095 78.8353 146.901 66.8025C144.741 45.0986 132.869 25.9875 114.327 14.3685C109.925 11.6066 105.222 9.32452 100.349 7.58609C99.2315 7.18819 98.0855 6.81158 96.9439 6.46794C87.7447 3.70389 77.9881 4.08156 69.4711 7.53078C68.8145 7.79675 68.1685 8.07869 67.5524 8.36914C34.6464 23.8746 28.2613 56.2974 27.044 69.5187C25.2084 89.4617 30.2717 105.297 30.4881 105.962L30.9848 107.479ZM89.4343 137.564C78.2791 137.564 68.7665 134.973 61.4146 131.906C42.2445 123.908 30.1289 111.539 29.6225 111.017L27.9596 109.296L27.2167 107.026C26.9896 106.332 21.7178 89.8437 23.6169 69.2037C24.8886 55.3963 31.5722 21.5244 66.0835 5.26355C66.7582 4.94545 67.4618 4.63797 68.177 4.34859C77.4199 0.605743 87.9888 0.189789 97.9352 3.18045C99.1334 3.54004 100.335 3.93474 101.506 4.35179C106.615 6.17427 111.545 8.56596 116.158 11.4598C135.606 23.6469 148.06 43.6953 150.326 66.4631V66.4642C151.578 79.0843 149.522 91.9087 144.379 103.55C143.273 106.042 142.048 108.459 140.733 110.738C140.143 111.768 139.483 112.85 138.659 114.141C138.106 114.997 137.535 115.837 136.959 116.648C135.257 119.066 133.375 121.425 131.37 123.653C130.256 124.894 129.082 126.118 127.883 127.285L127.705 127.457L127.486 127.573C113.5 134.949 100.639 137.564 89.4343 137.564Z" fill="#371A45"/>
<path d="M145.846 94.6649C145.006 97.4279 143.995 100.165 142.807 102.857C141.75 105.238 140.569 107.582 139.244 109.883C138.597 111.001 137.913 112.112 137.208 113.22C136.672 114.048 136.122 114.858 135.555 115.654C134.826 116.149 134.073 116.626 133.295 117.093C80.5709 148.752 37.1119 103.798 37.1119 103.798C37.1119 103.798 29.4946 80.534 36.7346 55.3576C36.7367 55.5086 36.7399 55.6587 36.7431 55.8087C37.0917 72.7441 46.4635 88.2112 61.2995 96.4395C80.3332 106.996 110.617 115.852 144.43 95.5469C144.911 95.2575 145.381 94.9628 145.846 94.6649Z" fill="#220F2D"/>
<path d="M43.1975 128.505C40.9536 129.855 28.7826 132.658 28.7826 132.658C28.7826 132.658 17.8758 125.945 12.0953 116.352C11.3156 115.065 10.4299 112.614 9.56395 109.793C7.46018 102.981 5.48145 94.0019 5.48145 94.0019C5.48145 94.0019 9.66297 86.9865 15.9069 83.2351C25.5485 77.4432 39.4762 82.8872 47.0093 95.3882C47.8088 96.7149 48.5017 98.0672 49.0965 99.4279C54.0958 110.93 51.8146 123.327 43.1975 128.505Z" fill="white"/>
<path d="M38.0212 128.521C40.9942 125.621 42.6997 121.506 43.0557 116.909C43.0568 116.902 43.0568 116.897 43.0579 116.891C43.0579 116.888 43.0579 116.884 43.0579 116.881C43.3798 112.674 42.5729 108.069 40.5721 103.624C40.3461 103.122 40.1052 102.623 39.8483 102.125C40.6445 102.492 41.8811 102.925 43.2807 102.925C44.7378 102.925 46.373 102.456 47.8717 100.952C49.6401 105.354 50.3319 109.948 49.8352 114.266C49.1775 119.979 46.5041 124.514 42.3096 127.033C41.7158 127.389 40.0732 127.932 38.0212 128.521Z" fill="#D7D1DA"/>
<path d="M7.31309 94.322C8.52625 99.7064 11.6005 112.205 13.5682 115.469C18.3122 123.34 26.8115 129.303 29.1033 130.822C33.7615 129.728 40.9184 127.87 42.3094 127.035C46.504 124.516 49.1774 119.981 49.8351 114.268C50.5119 108.387 48.9844 101.997 45.535 96.2732C38.4997 84.6042 25.607 79.4144 16.7936 84.7085C11.995 87.5895 8.41699 92.6442 7.31309 94.322ZM28.4808 134.492L27.8785 134.121C27.4191 133.838 16.5493 127.078 10.6197 117.24C7.89851 112.726 4.2101 96.237 3.79842 94.372L3.65186 93.7081L4.0001 93.124C4.17993 92.8219 8.47882 85.6926 15.0196 81.7646C25.4588 75.4971 40.4707 81.2103 48.4834 94.5028C52.323 100.871 54.0168 108.031 53.2536 114.66C52.4712 121.457 49.2147 126.897 44.0832 129.978C41.7253 131.394 31.2459 133.854 29.1694 134.333L28.4808 134.492Z" fill="#371A45"/>
<path d="M38.8271 100.299C45.7196 111.733 44.158 125.295 35.3404 130.591C26.5217 135.886 13.7853 130.91 6.89284 119.476C0.000484467 108.043 1.56179 94.4808 10.3803 89.1846C19.1987 83.8895 31.9347 88.8655 38.8271 100.299Z" fill="white"/>
<path d="M19.66 131.006C19.6595 131.005 19.6588 131.005 19.6582 131.005C19.6588 131.005 19.6595 131.005 19.66 131.006ZM19.626 130.991C15.1817 129.066 10.9652 125.586 7.77026 120.858C7.77304 120.86 7.77517 120.861 7.77783 120.862C10.9697 125.586 15.184 129.066 19.626 130.991Z" fill="#67C1DA"/>
<path d="M37.127 129.328C37.1301 129.326 37.1323 129.324 37.1355 129.321C37.1333 129.323 37.1291 129.326 37.127 129.328Z" fill="#371A45"/>
<path d="M38.0212 128.521C40.9921 125.621 42.6986 121.506 43.0557 116.909C42.6997 121.506 40.9942 125.621 38.0212 128.521Z" fill="#B7ACBC"/>
<path d="M37.1409 129.314C37.4457 129.062 37.7388 128.797 38.0212 128.522C37.7388 128.797 37.4457 129.062 37.1409 129.314Z" fill="#371A45"/>
<path d="M39.8477 102.127C39.8477 102.127 39.8477 102.127 39.8466 102.127C39.7785 101.994 39.7094 101.862 39.6392 101.73C39.6392 101.729 39.6392 101.729 39.6392 101.728C39.7094 101.861 39.7796 101.994 39.8477 102.127Z" fill="#D7D1DA"/>
<path d="M40.5717 103.625C40.3457 103.123 40.1038 102.623 39.8469 102.126C39.848 102.126 39.848 102.126 39.848 102.126C40.1048 102.624 40.3457 103.123 40.5717 103.625Z" fill="#B7ACBC"/>
<path d="M27.4864 132.709C24.9067 132.709 22.2452 132.121 19.66 131.007C19.6595 131.006 19.6588 131.006 19.6582 131.006C19.6474 131 19.6368 130.996 19.626 130.992C15.184 129.067 10.9697 125.587 7.77783 120.863C11.5156 122.658 15.4066 123.61 19.1661 123.61C22.8047 123.61 26.3191 122.719 29.4573 120.836C35.8381 117.005 39.3195 109.87 39.6393 101.729C39.7097 101.861 39.7789 101.993 39.8472 102.126C40.1041 102.623 40.346 103.123 40.572 103.625C42.5717 108.07 43.3787 112.677 43.0578 116.882C43.0578 116.885 43.0578 116.889 43.0578 116.892C43.0568 116.897 43.0568 116.903 43.0557 116.91C42.6986 121.507 40.992 125.622 38.0212 128.522C37.7387 128.798 37.4456 129.063 37.1407 129.315C37.1386 129.317 37.1375 129.318 37.1354 129.319C37.1322 129.323 37.13 129.325 37.1268 129.327C36.5683 129.789 35.9724 130.212 35.3382 130.592C32.9451 132.028 30.2621 132.709 27.4864 132.709Z" fill="#D7D1DA"/>
<path d="M18.2371 88.781C15.7177 88.781 13.3466 89.4077 11.267 90.6578C3.27545 95.4571 1.97455 107.988 8.36687 118.592C14.7595 129.196 26.4628 133.92 34.4521 129.119C38.2501 126.839 40.6688 122.732 41.2657 117.552C41.8808 112.205 40.4918 106.393 37.3526 101.185C34.2134 95.9784 29.7204 92.0302 24.6987 90.0683C22.4985 89.2087 20.3172 88.781 18.2371 88.781ZM27.5298 134.41C19.4738 134.411 10.7557 129.216 5.41834 120.362C-1.95231 108.136 -0.124305 93.4899 9.49263 87.7139C14.226 84.8722 20.071 84.5722 25.9533 86.8702C31.6775 89.1066 36.7727 93.5622 40.301 99.4148C43.8293 105.267 45.3856 111.848 44.6842 117.944C43.9637 124.207 40.9598 129.22 36.227 132.063C33.5738 133.656 30.5998 134.41 27.5298 134.41Z" fill="#371A45"/>
<path d="M18.2371 88.781C15.7177 88.781 13.3466 89.4077 11.267 90.6578C3.27545 95.4571 1.97455 107.988 8.36687 118.592C14.7595 129.196 26.4628 133.92 34.4521 129.119C38.2501 126.839 40.6688 122.732 41.2657 117.552C41.8808 112.205 40.4918 106.393 37.3526 101.185C34.2134 95.9784 29.7204 92.0302 24.6987 90.0683C22.4985 89.2087 20.3172 88.781 18.2371 88.781ZM27.5298 134.41C19.4738 134.411 10.7557 129.216 5.41834 120.362C-1.95231 108.136 -0.124305 93.4899 9.49263 87.7139C14.226 84.8722 20.071 84.5722 25.9533 86.8702C31.6775 89.1066 36.7727 93.5622 40.301 99.4148C43.8293 105.267 45.3856 111.848 44.6842 117.944C43.9637 124.207 40.9598 129.22 36.227 132.063C33.5738 133.656 30.5998 134.41 27.5298 134.41Z" fill="#371A45"/>
<path d="M133.482 70.7031C133.482 70.7031 133.051 64.5867 127.697 53.6763C125.935 50.0898 123.776 46.0991 119.58 41.1955C116.406 37.4877 112.288 34.6684 107.637 33.0651C107.613 33.0565 107.59 33.0491 107.566 33.0406C102.115 31.1681 96.3556 30.4617 90.77 30.4617C73.7041 30.4617 58.2733 37.0515 58.2733 37.0515C56.7991 36.3536 71.8109 18.9703 96.4856 18.7905C96.5592 18.7905 96.6317 18.7895 96.7052 18.7895C109.794 18.7895 119.929 27.3295 126.195 34.6152C128.285 37.043 129.943 39.3336 131.136 41.1221L131.145 41.1338C131.273 41.3412 131.397 41.5487 131.516 41.7615C132.039 42.6807 132.52 43.5914 132.953 44.4904C137.321 53.6231 136.972 61.8865 133.482 70.7031Z" fill="#9B8DA2"/>
<path d="M57.882 85.0273C53.7173 85.0273 49.8895 81.6164 48.9578 76.7905C47.9185 71.4039 50.883 66.2939 55.5795 65.3779C56.0688 65.2822 56.5581 65.2364 57.042 65.2364C61.2057 65.2364 65.0335 68.6473 65.9651 73.4732C67.0044 78.8598 64.04 83.9698 59.3434 84.8859C58.8552 84.9816 58.3659 85.0273 57.882 85.0273Z" fill="#9B8DA2"/>
<path d="M57.3149 93.1211C57.1401 90.9177 58.5248 88.9846 60.452 88.7729C60.5682 88.7601 60.6833 88.7537 60.7974 88.7537C62.2439 88.7537 63.5444 89.7527 64.1328 91.2241L57.3149 93.1211Z" fill="#9B8DA2"/>
<path d="M61.9486 96.7949C61.7301 96.6768 61.5137 96.5577 61.2995 96.4385C59.9873 95.7108 58.7188 94.9267 57.4951 94.0904C57.4141 93.8191 57.3576 93.5361 57.3267 93.2425C57.3224 93.2021 57.3181 93.1617 57.3149 93.1202L64.1328 91.2232C64.2852 91.6073 64.3907 92.0233 64.4366 92.4616C64.6466 94.4628 63.5668 96.2651 61.9486 96.7949Z" fill="#9B8DA2"/>
<path d="M60.9653 96.9531C59.3944 96.9531 57.995 95.7732 57.4951 94.0912C58.7186 94.9274 59.9869 95.7115 61.2989 96.4393C61.5132 96.5584 61.7295 96.6776 61.948 96.7957C61.7434 96.8627 61.5302 96.9095 61.3096 96.934C61.1945 96.9468 61.0794 96.9531 60.9653 96.9531Z" fill="#918796"/>
<path d="M26.2317 165.872C30.035 169.234 38.3175 171.632 42.6644 173.078L26.2317 165.872Z" fill="white"/>
<path d="M26.8021 165.231C27.8968 166.085 29.1781 166.767 30.4988 167.367C31.8238 167.965 33.2 168.483 34.6006 168.951C37.4062 169.894 40.2715 170.638 43.2082 171.451C44.1249 171.705 44.6622 172.652 44.4085 173.567C44.1537 174.482 43.205 175.019 42.2883 174.765C42.235 174.751 42.1838 174.735 42.1348 174.715L42.1199 174.71C39.3409 173.647 36.4586 172.598 33.6594 171.349C32.2566 170.726 30.8677 170.049 29.515 169.277C28.1676 168.499 26.8426 167.634 25.6605 166.517C25.3162 166.19 25.3012 165.647 25.6285 165.302C25.9355 164.98 26.4343 164.947 26.7797 165.214L26.8021 165.231Z" fill="#371A45"/>
<path d="M9.57461 196.107C8.89251 196.107 8.24708 195.7 7.97728 195.03C6.02648 190.179 6.87274 182.147 12.2648 176.18C15.924 172.129 24.5635 166.05 41.315 170.833C42.2285 171.094 42.7572 172.045 42.4961 172.957C42.2349 173.868 41.283 174.397 40.3684 174.135C29.2857 170.97 20.2118 172.514 14.8203 178.479C10.4196 183.35 9.65551 189.982 11.171 193.75C11.5249 194.63 11.097 195.63 10.215 195.983C10.005 196.067 9.78802 196.107 9.57461 196.107Z" fill="#371A45"/>
<path d="M142.486 162.762C141.882 162.762 141.296 162.444 140.981 161.88C132.88 147.355 133.252 132.47 133.272 131.843C133.303 130.895 134.104 130.158 135.046 130.18C135.995 130.21 136.741 131.003 136.712 131.95C136.707 132.094 136.366 146.543 143.988 160.209C144.45 161.038 144.152 162.084 143.322 162.545C143.056 162.693 142.769 162.762 142.486 162.762Z" fill="#371A45"/>
<path d="M94.1714 257.023C85.6544 257.023 78.8515 255.642 78.359 255.539C77.4285 255.346 76.8326 254.437 77.0255 253.508C77.2195 252.579 78.1309 251.982 79.0615 252.177C79.264 252.219 99.5331 256.322 113.428 250.197C114.298 249.814 115.314 250.207 115.697 251.074C116.081 251.942 115.688 252.956 114.819 253.339C108.325 256.202 100.739 257.023 94.1714 257.023Z" fill="#371A45"/>
<path d="M56.4665 254.248C44.6206 254.248 37.064 251.534 36.627 251.372C35.7359 251.044 35.2796 250.056 35.609 249.167C35.9373 248.277 36.9265 247.823 37.8166 248.15C37.9594 248.202 52.2571 253.298 72.1339 249.189C73.0645 248.997 73.9759 249.593 74.1678 250.522C74.3607 251.451 73.7627 252.36 72.8321 252.552C66.7967 253.8 61.2782 254.248 56.4665 254.248Z" fill="#371A45"/>
<path d="M36.4414 272.412C37.5543 271.583 38.7194 271.122 39.8472 270.797C40.4121 270.645 40.9728 270.528 41.5303 270.421C42.0835 270.348 42.641 270.242 43.1879 270.199C45.3827 269.979 47.5306 269.992 49.6593 270.081C51.788 270.173 53.8922 270.368 55.9868 270.597C58.0803 270.827 60.1632 271.104 62.2375 271.401C62.7087 271.468 63.0359 271.903 62.9677 272.373C62.9038 272.822 62.4976 273.139 62.0521 273.107C59.9724 272.954 57.8959 272.823 55.8237 272.737C53.7515 272.654 51.6824 272.605 49.6316 272.657C47.5839 272.711 45.5436 272.845 43.5951 273.177C43.1037 273.248 42.64 273.375 42.1624 273.469C41.703 273.592 41.2457 273.721 40.8108 273.869C39.9506 274.179 39.1905 274.588 38.649 275.046L38.5851 275.1C37.8602 275.714 36.7729 275.625 36.1579 274.9C35.5428 274.177 35.6324 273.091 36.3572 272.478C36.3839 272.455 36.4148 272.432 36.4414 272.412Z" fill="#371A45"/>
<path d="M111.054 273.988C109.238 273.407 107.256 273.074 105.252 272.885C103.243 272.698 101.198 272.655 99.1538 272.728L99.1495 272.729C98.6741 272.746 98.2743 272.375 98.2562 271.9C98.2402 271.465 98.5515 271.094 98.9683 271.022C101.054 270.655 103.166 270.407 105.31 270.31C107.454 270.218 109.633 270.267 111.86 270.649L111.872 270.65C112.811 270.812 113.442 271.701 113.281 272.639C113.12 273.576 112.228 274.206 111.289 274.045C111.211 274.031 111.127 274.01 111.054 273.988Z" fill="#371A45"/>
<path d="M219.8 123.707L190.735 122.132C190.687 122.129 190.651 122.088 190.654 122.041C190.656 121.997 190.691 121.962 190.735 121.96L219.8 120.385C220.719 120.335 221.505 121.038 221.555 121.955C221.605 122.872 220.9 123.657 219.982 123.707C219.921 123.71 219.859 123.71 219.8 123.707Z" fill="#371A45"/>
<path d="M242.311 94.8687L213.246 93.293C213.198 93.2909 213.162 93.2505 213.164 93.2026C213.167 93.1579 213.202 93.1239 213.246 93.1218L242.311 91.5461C243.23 91.4961 244.016 92.2004 244.066 93.1175C244.116 94.0346 243.411 94.8187 242.493 94.8687C242.432 94.8719 242.37 94.8719 242.311 94.8687Z" fill="#371A45"/>
<path d="M235.584 111.134L206.519 109.559C206.471 109.557 206.435 109.516 206.437 109.468C206.44 109.425 206.475 109.39 206.519 109.387L235.584 107.813C236.503 107.763 237.289 108.466 237.339 109.383C237.389 110.3 236.684 111.084 235.766 111.134C235.705 111.138 235.643 111.138 235.584 111.134Z" fill="#371A45"/>
<path d="M225.583 122.96C225.583 122.96 227.53 131.31 233.117 135.902L282.336 111.941L225.583 122.96Z" fill="#D8D8D8"/>
<path d="M225.583 122.96H225.589H225.583ZM227.696 124.242C228.478 126.587 230.247 130.92 233.389 133.923L270.241 115.981L227.696 124.242ZM233.117 137.564C232.739 137.564 232.364 137.436 232.06 137.186C226.106 132.292 224.047 123.7 223.963 123.336C223.861 122.897 223.942 122.435 224.187 122.057C224.433 121.678 224.822 121.415 225.266 121.329L282.018 110.31C282.838 110.151 283.649 110.623 283.913 111.413C284.179 112.204 283.816 113.068 283.065 113.434L233.848 137.396C233.615 137.509 233.366 137.564 233.117 137.564Z" fill="#371A45"/>
<path d="M228.171 100.848C228.171 100.848 228.803 108.426 232.025 112.95C235.246 117.474 282.335 111.94 282.335 111.94L236.865 100.999L228.171 100.848Z" fill="white"/>
<path d="M233.354 111.951C233.817 112.334 237.107 113.944 258.889 112.445C263.777 112.108 268.593 111.683 272.564 111.299L236.654 102.659L230.071 102.545C230.454 104.936 231.372 109.143 233.354 111.951ZM243.806 116.387C232.428 116.387 231.293 114.792 230.668 113.914C227.223 109.074 226.54 101.316 226.514 100.989C226.474 100.521 226.635 100.058 226.957 99.7162C227.278 99.3737 227.726 99.179 228.2 99.1896L236.895 99.3396C237.017 99.3418 237.137 99.3577 237.255 99.3864L282.726 110.327C283.509 110.515 284.045 111.237 283.996 112.041C283.948 112.844 283.331 113.497 282.531 113.591C282.412 113.605 270.577 114.989 258.5 115.801C252.294 116.218 247.508 116.387 243.806 116.387Z" fill="#371A45"/>
<path d="M224.247 109.707C219.53 112.833 211.064 126.832 211.064 126.832C211.064 126.832 253.589 120.474 282.336 111.939C282.336 111.939 246.906 108.57 224.247 109.707Z" fill="white"/>
<path d="M224.815 111.345C221.914 113.545 217.322 120.129 214.412 124.629C223.947 123.104 250.661 118.618 272.926 112.825C261.009 111.92 240.024 110.63 224.815 111.345ZM211.063 128.494C210.513 128.494 209.99 128.221 209.679 127.755C209.321 127.22 209.306 126.526 209.639 125.975C210.525 124.51 218.439 111.564 223.327 108.326C223.576 108.161 223.865 108.066 224.163 108.05C246.683 106.918 282.137 110.253 282.493 110.287C283.286 110.362 283.914 110.989 283.992 111.779C284.069 112.571 283.573 113.306 282.81 113.532C254.281 122.003 211.736 128.412 211.31 128.476C211.228 128.488 211.145 128.494 211.063 128.494Z" fill="#371A45"/>
<path d="M228.171 100.848C228.171 100.848 234.584 93.9699 239.003 90.6633L282.335 111.939L228.171 100.848Z" fill="white"/>
<path d="M231.461 99.8281L269.946 107.709L239.203 92.6127C236.601 94.6958 233.474 97.7748 231.461 99.8281ZM282.337 113.602C282.226 113.602 282.114 113.591 282.001 113.568L227.838 102.477C227.248 102.356 226.77 101.928 226.586 101.356C226.403 100.784 226.544 100.158 226.953 99.7185C227.219 99.4334 233.519 92.6935 238.006 89.3358C238.507 88.9602 239.176 88.8985 239.738 89.1741L283.07 110.45C283.822 110.819 284.181 111.688 283.91 112.478C283.677 113.161 283.035 113.602 282.337 113.602Z" fill="#371A45"/>
</svg>
