<svg width="258" height="322" viewBox="0 0 258 322" fill="none" xmlns="http://www.w3.org/2000/svg">
<path d="M133.835 322C74.8257 322 26.9893 318.238 26.9893 313.597C26.9893 311.763 34.4621 310.066 47.1459 308.684C50.3906 312.614 55.2919 315.123 60.766 315.123C67.1824 315.123 72.8107 311.678 75.9083 306.536C84.0473 306.122 92.949 305.792 102.408 305.564C105.358 311.239 111.283 315.123 118.095 315.123C120.203 315.123 122.226 314.751 124.103 314.069C125.978 314.751 128.002 315.123 130.11 315.123C137.048 315.123 143.066 311.094 145.957 305.248C154.554 305.324 162.845 305.481 170.701 305.708C173.675 311.304 179.557 315.123 186.311 315.123C192.503 315.123 197.96 311.915 201.119 307.069C225.257 308.609 240.681 310.962 240.681 313.597C240.681 318.238 192.844 322 133.835 322" fill="#BB96D0"/>
<path d="M130.11 313.006C121.549 313.006 114.545 305.983 114.545 297.4C114.545 288.817 121.549 281.794 130.11 281.794C138.671 281.794 145.676 288.817 145.676 297.4C145.676 305.983 138.671 313.006 130.11 313.006Z" fill="#0096F0"/>
<path d="M130.227 304.312C126.483 304.312 123.42 301.241 123.42 297.488C123.42 293.735 126.483 290.663 130.227 290.663C133.97 290.663 137.033 293.735 137.033 297.488C137.033 301.241 133.97 304.312 130.227 304.312Z" fill="#371A45"/>
<path d="M134.27 304.545C134.597 303.803 134.875 303.035 135.099 302.243C135.519 301.812 135.883 301.323 136.177 300.793C136.722 299.813 137.033 298.686 137.033 297.489C137.033 297.369 137.03 297.249 137.023 297.13C137.336 296.951 137.641 296.759 137.941 296.554C138.101 297.132 138.187 297.742 138.187 298.37C138.187 300.246 137.422 301.953 136.184 303.191C135.633 303.747 134.985 304.206 134.27 304.545" fill="#99D5F9"/>
<path d="M136.177 300.793C136.721 299.812 137.032 298.685 137.032 297.488C137.032 297.368 137.029 297.249 137.023 297.131C137.024 297.131 137.024 297.13 137.024 297.13C137.031 297.248 137.033 297.368 137.033 297.488C137.033 298.685 136.722 299.813 136.177 300.793" fill="#AFA3B5"/>
<path d="M130.109 283.91C122.69 283.91 116.655 289.962 116.655 297.401C116.655 304.839 122.69 310.89 130.109 310.89C137.528 310.89 143.565 304.839 143.565 297.401C143.565 289.962 137.528 283.91 130.109 283.91M130.109 315.123C120.363 315.123 112.435 307.173 112.435 297.401C112.435 287.629 120.363 279.678 130.109 279.678C139.856 279.678 147.785 287.629 147.785 297.401C147.785 307.173 139.856 315.123 130.109 315.123Z" fill="#371A45"/>
<path d="M142.686 281.62C142.686 284.101 142.317 286.28 141.674 288.148C137.394 300.543 120.954 299.596 118.537 285.313C118.341 284.17 118.236 282.937 118.236 281.62H142.686" fill="#A0A3A8"/>
<path d="M130.462 298.898C123.339 298.898 116.128 292.962 116.128 281.618C116.128 280.448 117.072 279.501 118.239 279.501C119.404 279.501 120.349 280.448 120.349 281.618C120.349 290.582 125.591 294.667 130.462 294.667C135.333 294.667 140.575 290.582 140.575 281.618C140.575 280.448 141.519 279.501 142.686 279.501C143.851 279.501 144.795 280.448 144.795 281.618C144.795 292.962 137.585 298.898 130.462 298.898Z" fill="#371A45"/>
<path d="M139.518 287.883L132.407 287.011C132.349 286.931 132.289 286.849 132.229 286.77C132.446 285.813 132.604 284.8 132.694 283.733H140.471C140.314 285.29 139.983 286.671 139.518 287.883Z" fill="#86818F"/>
<path d="M141.674 288.148L139.518 287.884C139.983 286.672 140.314 285.291 140.471 283.734H142.592C142.445 285.359 142.127 286.831 141.674 288.148Z" fill="#371A45"/>
<path d="M87.2283 159.008C87.2283 159.008 85.0642 168.36 77.0229 177.709C75.3269 179.681 69.433 179.726 67.6234 181.826C55.9551 195.37 42.8031 210.56 39.5465 214.016C37.6629 216.01 34.5811 216.259 32.407 214.587L11.3812 198.43L3.56175 192.421C2.43779 191.558 1.89443 190.125 2.18987 188.734C4.88604 175.894 15.0166 172.937 26.9887 177.709C39.5307 154.934 54.8903 147.206 72.655 152.311C77.3459 153.66 82.2106 155.908 87.2283 159.008" fill="white"/>
<path d="M186.311 313.006C177.75 313.006 170.746 305.983 170.746 297.4C170.746 288.817 177.75 281.794 186.311 281.794C194.872 281.794 201.876 288.817 201.876 297.4C201.876 305.983 194.872 313.006 186.311 313.006Z" fill="#0096F0"/>
<path d="M176.272 306.373C174.148 303.987 172.855 300.843 172.855 297.4C172.855 295.116 173.424 292.964 174.428 291.076C174.792 291.783 175.196 292.444 175.636 293.057C174.864 294.904 174.437 296.928 174.437 299.045C174.437 301.69 175.102 304.185 176.272 306.373" fill="#99D5F9"/>
<path d="M186.427 304.312C182.683 304.312 179.62 301.241 179.62 297.488C179.62 293.735 182.683 290.663 186.427 290.663C190.171 290.663 193.233 293.735 193.233 297.488C193.233 301.241 190.171 304.312 186.427 304.312Z" fill="#371A45"/>
<path d="M187.58 305.195C185.784 305.195 184.142 304.486 182.921 303.336C183.948 303.957 185.147 304.314 186.425 304.314C186.425 304.314 186.425 304.314 186.426 304.314C186.621 304.314 186.814 304.306 187.004 304.29C188.649 304.15 190.129 303.42 191.234 302.311C191.682 301.862 192.068 301.35 192.379 300.79C192.923 299.811 193.233 298.685 193.233 297.489C193.233 297.37 193.23 297.25 193.224 297.131C193.535 296.952 193.841 296.759 194.141 296.554C194.301 297.133 194.387 297.743 194.387 298.371C194.387 300.247 193.623 301.954 192.385 303.192C191.155 304.429 189.451 305.195 187.58 305.195" fill="#99D5F9"/>
<path d="M186.427 304.312C186.621 304.312 186.814 304.305 187.005 304.289C186.814 304.305 186.621 304.312 186.427 304.312ZM192.379 300.789C192.922 299.809 193.232 298.682 193.232 297.488C193.232 297.368 193.229 297.249 193.223 297.13L193.224 297.129C193.23 297.248 193.233 297.368 193.233 297.488C193.233 298.683 192.923 299.809 192.379 300.789" fill="#AFA3B5"/>
<path d="M186.311 283.91C178.892 283.91 172.855 289.962 172.855 297.401C172.855 304.839 178.892 310.89 186.311 310.89C193.729 310.89 199.765 304.839 199.765 297.401C199.765 289.962 193.729 283.91 186.311 283.91M186.311 315.123C176.563 315.123 168.635 307.173 168.635 297.401C168.635 287.629 176.563 279.678 186.311 279.678C196.057 279.678 203.986 287.629 203.986 297.401C203.986 307.173 196.057 315.123 186.311 315.123Z" fill="#371A45"/>
<path d="M198.888 281.62C198.888 284.101 198.519 286.28 197.875 288.148C193.596 300.543 177.155 299.596 174.739 285.313C174.543 284.17 174.438 282.937 174.438 281.62H198.888" fill="#A0A3A8"/>
<path d="M186.662 298.898C179.54 298.898 172.328 292.962 172.328 281.618C172.328 280.448 173.273 279.501 174.439 279.501C175.604 279.501 176.55 280.448 176.55 281.618C176.55 290.582 181.792 294.667 186.662 294.667C191.533 294.667 196.775 290.582 196.775 281.618C196.775 280.448 197.72 279.501 198.886 279.501C200.051 279.501 200.997 280.448 200.997 281.618C200.997 292.962 193.785 298.898 186.662 298.898Z" fill="#371A45"/>
<path d="M195.718 287.883L176.936 285.581C176.813 284.995 176.719 284.38 176.653 283.733H196.53C196.577 283.733 196.625 283.733 196.672 283.733C196.514 285.289 196.183 286.671 195.718 287.883" fill="#86818F"/>
<path d="M197.875 288.148L195.719 287.884C196.184 286.672 196.515 285.29 196.673 283.734C197.391 283.729 198.104 283.681 198.806 283.592C198.665 285.272 198.342 286.793 197.875 288.148M176.936 285.582L174.739 285.313C174.652 284.805 174.583 284.278 174.532 283.734H176.654C176.719 284.381 176.814 284.996 176.936 285.582" fill="#371A45"/>
<path d="M118.094 313.006C109.533 313.006 102.528 305.983 102.528 297.4C102.528 288.817 109.533 281.794 118.094 281.794C126.655 281.794 133.659 288.817 133.659 297.4C133.659 305.983 126.655 313.006 118.094 313.006Z" fill="#0096F0"/>
<path d="M108.056 306.375C105.933 303.989 104.64 300.844 104.64 297.401C104.64 295.118 105.209 292.965 106.212 291.077C106.576 291.784 106.981 292.445 107.42 293.058C106.648 294.905 106.221 296.929 106.221 299.046C106.221 301.691 106.886 304.186 108.056 306.375" fill="#99D5F9"/>
<path d="M118.21 304.312C114.466 304.312 111.403 301.241 111.403 297.488C111.403 293.735 114.466 290.663 118.21 290.663C121.954 290.663 125.017 293.735 125.017 297.488C125.017 301.241 121.954 304.312 118.21 304.312Z" fill="#371A45"/>
<path d="M119.364 305.195C117.569 305.195 115.926 304.486 114.705 303.336C115.732 303.957 116.931 304.314 118.21 304.314C118.21 304.314 118.21 304.314 118.211 304.314C118.404 304.314 118.595 304.306 118.784 304.29C120.43 304.151 121.912 303.421 123.018 302.311C123.443 301.886 123.811 301.404 124.112 300.879C124.688 299.879 125.017 298.721 125.017 297.489C125.017 297.37 125.014 297.25 125.008 297.131C125.319 296.952 125.625 296.759 125.925 296.554C126.085 297.133 126.171 297.743 126.171 298.371C126.171 300.247 125.406 301.954 124.169 303.192C122.939 304.429 121.235 305.195 119.364 305.195" fill="#99D5F9"/>
<path d="M118.21 304.312C118.403 304.312 118.594 304.305 118.783 304.289C118.594 304.305 118.404 304.312 118.21 304.312ZM124.112 300.878C124.687 299.878 125.016 298.719 125.016 297.488C125.016 297.368 125.013 297.249 125.006 297.13C125.007 297.13 125.007 297.129 125.008 297.129C125.014 297.248 125.017 297.368 125.017 297.488C125.017 298.72 124.688 299.878 124.112 300.878" fill="#AFA3B5"/>
<path d="M118.095 283.91C110.676 283.91 104.64 289.962 104.64 297.401C104.64 304.839 110.676 310.89 118.095 310.89C125.513 310.89 131.549 304.839 131.549 297.401C131.549 289.962 125.513 283.91 118.095 283.91M118.095 315.123C108.348 315.123 100.418 307.173 100.418 297.401C100.418 287.629 108.348 279.678 118.095 279.678C127.841 279.678 135.771 287.629 135.771 297.401C135.771 307.173 127.841 315.123 118.095 315.123Z" fill="#371A45"/>
<path d="M130.672 281.62C130.672 284.101 130.302 286.28 129.658 288.148C125.379 300.543 108.938 299.596 106.521 285.313C106.326 284.17 106.221 282.937 106.221 281.62H130.672Z" fill="#A0A3A8"/>
<path d="M118.447 298.898C111.323 298.898 104.112 292.962 104.112 281.618C104.112 280.448 105.057 279.501 106.222 279.501C107.389 279.501 108.333 280.448 108.333 281.618C108.333 290.582 113.575 294.667 118.447 294.667C123.317 294.667 128.559 290.582 128.559 281.618C128.559 280.448 129.504 279.501 130.67 279.501C131.836 279.501 132.781 280.448 132.781 281.618C132.781 292.962 125.569 298.898 118.447 298.898Z" fill="#371A45"/>
<path d="M127.502 287.883L108.719 285.581C108.597 284.995 108.502 284.38 108.437 283.733H128.455C128.298 285.29 127.967 286.671 127.502 287.883" fill="#86818F"/>
<path d="M129.658 288.148L127.502 287.884C127.967 286.672 128.298 285.291 128.455 283.734H130.578C130.429 285.359 130.112 286.831 129.658 288.148M108.719 285.582L106.521 285.313C106.434 284.805 106.366 284.278 106.315 283.734H108.436C108.501 284.381 108.596 284.996 108.719 285.582" fill="#371A45"/>
<path d="M60.7652 313.006C52.2044 313.006 45.2002 305.983 45.2002 297.4C45.2002 288.817 52.2044 281.794 60.7652 281.794C69.3261 281.794 76.3302 288.817 76.3302 297.4C76.3302 305.983 69.3261 313.006 60.7652 313.006Z" fill="#0096F0"/>
<path d="M50.7282 306.375C48.6035 303.989 47.3105 300.844 47.3105 297.401C47.3105 295.118 47.8805 292.965 48.8831 291.077C49.2475 291.784 49.6525 292.445 50.0911 293.058C49.3196 294.905 48.8919 296.929 48.8919 299.046C48.8919 301.691 49.5577 304.186 50.7282 306.375" fill="#99D5F9"/>
<path d="M60.8818 304.312C57.1382 304.312 54.0752 301.241 54.0752 297.488C54.0752 293.735 57.1382 290.663 60.8818 290.663C64.6254 290.663 67.6884 293.735 67.6884 297.488C67.6884 301.241 64.6254 304.312 60.8818 304.312Z" fill="#371A45"/>
<path d="M62.0342 305.195C60.2385 305.195 58.5959 304.486 57.375 303.336C58.4033 303.957 59.6024 304.314 60.8795 304.314C60.8805 304.314 60.8805 304.314 60.8805 304.314C60.8805 304.314 60.8805 304.314 60.8815 304.314C61.0751 304.314 61.2677 304.306 61.4584 304.29C63.103 304.15 64.5826 303.42 65.6879 302.311C66.1364 301.862 66.5226 301.35 66.8327 300.79C67.377 299.811 67.6881 298.685 67.6881 297.489C67.6881 297.37 67.6852 297.25 67.6783 297.131C67.9894 296.952 68.2956 296.759 68.5949 296.554C68.7559 297.133 68.8418 297.742 68.8418 298.371C68.8418 300.247 68.0773 301.954 66.8387 303.192C65.6089 304.429 63.905 305.195 62.0342 305.195Z" fill="#99D5F9"/>
<path d="M60.8819 304.312C60.8809 304.312 60.8809 304.312 60.8809 304.312C61.0754 304.312 61.2681 304.305 61.4587 304.289C61.2681 304.305 61.0755 304.312 60.8819 304.312ZM66.8331 300.789C67.3773 299.809 67.6865 298.682 67.6865 297.488C67.6865 297.368 67.6835 297.248 67.6776 297.129H67.6786C67.6855 297.248 67.6885 297.368 67.6885 297.488C67.6885 298.683 67.3773 299.809 66.8331 300.789Z" fill="#AFA3B5"/>
<path d="M60.7657 283.91C53.3467 283.91 47.3105 289.962 47.3105 297.401C47.3105 304.839 53.3467 310.89 60.7657 310.89C68.1847 310.89 74.2209 304.839 74.2209 297.401C74.2209 289.962 68.1847 283.91 60.7657 283.91M60.7657 315.123C51.0195 315.123 43.0898 307.173 43.0898 297.401C43.0898 287.629 51.0195 279.678 60.7657 279.678C70.5119 279.678 78.4415 287.629 78.4415 297.401C78.4415 307.173 70.5119 315.123 60.7657 315.123Z" fill="#371A45"/>
<path d="M73.3425 281.62C73.3425 284.101 72.973 286.28 72.329 288.148C68.0501 300.543 51.6089 299.596 49.1929 285.313C48.9973 284.17 48.8916 282.937 48.8916 281.62H73.3425" fill="#A0A3A8"/>
<path d="M61.1175 298.898C53.9948 298.898 46.7832 292.962 46.7832 281.618C46.7832 280.448 47.7285 279.501 48.894 279.501C50.0596 279.501 51.0049 280.448 51.0049 281.618C51.0049 290.582 56.2469 294.667 61.1175 294.667C65.9881 294.667 71.2311 290.583 71.2311 281.618C71.2311 280.449 72.1754 279.501 73.3409 279.501C74.5075 279.501 75.4518 280.449 75.4518 281.618C75.4518 292.962 68.2402 298.898 61.1175 298.898Z" fill="#371A45"/>
<path d="M70.173 287.883L51.3909 285.581C51.2684 284.995 51.1736 284.38 51.1074 283.733H71.1272C70.9702 285.29 70.6393 286.671 70.173 287.883" fill="#86818F"/>
<path d="M72.3289 288.148L70.1726 287.884C70.6389 286.672 70.9698 285.291 71.1268 283.734H73.2485C73.1013 285.359 72.7833 286.831 72.3289 288.148ZM51.3905 285.582L49.1928 285.313C49.1058 284.805 49.0367 284.278 48.9863 283.734H51.107C51.1732 284.381 51.268 284.996 51.3905 285.582" fill="#371A45"/>
<path d="M33.7681 212.965C33.7425 212.947 33.7168 212.927 33.6911 212.908L14.8076 198.4C16.7924 198.698 19.4693 198.997 22.2076 198.997C26.8246 198.997 31.6168 198.147 33.5706 195.007L36.3778 206.871C34.6087 207.425 33.3197 209.084 33.3197 211.039C33.3197 211.73 33.4807 212.384 33.7681 212.965M43.5064 206.674H40.6696L36.7077 189.932C36.9033 189.667 37.1048 189.398 37.3122 189.128H48.5143L50.6034 198.86C48.1943 201.564 45.7279 204.268 43.5064 206.674ZM53.2081 195.907L51.7532 189.128H58.9055C57.3004 191.147 55.3249 193.483 53.2081 195.907M76.4411 175.594H51.5299C55.715 172.695 60.2449 170.413 64.7145 169.468C74.593 167.373 74.188 158.955 73.3178 154.743C74.9338 155.259 76.5744 155.886 78.2418 156.623C75.4751 164.845 75.9778 172.244 76.4411 175.594Z" fill="#CDC6D0"/>
<path d="M51.258 179.562C51.0051 179.562 50.7483 179.51 50.5024 179.399C40.6495 174.962 34.4988 166.163 34.241 165.791C33.6612 164.95 33.8706 163.796 34.7092 163.215C35.5478 162.633 36.6975 162.842 37.2783 163.682C37.3455 163.779 43.1327 172.021 52.0166 176.021C52.9461 176.44 53.3619 177.536 52.9441 178.469C52.6359 179.155 51.9633 179.562 51.258 179.562" fill="#371A45"/>
<path d="M35.6627 217.816C34.0734 217.816 32.4772 217.307 31.124 216.268L2.27574 194.103C0.511021 192.748 -0.334499 190.468 0.122337 188.298C1.40375 182.201 4.39595 177.733 8.77526 175.378C13.4117 172.884 19.3493 172.795 26.0344 175.099C34.0823 161.087 43.5647 152.563 54.2374 149.75C64.4794 147.05 75.9502 149.559 88.3337 157.208C89.3264 157.821 89.6355 159.124 89.0241 160.119C88.4127 161.115 87.1118 161.424 86.1201 160.811C74.758 153.793 64.3905 151.448 55.3111 153.843C45.401 156.454 36.4934 164.83 28.8363 178.732C28.3227 179.666 27.1973 180.069 26.209 179.676C20.0106 177.206 14.6714 177.01 10.771 179.108C7.47695 180.879 5.28394 184.264 4.25273 189.17C4.12926 189.757 4.36128 190.374 4.8435 190.744L33.6911 212.908C35.0128 213.923 36.8697 213.775 38.0116 212.564C43.5608 206.676 56.9478 192.282 61.3937 185.811C62.0545 184.849 63.3682 184.606 64.3283 185.268C65.2894 185.932 65.5314 187.249 64.8696 188.212C60.4227 194.685 48.055 208.068 41.0785 215.47C39.6177 217.021 37.6471 217.816 35.6627 217.816" fill="#371A45"/>
<path d="M212.848 129.701H227.225C227.225 129.701 233.733 133.757 231.975 140.017C230.215 146.277 221.719 146.101 221.719 146.101H206.296L203.365 135.492L212.848 129.701" fill="#A0A3A8"/>
<path d="M203.482 159.659L202.659 165.896L198.396 198.072C179.332 230.612 147.838 207.816 147.838 207.816L163.493 163.463L163.91 162.289C163.91 162.289 184.488 123.068 197.741 129.891C210.996 136.722 203.482 159.659 203.482 159.659" fill="white"/>
<path d="M171.242 217.699C158.062 217.699 147.134 209.915 146.604 209.532C145.66 208.847 145.447 207.524 146.129 206.578C146.811 205.631 148.128 205.416 149.074 206.099C149.21 206.197 162.839 215.865 176.876 212.89C184.641 211.245 191.194 206.022 196.362 197.363L201.39 159.379C201.408 159.25 201.436 159.121 201.478 158.997C201.546 158.786 208.268 137.694 196.777 131.775C188.474 127.5 173.361 148.83 165.778 163.275C165.234 164.309 163.959 164.707 162.927 164.163C161.896 163.619 161.499 162.34 162.042 161.306C162.255 160.899 167.347 151.24 174.176 142.249C183.913 129.433 192.163 124.642 198.706 128.011C212.866 135.304 206.334 157.625 205.55 160.123L200.49 198.349C200.453 198.629 200.361 198.898 200.218 199.142C194.384 209.1 186.814 215.12 177.717 217.038C175.524 217.5 173.354 217.699 171.242 217.699" fill="#371A45"/>
<path d="M188.877 206.674H172.595L172.544 197.832C174.961 195.069 176.988 192.131 178.509 189.128H190.159C190.959 189.128 191.61 189.78 191.61 190.583V203.926C190.728 204.919 189.817 205.834 188.877 206.674M169.428 206.674H162.599C165.03 204.986 167.315 203.118 169.397 201.123L169.428 206.674M193.724 175.594H188.091L189.175 171.433C189.356 170.745 189.126 170.014 188.585 169.553L187.919 168.986C188.082 168.64 188.243 168.295 188.399 167.952C188.988 167.978 189.584 167.991 190.186 167.991C191.994 167.991 193.852 167.873 195.736 167.602C194.957 170.121 194.266 172.796 193.724 175.594" fill="#CDC6D0"/>
<path d="M172.644 215.547L172.643 215.402H174.542C173.907 215.472 173.273 215.519 172.644 215.547M169.479 215.526C168.954 215.496 168.436 215.455 167.92 215.402H169.478L169.479 215.526ZM191.61 206.673H188.877C189.817 205.834 190.728 204.918 191.61 203.925V206.673Z" fill="#371A45"/>
<path d="M178.948 181.941C173.83 203.78 137.001 227.437 114.093 205.085C114.093 205.085 114.449 187.206 116.623 184.639C118.797 182.073 118.49 177.323 123.313 174.138C128.137 170.952 152.83 173.873 162.855 174.138L178.948 181.941Z" fill="white"/>
<path d="M229.982 134.76C228.439 133.243 226.021 133.206 225.793 133.206C225.781 133.206 225.775 133.206 225.775 133.206H221.807C222.319 132.477 222.983 131.896 223.81 131.553H226.927C228.155 132.015 229.257 133.224 229.982 134.76M218.218 133.206H210.659L213.366 131.553H219.093C218.752 132.069 218.46 132.625 218.218 133.206Z" fill="#D9DADC"/>
<path d="M154.451 206.674H146.548L145.87 189.128H169.33L169.364 195.131C165.377 199.684 160.191 203.732 154.451 206.674ZM143.38 206.674H121.09L120.569 199.417C121.47 195.815 122.259 192.267 122.913 189.128H142.702L143.38 206.674ZM172.507 191.068L172.497 189.128H173.731C173.349 189.78 172.941 190.426 172.507 191.068Z" fill="#CDC6D0"/>
<path d="M135.613 215.812C126.862 215.812 118.946 212.692 112.63 206.611C111.79 205.802 111.762 204.463 112.57 203.619C113.377 202.776 114.712 202.749 115.554 203.559C123.496 211.206 134.431 213.473 146.338 209.942C160.968 205.606 174.103 193.359 176.892 181.456C177.159 180.318 178.295 179.614 179.43 179.881C180.565 180.148 181.268 181.287 181.002 182.425C177.893 195.692 163.505 209.266 147.535 214.001C143.444 215.213 139.449 215.812 135.613 215.812" fill="#371A45"/>
<path d="M45.1965 237.092C44.2413 237.092 43.3761 236.437 43.1449 235.465L31.7937 187.5C31.525 186.362 32.2263 185.222 33.3602 184.952C34.4902 184.683 35.6321 185.386 35.9017 186.522L47.252 234.487C47.5217 235.624 46.8204 236.765 45.6854 237.034C45.5224 237.074 45.3585 237.092 45.1965 237.092" fill="#371A45"/>
<path d="M59.9736 236.562C59.2436 236.562 58.5878 236.053 58.4277 235.309L48.1324 187.344C47.9487 186.487 48.4919 185.644 49.3473 185.459C50.2017 185.274 51.0433 185.82 51.228 186.677L61.5234 234.641C61.7071 235.498 61.1628 236.342 60.3084 236.527C60.1958 236.551 60.0842 236.562 59.9736 236.562" fill="#371A45"/>
<path d="M75.9382 236.562C75.1816 236.562 74.5128 236.016 74.3805 235.242L66.196 187.279C66.0478 186.414 66.6276 185.594 67.4889 185.446C68.3502 185.3 69.1681 185.878 69.3163 186.743L77.5008 234.708C77.648 235.571 77.0692 236.391 76.2068 236.54C76.117 236.555 76.0271 236.562 75.9382 236.562" fill="#371A45"/>
<path d="M121.529 236.562C120.706 236.562 120.011 235.925 119.951 235.089L116.515 187.124C116.453 186.25 117.108 185.49 117.981 185.428C118.849 185.36 119.609 186.023 119.673 186.896L123.109 234.861C123.171 235.736 122.515 236.495 121.643 236.558C121.605 236.561 121.567 236.562 121.529 236.562" fill="#371A45"/>
<path d="M146.056 236.562C145.21 236.562 144.508 235.891 144.475 235.036L142.621 187.072C142.588 186.196 143.268 185.458 144.142 185.425C144.999 185.397 145.752 186.073 145.785 186.949L147.639 234.914C147.673 235.789 146.991 236.527 146.118 236.561C146.097 236.562 146.076 236.562 146.056 236.562" fill="#371A45"/>
<path d="M171.17 236.562C170.301 236.562 169.593 235.857 169.588 234.984L169.317 187.019C169.313 186.143 170.018 185.429 170.892 185.424H170.901C171.771 185.424 172.479 186.128 172.484 187.001L172.754 234.966C172.759 235.843 172.053 236.557 171.18 236.562H171.17" fill="#371A45"/>
<path d="M91.3193 234.977L83.1338 187.012H89.9463L98.0429 234.977H91.3193Z" fill="#A0A3A8"/>
<path d="M91.3178 236.562C90.5602 236.562 89.8915 236.016 89.7591 235.242L81.5746 187.279C81.4956 186.817 81.624 186.345 81.9243 185.987C82.2255 185.63 82.668 185.424 83.1343 185.424H89.9468C90.7192 185.424 91.379 185.982 91.5084 186.746L99.6041 234.711C99.7503 235.574 99.1694 236.393 98.3081 236.54C97.4419 236.685 96.6289 236.104 96.4828 235.239L88.6094 188.598H85.011L92.8794 234.708C93.0276 235.571 92.4478 236.391 91.5865 236.54C91.4956 236.555 91.4067 236.562 91.3178 236.562" fill="#371A45"/>
<path d="M193.721 207.996H37.674C35.9978 207.996 34.6396 209.358 34.6396 211.039C34.6396 212.718 35.9978 214.08 37.674 214.08H193.721V207.996" fill="#A0A3A8"/>
<path d="M193.721 215.402H37.6734C35.2721 215.402 33.3193 213.444 33.3193 211.038C33.3193 208.631 35.2721 206.673 37.6734 206.673H193.721C194.45 206.673 195.039 207.266 195.039 207.995C195.039 208.726 194.45 209.319 193.721 209.319H37.6734C36.7271 209.319 35.9576 210.089 35.9576 211.038C35.9576 211.986 36.7271 212.757 37.6734 212.757H193.721C194.45 212.757 195.039 213.349 195.039 214.079C195.039 214.81 194.45 215.402 193.721 215.402" fill="#371A45"/>
<path d="M160.481 269.801H147.838C152.603 264.854 150.857 258.569 148.165 253.755C145.77 249.47 142.62 246.349 142.62 246.349H153.622C156.491 248.497 158.338 251.089 159.499 253.755C162.86 261.474 160.481 269.801 160.481 269.801" fill="#A0A3A8"/>
<path d="M217.729 146.542H208.144C208.144 146.542 198.483 159.855 195.487 177.71H31.6282C29.066 177.71 26.9893 179.792 26.9893 182.361C26.9893 184.93 29.066 187.012 31.6282 187.012H190.16C192.127 187.012 193.722 188.611 193.722 190.583V231.405C193.722 233.378 192.127 234.977 190.16 234.977H45.199C42.0668 234.977 39.5273 237.523 39.5273 240.664C39.5273 243.805 42.0668 246.351 45.199 246.351H188.485C191.269 246.351 193.772 248.046 194.808 250.637C196.253 254.252 198.056 259.587 198.387 264.386C198.592 267.365 196.295 269.804 193.316 269.804H37.8057C34.552 269.804 31.9137 272.448 31.9137 275.712C31.9137 278.974 34.552 281.619 37.8057 281.619H196.531C201.695 281.619 206.579 279.133 209.517 274.876C211.378 272.179 212.526 269.608 211.485 265.043C208.671 252.699 204.098 241.06 204.098 241.06V182.163C204.098 182.163 209.145 158.075 219.637 148.781L217.729 146.542" fill="#A0A3A8"/>
<path d="M193.559 186.033C192.612 185.319 191.433 184.895 190.159 184.895H123.764C123.856 184.421 123.943 183.963 124.026 183.528H190.159C191.756 183.528 193.108 184.583 193.559 186.033ZM67.9208 184.895H31.6278C30.3842 184.895 29.3471 183.99 29.1377 182.803C29.8558 183.262 30.7092 183.528 31.6268 183.528H68.876C68.5481 183.96 68.229 184.417 67.9208 184.895" fill="#86818F"/>
<path d="M195.479 247.617C193.819 245.508 191.272 244.234 188.484 244.234H153.636C153.632 244.234 153.627 244.234 153.623 244.234C153.618 244.234 153.613 244.234 153.609 244.234H45.1986C43.2349 244.234 41.6367 242.633 41.6367 240.664C41.6367 240.554 41.6417 240.447 41.6515 240.34C42.6235 241.122 43.8542 241.589 45.1976 241.589H188.482C191.268 241.589 193.774 243.282 194.808 245.874C195.026 246.419 195.252 247.002 195.479 247.617" fill="#86818F"/>
<path d="M196.531 279.502H37.8055C35.7204 279.502 34.0244 277.801 34.0244 275.711C34.0244 275.636 34.0264 275.562 34.0303 275.489C35.0527 276.344 36.3713 276.859 37.8055 276.859H196.529C201.694 276.859 206.58 274.372 209.519 270.113C209.535 270.09 209.551 270.066 209.567 270.042C209.268 271.297 208.649 272.413 207.78 273.672C205.262 277.322 201.056 279.502 196.531 279.502" fill="#86818F"/>
<path d="M41.7686 239.703C42.1874 238.199 43.5673 237.093 45.199 237.093H190.16C191.45 237.093 192.64 236.659 193.593 235.929C193.178 237.439 191.798 238.547 190.16 238.547H45.198C43.909 238.547 42.7207 238.977 41.7686 239.703" fill="#D9DADC"/>
<path d="M34.1846 274.617C34.6538 273.057 36.0988 271.918 37.8057 271.918H147.84H160.481H193.316C195.099 271.918 196.757 271.301 198.059 270.166C197.332 272.051 195.509 273.372 193.316 273.372H37.8057C36.4396 273.372 35.1832 273.837 34.1846 274.617Z" fill="#D9DADC"/>
<path d="M29.123 182.016C29.291 180.781 30.3508 179.825 31.628 179.825H72.5625C71.9827 180.263 71.4137 180.747 70.8625 181.28H31.627C30.7044 181.28 29.8451 181.55 29.123 182.016M195.483 181.28H124.444C124.543 180.735 124.63 180.247 124.705 179.825H195.486C195.574 179.825 195.661 179.82 195.747 179.809C195.654 180.295 195.566 180.787 195.483 181.28Z" fill="#D9DADC"/>
<path d="M37.8056 271.919C35.7205 271.919 34.0245 273.621 34.0245 275.712C34.0245 277.801 35.7205 279.503 37.8056 279.503H196.531C201.057 279.503 205.262 277.323 207.78 273.672C209.529 271.139 210.264 269.181 209.428 265.514C206.684 253.478 202.18 241.95 202.134 241.836C202.037 241.589 201.988 241.326 201.988 241.06V182.162C201.988 182.016 202.003 181.871 202.034 181.727C202.235 180.764 206.877 159.052 216.731 148.657H209.257C207.147 151.849 200.017 163.468 197.568 178.061C197.397 179.08 196.517 179.826 195.487 179.826H31.6282C30.2345 179.826 29.0996 180.964 29.0996 182.361C29.0996 183.758 30.2345 184.895 31.6282 184.895H190.16C193.288 184.895 195.832 187.446 195.832 190.583V231.405C195.832 234.542 193.288 237.093 190.16 237.093H45.199C43.2353 237.093 41.6371 238.694 41.6371 240.664C41.6371 242.633 43.2353 244.234 45.199 244.234H188.484C192.152 244.234 195.403 246.439 196.767 249.849C198.273 253.618 200.143 259.174 200.492 264.239C200.632 266.264 199.959 268.182 198.601 269.642C197.234 271.111 195.357 271.919 193.316 271.919H37.8056ZM196.531 283.734H37.8056C33.3933 283.734 29.8029 280.135 29.8029 275.712C29.8029 271.287 33.3933 267.688 37.8056 267.688H193.316C194.174 267.688 194.954 267.356 195.514 266.755C196.067 266.162 196.339 265.372 196.281 264.531C195.97 260.014 194.242 254.911 192.848 251.424C192.13 249.628 190.417 248.467 188.484 248.467H45.199C40.9072 248.467 37.4165 244.966 37.4165 240.664C37.4165 236.361 40.9072 232.86 45.199 232.86H190.16C190.96 232.86 191.611 232.207 191.611 231.405V190.583C191.611 189.781 190.96 189.128 190.16 189.128H31.6282C27.9064 189.128 24.8789 186.093 24.8789 182.361C24.8789 178.629 27.9064 175.594 31.6282 175.594H193.724C197.066 158.361 206.044 145.839 206.437 145.297C206.834 144.749 207.468 144.426 208.144 144.426H217.729C218.894 144.426 219.84 145.373 219.84 146.542C219.84 146.587 219.838 146.631 219.835 146.675C220.35 146.723 220.849 146.961 221.219 147.381C221.991 148.256 221.908 149.594 221.034 150.368C211.69 158.644 206.728 180.051 206.209 182.391V240.664C207.031 242.8 210.975 253.308 213.543 264.571C214.707 269.68 213.47 272.867 211.252 276.08C207.945 280.873 202.441 283.734 196.531 283.734" fill="#371A45"/>
<path d="M160.48 271.918H147.84C146.993 271.918 146.228 271.411 145.898 270.63C145.567 269.848 145.734 268.944 146.321 268.333C153.758 260.604 141.261 247.978 141.134 247.851C140.308 247.028 140.302 245.689 141.123 244.86C141.943 244.03 143.277 244.024 144.106 244.845C144.26 244.999 147.923 248.663 150.476 253.596C153.226 258.912 153.674 263.703 151.84 267.686H158.791C159.481 263.896 160.347 254.037 152.357 248.044C151.423 247.343 151.232 246.017 151.931 245.081C152.628 244.146 153.952 243.954 154.885 244.655C167.078 253.799 162.7 269.712 162.509 270.385C162.249 271.293 161.421 271.918 160.48 271.918Z" fill="#371A45"/>
<path d="M104.551 248.467H95.6194C91.3276 248.467 87.8369 244.966 87.8369 240.664C87.8369 236.361 91.3276 232.86 95.6194 232.86H104.551C105.716 232.86 106.662 233.808 106.662 234.976C106.662 236.145 105.716 237.093 104.551 237.093H95.6194C93.6548 237.093 92.0576 238.694 92.0576 240.664C92.0576 242.633 93.6548 244.234 95.6194 244.234H104.551C105.716 244.234 106.662 245.182 106.662 246.35C106.662 247.519 105.716 248.467 104.551 248.467" fill="#371A45"/>
<path d="M113.345 283.734H104.814C100.402 283.734 96.8125 280.135 96.8125 275.712C96.8125 271.287 100.402 267.688 104.814 267.688H112.114C113.279 267.688 114.225 268.634 114.225 269.804C114.225 270.973 113.279 271.919 112.114 271.919H104.814C102.729 271.919 101.033 273.621 101.033 275.712C101.033 277.802 102.729 279.503 104.814 279.503H113.345C114.511 279.503 115.455 280.449 115.455 281.619C115.455 282.788 114.511 283.734 113.345 283.734Z" fill="#371A45"/>
<path d="M157.177 253.756H150.559C150.532 253.703 150.504 253.65 150.477 253.597C149.464 251.64 148.277 249.884 147.203 248.466H152.898C154.841 250.046 156.217 251.866 157.177 253.756Z" fill="#86818F"/>
<path d="M152.897 248.467H147.203C146.573 247.635 145.982 246.92 145.489 246.35H151.511C151.512 246.994 151.804 247.63 152.357 248.045C152.542 248.184 152.722 248.324 152.897 248.467Z" fill="#371A45"/>
<path d="M159.499 253.756H157.178C156.218 251.866 154.842 250.046 152.898 248.466C152.722 248.324 152.542 248.183 152.357 248.045C151.804 247.63 151.512 246.994 151.511 246.35H153.622C156.491 248.498 158.338 251.09 159.499 253.756M150.559 253.756H148.165C145.77 249.471 142.62 246.35 142.62 246.35H145.49C145.982 246.919 146.573 247.634 147.203 248.466C148.277 249.884 149.464 251.64 150.477 253.597C150.504 253.65 150.532 253.703 150.559 253.756" fill="#371A45"/>
<path d="M250.442 163.427C250.442 163.427 247.407 178.239 233.953 174.404C233.953 174.404 227.389 171.219 228.402 160.517C228.433 160.099 228.481 159.676 228.545 159.237L217.728 146.54H227.225C235.931 143.546 233.04 131.431 227.225 129.701H212.848L192.924 141.869C192.924 141.869 192.924 142.149 192.908 142.668C192.792 145.684 191.932 156.84 185.632 169.468L187.389 170.965L185.632 177.711H123.192C123.192 177.711 119.678 199.093 114.75 212.494C109.827 225.893 101.559 224.131 94.8792 222.016C90.8166 220.73 79.8101 213.33 72.9027 205.082C68.4499 199.765 65.701 194.094 67.6163 189.481C72.4968 177.711 82.6113 177.271 87.2281 178.726L88.0618 177.049H78.5645C78.5645 177.049 74.3014 158.358 88.1941 143.546L86.1307 140.933C85.1499 139.689 85.0284 137.97 85.8304 136.605L92.0612 125.962L93.122 124.146C80.9233 117.947 70.4551 110.402 62.5145 100.902C47.9619 103.647 38.2434 84.4333 47.4345 75.2121L47.2389 75.0269L41.2768 69.3344C39.1245 67.2873 38.9339 63.9122 40.8333 61.6324C41.9416 60.3044 43.5408 59.6062 45.1597 59.6062C46.2679 59.6062 47.392 59.934 48.3679 60.6163L62.5145 70.4772C62.5145 70.4772 63.8124 60.8599 70.3859 58.9763C72.6341 58.3306 74.9928 59.8339 75.3089 62.1563C75.5045 63.5577 75.3622 65.478 74.4752 68.0707C71.9011 75.6092 77.9047 80.0371 78.1052 80.1748C78.3008 80.3015 100.156 95.9976 124.427 100.902C148.698 105.805 214.43 105.922 214.43 105.922C214.43 105.922 216.187 104.356 218.974 103.684C222.967 102.716 229.077 103.589 235.14 113.566C245.429 130.495 248.858 138.959 248.858 138.959C248.858 138.959 264.159 152.846 250.442 163.427" fill="white"/>
<path d="M83.0506 179.969C78.6067 179.969 72.6693 182.117 69.3228 190.191C68.498 192.178 68.7519 194.634 70.0775 197.49C74.6211 207.284 90.4044 218.656 95.4341 220.249C102.28 222.417 108.775 223.404 113.019 211.852C117.825 198.772 121.338 177.62 121.372 177.407C121.52 176.513 122.291 175.857 123.195 175.857H184.205L185.31 171.621L184.435 170.876C183.787 170.324 183.599 169.399 183.979 168.637C191.06 154.437 191.078 142.003 191.078 141.879C191.074 141.23 191.411 140.624 191.964 140.287L211.887 128.118C212.177 127.942 212.509 127.848 212.848 127.848H227.226C227.404 127.848 227.581 127.874 227.751 127.925C231.534 129.049 234.464 133.568 234.568 138.438C234.668 143.12 232.147 146.804 227.826 148.292C227.633 148.358 227.43 148.392 227.226 148.392H221.735L229.949 158.035C230.294 158.439 230.448 158.973 230.373 159.499C229.032 168.911 233.787 172.166 234.652 172.675C237.841 173.544 240.603 173.292 242.863 171.924C247.291 169.243 248.621 163.11 248.634 163.049C248.725 162.616 248.968 162.227 249.316 161.958C252.499 159.503 254.175 156.675 254.299 153.551C254.572 146.722 247.689 140.394 247.619 140.33C247.415 140.144 247.253 139.913 247.148 139.656C247.115 139.572 243.629 131.088 233.564 114.529C230.215 109.019 226.592 105.925 222.796 105.334C218.715 104.699 215.68 107.284 215.651 107.311C215.315 107.603 214.876 107.771 214.432 107.771H214.428C211.737 107.767 148.232 107.601 124.06 102.716C100.656 97.9858 79.4345 83.3712 77.0915 81.7203C77.0036 81.6599 69.6666 76.4447 72.7286 67.4691C73.4141 65.4617 73.6679 63.7583 73.4823 62.4064C73.3775 61.6399 72.8787 61.2101 72.5913 61.0219C72.0826 60.6892 71.4643 60.5931 70.8953 60.7565C65.5743 62.2816 64.3584 70.6422 64.3465 70.7274C64.2586 71.3642 63.8457 71.9118 63.257 72.1703C62.6693 72.4288 61.9897 72.3634 61.4623 71.996L47.3127 62.1331C45.6928 61.0041 43.5178 61.2972 42.2524 62.8164C40.9782 64.3455 41.1086 66.6194 42.5478 67.992L48.7074 73.8698C49.0689 74.2134 49.2754 74.6888 49.2823 75.1879C49.2882 75.6861 49.0936 76.1664 48.741 76.5199C44.383 80.8923 45.3639 87.2435 47.528 91.3534C49.8463 95.7555 55.0715 100.42 62.1754 99.0811C62.8323 98.9573 63.503 99.198 63.9326 99.712C71.2815 108.507 81.1028 115.96 93.9584 122.494C94.4128 122.725 94.7515 123.134 94.8948 123.624C95.039 124.114 94.9738 124.642 94.716 125.083L87.4204 137.54C87.0105 138.242 87.0728 139.142 87.5765 139.78L89.6419 142.392C90.2118 143.113 90.1684 144.142 89.5402 144.812C78.6778 156.391 79.5263 170.674 80.1298 175.196H88.0625C88.7026 175.196 89.2972 175.528 89.634 176.074C89.9698 176.62 90.0005 177.302 89.715 177.875L88.8794 179.551C88.4734 180.364 87.538 180.761 86.6737 180.489C85.6988 180.182 84.4483 179.969 83.0506 179.969M102.27 225.322C99.1925 225.322 96.3418 224.419 94.3219 223.779C88.8724 222.054 71.9601 210.326 66.728 199.053C64.9481 195.216 64.6735 191.755 65.9111 188.768C68.4892 182.553 72.5804 179.107 76.7695 177.479L76.7646 177.461C76.5868 176.678 72.6565 158.594 85.7758 143.465L84.6814 142.08C83.2383 140.253 83.0595 137.676 84.2359 135.666L90.5427 124.895C78.4625 118.544 69.0285 111.325 61.7774 102.889C54.6873 103.756 47.9034 99.9952 44.2615 93.0826C40.9832 86.8562 41.2716 80.0971 44.8828 75.3325L40.0023 70.6749C37.1556 67.9603 36.8988 63.4651 39.4176 60.4426C41.9176 57.4408 46.2183 56.8614 49.4216 59.0927L61.323 67.3889C62.3058 64.0227 64.6547 58.6936 69.8809 57.1962C71.4801 56.7377 73.2037 57.0011 74.6093 57.9201C75.9961 58.8273 76.9196 60.2792 77.1419 61.9033C77.4056 63.8325 77.0964 66.1094 76.2233 68.6684C74.0947 74.9076 78.9514 78.5006 79.1589 78.6502L79.2152 78.6898C81.4929 80.2952 102.125 94.5047 124.79 99.0861C147.342 103.644 206.982 104.036 213.802 104.066C215.158 103.083 218.695 100.974 223.292 101.664C228.241 102.406 232.758 106.086 236.717 112.601C245.887 127.687 249.623 136.037 250.411 137.88C251.933 139.358 258.297 146.013 257.99 153.699C257.827 157.788 255.841 161.414 252.083 164.484C251.551 166.456 249.649 172.126 244.797 175.08C241.576 177.04 237.758 177.412 233.449 176.183C233.345 176.154 233.245 176.116 233.149 176.069C232.818 175.908 225.223 172.066 226.61 159.815L216.324 147.743C215.857 147.193 215.75 146.422 216.052 145.765C216.354 145.109 217.009 144.689 217.729 144.689H226.902C230.436 143.329 230.912 140.256 230.876 138.516C230.81 135.407 229.059 132.354 226.928 131.552H213.366L194.747 142.923C194.608 146.245 193.705 156.787 187.919 168.985L188.586 169.553C189.126 170.013 189.357 170.744 189.176 171.432L187.418 178.178C187.205 178.992 186.471 179.56 185.631 179.56H124.752C123.841 184.758 120.701 201.659 116.485 213.132C112.884 222.933 107.277 225.322 102.27 225.322" fill="#371A45"/>
<path d="M169.318 179.297C169.153 179.297 168.986 179.27 168.82 179.216C142.424 170.438 135.134 161.48 134.836 161.103C134.429 160.587 134.381 159.873 134.717 159.308L140.917 148.859C141.138 148.485 141.504 148.22 141.927 148.124C142.35 148.027 142.794 148.11 143.155 148.35L145.584 149.974L148.955 142.787C149.378 141.881 149.245 140.796 148.613 140.022L144.06 134.449C143.594 133.878 143.031 133.409 142.385 133.053L106.854 113.495C105.457 112.725 103.733 113.082 102.752 114.342L94.3713 125.122C93.8339 125.813 92.8392 125.936 92.1498 125.397C91.4603 124.858 91.3369 123.861 91.8752 123.17L100.256 112.391C102.196 109.896 105.611 109.19 108.377 110.712L143.909 130.272C144.911 130.823 145.786 131.551 146.509 132.437L151.061 138.01C152.462 139.726 152.76 142.131 151.819 144.137L147.666 152.991C147.471 153.409 147.103 153.721 146.659 153.845C146.215 153.969 145.74 153.892 145.356 153.637L142.786 151.918L138.05 159.899C140.407 162.188 148.906 169.249 169.817 176.203C170.647 176.478 171.096 177.377 170.82 178.208C170.6 178.875 169.982 179.297 169.318 179.297Z" fill="#371A45"/>
<path d="M185.633 171.582C185.449 171.582 185.262 171.557 185.078 171.507C164.005 165.761 145.884 154.588 145.123 154.115C144.132 153.499 143.827 152.195 144.44 151.202C145.054 150.208 146.355 149.902 147.345 150.517C147.527 150.629 165.725 161.844 186.185 167.424C187.309 167.73 187.974 168.893 187.668 170.02C187.412 170.962 186.56 171.582 185.633 171.582" fill="#371A45"/>
<path d="M194.04 143.343L184.751 148.084L191.807 140.392C193.925 138.351 196.571 141.849 194.04 143.343Z" fill="#371A45"/>
<path d="M139.991 179.297C139.53 179.297 139.072 179.095 138.758 178.708C138.739 178.682 136.664 176.122 130.057 168.957C123.693 162.053 112 158.501 111.883 158.467C111.773 158.434 111.666 158.39 111.567 158.334L87.4278 144.933C86.6623 144.508 86.3867 143.542 86.8095 142.775C87.2332 142.008 88.1953 141.731 88.9608 142.156L112.954 155.476C114.535 155.967 125.779 159.64 132.382 166.802C139.088 174.075 141.138 176.609 141.222 176.713C141.771 177.395 141.664 178.394 140.985 178.944C140.691 179.182 140.34 179.297 139.991 179.297" fill="#371A45"/>
<path d="M88.0617 178.635C87.8948 178.635 87.7259 178.608 87.5579 178.552C86.7302 178.273 86.2827 177.374 86.5613 176.542C90.4056 165.05 97.4859 159.987 102.749 157.764C108.474 155.346 113.272 155.678 113.475 155.695C114.347 155.762 115 156.524 114.933 157.398C114.866 158.271 114.106 158.922 113.239 158.86C112.539 158.81 96.1435 157.88 89.5631 177.551C89.3408 178.216 88.7235 178.635 88.0617 178.635Z" fill="#371A45"/>
<path d="M125.416 164.666C125.121 164.666 124.825 164.584 124.559 164.412C123.824 163.938 123.612 162.957 124.085 162.219L140.406 136.803C140.987 135.9 141.175 134.825 140.939 133.777C140.702 132.728 140.07 131.84 139.158 131.274C138.414 130.814 138.183 129.836 138.644 129.091C139.104 128.345 140.079 128.114 140.822 128.575C142.462 129.591 143.601 131.189 144.027 133.076C144.453 134.961 144.112 136.896 143.068 138.522L126.748 163.937C126.445 164.409 125.936 164.666 125.416 164.666" fill="#371A45"/>
<path d="M133.408 171.85C132.961 171.85 132.515 171.66 132.202 171.291C131.636 170.624 131.716 169.621 132.382 169.054C136.265 165.741 137.834 162.442 137.849 162.41C138.221 161.618 139.16 161.274 139.951 161.642C140.742 162.011 141.087 162.949 140.722 163.744C140.65 163.903 138.881 167.677 134.434 171.471C134.135 171.725 133.771 171.85 133.408 171.85" fill="#371A45"/>
<path d="M92.5943 147.574C92.297 147.574 91.9957 147.49 91.7281 147.314C90.9971 146.833 90.7927 145.85 91.2717 145.117L102.436 128.037C102.761 127.539 103.341 127.265 103.926 127.328L112.603 128.249C115.361 124.371 119.126 119.054 119.459 118.521C119.923 117.779 120.899 117.552 121.64 118.016C122.382 118.481 122.607 119.46 122.144 120.204C121.624 121.037 115.357 129.846 114.644 130.847C114.312 131.313 113.75 131.562 113.189 131.504L104.554 130.587L93.9199 146.857C93.6157 147.322 93.1099 147.574 92.5943 147.574" fill="#371A45"/>
<path d="M126.627 143.062C123.852 146.242 119.453 146.934 116.804 144.608C114.154 142.283 114.257 137.82 117.033 134.641C119.81 131.462 124.207 130.768 126.857 133.094C129.507 135.42 129.404 139.883 126.627 143.062Z" fill="#0096F0"/>
<path d="M123.056 133.298C121.397 133.298 119.58 134.131 118.224 135.685C116.028 138.201 115.858 141.668 117.847 143.413C119.836 145.159 123.241 144.531 125.438 142.016V142.015C127.633 139.499 127.803 136.032 125.815 134.287C125.053 133.619 124.084 133.298 123.056 133.298V133.298ZM120.592 147.561C118.819 147.561 117.114 146.988 115.761 145.801C112.459 142.903 112.496 137.427 115.843 133.594C119.189 129.761 124.598 129 127.9 131.899C131.202 134.797 131.165 140.274 127.819 144.105V144.106C125.844 146.369 123.148 147.561 120.592 147.561Z" fill="#371A45"/>
<path d="M52.8104 99.5586C51.7713 99.5586 50.7085 99.3902 49.6437 99.0466C48.811 98.7792 48.3537 97.8849 48.6204 97.051C48.889 96.2162 49.779 95.7566 50.6117 96.025C53.9128 97.0887 56.2004 95.6586 57.5408 94.2711C60.6087 91.0951 61.4997 85.3619 59.7069 80.3299C58.9217 78.1254 57.7196 76.7409 56.0335 76.0972C52.4094 74.7146 47.6346 77.239 47.5872 77.2648C46.8187 77.6857 45.8576 77.4025 45.4388 76.6339C45.019 75.8644 45.3005 74.9008 46.068 74.4799C46.313 74.3462 52.1269 71.2108 57.1595 73.1301C59.7277 74.1105 61.5876 76.1734 62.688 79.2623C64.9045 85.4857 63.7498 92.4053 59.8146 96.4796C57.8598 98.5029 55.4102 99.5586 52.8104 99.5586" fill="#371A45"/>
<path d="M75.8399 73.4353C76.7862 77.974 76.6973 82.8169 75.1801 87.2031C75.4201 83.3873 74.5627 79.5873 73.0524 76.1112C72.845 75.6427 72.605 75.1297 72.3887 74.7554L75.8399 73.4353Z" fill="#371A45"/>
<path d="M74.8642 114.576C74.1945 114.576 73.5486 114.21 73.2206 113.571C72.7544 112.662 73.11 111.546 74.0177 111.077C89.642 103.015 87.1825 87.4237 87.1558 87.2662C86.984 86.2591 87.6596 85.3024 88.6651 85.13C89.6707 84.9587 90.6238 85.6351 90.7957 86.6433C90.8273 86.8265 93.7106 105.08 75.7078 114.37C75.4371 114.51 75.1487 114.576 74.8642 114.576" fill="#371A45"/>
<path d="M62.5731 78.7441L58.8828 78.5817C59.0389 75.0224 60.6973 70.0885 60.7674 69.8805L64.2651 71.0699C64.2493 71.1164 62.7054 75.7156 62.5731 78.7441Z" fill="#371A45"/>
<path d="M237.053 151.986C239.444 153.706 242.467 154.332 245.362 154.259C245.898 154.248 246.244 154.739 246.193 155.246C246.261 157.008 246.522 159.086 247.296 160.623C247.686 161.38 248.196 161.986 249.041 161.649C249.28 161.591 249.598 161.424 249.905 161.263L251.478 165.192C250.84 165.37 250.198 165.543 249.427 165.559C243.906 165.729 243.639 159.054 244.402 155.074L245.232 156.06C242.206 155.522 239.172 154.265 237.053 151.986" fill="#371A45"/>
<path d="M229.139 131.906L227.651 128.516C234.015 125.71 236.111 118.43 236.132 118.356L239.689 119.354C239.586 119.722 237.084 128.402 229.139 131.906Z" fill="#371A45"/>
<path d="M105.542 224.682L104.493 221.687C106.457 220.996 107.874 219.758 108.705 218.009C109.896 215.502 109.858 212.048 108.601 208.531C106.561 202.821 96.7261 194.968 83.5446 188.526C78.4774 186.049 74.5363 185.572 72.1499 187.146C68.7184 189.411 68.9555 195.324 68.9584 195.383L65.7966 195.543C65.7808 195.227 65.4578 187.778 70.3946 184.505C73.8152 182.237 78.7066 182.629 84.9314 185.673C99.0306 192.564 109.242 200.912 111.582 207.46C113.121 211.767 113.114 216.11 111.563 219.374C110.373 221.878 108.291 223.714 105.542 224.682Z" fill="#371A45"/>
<path d="M71.2122 200.832L68.7705 198.054L82.8341 185.622L85.2769 188.4L71.2122 200.832" fill="#371A45"/>
<path d="M77.6891 210.215L75.1348 207.541L91.8456 191.493L94.4009 194.167L77.6891 210.215" fill="#371A45"/>
<path d="M87.347 216.84L84.6445 214.315L100.731 197.006L103.433 199.53L87.347 216.84Z" fill="#371A45"/>
<path d="M98.7397 223.135L95.9404 220.718L107.9 206.787L110.699 209.203L98.7397 223.135Z" fill="#371A45"/>
<path d="M87.8298 176.696C90.8583 178.023 93.6467 179.659 96.3324 181.546C97.652 182.473 98.8996 183.499 100.086 184.57C101.268 185.65 102.344 186.836 103.32 188.07C99.7016 185.116 95.4 183.208 90.9818 181.845C89.5742 181.421 88.0353 181.006 86.6238 180.752C83.5667 180.044 84.8794 175.61 87.8298 176.696" fill="#371A45"/>
<path d="M121.457 188.598C120.932 188.598 120.419 188.336 120.117 187.858C107.971 168.573 91.1437 173.701 90.4325 173.928C89.6038 174.194 88.7109 173.737 88.4422 172.904C88.1745 172.071 88.6269 171.178 89.4576 170.908C89.6611 170.842 94.5317 169.291 101.095 170.413C107.117 171.443 115.77 175.011 122.794 186.162C123.262 186.904 123.04 187.885 122.3 188.352C122.039 188.518 121.746 188.598 121.457 188.598" fill="#371A45"/>
<path d="M111.1 115.609C110.685 115.609 110.269 115.446 109.958 115.12C109.353 114.488 109.374 113.483 110.005 112.877L117.132 106.025C117.764 105.418 118.764 105.439 119.37 106.071C119.974 106.704 119.954 107.709 119.323 108.315L112.196 115.168C111.889 115.463 111.495 115.609 111.1 115.609" fill="#371A45"/>
<path d="M167.234 137.873C150.478 137.873 140.741 127.928 137.534 123.975C146.315 128.084 155.945 130.23 165.777 130.23C184.883 130.23 202.117 122.175 214.177 109.322C213.442 114.175 209.007 126.223 183.809 134.903C177.671 137.017 172.151 137.873 167.234 137.873" fill="#CDC6D0"/>
<path d="M238.166 173.182C237.062 173.182 235.888 173.013 234.652 172.677C233.891 172.23 230.129 169.662 230.137 162.662C232.716 165.537 234.976 166.62 236.916 166.62C240.359 166.62 242.795 163.211 244.227 160.373C244.57 162.729 245.603 164.824 247.882 165.404C247.074 167.443 245.531 170.31 242.863 171.926C241.48 172.763 239.909 173.182 238.166 173.182M248.585 161.745C248.002 161.745 247.61 161.233 247.296 160.624C247.158 160.349 247.035 160.056 246.928 159.75C257.008 152.348 242.791 141.15 242.791 141.15C240.463 135.289 238.217 130.395 236.082 126.311C237.059 125.033 237.805 123.756 238.358 122.651C244.766 133.86 247.12 139.588 247.148 139.657C247.253 139.915 247.415 140.145 247.619 140.332C247.689 140.395 254.572 146.723 254.299 153.553C254.184 156.455 252.729 159.101 249.972 161.429L249.906 161.264C249.598 161.424 249.28 161.592 249.041 161.65C248.876 161.715 248.725 161.745 248.585 161.745" fill="#CDC6D0"/>
<path d="M238.18 175.037C236.9 175.037 235.496 174.843 233.953 174.403C233.953 174.403 227.39 171.218 228.402 160.517C228.996 161.322 229.574 162.034 230.137 162.662C230.129 169.661 233.891 172.229 234.652 172.676C235.888 173.013 237.062 173.181 238.166 173.181C239.908 173.181 241.48 172.762 242.863 171.925C245.531 170.309 247.074 167.442 247.882 165.404C248.288 165.507 248.734 165.562 249.224 165.562C249.291 165.562 249.359 165.561 249.427 165.559C249.559 165.556 249.685 165.55 249.81 165.539C248.591 168.886 245.372 175.037 238.18 175.037M250.693 163.23L249.972 161.429C252.728 159.1 254.183 156.454 254.299 153.552C254.572 146.723 247.689 140.395 247.619 140.331C247.414 140.145 247.252 139.914 247.148 139.657C247.12 139.587 244.766 133.859 238.358 122.65C238.767 121.833 239.07 121.11 239.283 120.55C246.372 132.822 248.858 138.959 248.858 138.959C248.858 138.959 263.972 152.675 250.693 163.23Z" fill="#371A45"/>
<path d="M249.224 165.562C248.734 165.562 248.288 165.507 247.881 165.404C245.603 164.824 244.569 162.729 244.227 160.373C245.247 158.35 245.756 156.618 245.756 156.618L245.692 160.564C246.14 160.299 246.551 160.027 246.927 159.75C247.035 160.055 247.157 160.348 247.296 160.624C247.61 161.233 248.002 161.745 248.585 161.745C248.725 161.745 248.876 161.715 249.041 161.65C249.28 161.591 249.598 161.424 249.905 161.263L249.971 161.429L250.692 163.23C250.609 163.296 250.525 163.361 250.442 163.426C250.442 163.426 250.265 164.286 249.809 165.539C249.685 165.55 249.558 165.557 249.427 165.56C249.359 165.562 249.291 165.562 249.224 165.562" fill="#371A45"/>
<path d="M234.099 122.688C226.665 109.744 220.797 106.668 217.843 106.012C218.819 105.592 220.07 105.233 221.497 105.233C221.915 105.233 222.349 105.264 222.795 105.334C226.591 105.925 230.214 109.019 233.563 114.528C234.436 115.965 235.26 117.342 236.037 118.657C235.821 119.301 235.223 120.903 234.099 122.688" fill="#CDC6D0"/>
<path d="M238.373 118.986L236.132 118.357C236.13 118.366 236.099 118.472 236.037 118.659C235.26 117.343 234.436 115.967 233.563 114.53C230.214 109.02 226.591 105.927 222.795 105.335C222.349 105.266 221.915 105.234 221.497 105.234C220.07 105.234 218.818 105.594 217.843 106.014C217.601 105.96 217.378 105.923 217.176 105.898C217.742 105.204 218.293 104.498 218.83 103.782L218.973 103.683C219.736 103.499 220.577 103.381 221.477 103.381C225.299 103.381 230.235 105.494 235.14 113.566C236.304 115.48 237.38 117.288 238.373 118.986Z" fill="#371A45"/>
<path d="M236.082 126.311C235.41 125.025 234.749 123.82 234.1 122.689C235.224 120.904 235.821 119.303 236.038 118.658C236.1 118.472 236.13 118.366 236.132 118.357L238.374 118.986C238.686 119.518 238.988 120.039 239.283 120.55C239.07 121.11 238.767 121.833 238.358 122.65C237.805 123.755 237.059 125.032 236.082 126.311" fill="#371A45"/>
<path d="M92.8442 121.922C87.4304 119.109 82.5667 116.126 78.2087 112.941C81.7458 110.708 84.3219 108.102 86.1897 105.416C92.8758 108.94 98.3105 110.428 101.66 111.055C101.139 111.418 100.664 111.864 100.255 112.391L92.8442 121.922M75.0449 110.522C70.8351 107.152 67.1468 103.561 63.9317 99.7122C63.5771 99.2874 63.0566 99.0497 62.5163 99.0497C62.4027 99.0497 62.2881 99.0596 62.1745 99.0814C61.33 99.2408 60.5121 99.3151 59.7219 99.3151C58.5425 99.3151 57.4264 99.1487 56.3783 98.8526C57.6269 98.3366 58.7885 97.5414 59.8138 96.4797C61.567 94.6654 62.7681 92.2856 63.3657 89.6542C65.4015 92.4084 68.4072 92.6689 68.4072 92.6689C73.5613 97.3998 78.4783 100.944 82.946 103.598C81.1364 106.098 78.5959 108.511 75.0449 110.522M52.8412 96.3946C52.4224 96.3946 51.9799 96.353 51.5156 96.2609C49.7831 94.8347 48.4329 93.0739 47.5271 91.3537C45.5042 87.5131 44.5154 81.7166 47.9498 77.4056C49.2655 85.0184 54.47 87.4527 60.2128 89.169C59.7298 91.1596 58.826 92.9402 57.54 94.2713C56.5255 95.321 54.9698 96.3946 52.8412 96.3946" fill="#CDC6D0"/>
<path d="M92.0617 125.961L92.3224 125.515C92.3511 125.532 92.3807 125.548 92.4103 125.564L92.0617 125.961M91.715 123.421C86.2517 120.566 81.15 117.43 76.4838 113.957C77.0844 113.628 77.6573 113.289 78.2094 112.942C82.5674 116.127 87.4311 119.11 92.845 121.922L91.875 123.17C91.8128 123.25 91.7594 123.334 91.715 123.421ZM73.4158 111.573C69.3987 108.313 65.7469 104.768 62.515 100.901C61.5598 101.081 60.6244 101.166 59.7147 101.166C57.3224 101.166 55.1009 100.574 53.1234 99.5542C54.2495 99.5176 55.3439 99.2809 56.3791 98.853C57.4271 99.1492 58.5432 99.3155 59.7226 99.3155C60.5128 99.3155 61.3307 99.2413 62.1752 99.0818C62.2888 99.06 62.4034 99.0501 62.517 99.0501C63.0573 99.0501 63.5778 99.2878 63.9324 99.7127C67.1476 103.561 70.8358 107.152 75.0456 110.522C74.7118 110.711 74.37 110.896 74.0184 111.077C73.7764 111.202 73.5739 111.373 73.4158 111.573M48.968 96.4554C43.9275 91.2927 42.0665 82.9708 45.8714 77.1386C46.1469 77.3476 46.4838 77.4605 46.8285 77.4605C47.0853 77.4605 47.3451 77.3971 47.5871 77.2653C47.594 77.2614 47.7056 77.202 47.9022 77.1089C47.917 77.2089 47.9338 77.3079 47.9506 77.406C44.5162 81.717 45.5049 87.5135 47.5278 91.3541C48.4336 93.0743 49.7838 94.8352 51.5164 96.2613C51.224 96.2038 50.9227 96.1256 50.6116 96.0256C50.4506 95.9741 50.2876 95.9493 50.1266 95.9493C49.6861 95.9493 49.2653 96.1355 48.968 96.4554" fill="#371A45"/>
<path d="M92.4102 125.564C92.3806 125.549 92.351 125.533 92.3223 125.516L93.1224 124.146C92.6502 123.907 92.1811 123.665 91.7148 123.421C91.7593 123.334 91.8126 123.251 91.8749 123.171L92.8448 121.923L100.256 112.392C100.665 111.865 101.14 111.419 101.661 111.056C104.018 111.497 105.343 111.513 105.343 111.513C99.4065 113.826 98.636 118.46 98.636 118.46L92.4102 125.564Z" fill="#371A45"/>
<path d="M53.1232 99.5547C51.5764 98.7575 50.1807 97.6988 48.9677 96.4559C49.265 96.136 49.6858 95.9498 50.1263 95.9498C50.2873 95.9498 50.4503 95.9746 50.6113 96.0261C50.9225 96.1261 51.2237 96.2043 51.5161 96.2618C51.9804 96.3539 52.4229 96.3955 52.8417 96.3955C54.9703 96.3955 56.526 95.3219 57.5404 94.2722C58.8265 92.9411 59.7303 91.1605 60.2133 89.1699C60.3832 89.2204 60.555 89.2709 60.7259 89.3204L61.6228 84.8242C61.8539 86.9624 62.5276 88.5202 63.3662 89.6551C62.7686 92.2865 61.5675 94.6663 59.8142 96.4807C58.7889 97.5423 57.6273 98.3376 56.3788 98.8535C55.3436 99.2814 54.2492 99.518 53.1232 99.5547M46.8282 77.4609C46.4835 77.4609 46.1467 77.348 45.8711 77.1391C46.3136 76.4597 46.8332 75.815 47.4347 75.2118L47.2391 75.0267L47.656 74.5721C47.6945 75.4753 47.7775 76.3201 47.9019 77.1094C47.7053 77.2025 47.5937 77.2619 47.5868 77.2658C47.3448 77.3975 47.085 77.4609 46.8282 77.4609" fill="#371A45"/>
<path d="M76.483 113.957C75.439 113.18 74.4156 112.385 73.415 111.573C73.5731 111.373 73.7756 111.202 74.0176 111.077C74.3692 110.896 74.711 110.711 75.0448 110.522C78.5958 108.511 81.1363 106.099 82.9459 103.599C84.0561 104.259 85.1377 104.863 86.1897 105.416C84.3218 108.103 81.7458 110.709 78.2086 112.942C77.6565 113.29 77.0836 113.628 76.483 113.957" fill="#371A45"/>
<path d="M102.319 221.605C101.623 221.605 100.914 221.545 100.196 221.438L109.262 210.878C109.812 213.55 109.627 216.065 108.704 218.009C108.175 219.122 107.411 220.027 106.419 220.716C105.116 221.351 103.743 221.605 102.319 221.605Z" fill="#CDC6D0"/>
<path d="M102.37 223.473C101.173 223.473 99.9734 223.317 98.791 223.075L100.197 221.438C100.915 221.545 101.623 221.606 102.319 221.606C103.744 221.606 105.117 221.351 106.419 220.717C105.851 221.112 105.208 221.436 104.492 221.688L105.018 223.187C104.144 223.387 103.258 223.473 102.37 223.473" fill="#371A45"/>
<path d="M96.1523 220.473C95.9133 220.4 95.6742 220.325 95.4342 220.25C93.8271 219.741 91.1227 218.233 88.0369 216.098L92.4917 211.306C92.7871 211.322 93.0745 211.33 93.353 211.33C98.2938 211.33 100.589 208.823 99.8238 203.416L102.416 200.627C104.872 202.817 106.724 204.937 107.827 206.874L96.1523 220.473M85.0292 213.904C83.0518 212.388 81.017 210.684 79.0869 208.874L79.9393 208.056C82.9708 209.219 85.6881 210.085 88.0695 210.633L85.0292 213.904Z" fill="#CDC6D0"/>
<path d="M98.6302 223.041C97.3481 222.769 96.0877 222.397 94.8797 222.015C91.6784 221.002 84.1655 216.192 77.7441 210.162L79.0865 208.873C81.0166 210.683 83.0513 212.388 85.0288 213.903L84.6446 214.316L87.3471 216.84L88.0365 216.098C91.1223 218.233 93.8267 219.74 95.4338 220.249C95.6738 220.324 95.9129 220.4 96.1519 220.472L95.9405 220.719L98.6302 223.041Z" fill="#371A45"/>
<path d="M112.694 212.699C112.583 210.998 112.212 209.226 111.581 207.46C110.116 203.362 105.569 198.558 98.9141 193.849C101.075 193.082 104.246 191.396 104.419 188.067C104.419 188.067 106.529 182.081 109.688 177.015C113.036 179.115 116.444 182.288 119.568 187.008C118.074 194.334 115.756 204.402 113.018 211.851C112.912 212.143 112.804 212.424 112.694 212.699Z" fill="#CDC6D0"/>
<path d="M112.169 217.791C112.638 216.236 112.813 214.508 112.694 212.701C112.804 212.425 112.911 212.144 113.018 211.853C115.756 204.403 118.073 194.336 119.568 187.009C119.752 187.287 119.934 187.57 120.117 187.86C120.356 188.239 120.729 188.483 121.136 188.567C119.63 195.816 117.394 205.304 114.75 212.494C113.967 214.622 113.101 216.369 112.169 217.791M76.3931 208.86C75.1584 207.635 73.98 206.368 72.9023 205.082C74.0294 205.595 75.1228 206.078 76.1856 206.532L75.1337 207.542L76.3931 208.86Z" fill="#371A45"/>
<path d="M98.7698 199.117C98.5623 198.482 98.3262 197.821 98.0615 197.134C98.5781 197.511 99.0789 197.887 99.5639 198.264L98.7698 199.117M120.41 182.736C117.525 178.982 114.459 176.317 111.474 174.433C113.418 171.924 115.628 170.079 117.922 170.079C118.329 170.079 118.739 170.138 119.151 170.26C121.522 170.971 123.687 171.309 125.45 171.309C128.233 171.309 130.014 170.466 130.021 168.916C130.034 168.929 130.046 168.943 130.058 168.956C130.848 169.812 131.572 170.602 132.237 171.331C132.239 171.333 132.241 171.335 132.242 171.337C133.991 173.254 135.32 174.74 136.306 175.858H123.195C122.291 175.858 121.52 176.513 121.373 177.408C121.362 177.473 121.02 179.533 120.41 182.736" fill="#CDC6D0"/>
<path d="M121.897 184.793C121.408 184.073 120.912 183.389 120.41 182.736C121.02 179.533 121.361 177.473 121.372 177.408C121.519 176.514 122.291 175.858 123.195 175.858H136.306C137.007 176.653 137.536 177.262 137.919 177.71H123.193C123.193 177.71 122.726 180.542 121.897 184.793Z" fill="#371A45"/>
<path d="M139.265 177.709H137.919C137.536 177.261 137.008 176.652 136.306 175.857C135.32 174.739 133.991 173.253 132.242 171.336C132.553 171.675 132.98 171.849 133.408 171.849C133.583 171.849 133.759 171.82 133.927 171.762L139.265 177.709ZM132.237 171.33C131.572 170.601 130.848 169.811 130.058 168.955C130.046 168.942 130.034 168.929 130.021 168.916C130.025 168.283 129.732 167.532 129.092 166.673C129.19 166.77 130.239 167.802 131.7 169.281L131.975 169.587C131.719 170.133 131.787 170.801 132.202 171.291C132.213 171.303 132.225 171.317 132.237 171.33Z" fill="#371A45"/>
<path d="M133.409 171.85C132.98 171.85 132.553 171.675 132.242 171.337C132.241 171.335 132.239 171.333 132.237 171.331C132.225 171.318 132.214 171.304 132.203 171.291C131.788 170.802 131.719 170.133 131.975 169.588L133.928 171.762C133.76 171.821 133.584 171.85 133.409 171.85Z" fill="#371A45"/>
<path d="M105.017 223.188L104.492 221.688C105.208 221.436 105.851 221.112 106.419 220.717C107.411 220.027 108.175 219.122 108.704 218.01C109.627 216.066 109.812 213.55 109.262 210.878L110.699 209.205L107.9 206.788L107.826 206.874C106.723 204.937 104.871 202.817 102.415 200.627L103.432 199.532L100.731 197.008L99.5631 198.264C99.0781 197.888 98.5773 197.512 98.0607 197.134C97.7278 196.266 97.3495 195.356 96.9258 194.401C96.9258 194.401 97.7812 194.251 98.9141 193.85C105.569 198.559 110.116 203.364 111.581 207.462C112.212 209.227 112.583 210.999 112.694 212.701C112.813 214.508 112.638 216.236 112.17 217.791C110.044 221.039 107.582 222.603 105.017 223.188" fill="#371A45"/>
<path d="M77.7444 210.162C77.2881 209.733 76.8377 209.3 76.3942 208.859L75.1348 207.541L76.1867 206.53C77.4856 207.084 78.7381 207.593 79.9392 208.055L79.0868 208.873L77.7444 210.162Z" fill="#371A45"/>
<path d="M87.347 216.84L84.6445 214.315L85.0288 213.902L88.0691 210.631C89.7028 211.008 91.1795 211.233 92.4912 211.305L88.0365 216.097L87.347 216.84ZM99.8233 203.415C99.6436 202.144 99.2939 200.713 98.7694 199.117L99.5636 198.263L100.731 197.006L103.433 199.53L102.415 200.626L99.8233 203.415Z" fill="#371A45"/>
<path d="M98.7911 223.074C98.7377 223.063 98.6844 223.052 98.6301 223.042L95.9404 220.719L96.1518 220.473L107.826 206.874L107.9 206.788L110.699 209.204L109.262 210.878L100.197 221.438L98.7911 223.074" fill="#371A45"/>
<path d="M121.138 188.566C120.731 188.482 120.357 188.239 120.118 187.859C119.935 187.57 119.754 187.287 119.569 187.009C116.445 182.289 113.037 179.116 109.689 177.016C110.253 176.113 110.85 175.238 111.474 174.433C114.459 176.318 117.525 178.983 120.411 182.736C120.912 183.389 121.408 184.073 121.897 184.793C121.671 185.955 121.416 187.222 121.138 188.566Z" fill="#371A45"/>
<path d="M184.204 175.857H168.788C148.626 169.017 140.367 162.149 138.049 159.899L140.094 156.453C143.446 158.74 153.565 165.358 163.071 168.716C165.189 169.464 166.811 169.77 168.047 169.77C170.58 169.77 171.493 168.486 171.739 167.094C175.939 168.713 180.437 170.242 185.077 171.507C185.122 171.52 185.167 171.531 185.213 171.539L185.309 171.622L184.204 175.857M159.605 175.857H140.507C139.722 174.935 138.22 173.208 135.65 170.373C137.634 168.48 138.962 166.681 139.76 165.435C143.512 168.168 149.747 171.916 159.605 175.857M133.512 168.03C133.152 167.636 132.775 167.227 132.382 166.801C130.952 165.25 129.305 163.862 127.584 162.635L129.395 159.816L136.167 156.864L134.717 159.308C134.381 159.873 134.428 160.587 134.835 161.103C134.923 161.215 135.624 162.079 137.252 163.467C136.604 164.514 135.4 166.218 133.512 168.03M184.757 167.023C179.459 165.505 174.338 163.631 169.676 161.696C173.246 160.743 180.29 157.556 187.072 146.899L190.89 144.951C190.472 149.27 189.121 157.668 184.757 167.023" fill="#CDC6D0"/>
<path d="M185.849 177.709H170.901C170.902 177.043 170.481 176.424 169.816 176.203C169.471 176.088 169.127 175.972 168.788 175.857H184.204L185.309 171.621L185.213 171.539C185.353 171.568 185.493 171.582 185.632 171.582C186.302 171.582 186.931 171.259 187.326 170.725L187.606 170.964L185.849 177.709M164.476 177.709H141.573C141.574 177.358 141.459 177.006 141.222 176.712C141.196 176.68 140.984 176.418 140.507 175.857H159.605C161.139 176.47 162.761 177.089 164.476 177.709M186.722 167.653C186.558 167.554 186.378 167.476 186.185 167.423C185.707 167.292 185.231 167.16 184.757 167.023C189.121 157.667 190.472 149.27 190.89 144.95L193.06 143.843C192.791 147.762 191.637 157.061 186.722 167.653Z" fill="#371A45"/>
<path d="M170.901 177.709H164.476C162.761 177.089 161.139 176.47 159.605 175.857C149.748 171.915 143.512 168.168 139.76 165.435C140.394 164.447 140.693 163.806 140.721 163.743C141.087 162.949 140.742 162.011 139.951 161.642C139.736 161.541 139.509 161.494 139.286 161.494C138.691 161.494 138.119 161.833 137.849 162.409C137.844 162.421 137.655 162.817 137.252 163.467C135.625 162.078 134.923 161.215 134.835 161.103C134.428 160.587 134.381 159.873 134.717 159.307L136.167 156.864L138.943 155.654C138.943 155.654 139.352 155.947 140.094 156.453L138.05 159.898C140.368 162.149 148.626 169.017 168.788 175.857C169.127 175.972 169.471 176.088 169.817 176.203C170.481 176.424 170.902 177.043 170.901 177.709" fill="#371A45"/>
<path d="M185.633 171.582C185.493 171.582 185.353 171.568 185.213 171.539C185.167 171.531 185.122 171.52 185.077 171.507C180.437 170.242 175.94 168.713 171.739 167.094C172.031 165.44 171.381 163.631 171.381 163.631L167.292 162.102C167.292 162.102 168.178 162.096 169.676 161.696C174.339 163.631 179.459 165.505 184.757 167.023C185.232 167.16 185.708 167.293 186.185 167.424C186.378 167.476 186.558 167.554 186.722 167.653C186.444 168.253 186.152 168.859 185.849 169.467L187.327 170.725C186.932 171.259 186.302 171.582 185.633 171.582" fill="#371A45"/>
<path d="M187.072 146.898C187.737 145.855 188.401 144.737 189.057 143.545L193.124 142.667C193.112 142.976 193.093 143.37 193.06 143.843L190.89 144.95L187.072 146.898Z" fill="#371A45"/>
<path d="M141.572 177.709H139.264H139.611C138.054 175.889 135.971 173.672 134.068 171.704C134.197 171.645 134.32 171.567 134.433 171.471C134.863 171.103 135.268 170.736 135.65 170.372C138.22 173.208 139.721 174.935 140.506 175.857C140.983 176.418 141.196 176.68 141.222 176.712C141.459 177.006 141.573 177.358 141.572 177.709M131.983 169.568C131.886 169.47 131.792 169.375 131.7 169.281L126.928 163.965V163.658L127.584 162.635C129.304 163.862 130.952 165.249 132.382 166.8C132.774 167.226 133.152 167.635 133.512 168.029C133.159 168.368 132.783 168.711 132.381 169.053C132.208 169.2 132.076 169.376 131.983 169.568" fill="#371A45"/>
<path d="M126.928 163.658V160.891L129.394 159.816L127.584 162.635L126.928 163.658Z" fill="#371A45"/>
<path d="M134.069 171.705C133.333 170.943 132.623 170.219 131.983 169.569C132.076 169.377 132.209 169.2 132.381 169.054C132.783 168.711 133.16 168.369 133.512 168.03C135.4 166.219 136.604 164.514 137.252 163.467C137.655 162.818 137.844 162.422 137.849 162.41C138.118 161.833 138.69 161.495 139.286 161.495C139.509 161.495 139.735 161.542 139.951 161.642C140.742 162.012 141.087 162.949 140.721 163.744C140.692 163.807 140.393 164.448 139.76 165.435C138.962 166.681 137.634 168.48 135.65 170.373C135.269 170.737 134.864 171.104 134.433 171.471C134.32 171.567 134.197 171.646 134.069 171.705" fill="#371A45"/>
<path d="M139.612 177.709H139.264L133.927 171.762C133.975 171.745 134.022 171.725 134.069 171.704C135.971 173.672 138.054 175.889 139.612 177.709ZM131.975 169.587L131.7 169.281C131.793 169.375 131.887 169.47 131.984 169.568C131.981 169.574 131.978 169.581 131.975 169.587Z" fill="#371A45"/>
<path d="M133.927 171.762L131.975 169.587C131.978 169.581 131.981 169.574 131.984 169.568C132.624 170.218 133.333 170.943 134.069 171.704C134.023 171.725 133.976 171.745 133.927 171.762Z" fill="#371A45"/>
<path d="M108.561 37.1049L105.965 82.1777C105.337 82.1777 104.73 82.1352 104.149 82.046C97.2064 80.9982 93.6653 73.7399 93.1221 65.3447C92.3309 53.1139 97.8919 38.4805 108.561 37.1049Z" fill="white"/>
<path d="M229.642 65.117C229.642 99.9051 201.05 128.113 165.777 128.113C153.299 128.113 141.648 124.579 131.813 118.474L131.808 118.469C113.847 107.323 101.912 87.5901 101.912 65.117C101.912 57.319 103.347 49.8547 105.981 42.9619C115.061 19.0973 138.409 2.11578 165.777 2.11578C201.05 2.11578 229.642 30.323 229.642 65.117Z" fill="white"/>
<path d="M169.978 125.857C186.941 120.716 200.892 108.792 208.582 93.2937C209.955 96.1538 211.902 98.39 214.285 99.6785C214.288 99.6795 214.29 99.6815 214.293 99.6834C214.296 99.6844 214.299 99.6864 214.302 99.6874C214.862 99.9894 215.446 100.239 216.054 100.432C205.608 114.842 188.955 124.596 169.978 125.857M214.893 61.1409C212.903 33.2269 192.48 10.3349 165.551 4.23233C165.626 4.23233 165.702 4.23233 165.777 4.23233C197.412 4.23233 223.566 27.8067 227.12 58.0718C226.586 57.8688 226.032 57.7113 225.462 57.6014C224.829 57.4786 224.196 57.4192 223.562 57.4192C220.533 57.4192 217.527 58.7779 214.893 61.1409" fill="#CDC6D0"/>
<path d="M209.66 70.4755C209.66 99.1432 184.54 122.383 153.557 122.383C147.178 122.383 138.192 121.103 131.813 118.474L131.808 118.469C113.847 107.323 101.912 87.5898 101.912 65.1167C101.912 57.3187 103.347 49.8544 105.981 42.9616C115.742 25.974 133.064 18.5682 153.557 18.5682C184.54 18.5682 209.66 41.8078 209.66 70.4755" fill="#371A45"/>
<path d="M153.557 120.863C148.512 120.863 141.387 120.02 135.462 118.169C134.628 117.705 133.803 117.221 132.99 116.717C132.967 116.701 132.943 116.686 132.918 116.671C126.215 112.51 120.51 107.245 115.986 101.194C123.769 105.262 132.648 107.567 142.07 107.567C156.179 107.567 169.064 102.398 178.886 93.8782C177.815 95.2855 176.7 96.6393 175.545 97.9455C173.01 100.813 174.71 105.382 178.505 105.83C179.025 105.891 179.539 105.921 180.045 105.921C189.368 105.922 196.117 95.8193 192.087 87.0665C191.246 85.2413 189.521 84.3124 187.786 84.3124C187.729 84.3124 187.671 84.3143 187.613 84.3163C189.423 81.7949 191.023 79.118 192.389 76.3074C192.651 76.3559 192.918 76.3806 193.188 76.3806C196.413 76.3806 199.027 72.857 199.027 68.5113C199.027 66.0889 198.214 63.921 196.937 62.4781C197.53 59.2585 197.841 55.9418 197.841 52.5538C197.841 47.8694 197.248 43.3188 196.13 38.9761C203.642 47.609 208.143 58.5682 208.143 70.4772C208.143 70.9179 208.136 71.3566 208.124 71.7943C207.616 73.2482 207.202 74.7812 206.896 76.3767C206.435 78.7793 206.254 81.1403 206.325 83.3923C200.13 104.938 178.82 120.863 153.557 120.863" fill="#1C1A31"/>
<path d="M153.557 123.906C147.302 123.906 137.972 122.66 131.228 119.878C130.454 119.558 130.084 118.668 130.402 117.891C130.721 117.114 131.609 116.744 132.384 117.064C138.743 119.688 147.601 120.863 153.557 120.863C183.656 120.863 208.144 98.2601 208.144 70.4768C208.144 42.6944 183.656 20.0906 153.557 20.0906C132.167 20.0906 116.165 28.272 107.28 43.7492C106.862 44.4771 105.936 44.7286 105.208 44.3087C104.482 43.8898 104.232 42.9599 104.65 42.231C114.106 25.7565 131.019 17.0483 153.557 17.0483C185.329 17.0483 211.179 41.0158 211.179 70.4768C211.179 99.9378 185.329 123.906 153.557 123.906" fill="#371A45"/>
<path d="M132.99 116.717C142.8 122.79 154.135 125.999 165.778 125.999C199.83 125.999 227.532 98.6878 227.532 65.1188C227.532 31.5469 199.83 4.23397 165.778 4.23397C140.177 4.23397 116.939 20.1014 107.953 43.7183C105.345 50.5448 104.023 57.7447 104.023 65.1188C104.023 86.1707 114.825 105.442 132.919 116.672C132.944 116.686 132.968 116.701 132.99 116.717M165.778 130.23C153.324 130.23 141.196 126.788 130.704 120.275C130.681 120.261 130.658 120.247 130.636 120.232C111.326 108.22 99.8027 87.6236 99.8027 65.1188C99.8027 57.2247 101.218 49.5168 104.01 42.207C108.68 29.9346 116.913 19.4379 127.818 11.8527C138.966 4.09928 152.092 0.0012175 165.778 0.0012175C202.157 0.0012175 231.753 29.2126 231.753 65.1188C231.753 101.022 202.157 130.23 165.778 130.23" fill="#371A45"/>
<path d="M235.751 81.9448C233.465 93.8508 225.153 102.257 217.185 100.719C209.217 99.1809 204.611 88.283 206.896 76.376C209.182 64.47 217.494 56.0639 225.462 57.6019C233.43 59.139 238.036 70.0378 235.751 81.9448Z" fill="white"/>
<path d="M220.992 100.725V100.724C221.363 100.655 221.731 100.567 222.098 100.46C221.731 100.567 221.363 100.655 220.992 100.725" fill="#BB96D0"/>
<path d="M216.055 100.432C215.447 100.239 214.863 99.9889 214.303 99.6869C214.864 99.9889 215.448 100.238 216.056 100.431C216.054 100.432 216.056 100.43 216.055 100.432" fill="#A79BAD"/>
<path d="M219.082 100.9C218.449 100.9 217.817 100.842 217.186 100.72C216.8 100.646 216.423 100.549 216.055 100.432C216.056 100.43 216.054 100.432 216.056 100.431C216.424 100.548 216.801 100.644 217.186 100.718C217.819 100.84 218.453 100.899 219.086 100.899C219.724 100.899 220.36 100.84 220.992 100.722V100.723C220.359 100.84 219.72 100.9 219.082 100.9Z" fill="#371A45"/>
<path d="M214.295 99.6836C214.292 99.6813 214.289 99.679 214.285 99.6779C214.289 99.679 214.292 99.6813 214.295 99.6836Z" fill="#A79BAD"/>
<path d="M230.094 94.6914C232.737 91.3945 234.784 86.9825 235.751 81.9446C236.012 80.5848 236.183 79.239 236.269 77.9178C236.183 79.239 236.012 80.5858 235.752 81.9456C234.785 86.9835 232.738 91.3945 230.094 94.6914M236.27 77.9079C236.27 77.9059 236.27 77.902 236.271 77.899C236.27 77.902 236.27 77.905 236.27 77.9079Z" fill="#BB96D0"/>
<path d="M219.085 100.9C218.452 100.9 217.818 100.841 217.185 100.719C216.801 100.645 216.423 100.549 216.055 100.432C215.447 100.239 214.864 99.9903 214.302 99.6882C214.3 99.6872 214.297 99.6852 214.294 99.6843C214.291 99.6823 214.288 99.6803 214.285 99.6793C210.9 97.8481 208.398 94.1076 207.17 89.3786C208.199 90.0035 209.312 90.4423 210.5 90.6701C211.131 90.7909 211.765 90.8503 212.397 90.8503C219.751 90.8503 226.963 82.8552 229.066 71.895C229.958 67.2393 229.8 62.7372 228.793 58.8917C233.859 61.94 236.821 69.3864 236.271 77.8995C236.27 77.9024 236.27 77.9064 236.27 77.9084C236.27 77.9124 236.27 77.9143 236.269 77.9183C236.183 79.2394 236.012 80.5853 235.751 81.9451C234.784 86.983 232.737 91.395 230.094 94.6919C227.778 97.5797 225.004 99.611 222.097 100.46C221.73 100.567 221.362 100.655 220.992 100.723C220.359 100.841 219.723 100.9 219.085 100.9" fill="#CDC6D0"/>
<path d="M235.751 81.944H235.756H235.751ZM223.561 59.5353C220.866 59.5353 218.07 60.8841 215.547 63.4363C212.332 66.6876 209.996 71.4244 208.969 76.7753C206.908 87.5167 210.772 97.3251 217.584 98.6403C224.401 99.9535 231.617 92.2852 233.679 81.5439C234.706 76.193 234.29 70.9243 232.509 66.7094C230.849 62.7817 228.205 60.285 225.063 59.6789C224.568 59.5828 224.067 59.5353 223.561 59.5353V59.5353ZM219.041 103.012C218.29 103.012 217.538 102.941 216.787 102.796C207.689 101.04 202.322 89.0081 204.824 75.9751C206.008 69.8092 208.752 64.2979 212.55 60.4563C216.567 56.3939 221.297 54.6409 225.862 55.5224C230.428 56.4038 234.169 59.7898 236.395 65.0585C238.5 70.0379 239.008 76.1771 237.823 82.3431C235.529 94.3016 227.395 103.012 219.041 103.012Z" fill="#371A45"/>
<path d="M228.388 63.9766C226.664 63.9766 224.731 65.1254 222.976 67.2219C220.699 69.9424 218.983 73.8523 218.142 78.2327C217.3 82.613 217.448 86.8824 218.555 90.2555C219.526 93.2127 221.165 95.1182 223.051 95.4816C224.94 95.8451 227.165 94.6864 229.161 92.3026C231.438 89.5821 233.155 85.6722 233.995 81.2919C234.836 76.9115 234.69 72.6421 233.583 69.269C232.612 66.3108 230.973 64.4064 229.086 64.0419C228.858 63.9984 228.624 63.9766 228.388 63.9766V63.9766ZM223.79 99.2559C223.31 99.2559 222.83 99.2103 222.353 99.1182C219.064 98.4834 216.469 95.747 215.046 91.4133C213.746 87.4509 213.557 82.5219 214.515 77.5325C215.472 72.5431 217.472 68.036 220.147 64.8411C223.072 61.3462 226.493 59.7695 229.785 60.4054C233.073 61.0402 235.669 63.7765 237.091 68.1113C238.392 72.0727 238.581 77.0027 237.623 81.9921C236.665 86.9805 234.665 91.4875 231.99 94.6824C229.488 97.6713 226.624 99.2559 223.79 99.2559" fill="#371A45"/>
<path d="M214.618 59.3438C209.66 39.6496 197.652 24.4695 180.807 16.5982C163.799 8.65063 143.422 8.87444 126.3 17.1944L124.689 13.8618C142.801 5.06059 164.362 4.82884 182.367 13.2419C200.239 21.5925 212.964 37.6432 218.199 58.4376L214.618 59.3438Z" fill="#371A45"/>
<path d="M180.448 128.293C179.743 128.293 179.069 127.885 178.762 127.197C178.345 126.264 178.762 125.168 179.694 124.75C202.925 114.33 208.7 96.0818 208.755 95.8986C209.052 94.9211 210.083 94.3685 211.057 94.6636C212.032 94.9597 212.585 95.9887 212.292 96.9662C212.049 97.7783 206.053 116.983 181.202 128.131C180.957 128.24 180.701 128.293 180.448 128.293Z" fill="#371A45"/>
<path d="M115.688 82.2695C114.342 82.2695 112.998 81.4971 112.526 79.9214C102.777 47.3903 124.257 28.1211 147.6 26.3652C147.696 26.3582 147.79 26.3553 147.883 26.3553C151.171 26.3553 152.495 30.7891 149.574 32.545C132.983 42.5188 123.731 59.1052 118.936 79.7055C118.54 81.403 117.113 82.2695 115.688 82.2695" fill="#9B8DA2"/>
<path d="M178.887 93.877C180.595 91.6338 182.192 89.253 183.655 86.7088C184.547 85.1609 186.072 84.3696 187.614 84.3151C185.089 87.8309 182.158 91.0386 178.887 93.877Z" fill="#9B8DA2"/>
<path d="M180.046 105.92C179.54 105.92 179.026 105.89 178.506 105.829C174.711 105.381 173.011 100.812 175.546 97.9446C176.7 96.6383 177.815 95.2845 178.887 93.8772C182.159 91.0389 185.089 87.8311 187.614 84.3154C187.671 84.3134 187.73 84.3114 187.787 84.3114C189.521 84.3114 191.247 85.2404 192.088 87.0656C196.118 95.8183 189.368 105.921 180.046 105.92" fill="#8E8D98"/>
<path d="M192.389 76.3066C189.543 75.7818 187.351 72.4908 187.351 68.5106C187.351 64.1649 189.964 60.6413 193.188 60.6413C194.616 60.6413 195.922 61.3315 196.937 62.4774C196.039 67.339 194.492 71.9808 192.389 76.3066" fill="#9B8DA2"/>
<path d="M193.189 76.3789C192.918 76.3789 192.651 76.3542 192.39 76.3056C194.493 71.9798 196.039 67.338 196.937 62.4764C198.214 63.9193 199.027 66.0872 199.027 68.5096C199.027 72.8552 196.414 76.3789 193.189 76.3789" fill="#8E8D98"/>
<path d="M105.916 84.293C97.4841 84.293 91.7778 77.104 91.0173 65.5159C90.1313 52.0273 96.4855 36.5283 108.294 35.0091C109.447 34.8606 110.508 35.6796 110.656 36.8383C110.805 37.998 109.988 39.0577 108.831 39.2072C99.749 40.3748 94.4655 53.6099 95.2291 65.2366C95.4582 68.7177 96.9043 80.0602 105.915 80.0612C105.932 80.0612 105.95 80.0612 105.965 80.0612C107.127 80.0612 108.071 81.003 108.075 82.1687C108.08 83.3373 107.138 84.288 105.973 84.293C105.953 84.293 105.934 84.293 105.916 84.293" fill="#371A45"/>
<path d="M101.249 78.7812C96.3592 75.7151 95.4109 68.0003 95.2292 65.2372C95.2006 64.7965 95.1798 64.3528 95.168 63.9082C96.7721 62.6564 98.4463 61.0441 100.091 58.9782C99.8983 61.0094 99.8025 63.0574 99.8025 65.1184C99.8025 69.773 100.295 74.3484 101.249 78.7812Z" fill="#CDC6D0"/>
<path d="M103.591 79.7812C102.724 79.5614 101.946 79.2187 101.249 78.781C100.296 74.3482 99.8027 69.7728 99.8027 65.1181C99.8027 63.0572 99.8985 61.0091 100.091 58.9779C100.972 57.8707 101.845 56.6338 102.694 55.2522C102.694 55.2522 101.487 69.7767 103.591 79.7812Z" fill="#371A45"/>
<path d="M104.149 82.0469C97.2064 80.9991 93.6653 73.7408 93.1221 65.3456C93.7849 64.9296 94.4704 64.4523 95.1677 63.9076C95.1796 64.3523 95.2003 64.7959 95.229 65.2366C95.4107 67.9997 96.359 75.7146 101.248 78.7807C101.946 79.2184 102.723 79.5611 103.59 79.7809C103.755 80.5673 103.941 81.3259 104.149 82.0469" fill="#371A45"/>
<path d="M199.454 160.531L190.106 157.762L191.003 154.718L200.35 157.487L199.454 160.531Z" fill="#371A45"/>
<path d="M187.595 197.891C180.552 197.891 173.601 194.443 173.216 194.249C172.434 193.856 172.119 192.902 172.511 192.119C172.904 191.336 173.855 191.02 174.636 191.413C174.749 191.468 185.932 197 193.046 193.638C193.839 193.264 194.78 193.603 195.154 194.397C195.526 195.19 195.187 196.135 194.397 196.509C192.277 197.511 189.93 197.891 187.595 197.891" fill="#371A45"/>
<path d="M224.588 148.125C224.57 148.125 224.553 148.125 224.536 148.125C220.589 147.997 217.61 144.243 217.293 138.995C217.011 134.332 219.098 128.944 224.345 128.131C225.215 127.998 226.018 128.591 226.152 129.457C226.285 130.323 225.692 131.135 224.829 131.268C221.54 131.777 220.255 135.531 220.452 138.803C220.628 141.705 222.013 144.868 224.638 144.952C225.513 144.981 226.197 145.713 226.169 146.59C226.142 147.449 225.439 148.125 224.588 148.125" fill="#371A45"/>
<path d="M208.896 160.955C208.338 158.295 206.541 156.71 205.109 155.842C206.869 152.394 208.439 149.894 209.257 148.657H216.731C213.603 151.958 210.999 156.399 208.896 160.955Z" fill="#86818F"/>
<path d="M209.022 163.629C209.118 162.636 209.062 161.747 208.896 160.954C210.999 156.398 213.602 151.957 216.731 148.656H209.256C208.438 149.893 206.868 152.393 205.109 155.841C204.044 155.196 203.182 154.947 203.182 154.947L208.143 146.54L215.964 147.088C216.037 147.324 216.158 147.548 216.324 147.743L217.644 149.293L209.022 163.629Z" fill="#371A45"/>
<path d="M217.645 149.293L216.324 147.743C216.158 147.548 216.038 147.324 215.965 147.088L218.85 147.289L217.645 149.293" fill="#371A45"/>
<path d="M218.995 144.689H218.751C218.449 144.521 218.1 144.425 217.729 144.425H208.144C207.991 144.425 207.842 144.441 207.697 144.473C207.57 141.615 207.079 138.707 205.988 136.058L206.949 135.47C207.106 137.05 207.783 139.704 210.524 140.193H217.415C217.664 141.918 218.213 143.447 218.995 144.689" fill="#86818F"/>
<path d="M206.611 145.084L204.829 136.765L205.988 136.057C207.078 138.706 207.569 141.615 207.697 144.472C207.283 144.562 206.904 144.774 206.611 145.084" fill="#371A45"/>
<path d="M215.896 146.768C210.9 146.733 206.905 146.453 206.905 146.453L206.611 145.084C206.905 144.774 207.283 144.562 207.697 144.472C207.842 144.44 207.991 144.424 208.143 144.424H217.728C218.1 144.424 218.449 144.52 218.751 144.689H217.728C217.008 144.689 216.354 145.109 216.051 145.765C215.905 146.085 215.855 146.432 215.896 146.768" fill="#371A45"/>
<path d="M216.889 146.771C216.554 146.771 216.223 146.77 215.896 146.769C215.855 146.433 215.905 146.086 216.051 145.766C216.354 145.11 217.008 144.69 217.729 144.69H218.751H218.995C219.498 145.49 220.096 146.172 220.772 146.712C219.459 146.755 218.149 146.771 216.889 146.771M204.829 136.766L204.714 136.225L206.912 134.286C206.912 134.286 206.88 134.773 206.949 135.471L205.988 136.058L204.829 136.766Z" fill="#371A45"/>
<path d="M226.902 144.689H223.473C221.977 144.029 221.037 142.221 220.645 140.276C220.73 140.278 220.82 140.278 220.912 140.278C223.44 140.278 228.157 139.758 230.507 136.149C230.728 136.908 230.858 137.711 230.876 138.517C230.912 140.257 230.436 143.33 226.902 144.689Z" fill="#86818F"/>
<path d="M226.157 146.334C226.061 145.575 225.426 144.978 224.639 144.952C224.218 144.939 223.83 144.846 223.474 144.689H226.902C230.436 143.329 230.912 140.256 230.876 138.516C230.858 137.711 230.728 136.908 230.507 136.148C230.689 135.869 230.856 135.572 231.007 135.255C231.007 135.255 233.292 144.974 226.157 146.334" fill="#371A45"/>
<path d="M220.771 146.711C220.096 146.171 219.497 145.489 218.994 144.689C218.212 143.446 217.663 141.918 217.414 140.192H219.22C219.22 140.192 219.771 140.263 220.644 140.276C221.036 142.22 221.977 144.028 223.473 144.689C223.83 144.846 224.218 144.938 224.638 144.952C225.426 144.978 226.06 145.575 226.157 146.334C225.882 146.386 225.594 146.426 225.29 146.452C223.827 146.58 222.297 146.662 220.771 146.711" fill="#371A45"/>
</svg>
