<svg width="16" height="16" viewBox="0 0 16 16" fill="none" xmlns="http://www.w3.org/2000/svg">
    <path d="M9.00667 10.1V9.41582L9.01488 9.41866C9.15349 9.46766 9.18676 9.4911 9.19248 9.49596C9.19924 9.50822 9.22667 9.57177 9.22667 9.76005C9.22667 9.94288 9.1149 10.0617 9.00667 10.1ZM9.19099 9.49361C9.19101 9.49357 9.19143 9.49412 9.19216 9.49539C9.19132 9.49429 9.19096 9.49365 9.19099 9.49361Z" fill="#7F92A0" stroke="#7F92A0"/>
    <path d="M1.83332 7.95147C1.82099 4.54857 4.57689 1.77919 7.98136 1.76661C11.3857 1.76069 14.1543 4.5114 14.1667 7.91509C14.179 11.3181 11.4229 14.0876 8.01818 14.0999C4.61513 14.1123 1.84566 11.3561 1.83332 7.95147ZM11.2267 9.75995C11.2267 9.05675 11.0167 8.53819 10.6843 8.16662C10.3631 7.80746 9.96689 7.63037 9.67269 7.52831L8.99999 7.28774V5.97744C9.12593 6.07093 9.21999 6.23211 9.21999 6.43995C9.21999 6.98942 9.67052 7.43995 10.22 7.43995C10.7695 7.43995 11.22 6.98942 11.22 6.43995C11.22 5.13438 10.2582 4.03187 8.99497 3.89985C8.94425 3.3968 8.5157 2.99995 7.99999 2.99995C7.48854 2.99995 7.06282 3.39027 7.00635 3.88741C5.75782 3.92031 4.77333 4.97188 4.77333 6.23995C4.77333 6.94314 4.98331 7.4617 5.31565 7.83328C5.63687 8.19242 6.03308 8.36951 6.32728 8.47157L6.99999 8.71215V10.0225C6.87406 9.92897 6.77999 9.76779 6.77999 9.55995C6.77999 9.01047 6.32947 8.55995 5.77999 8.55995C5.23052 8.55995 4.77999 9.01047 4.77999 9.55995C4.77999 10.8655 5.74174 11.968 7.00502 12.1C7.05574 12.6031 7.48428 12.9999 7.99999 12.9999C8.51144 12.9999 8.93716 12.6096 8.99363 12.1125C10.2422 12.0796 11.2267 11.028 11.2267 9.75995Z" fill="#7F92A0" stroke="#7F92A0"/>
    <path d="M6.99178 6.5881C6.85318 6.53911 6.8199 6.51566 6.81419 6.51081C6.80743 6.49854 6.78 6.435 6.78 6.24672C6.78 6.04974 6.89472 5.93375 7 5.89837V6.59095L6.99178 6.5881ZM6.81568 6.51315C6.81565 6.51319 6.81523 6.51265 6.81451 6.51138C6.81534 6.51248 6.81571 6.51311 6.81568 6.51315Z" fill="#7F92A0" stroke="#7F92A0"/>
    </svg>
    