<svg width="28" height="32" viewBox="0 0 28 32" fill="none" xmlns="http://www.w3.org/2000/svg">
<path fill-rule="evenodd" clip-rule="evenodd" d="M28 16.8396C28 13.3726 26.9291 10.1714 25.1603 7.45338C22.1762 2.94753 17.0382 0 11.2024 0C9.89085 0 8.67555 0.14496 7.47228 0.422801C4.62054 1.0268 2.09368 2.39185 0 4.26425V24.3654C3.30898 24.3654 6.14869 22.191 7.1113 19.1589C7.03911 19.014 6.94285 18.8811 6.81049 18.7724L3.11646 15.547C2.28621 14.8222 2.73141 13.4692 3.83842 13.3726L8.73571 12.9136C9.20498 12.8652 9.60206 12.5874 9.78255 12.1646L11.7439 7.69498C12.1771 6.68026 13.621 6.68026 14.0662 7.69498L16.0155 12.1646C16.208 12.5874 16.6051 12.8652 17.0623 12.9136L21.9716 13.3726C23.0786 13.4692 23.5239 14.8222 22.6936 15.547L18.9875 18.7724C18.6386 19.0744 18.4942 19.5334 18.5905 19.9804L19.6734 24.7399C19.9141 25.8029 18.7469 26.6485 17.7843 26.0929L13.5488 23.6044C13.1517 23.3749 12.1891 23.2903 11.7078 23.4232L10.8294 23.6889L9.84272 24.0151L8.80791 24.4379C5.71551 25.6821 1.31156 29.0887 0.288785 32H18.7108C21.3219 30.6833 23.5479 28.6901 25.1603 26.2378C26.9772 23.5681 28 20.379 28 16.8879C28 16.8879 28 16.8879 28 16.8396Z" fill="white"/>
</svg>
