<svg xmlns="http://www.w3.org/2000/svg" width="24" height="24" viewBox="0 0 24 24" fill="none">
    <path d="M12.0015 14.3996C13.327 14.3996 14.4015 13.3251 14.4015 11.9996C14.4015 10.6741 13.327 9.59961 12.0015 9.59961C10.676 9.59961 9.60148 10.6741 9.60148 11.9996C9.60148 13.3251 10.676 14.3996 12.0015 14.3996Z" fill="white" fill-opacity="0.5"/>
    <path fill-rule="evenodd" clip-rule="evenodd" d="M0.550781 11.9997C2.07988 7.1311 6.62825 3.59961 12.0014 3.59961C17.3746 3.59961 21.9229 7.13106 23.4521 11.9996C21.923 16.8681 17.3746 20.3996 12.0014 20.3996C6.62825 20.3996 2.07991 16.8682 0.550781 11.9997ZM16.8015 11.9996C16.8015 14.6506 14.6524 16.7996 12.0015 16.7996C9.35051 16.7996 7.20148 14.6506 7.20148 11.9996C7.20148 9.34864 9.35051 7.19961 12.0015 7.19961C14.6524 7.19961 16.8015 9.34864 16.8015 11.9996Z" fill="white" fill-opacity="0.5"/>
</svg>