<svg width="25" height="24" viewBox="0 0 25 24" fill="none" xmlns="http://www.w3.org/2000/svg">
<path d="M21.6632 8.01002L14.8512 2.77002C13.52 1.75002 11.44 1.74002 10.1192 2.76002L3.3072 8.01002C2.3296 8.76002 1.7368 10.26 1.9448 11.44L3.2552 18.98C3.5568 20.67 5.1896 22 6.968 22H17.992C19.7496 22 21.4136 20.64 21.7152 18.97L23.0256 11.43C23.2128 10.26 22.62 8.76002 21.6632 8.01002ZM13.26 18C13.26 18.41 12.9064 18.75 12.48 18.75C12.0536 18.75 11.7 18.41 11.7 18V15C11.7 14.59 12.0536 14.25 12.48 14.25C12.9064 14.25 13.26 14.59 13.26 15V18Z" fill="url(#paint0_linear_11232_146533)"/>
<defs>
<linearGradient id="paint0_linear_11232_146533" x1="5.43958" y1="2" x2="9.32599" y2="18.3958" gradientUnits="userSpaceOnUse">
<stop stop-color="#1A79FF"/>
<stop offset="1" stop-color="#1A79FF"/>
</linearGradient>
</defs>
</svg>
