<svg xmlns="http://www.w3.org/2000/svg" width="512" height="512" enable-background="new 0 0 512 512" viewBox="0 0 512 512" id="infinity"><path d="M385.463,365.162c-36.783,0-66.112-11.096-89.664-33.922c-20.467-19.837-34.179-46.016-47.439-71.331
				c-25.748-49.157-50.067-95.587-121.12-95.587c-50.431,0-91.459,41.028-91.459,91.458c0,50.388,41.028,91.382,91.459,91.382
				c15.972,0,31.779-4.224,45.712-12.215c4.313-2.47,9.812-0.981,12.285,3.33s0.982,9.812-3.33,12.285
				c-16.654,9.551-35.558,14.6-54.667,14.6c-60.356,0-109.459-49.068-109.459-109.382c0-60.355,49.103-109.458,109.459-109.458
				c36.771,0,66.09,11.094,89.635,33.915c20.461,19.833,34.171,46.007,47.429,71.319c25.753,49.166,50.077,95.605,121.158,95.605
				c50.409,0,91.42-40.994,91.42-91.382c0-50.43-41.011-91.458-91.42-91.458c-16.034,0-31.829,4.243-45.675,12.271
				c-4.303,2.493-9.808,1.027-12.301-3.271c-2.493-4.301-1.028-9.808,3.271-12.301c16.587-9.616,35.503-14.699,54.704-14.699
				c60.334,0,109.42,49.103,109.42,109.458C494.883,316.094,445.797,365.162,385.463,365.162z"></path></svg>