<svg width="85" height="20" viewBox="0 0 85 20" fill="none" xmlns="http://www.w3.org/2000/svg">
<g clip-path="url(#clip0_304_22835)">
<path fill-rule="evenodd" clip-rule="evenodd" d="M17.567 10.5037C17.567 8.46983 16.9309 6.59189 15.8804 4.99741C14.1081 2.35412 11.0567 0.625 7.59071 0.625C6.81177 0.625 6.08999 0.710039 5.37536 0.87303C3.68168 1.22736 2.18096 2.02814 0.9375 3.12656V14.9186C2.90274 14.9186 4.58926 13.643 5.16097 11.8643C5.11809 11.7793 5.06092 11.7013 4.98231 11.6375L2.78839 9.74542C2.2953 9.32022 2.55971 8.52653 3.21717 8.46983L6.12572 8.20054C6.40443 8.1722 6.64026 8.00921 6.74745 7.76118L7.9123 5.13914C8.16957 4.54387 9.02712 4.54387 9.29154 5.13914L10.4492 7.76118C10.5636 8.00921 10.7994 8.1722 11.071 8.20054L13.9867 8.46983C14.6441 8.52653 14.9085 9.32022 14.4154 9.74542L12.2144 11.6375C12.0071 11.8147 11.9214 12.084 11.9785 12.3462L12.6217 15.1383C12.7646 15.7619 12.0715 16.258 11.4997 15.932L8.98425 14.4722C8.74842 14.3375 8.17671 14.2879 7.89086 14.3659L7.36918 14.5218L6.78318 14.7131L6.1686 14.9611C4.332 15.691 1.71645 17.6895 1.10901 19.3973H12.05C13.6008 18.6249 14.9228 17.4556 15.8804 16.017C16.9595 14.4509 17.567 12.58 17.567 10.532C17.567 10.532 17.567 10.532 17.567 10.5037Z" fill="url(#paint0_linear_304_22835)"/>
</g>
<g clip-path="url(#clip1_304_22835)">
<path fill-rule="evenodd" clip-rule="evenodd" d="M37.229 9.78178C37.229 11.1447 37.0515 12.3105 36.6965 13.2791C36.3415 14.2477 35.8319 15.0383 35.1676 15.6508C34.5034 16.2634 33.696 16.7132 32.7455 17.0004C31.795 17.2875 30.6631 17.4311 29.35 17.4311H25.8112C25.5593 17.4311 25.3474 17.3564 25.1756 17.2071C25.0039 17.0578 24.918 16.8147 24.918 16.4778V3.5222C24.918 3.18529 25.0039 2.94219 25.1756 2.79288C25.3474 2.64357 25.5593 2.56891 25.8112 2.56891H29.6133C30.9342 2.56891 32.0546 2.72396 32.9746 3.03407C33.8945 3.34418 34.6695 3.80359 35.2993 4.41233C35.9292 5.02106 36.4083 5.77335 36.7366 6.66922C37.0649 7.56509 37.229 8.6026 37.229 9.78178ZM34.114 9.88515C34.114 9.1807 34.032 8.52604 33.8678 7.92113C33.7037 7.31623 33.4403 6.79173 33.0776 6.34762C32.715 5.90352 32.2493 5.55705 31.6805 5.30819C31.1117 5.05934 30.3654 4.93491 29.4416 4.93491H27.9184V15.0421H29.4874C30.3119 15.0421 31.0067 14.9349 31.5717 14.7205C32.1366 14.5061 32.6081 14.1826 32.986 13.75C33.3639 13.3174 33.6464 12.7795 33.8335 12.1363C34.0205 11.4931 34.114 10.7427 34.114 9.88515ZM55.3005 16.6616C55.2547 16.8453 55.1917 16.9927 55.1116 17.1038C55.0314 17.2148 54.9111 17.299 54.7508 17.3564C54.5905 17.4139 54.3843 17.4521 54.1324 17.4713C53.8805 17.4904 53.5598 17.5 53.1704 17.5C52.7352 17.5 52.386 17.4904 52.1225 17.4713C51.8591 17.4521 51.6511 17.4139 51.4984 17.3564C51.3457 17.299 51.235 17.2148 51.1663 17.1038C51.0976 16.9927 51.0441 16.8453 51.006 16.6616L48.6354 7.24349H48.6125L46.3678 16.6616C46.3297 16.8377 46.2762 16.9812 46.2075 17.0923C46.1388 17.2033 46.03 17.2894 45.8811 17.3507C45.7322 17.4119 45.5299 17.4521 45.2742 17.4713C45.0184 17.4904 44.6806 17.5 44.2606 17.5C43.8178 17.5 43.4647 17.4904 43.2013 17.4713C42.9379 17.4521 42.7299 17.4139 42.5772 17.3564C42.4245 17.299 42.3138 17.2148 42.2451 17.1038C42.1764 16.9927 42.1191 16.8453 42.0733 16.6616L38.7064 3.69448C38.6376 3.41883 38.5995 3.20253 38.5918 3.04556C38.5842 2.88859 38.6281 2.76799 38.7235 2.68377C38.819 2.59954 38.9755 2.54785 39.1931 2.52871C39.4107 2.50957 39.7141 2.5 40.1035 2.5C40.4624 2.5 40.7467 2.50574 40.9567 2.51723C41.1667 2.52871 41.3251 2.55551 41.432 2.59762C41.5389 2.63974 41.6114 2.70099 41.6496 2.78139C41.6877 2.86179 41.7183 2.97473 41.7412 3.12021L44.3408 14.5023H44.3523L47.055 3.20061C47.0855 3.05512 47.1256 2.93644 47.1752 2.84456C47.2248 2.75268 47.3088 2.68185 47.4272 2.63208C47.5455 2.58231 47.7077 2.54785 47.9139 2.52871C48.12 2.50957 48.3949 2.5 48.7384 2.5C49.1049 2.5 49.3969 2.50766 49.6145 2.52297C49.8321 2.53829 50.0001 2.57083 50.1184 2.6206C50.2368 2.67037 50.3227 2.74119 50.3761 2.83308C50.4295 2.92496 50.4715 3.04747 50.5021 3.20061L53.2964 14.5023H53.3193L55.9189 3.15467C55.9418 3.03216 55.9724 2.92688 56.0106 2.83882C56.0487 2.75077 56.1213 2.68185 56.2281 2.63208C56.335 2.58231 56.4877 2.54785 56.6862 2.52871C56.8847 2.50957 57.1634 2.5 57.5222 2.5C57.8582 2.5 58.1197 2.50957 58.3067 2.52871C58.4938 2.54785 58.6293 2.59954 58.7133 2.68377C58.7972 2.76799 58.8335 2.89242 58.8221 3.05704C58.8106 3.22167 58.7705 3.44563 58.7018 3.72894L55.3005 16.6616ZM69.7417 16.2481C69.7417 16.4701 69.7321 16.6558 69.7131 16.8051C69.694 16.9544 69.6653 17.075 69.6272 17.1669C69.589 17.2588 69.5413 17.3258 69.484 17.3679C69.4267 17.41 69.3638 17.4311 69.295 17.4311H61.8512C61.5992 17.4311 61.3873 17.3564 61.2156 17.2071C61.0438 17.0578 60.9579 16.8147 60.9579 16.4778V3.5222C60.9579 3.18529 61.0438 2.94219 61.2156 2.79288C61.3873 2.64357 61.5992 2.56891 61.8512 2.56891H69.2492C69.318 2.56891 69.379 2.58805 69.4325 2.62634C69.4859 2.66462 69.5317 2.73162 69.5699 2.82733C69.6081 2.92305 69.6367 3.04556 69.6558 3.19487C69.6749 3.34418 69.6844 3.53369 69.6844 3.7634C69.6844 3.9778 69.6749 4.15965 69.6558 4.30896C69.6367 4.45827 69.6081 4.57887 69.5699 4.67075C69.5317 4.76263 69.4859 4.82963 69.4325 4.87174C69.379 4.91386 69.318 4.93491 69.2492 4.93491H63.9583V8.56432H68.4361C68.5048 8.56432 68.5678 8.58537 68.6251 8.62749C68.6824 8.6696 68.7301 8.73468 68.7682 8.82274C68.8064 8.9108 68.835 9.02948 68.8541 9.17879C68.8732 9.3281 68.8828 9.50996 68.8828 9.72435C68.8828 9.9464 68.8732 10.1302 68.8541 10.2756C68.835 10.4211 68.8064 10.5379 68.7682 10.626C68.7301 10.714 68.6824 10.7772 68.6251 10.8155C68.5678 10.8538 68.5048 10.8729 68.4361 10.8729H63.9583V15.0651H69.295C69.3638 15.0651 69.4267 15.0861 69.484 15.1283C69.5413 15.1704 69.589 15.2374 69.6272 15.3293C69.6653 15.4211 69.694 15.5417 69.7131 15.691C69.7321 15.8404 69.7417 16.026 69.7417 16.2481ZM84.7096 9.78178C84.7096 11.1447 84.5321 12.3105 84.1771 13.2791C83.8221 14.2477 83.3125 15.0383 82.6483 15.6508C81.984 16.2634 81.1767 16.7132 80.2261 17.0004C79.2756 17.2875 78.1437 17.4311 76.8306 17.4311H73.2918C73.0399 17.4311 72.828 17.3564 72.6562 17.2071C72.4845 17.0578 72.3986 16.8147 72.3986 16.4778V3.5222C72.3986 3.18529 72.4845 2.94219 72.6562 2.79288C72.828 2.64357 73.0399 2.56891 73.2918 2.56891H77.094C78.4148 2.56891 79.5352 2.72396 80.4552 3.03407C81.3752 3.34418 82.1501 3.80359 82.78 4.41233C83.4098 5.02106 83.8889 5.77335 84.2172 6.66922C84.5455 7.56509 84.7096 8.6026 84.7096 9.78178ZM81.5947 9.88515C81.5947 9.1807 81.5126 8.52604 81.3484 7.92113C81.1843 7.31623 80.9209 6.79173 80.5582 6.34762C80.1956 5.90352 79.7299 5.55705 79.1611 5.30819C78.5923 5.05934 77.846 4.93491 76.9222 4.93491H75.399V15.0421H76.968C77.7925 15.0421 78.4873 14.9349 79.0523 14.7205C79.6173 14.5061 80.0887 14.1826 80.4666 13.75C80.8445 13.3174 81.127 12.7795 81.3141 12.1363C81.5011 11.4931 81.5947 10.7427 81.5947 9.88515Z" fill="url(#paint1_linear_304_22835)"/>
</g>
<defs>
<linearGradient id="paint0_linear_304_22835" x1="9.25223" y1="0.625" x2="9.25223" y2="19.3973" gradientUnits="userSpaceOnUse">
<stop stop-color="#1DA1F2"/>
<stop offset="1" stop-color="#003CC5"/>
</linearGradient>
<linearGradient id="paint1_linear_304_22835" x1="54.8138" y1="2.5" x2="54.8138" y2="17.5" gradientUnits="userSpaceOnUse">
<stop stop-color="#1DA1F2"/>
<stop offset="1" stop-color="#003CC5"/>
</linearGradient>
<clipPath id="clip0_304_22835">
<rect width="17.8571" height="20" fill="white" transform="translate(0.333984)"/>
</clipPath>
<clipPath id="clip1_304_22835">
<rect width="59.7917" height="15" fill="white" transform="translate(24.918 2.5)"/>
</clipPath>
</defs>
</svg>
