<svg width="405" height="96" viewBox="0 0 405 96" fill="none" xmlns="http://www.w3.org/2000/svg">
<path fill-rule="evenodd" clip-rule="evenodd" d="M82.7142 50.4177C82.7142 40.6552 79.6613 31.6411 74.6189 23.9876C66.1119 11.2998 51.4649 3 34.8283 3C31.0893 3 27.6248 3.40819 24.1945 4.19054C16.0649 5.89132 8.86142 9.73508 2.89282 15.0075V71.6093C12.326 71.6093 20.4213 65.4865 23.1655 56.9486C22.9597 56.5405 22.6852 56.1663 22.3079 55.8601L11.7771 46.778C9.41026 44.7371 10.6794 40.9273 13.8353 40.6552L27.7963 39.3626C29.1341 39.2265 30.2661 38.4442 30.7806 37.2536L36.3719 24.6679C37.6067 21.8106 41.723 21.8106 42.9922 24.6679L48.5492 37.2536C49.098 38.4442 50.23 39.2265 51.5335 39.3626L65.5288 40.6552C68.6846 40.9273 69.9538 44.7371 67.5869 46.778L57.0218 55.8601C56.0271 56.7105 55.6154 58.0031 55.8899 59.2617L58.9771 72.6638C59.6631 75.6572 56.3358 78.0383 53.5916 76.4736L41.5172 69.4664C40.3852 68.8201 37.641 68.582 36.2689 68.9561L33.7649 69.7045L30.9521 70.6229L28.0021 71.8134C19.1864 75.317 6.63177 84.9094 3.71608 93.1071H56.2329C63.6765 89.3995 70.0224 83.7869 74.6189 76.8817C79.7986 69.3643 82.7142 60.3842 82.7142 50.5537C82.7142 50.5537 82.7142 50.5537 82.7142 50.4177Z" fill="white"/>
<g clip-path="url(#clip0_304_29051)">
<path fill-rule="evenodd" clip-rule="evenodd" d="M177.093 46.9525C177.093 53.4947 176.241 59.0903 174.537 63.7397C172.833 68.389 170.387 72.1838 167.198 75.1241C164.01 78.0643 160.135 80.2236 155.572 81.6018C151.01 82.9801 145.577 83.6692 139.274 83.6692H122.288C121.078 83.6692 120.061 83.3109 119.237 82.5942C118.412 81.8775 118 80.7106 118 79.0934V16.9066C118 15.2894 118.412 14.1225 119.237 13.4058C120.061 12.6891 121.078 12.3308 122.288 12.3308H140.538C146.878 12.3308 152.256 13.075 156.672 14.5635C161.088 16.0521 164.807 18.2572 167.831 21.1792C170.854 24.1011 173.154 27.7121 174.729 32.0122C176.305 36.3124 177.093 41.2925 177.093 46.9525ZM162.141 47.4487C162.141 44.0674 161.747 40.925 160.959 38.0214C160.171 35.1179 158.907 32.6003 157.166 30.4686C155.426 28.3369 153.19 26.6738 150.46 25.4793C147.73 24.2848 144.148 23.6876 139.713 23.6876H132.402V72.2022H139.933C143.891 72.2022 147.226 71.6876 149.938 70.6585C152.65 69.6294 154.913 68.0766 156.727 66C158.541 63.9234 159.897 61.3415 160.794 58.2542C161.692 55.1669 162.141 51.5651 162.141 47.4487ZM263.836 79.9755C263.616 80.8576 263.314 81.5651 262.929 82.098C262.544 82.6309 261.967 83.0352 261.198 83.3109C260.428 83.5865 259.439 83.7703 258.229 83.8622C257.02 83.9541 255.481 84 253.612 84C251.523 84 249.846 83.9541 248.582 83.8622C247.318 83.7703 246.319 83.5865 245.586 83.3109C244.853 83.0352 244.322 82.6309 243.992 82.098C243.662 81.5651 243.406 80.8576 243.222 79.9755L231.844 34.7688H231.734L220.959 79.9755C220.776 80.8208 220.52 81.51 220.19 82.0429C219.86 82.5758 219.338 82.9893 218.623 83.2833C217.909 83.5773 216.937 83.7703 215.71 83.8622C214.482 83.9541 212.86 84 210.845 84C208.719 84 207.024 83.9541 205.76 83.8622C204.496 83.7703 203.497 83.5865 202.764 83.3109C202.031 83.0352 201.5 82.6309 201.17 82.098C200.84 81.5651 200.565 80.8576 200.346 79.9755L184.184 17.7335C183.854 16.4104 183.671 15.3721 183.635 14.6187C183.598 13.8652 183.809 13.2864 184.267 12.8821C184.725 12.4778 185.476 12.2297 186.52 12.1378C187.565 12.0459 189.022 12 190.891 12C192.613 12 193.978 12.0276 194.986 12.0827C195.994 12.1378 196.754 12.2665 197.267 12.4686C197.78 12.6707 198.128 12.9648 198.312 13.3507C198.495 13.7366 198.641 14.2787 198.751 14.977L211.23 69.611H211.285L224.258 15.3629C224.404 14.6646 224.597 14.0949 224.835 13.6539C225.073 13.2128 225.476 12.8729 226.044 12.634C226.612 12.3951 227.391 12.2297 228.38 12.1378C229.37 12.0459 230.689 12 232.338 12C234.097 12 235.499 12.0368 236.543 12.1103C237.588 12.1838 238.394 12.34 238.962 12.5789C239.53 12.8178 239.942 13.1577 240.199 13.5988C240.456 14.0398 240.657 14.6278 240.804 15.3629L254.216 69.611H254.326L266.805 15.1424C266.915 14.5544 267.061 14.049 267.244 13.6263C267.428 13.2037 267.776 12.8729 268.289 12.634C268.802 12.3951 269.535 12.2297 270.488 12.1378C271.44 12.0459 272.778 12 274.5 12C276.113 12 277.368 12.0459 278.266 12.1378C279.164 12.2297 279.814 12.4778 280.217 12.8821C280.621 13.2864 280.795 13.8836 280.74 14.6738C280.685 15.464 280.492 16.539 280.162 17.8989L263.836 79.9755ZM333.154 77.9908C333.154 79.0567 333.108 79.9479 333.016 80.6646C332.925 81.3813 332.787 81.9602 332.604 82.4012C332.421 82.8423 332.192 83.1639 331.917 83.366C331.642 83.5682 331.34 83.6692 331.01 83.6692H295.279C294.07 83.6692 293.053 83.3109 292.228 82.5942C291.404 81.8775 290.992 80.7106 290.992 79.0934V16.9066C290.992 15.2894 291.404 14.1225 292.228 13.4058C293.053 12.6891 294.07 12.3308 295.279 12.3308H330.79C331.12 12.3308 331.413 12.4227 331.67 12.6064C331.926 12.7902 332.146 13.1118 332.329 13.5712C332.512 14.0306 332.65 14.6187 332.742 15.3354C332.833 16.0521 332.879 16.9617 332.879 18.0643C332.879 19.0934 332.833 19.9663 332.742 20.683C332.65 21.3997 332.512 21.9786 332.329 22.4196C332.146 22.8606 331.926 23.1822 331.67 23.3844C331.413 23.5865 331.12 23.6876 330.79 23.6876H305.394V41.1087H326.887C327.217 41.1087 327.519 41.2098 327.794 41.4119C328.069 41.6141 328.298 41.9265 328.481 42.3492C328.665 42.7718 328.802 43.3415 328.894 44.0582C328.985 44.7749 329.031 45.6478 329.031 46.6769C329.031 47.7427 328.985 48.6248 328.894 49.3231C328.802 50.0214 328.665 50.5819 328.481 51.0046C328.298 51.4273 328.069 51.7305 327.794 51.9142C327.519 52.098 327.217 52.1899 326.887 52.1899H305.394V72.3124H331.01C331.34 72.3124 331.642 72.4135 331.917 72.6156C332.192 72.8178 332.421 73.1394 332.604 73.5804C332.787 74.0215 332.925 74.6003 333.016 75.317C333.108 76.0337 333.154 76.925 333.154 77.9908ZM405 46.9525C405 53.4947 404.148 59.0903 402.444 63.7397C400.74 68.389 398.294 72.1838 395.105 75.1241C391.917 78.0643 388.042 80.2236 383.479 81.6018C378.917 82.9801 373.484 83.6692 367.18 83.6692H350.195C348.985 83.6692 347.968 83.3109 347.144 82.5942C346.319 81.8775 345.907 80.7106 345.907 79.0934V16.9066C345.907 15.2894 346.319 14.1225 347.144 13.4058C347.968 12.6891 348.985 12.3308 350.195 12.3308H368.445C374.785 12.3308 380.163 13.075 384.579 14.5635C388.994 16.0521 392.714 18.2572 395.738 21.1792C398.761 24.1011 401.06 27.7121 402.636 32.0122C404.212 36.3124 405 41.2925 405 46.9525ZM390.048 47.4487C390.048 44.0674 389.654 40.925 388.866 38.0214C388.078 35.1179 386.814 32.6003 385.073 30.4686C383.333 28.3369 381.097 26.6738 378.367 25.4793C375.637 24.2848 372.054 23.6876 367.62 23.6876H360.309V72.2022H367.84C371.798 72.2022 375.133 71.6876 377.845 70.6585C380.557 69.6294 382.819 68.0766 384.633 66C386.448 63.9234 387.803 61.3415 388.701 58.2542C389.599 55.1669 390.048 51.5651 390.048 47.4487Z" fill="white"/>
</g>
<defs>
<clipPath id="clip0_304_29051">
<rect width="287" height="72" fill="white" transform="translate(118 12)"/>
</clipPath>
</defs>
</svg>
