<svg width="32" height="32" viewBox="0 0 32 32" fill="none" xmlns="http://www.w3.org/2000/svg">
<path d="M12.6665 18.3336C12.6665 19.627 13.6665 20.667 14.8932 20.667H17.3998C18.4665 20.667 19.3332 19.7603 19.3332 18.627C19.3332 17.4136 18.7998 16.9736 18.0132 16.6936L13.9998 15.2936C13.2132 15.0136 12.6799 14.587 12.6799 13.3603C12.6799 12.2403 13.5465 11.3203 14.6132 11.3203H17.1198C18.3465 11.3203 19.3465 12.3603 19.3465 13.6536" stroke="white" stroke-width="1.5" stroke-linecap="round" stroke-linejoin="round"/>
<path d="M16 10V22" stroke="white" stroke-width="1.5" stroke-linecap="round" stroke-linejoin="round"/>
<path d="M29.3332 15.9993C29.3332 23.3593 23.3598 29.3327 15.9998 29.3327C8.63984 29.3327 2.6665 23.3593 2.6665 15.9993C2.6665 8.63935 8.63984 2.66602 15.9998 2.66602" stroke="white" stroke-width="1.5" stroke-linecap="round" stroke-linejoin="round"/>
<path d="M22.6665 4V9.33333H27.9998" stroke="white" stroke-width="1.5" stroke-linecap="round" stroke-linejoin="round"/>
<path d="M29.3332 2.66602L22.6665 9.33268" stroke="white" stroke-width="1.5" stroke-linecap="round" stroke-linejoin="round"/>
</svg>
