<svg width="24" height="24" viewBox="0 0 24 24" fill="none" xmlns="http://www.w3.org/2000/svg">
<path d="M17 20.5H7C4 20.5 2 19 2 15.5V8.5C2 5 4 3.5 7 3.5H17C20 3.5 22 5 22 8.5V15.5C22 19 20 20.5 17 20.5Z" stroke="url(#paint0_linear_11164_4599)" stroke-width="1.5" stroke-miterlimit="10" stroke-linecap="round" stroke-linejoin="round"/>
<path d="M12 15C13.6569 15 15 13.6569 15 12C15 10.3431 13.6569 9 12 9C10.3431 9 9 10.3431 9 12C9 13.6569 10.3431 15 12 15Z" stroke="url(#paint1_linear_11164_4599)" stroke-width="1.5" stroke-miterlimit="10" stroke-linecap="round" stroke-linejoin="round"/>
<path d="M19 7H16" stroke="url(#paint2_linear_11164_4599)" stroke-width="1.5" stroke-miterlimit="10" stroke-linecap="round" stroke-linejoin="round"/>
<path d="M8 17H5" stroke="url(#paint3_linear_11164_4599)" stroke-width="1.5" stroke-miterlimit="10" stroke-linecap="round" stroke-linejoin="round"/>
<defs>
<linearGradient id="paint0_linear_11164_4599" x1="12" y1="3.5" x2="12" y2="20.5" gradientUnits="userSpaceOnUse">
<stop stop-color="#1A79FF"/>
<stop offset="1" stop-color="#1A79FF"/>
</linearGradient>
<linearGradient id="paint1_linear_11164_4599" x1="12" y1="9" x2="12" y2="15" gradientUnits="userSpaceOnUse">
<stop stop-color="#1A79FF"/>
<stop offset="1" stop-color="#1A79FF"/>
</linearGradient>
<linearGradient id="paint2_linear_11164_4599" x1="17.5" y1="7" x2="17.5" y2="8" gradientUnits="userSpaceOnUse">
<stop stop-color="#1A79FF"/>
<stop offset="1" stop-color="#1A79FF"/>
</linearGradient>
<linearGradient id="paint3_linear_11164_4599" x1="6.5" y1="17" x2="6.5" y2="18" gradientUnits="userSpaceOnUse">
<stop stop-color="#1A79FF"/>
<stop offset="1" stop-color="#1A79FF"/>
</linearGradient>
</defs>
</svg>
