<svg width="320" height="262" viewBox="0 0 320 262" fill="none" xmlns="http://www.w3.org/2000/svg">
<path d="M185.646 262C184.122 262 182.597 261.912 181.088 261.736L10.6458 224.475C4.78414 223.784 0.445577 220.654 0.203563 216.923L0.0111456 214.015C-0.109812 212.195 0.759051 210.46 2.35913 209.047C3.93177 207.666 6.19736 206.594 8.91935 206.051L12.4544 205.263C12.8289 211.592 17.3658 216.802 23.5706 217.981L179.296 247.56C180.801 247.846 182.325 247.988 183.849 247.988C186.544 247.988 189.235 247.543 191.796 246.661L304.265 207.979C307.355 206.92 309.549 204.213 310.02 201.027L313.858 201.439C316.249 201.694 318.207 202.652 319.23 203.937C319.725 204.559 320 205.257 320 205.993V210.386C320 212.362 317.987 214.122 314.99 214.757L193.603 261.176C191.031 261.724 188.342 262 185.646 262Z" fill="#99B8CF"/>
<path d="M125.041 157.364L22.8427 190.372C18.524 191.765 15.6389 195.929 15.8256 200.498L16.0042 204.848C16.1974 209.616 19.5799 213.563 24.2306 214.447L179.956 244.025C183.521 244.702 187.218 244.436 190.644 243.256L303.116 204.575C305.17 203.87 306.549 201.927 306.549 199.738V193.165C306.549 190.669 304.78 188.55 302.341 188.128L125.041 157.364M183.849 247.988C182.325 247.988 180.801 247.846 179.296 247.56L23.5706 217.982C17.2786 216.786 12.7018 211.445 12.4411 204.995L12.2626 200.646C12.0093 194.464 15.913 188.83 21.7555 186.945L124.368 153.804C124.643 153.716 124.932 153.695 125.215 153.744L302.946 184.583C307.099 185.301 310.116 188.911 310.116 193.165V199.738C310.116 203.467 307.764 206.78 304.265 207.98L191.796 246.661C189.235 247.543 186.544 247.988 183.849 247.988" fill="#000049"/>
<path d="M308.333 193.166V199.739C308.333 202.694 306.469 205.325 303.692 206.276L191.221 244.957C187.491 246.242 183.497 246.524 179.625 245.794L23.8981 216.215C18.467 215.181 14.447 210.5 14.2229 204.919L14.0445 200.572C13.9324 197.848 14.7374 195.253 16.2202 193.14C17.6771 191.074 19.7763 189.471 22.2984 188.659L124.91 155.518L302.642 186.356C304.859 186.737 306.672 188.171 307.62 190.093C308.079 191.023 308.333 192.067 308.333 193.166" fill="white"/>
<path d="M125.041 157.364L22.8427 190.372C18.524 191.765 15.6389 195.929 15.8256 200.498L16.0042 204.848C16.1974 209.616 19.5799 213.563 24.2306 214.447L179.956 244.025C183.521 244.702 187.218 244.436 190.644 243.256L303.116 204.575C305.17 203.87 306.549 201.927 306.549 199.738V193.165C306.549 190.669 304.78 188.55 302.341 188.128L125.041 157.364M183.849 247.988C182.325 247.988 180.801 247.846 179.296 247.56L23.5706 217.982C17.2786 216.786 12.7018 211.445 12.4411 204.995L12.2626 200.646C12.0093 194.464 15.913 188.83 21.7555 186.945L124.368 153.804C124.643 153.716 124.932 153.695 125.215 153.744L302.946 184.583C307.099 185.301 310.116 188.911 310.116 193.165V199.738C310.116 203.467 307.764 206.78 304.265 207.98L191.796 246.661C189.235 247.543 186.544 247.988 183.849 247.988" fill="#371A45"/>
<path d="M183.849 244.391C182.547 244.391 181.242 244.268 179.956 244.025L24.2309 214.446C19.5802 213.562 16.1977 209.615 16.0046 204.847L15.826 200.497C15.7367 198.315 16.3484 196.225 17.4825 194.484C19.2784 196.124 21.9029 197.547 25.7077 198.407C32.9832 200.053 67.7283 206.635 101.393 212.941C101.245 212.921 101.099 212.902 100.953 212.882C115.336 216.314 129.784 219.393 144.256 222.349L149.682 223.463L155.115 224.539L165.981 226.687L176.861 228.761C177.769 228.932 178.665 229.11 179.61 229.262C180.077 229.339 180.543 229.425 181.013 229.494L182.425 229.683C184.312 229.915 186.219 230.079 188.14 230.086C188.291 230.088 188.441 230.089 188.591 230.089C192.283 230.089 196.005 229.551 199.547 228.583C201.393 228.085 203.195 227.488 204.958 226.849L210.154 224.919C217.058 222.351 224.039 219.94 230.981 217.424C244.894 212.466 258.811 207.491 272.637 202.225C271.045 202.654 269.454 203.088 267.864 203.527C282.708 198.507 296.835 193.735 305.91 190.671C306.318 191.411 306.549 192.263 306.549 193.164V199.737C306.549 201.926 305.17 203.87 303.116 204.574L190.645 243.256C188.455 244.01 186.155 244.391 183.849 244.391Z" fill="#CBC4CF"/>
<path d="M183.849 246.189C182.437 246.189 181.023 246.058 179.625 245.794L23.8981 216.215C18.467 215.181 14.447 210.501 14.2229 204.919L14.0445 200.572C13.9324 197.848 14.7374 195.253 16.2202 193.14C16.5867 193.599 17.0049 194.05 17.4817 194.485C16.3477 196.225 15.7359 198.315 15.8252 200.498L16.0038 204.847C16.1969 209.615 19.5794 213.562 24.2302 214.446L179.955 244.025C181.242 244.269 182.547 244.391 183.849 244.391C186.154 244.391 188.454 244.01 190.644 243.256L303.115 204.575C305.17 203.87 306.548 201.926 306.548 199.738V193.164C306.548 192.263 306.318 191.411 305.909 190.671C306.501 190.471 307.071 190.278 307.62 190.093C308.079 191.023 308.333 192.067 308.333 193.166V199.739C308.333 202.694 306.469 205.325 303.692 206.276L191.221 244.957C188.838 245.778 186.347 246.189 183.849 246.189Z" fill="#371A45"/>
<path d="M82.6773 160.013L35.5282 176.997C33.1699 177.845 31.6102 180.124 31.6665 182.654L31.7933 188.408C31.8498 191.051 33.6585 193.336 36.2049 193.976L90.1991 207.556C93.3558 208.347 96.6873 207.954 99.5716 206.438L142.596 183.863C144.564 182.83 145.781 180.755 145.729 178.513L145.622 173.941C145.556 171.254 143.691 168.95 141.093 168.358L100.037 158.966C94.2632 157.639 88.2451 158.004 82.6773 160.013Z" fill="white"/>
<path d="M82.6773 160.013L35.5282 176.997C33.1699 177.845 31.6102 180.124 31.6665 182.654L31.7933 188.408C31.8498 191.051 33.6585 193.336 36.2049 193.976L90.1991 207.556C93.3558 208.347 96.6873 207.954 99.5716 206.438L142.596 183.863C144.564 182.83 145.781 180.755 145.729 178.513L145.622 173.941C145.556 171.254 143.691 168.95 141.093 168.358L100.037 158.966C94.2632 157.639 88.2451 158.004 82.6773 160.013Z" fill="#29B8FF"/>
<path d="M93.426 206.156C92.4918 206.156 91.5525 206.042 90.6302 205.81L36.6352 192.23C34.8732 191.786 33.6152 190.199 33.5758 188.367L33.4493 182.614C33.4248 181.525 33.8292 180.504 34.5311 179.746C35.0364 180.066 35.5981 180.311 36.2028 180.462L54.3729 185.033C65.2411 195.913 80.1446 202.398 96.1881 202.398C99.0197 202.398 101.804 202.197 104.53 201.808L98.7474 204.842C97.0925 205.712 95.2677 206.156 93.426 206.156" fill="#2D8FCF"/>
<path d="M82.6775 160.013H82.6825H82.6775ZM93.1303 159.98C89.7888 159.98 86.4613 160.558 83.2788 161.707H83.2778L36.128 178.691C34.4863 179.281 33.4104 180.858 33.4498 182.614L33.5763 188.368C33.6156 190.199 34.8736 191.787 36.6357 192.23L90.6307 205.811C93.3709 206.498 96.2532 206.154 98.7478 204.843L141.774 182.267C143.129 181.556 143.983 180.098 143.947 178.555L143.839 173.983C143.793 172.116 142.502 170.523 140.7 170.112L99.6423 160.72C97.4916 160.227 95.308 159.98 93.1303 159.98M93.4275 209.754C92.205 209.754 90.9766 209.605 89.769 209.302L35.7733 195.721C32.4544 194.887 30.0846 191.895 30.0104 188.447L29.8838 182.695C29.8104 179.385 31.8381 176.415 34.9294 175.303L82.0782 158.32C87.976 156.191 94.324 155.809 100.432 157.212L141.487 166.604C144.885 167.378 147.318 170.377 147.404 173.896L147.512 178.47C147.58 181.376 145.973 184.119 143.42 185.458L100.395 208.034C98.229 209.172 95.8387 209.754 93.4275 209.754" fill="#371A45"/>
<path d="M149.45 149.536C149.45 149.536 159.523 143.002 169.618 133.619C173.8 129.734 185.258 129.336 189.181 132.292C194.758 136.495 193.199 148.119 179.705 150.2C172.17 151.365 167.528 147.721 167.528 147.721L149.45 149.536" fill="white"/>
<path d="M167.528 145.923C167.923 145.923 168.308 146.055 168.624 146.302C168.783 146.424 172.819 149.445 179.435 148.422C185.169 147.538 189.192 144.586 190.199 140.526C190.861 137.854 190.043 135.187 188.114 133.733C184.918 131.324 174.396 131.625 170.827 134.941C165.381 140.003 159.991 144.213 156.116 147.06L167.351 145.932C167.411 145.926 167.47 145.923 167.528 145.923M176.754 152.229C171.825 152.23 168.408 150.43 167.062 149.576L149.627 151.326C148.802 151.406 148.038 150.913 147.767 150.128C147.495 149.343 147.792 148.473 148.485 148.023C148.585 147.959 158.554 141.456 168.411 132.296C173.343 127.712 185.827 127.518 190.249 130.851C193.333 133.176 194.671 137.316 193.659 141.4C192.292 146.912 187.177 150.867 179.975 151.978C178.841 152.153 177.765 152.229 176.754 152.229" fill="#371A45"/>
<path d="M153.721 142.565C153.721 174.618 127.961 200.6 96.1893 200.6C70.8717 200.6 49.3732 184.11 41.6825 161.192C39.7187 155.345 38.6523 149.081 38.6523 142.565C38.6523 136.325 39.6295 130.311 41.4384 124.673C48.9177 101.382 70.6034 84.5356 96.1893 84.5356C122.629 84.5356 144.903 102.528 151.635 127.036C152.231 129.207 152.706 131.429 153.054 133.69C153.495 136.585 153.721 139.547 153.721 142.565" fill="white"/>
<path d="M96.1879 198.801C81.9235 198.801 68.6182 193.346 58.575 184.101C59.534 184.276 60.4862 184.364 61.4164 184.364C64.8692 184.364 68.0368 183.153 70.2363 180.683C70.8982 179.94 71.4379 179.123 71.8593 178.248C74.677 178.205 77.5265 178.024 80.4009 177.705C85.4181 179.146 90.7146 179.917 96.1899 179.917C101.515 179.917 106.671 179.188 111.565 177.822C110.627 185.593 111.794 193.13 112.606 196.162C112.619 196.209 112.631 196.255 112.644 196.301C107.44 197.926 101.915 198.801 96.1879 198.801M43.3546 160.517C43.3417 160.495 43.3291 160.473 43.3162 160.45C42.8981 159.193 42.5251 157.923 42.1974 156.642C42.1973 156.642 42.197 156.641 42.197 156.64C42.1928 156.624 42.1886 156.607 42.1843 156.591C42.1824 156.583 42.1807 156.576 42.1788 156.569C42.1762 156.559 42.1736 156.549 42.171 156.539C42.1675 156.524 42.1639 156.51 42.1605 156.496C42.1594 156.492 42.1584 156.488 42.1573 156.483C42.1523 156.464 42.1474 156.444 42.1425 156.425L42.1424 156.424C41.1654 152.54 40.6046 148.555 40.4681 144.517L40.468 144.516C40.4672 144.492 40.4665 144.468 40.4657 144.445C40.4657 144.444 40.4656 144.444 40.4656 144.443C40.4649 144.42 40.4641 144.397 40.4634 144.375C40.4634 144.373 40.4633 144.372 40.4633 144.37C40.4626 144.348 40.4619 144.326 40.4612 144.304C40.4612 144.302 40.4611 144.3 40.461 144.298C40.4604 144.276 40.4598 144.255 40.4591 144.233C40.459 144.231 40.459 144.228 40.4589 144.225C40.4583 144.205 40.4577 144.184 40.4571 144.163C40.457 144.16 40.4569 144.156 40.4569 144.153C40.4563 144.133 40.4557 144.112 40.4552 144.092C40.4551 144.088 40.455 144.084 40.4549 144.08C40.4544 144.06 40.4539 144.039 40.4534 144.019C40.4533 144.015 40.4532 144.012 40.4531 144.008C40.4526 143.989 40.4522 143.969 40.4517 143.949C40.4516 143.945 40.4515 143.941 40.4514 143.936C40.4509 143.916 40.4504 143.897 40.45 143.877C40.4499 143.873 40.4498 143.868 40.4497 143.864C40.4492 143.845 40.4488 143.826 40.4484 143.806C40.4483 143.802 40.4482 143.797 40.4481 143.792C40.4477 143.773 40.4473 143.754 40.4469 143.735C40.4468 143.73 40.4467 143.725 40.4466 143.72C40.4462 143.701 40.4459 143.681 40.4455 143.663C40.4454 143.657 40.4453 143.652 40.4452 143.647C40.4448 143.628 40.4445 143.609 40.4441 143.59C40.4441 143.585 40.444 143.58 40.4439 143.575C40.4436 143.557 40.4433 143.54 40.443 143.522C40.4429 143.515 40.4427 143.509 40.4426 143.502C40.4424 143.485 40.4421 143.469 40.4418 143.451C40.4417 143.444 40.4416 143.437 40.4415 143.43C40.4413 143.413 40.441 143.396 40.4408 143.379C40.4407 143.372 40.4406 143.365 40.4405 143.359C40.4403 143.344 40.4401 143.329 40.4399 143.314C41.4163 148.269 43.1321 153.073 45.4739 157.456C45.3356 157.594 45.2007 157.738 45.0691 157.885C44.3587 158.683 43.7885 159.568 43.3546 160.517M146.847 149.418C148.367 146.579 149.659 143.597 150.698 140.499C151.083 139.981 151.458 139.462 151.823 138.938C151.899 140.143 151.938 141.354 151.938 142.565C151.938 144.232 151.865 145.884 151.723 147.515C149.966 148.113 148.268 148.799 146.847 149.418" fill="#CBC4CF"/>
<path d="M96.1891 86.3344C71.9251 86.3344 50.6047 101.964 43.135 125.226C41.3437 130.811 40.4352 136.645 40.4352 142.565C40.4352 148.743 41.4232 154.816 43.3712 160.616C51.0362 183.456 72.262 198.801 96.1881 198.801C126.928 198.801 151.938 173.574 151.938 142.565C151.938 139.671 151.72 136.777 151.291 133.963C150.956 131.784 150.493 129.614 149.916 127.518C143.255 103.27 121.162 86.3344 96.1891 86.3344M96.1881 202.398C70.7324 202.398 48.1486 186.071 39.9936 161.77C37.9204 155.598 36.8691 149.136 36.8691 142.565C36.8691 136.268 37.8354 130.061 39.7417 124.118C47.69 99.3668 70.3746 82.7374 96.1891 82.7374C122.759 82.7374 146.267 100.756 153.353 126.557C153.966 128.787 154.458 131.095 154.816 133.415C155.272 136.411 155.504 139.489 155.504 142.565C155.504 175.558 128.895 202.398 96.1881 202.398" fill="#371A45"/>
<path d="M151.635 127.036C142.281 139.94 128.675 151.199 113.247 158.672C95.3998 167.311 75.1561 170.856 55.4663 168.789C46.2207 160.402 40.3246 146.792 40.5265 133.155C40.5689 130.307 40.8789 127.463 41.438 124.673C48.9173 101.381 70.6031 84.5355 96.189 84.5355C122.629 84.5355 144.902 102.528 151.635 127.036" fill="#371A45"/>
<path d="M150.146 122.398C139.43 133.564 125.039 142.671 109.363 148.049C96.0747 152.602 81.8937 154.47 67.8877 153.594C54.616 152.762 43.4059 143.173 40.7606 130.029C40.7445 129.948 40.7285 129.867 40.7127 129.787C40.6136 130.907 40.5432 132.03 40.5265 133.155C40.3246 146.792 46.2207 160.402 55.4663 168.789C75.1561 170.856 95.3998 167.311 113.247 158.672C128.675 151.199 142.281 139.94 151.635 127.036C151.202 125.462 150.703 123.916 150.146 122.398" fill="#21102B"/>
<path d="M55.903 167.802C75.4324 169.79 95.1026 166.315 112.807 157.746C127.858 150.456 141.231 139.49 150.519 126.833C143.609 102.51 121.339 85.5641 96.188 85.5641C71.6119 85.5641 50.014 101.383 42.4253 124.934C41.8822 127.664 41.5862 130.435 41.5454 133.171C41.3523 146.205 46.8469 159.441 55.903 167.802M66.6305 170.402C62.8775 170.402 59.1176 170.206 55.361 169.812L55.0315 169.778L54.785 169.554C45.158 160.821 39.3043 146.868 39.5081 133.14C39.5508 130.259 39.8638 127.342 40.4394 124.469L40.4685 124.357C48.3144 99.9238 70.7064 83.5089 96.188 83.5089C122.417 83.5089 145.621 101.295 152.617 126.763L152.749 127.243L152.457 127.644C142.965 140.739 129.196 152.088 113.689 159.599C98.95 166.733 82.8737 170.402 66.6305 170.402Z" fill="#371A45"/>
<path d="M52.9536 172.621C71.0157 176.963 91.4512 174.342 112.082 165.03C130.456 156.74 143.609 146.079 151.19 133.334C150.866 131.37 150.438 129.416 149.916 127.517C143.255 103.27 121.162 86.3349 96.1881 86.3349C71.9251 86.3349 50.6047 101.965 43.135 125.227C41.3437 130.81 40.4352 136.643 40.4352 142.566C40.4352 148.685 41.4043 154.701 43.3164 160.451C45.9852 165.126 49.2255 169.217 52.9536 172.621M70.5863 178.258C64.0813 178.258 57.7517 177.512 51.6737 176.01L51.2443 175.904L50.9143 175.608C46.717 171.85 43.0902 167.301 40.1343 162.087L40.0489 161.935L39.9936 161.771C37.9204 155.598 36.8691 149.136 36.8691 142.566C36.8691 136.267 37.8354 130.061 39.7417 124.119C47.69 99.3673 70.3736 82.7379 96.1881 82.7379C122.759 82.7379 146.267 100.757 153.353 126.557C153.967 128.794 154.459 131.1 154.815 133.415L154.913 134.047L154.593 134.598C146.681 148.248 132.869 159.592 113.539 168.313C98.9184 174.912 84.3588 178.258 70.5863 178.258" fill="#371A45"/>
<path d="M45.0695 157.885C49.924 152.433 59.4927 153.117 66.443 159.413C73.3923 165.707 75.0899 175.231 70.2357 180.682C65.3815 186.135 55.8125 185.45 48.8629 179.156C41.9134 172.86 40.2151 163.336 45.0695 157.885" fill="white"/>
<path d="M49.9453 180.076C49.5788 179.785 49.2179 179.478 48.8641 179.159C48.7307 179.037 48.5993 178.915 48.4697 178.793C48.5991 178.915 48.7298 179.036 48.8631 179.158C49.2174 179.478 49.578 179.784 49.945 180.076C49.9459 180.077 49.9444 180.075 49.9453 180.076Z" fill="#2D8FCF"/>
<path d="M61.4164 184.365C60.4861 184.365 59.5339 184.277 58.5749 184.103L58.5742 184.102C59.5339 184.277 60.4851 184.365 61.4164 184.365C64.8692 184.365 68.0367 183.154 70.2352 180.684C70.8962 179.942 71.4358 179.123 71.8573 178.249C71.8583 178.249 71.8583 178.249 71.8593 178.249C71.4378 179.124 70.8982 179.941 70.2362 180.684C68.0367 183.154 64.8692 184.365 61.4164 184.365" fill="#A598AB"/>
<path d="M58.5749 184.102C55.6392 183.565 52.6352 182.215 49.9441 180.075C49.9433 180.074 49.9447 180.076 49.9438 180.075C52.6345 182.214 55.639 183.565 58.5742 184.101L58.5749 184.102" fill="#371A45"/>
<path d="M72.9043 174.627C73.0368 173.555 73.0359 172.445 72.9053 171.318C73.0359 172.445 73.0379 173.555 72.9053 174.627C72.9033 174.627 72.9053 174.627 72.9043 174.627Z" fill="#CBC4CF"/>
<path d="M71.8579 178.248C72.4008 177.122 72.7468 175.902 72.9049 174.626C72.9059 174.626 72.9039 174.626 72.9059 174.626C72.7478 175.901 72.4018 177.122 71.8599 178.248C71.8589 178.248 71.8589 178.248 71.8579 178.248" fill="#371A45"/>
<path d="M48.4555 178.779C48.4531 178.776 48.4512 178.775 48.4487 178.773C48.4507 178.775 48.4535 178.777 48.4555 178.779Z" fill="#2D8FCF"/>
<path d="M61.4169 184.365C60.4857 184.365 59.5345 184.277 58.5748 184.102C55.6396 183.566 52.6352 182.215 49.9445 180.076C49.5776 179.784 49.2171 179.478 48.863 179.157C48.7298 179.036 48.5991 178.915 48.4698 178.792C48.4654 178.787 48.4607 178.783 48.4562 178.779C48.4541 178.777 48.4511 178.774 48.4491 178.772C43.9724 174.504 41.8248 168.877 42.3934 164.029C43.2036 165.118 44.1462 166.156 45.2109 167.122C49.0123 170.569 53.5992 172.334 57.7683 172.334C61.2211 172.334 64.3867 171.124 66.5842 168.654C68.1128 166.932 68.9944 164.81 69.2588 162.508C71.3211 165.269 72.5625 168.347 72.9054 171.318C73.0356 172.445 73.0366 173.555 72.9044 174.627C72.7464 175.903 72.4005 177.123 71.8578 178.249C71.4364 179.123 70.8967 179.942 70.2358 180.684C68.0373 183.154 64.8697 184.365 61.4169 184.365" fill="#CBC4CF"/>
<path d="M46.3961 159.088C42.2065 163.793 43.8474 172.196 50.0539 177.819C56.2603 183.442 64.7183 184.188 68.9086 179.482C73.0989 174.777 71.4579 166.374 65.251 160.752C59.0442 155.129 50.5862 154.382 46.3961 159.088ZM61.4186 186.143C56.8117 186.143 51.7999 184.236 47.671 180.496C40.0013 173.546 38.2392 162.866 43.7425 156.684C49.2458 150.504 59.9635 151.127 67.6334 158.076C75.3033 165.024 77.0665 175.705 71.5623 181.886C69.0209 184.74 65.3693 186.143 61.4186 186.143" fill="#371A45"/>
<path d="M50.285 159.05C50.1215 159.05 49.9589 159.055 49.7978 159.064C48.5438 159.134 46.7831 159.534 45.5174 161.039C42.5697 164.542 44.359 171.604 49.4246 176.46C52.1074 179.034 55.535 180.329 58.8298 180.014C60.8135 179.825 62.4932 179.017 63.3221 177.851C65.6101 174.634 64.8328 168.123 60.0283 163.555C57.0332 160.708 53.4298 159.05 50.285 159.05V159.05ZM57.8543 183.658C53.9568 183.658 50.0521 182.025 46.9675 179.068C40.3572 172.731 38.5262 163.789 42.7978 158.711C44.4484 156.75 46.8006 155.629 49.5994 155.472C53.8113 155.241 58.6254 157.278 62.4743 160.938C68.8372 166.986 69.3729 175.515 66.2203 179.948C64.7772 181.976 62.2059 183.305 59.1656 183.596C58.7293 183.637 58.2916 183.658 57.8543 183.658" fill="#371A45"/>
<path d="M55.7393 108.807C55.7393 108.807 68.8981 92.103 92.365 89.3833C94.1142 89.1798 95.8138 89.0855 97.4607 89.0855C119.423 89.0855 132.199 105.84 132.199 105.84C132.199 105.84 117.586 94.8288 97.0671 94.8288C95.7343 94.8288 94.3786 94.8759 92.9991 94.9742C72.7932 96.4288 55.7393 108.807 55.7393 108.807" fill="#9B8DA2"/>
<path d="M54.6856 144.189C53.5738 144.189 52.5288 143.897 51.6356 143.279C48.4284 141.06 48.3963 135.486 51.5636 130.828C53.849 127.468 57.1759 125.504 60.0562 125.504C61.1684 125.504 62.2129 125.796 63.1065 126.414C66.3138 128.634 66.3456 134.208 63.178 138.865C60.893 142.225 57.5658 144.189 54.6856 144.189Z" fill="#9B8DA2"/>
<path d="M72.1396 146.318C71.0086 146.318 70.0425 145.918 69.5018 145.117C68.4085 143.493 69.479 140.836 71.8932 139.181C73.1156 138.343 74.4475 137.922 75.6073 137.922C76.7384 137.922 77.7045 138.322 78.2451 139.123C79.3384 140.747 78.268 143.405 75.8538 145.06C74.6313 145.898 73.2995 146.318 72.1396 146.318Z" fill="#9B8DA2"/>
<path d="M293.268 187.298C290.119 194.395 269.409 192.628 240.393 201.046C211.377 209.457 198.89 221.936 191.517 221.936C184.144 221.936 170.063 212.094 159.113 208.224C153.061 206.08 142.994 207.001 133.336 207.922C125.538 208.664 118.007 209.407 113.076 208.538C102.039 206.585 107.328 200.187 111.252 198.753C115.175 197.324 120.336 190.603 120.336 190.603C132.171 169.61 145.133 156.341 155.542 148.098C164.693 140.857 171.87 137.501 174.576 136.201C180.364 133.416 202.099 135.667 205.482 137.25C205.875 137.434 206.236 137.645 206.577 137.876C209.201 139.644 210.409 142.563 210.409 142.563L210.792 142.62L232.358 145.703C232.358 145.703 238.615 136.684 254.608 141.361C261.129 143.273 264.92 150.621 270.229 160.375C271.544 162.795 272.955 165.36 274.518 168.027C282.401 181.455 296.422 180.202 293.268 187.298" fill="#5E3F96"/>
<path d="M228.922 148.861L207.058 145.855C207.489 145.55 207.909 145.253 208.314 144.966C208.545 145.196 208.846 145.352 209.178 145.399L229.069 148.247L228.981 148.585L228.922 148.861M258.252 147.342C256.689 146.021 254.999 145.059 253.089 144.521C249.6 143.539 246.552 143.15 243.905 143.15C242.417 143.15 241.055 143.273 239.817 143.485C241.259 143.103 242.939 142.857 244.876 142.857C247.242 142.857 249.992 143.223 253.161 144.15C255.05 144.703 256.704 145.796 258.252 147.342M202.652 141.272C202.511 141.169 202.364 141.068 202.215 140.972C201.854 140.736 201.47 140.522 201.055 140.333C198.702 139.274 187.977 137.924 179.15 137.924C178.988 137.924 178.829 137.924 178.669 137.925C180.129 137.786 181.787 137.725 183.54 137.725C191.673 137.725 201.858 139.041 203.821 139.959C203.965 140.026 204.105 140.098 204.241 140.176C203.741 140.536 203.209 140.902 202.652 141.272" fill="#BFB2D5"/>
<path d="M147.833 206.68C151.96 206.68 155.68 207.044 158.601 208.077C163.136 209.681 168.149 212.263 172.997 214.759C179.627 218.174 186.482 221.704 190.497 221.704C193.221 221.704 197.2 219.505 202.706 216.461C210.861 211.953 222.031 205.78 238.953 200.872C251.598 197.203 262.57 195.473 271.386 194.083C281.848 192.433 289.407 191.24 290.856 187.976C291.714 186.048 291.126 185.364 286.374 182.75C282.151 180.43 276.369 177.252 272.187 170.124C270.386 167.057 268.825 164.186 267.317 161.41C262.397 152.356 258.843 145.814 253.161 144.15C238.517 139.868 232.823 147.576 232.589 147.907C232.257 148.372 231.692 148.621 231.127 148.541L209.178 145.399C208.645 145.323 208.192 144.971 207.984 144.472C207.958 144.411 206.589 141.255 203.82 139.96C200.885 138.586 179.571 136.326 174.213 138.901L173.982 139.011C147.852 151.526 130.555 175.101 120.646 192.676C120.61 192.739 120.57 192.8 120.525 192.859C119.969 193.582 114.969 199.975 110.751 201.514C108.961 202.167 106.876 204.149 106.995 205.53C107.097 206.709 109.088 207.755 112.323 208.326C116.965 209.147 124.151 208.462 131.759 207.737C137.247 207.213 142.838 206.68 147.833 206.68M190.497 224.787C185.746 224.787 178.879 221.25 171.606 217.506C166.849 215.056 161.93 212.523 157.589 210.987C151.764 208.927 141.741 209.882 132.047 210.806C124.227 211.552 116.842 212.256 111.796 211.364C105.613 210.271 104.117 207.734 103.95 205.798C103.66 202.437 107.217 199.524 109.711 198.615C112.537 197.583 116.617 192.89 118.044 191.054C128.179 173.105 145.871 149.062 172.671 136.227L172.899 136.117C179.23 133.076 201.484 135.467 205.107 137.163C207.983 138.508 209.686 141.128 210.404 142.461L230.711 145.367C232.738 143.12 239.798 137.033 254.012 141.189C260.914 143.211 264.922 150.588 269.997 159.928C271.494 162.682 273.041 165.531 274.817 168.553C278.571 174.951 283.708 177.774 287.836 180.044C291.926 182.291 295.789 184.415 293.646 189.238C291.519 194.028 284.118 195.194 271.859 197.129C263.126 198.506 252.259 200.22 239.798 203.835C223.202 208.649 212.205 214.727 204.175 219.165C198.05 222.551 194.004 224.787 190.497 224.787" fill="#371A45"/>
<path d="M232.878 147.935C232.838 147.969 232.705 148.203 232.616 148.365C232.52 148.552 232.423 148.746 232.331 148.945L232.065 149.561L231.824 150.204C231.516 151.072 231.256 151.98 231.042 152.908C230.606 154.762 230.338 156.691 230.196 158.639C230.026 160.588 230.022 162.559 230.045 164.537L230.181 167.505L230.43 170.477L229.739 167.569L229.157 164.627C228.837 162.651 228.54 160.658 228.413 158.634C228.259 156.614 228.232 154.567 228.398 152.498C228.478 151.463 228.611 150.423 228.814 149.375L228.981 148.586L229.189 147.793C229.265 147.525 229.352 147.259 229.443 146.986C229.553 146.695 229.62 146.476 229.824 146.078L230.045 145.645C230.513 144.726 231.63 144.366 232.54 144.838C233.45 145.31 233.808 146.437 233.339 147.354C233.224 147.582 233.061 147.78 232.878 147.935" fill="#371A45"/>
<path d="M204.937 199.288L205.908 200.006L207.044 199.606C207.351 199.497 207.648 199.791 207.546 200.103L207.17 201.257L207.898 202.223C208.094 202.484 207.91 202.86 207.584 202.859L206.38 202.854L205.694 203.851C205.508 204.121 205.097 204.059 204.997 203.746L204.631 202.59L203.478 202.24C203.167 202.145 203.097 201.731 203.361 201.539L204.338 200.83L204.313 199.616C204.305 199.288 204.674 199.094 204.937 199.288" fill="#FFD243"/>
<path d="M207.897 202.223C208.095 202.484 207.909 202.86 207.583 202.859L206.381 202.854L205.694 203.851C205.508 204.121 205.097 204.059 204.997 203.746L204.883 203.387C205.048 203.474 205.267 203.44 205.391 203.263L206.076 202.266L207.28 202.27C207.494 202.271 207.648 202.109 207.672 201.923L207.897 202.223" fill="#FFA92C"/>
<path d="M204.818 202.633L203.477 202.24C203.227 202.164 203.133 201.881 203.245 201.674L204.644 202.084L204.818 202.633Z" fill="#FFA92C"/>
<path d="M207.546 200.102L207.089 201.414L206.743 200.956L207.219 199.586C207.451 199.612 207.628 199.851 207.546 200.102" fill="#FFA92C"/>
<path d="M204.705 199.326C204.661 199.326 204.618 199.337 204.576 199.358C204.479 199.409 204.424 199.504 204.427 199.613L204.454 200.888L203.428 201.632C203.34 201.697 203.299 201.799 203.317 201.907C203.335 202.014 203.407 202.098 203.51 202.129L204.721 202.497L205.107 203.711C205.139 203.815 205.223 203.886 205.33 203.902C205.437 203.919 205.538 203.875 205.6 203.785L206.32 202.738L207.584 202.743H207.585C207.693 202.743 207.786 202.685 207.835 202.588C207.883 202.49 207.873 202.379 207.807 202.293L207.042 201.278L207.437 200.068C207.471 199.963 207.445 199.856 207.368 199.779C207.29 199.703 207.183 199.678 207.082 199.714L205.888 200.135L204.869 199.381C204.819 199.345 204.763 199.326 204.705 199.326M205.373 204.137C205.348 204.137 205.322 204.135 205.296 204.131C205.104 204.102 204.948 203.967 204.889 203.781L204.539 202.683L203.445 202.35C203.258 202.293 203.123 202.139 203.091 201.945C203.059 201.752 203.137 201.56 203.295 201.446L204.222 200.771L204.197 199.618C204.193 199.422 204.298 199.245 204.471 199.153C204.643 199.063 204.848 199.079 205.003 199.194L205.927 199.876L207.006 199.496C207.189 199.432 207.39 199.476 207.528 199.614C207.667 199.752 207.716 199.952 207.655 200.139L207.297 201.234L207.989 202.153C208.106 202.309 208.125 202.516 208.039 202.691C207.952 202.867 207.785 202.985 207.583 202.974L206.439 202.969L205.787 203.917C205.692 204.057 205.538 204.137 205.373 204.137" fill="#371A45"/>
<path d="M227.32 177.329C226 173.858 224.707 170.398 223.265 167.02C222.553 165.331 221.825 163.651 221.008 162.037C220.193 160.432 219.354 158.823 218.34 157.49C217.85 156.835 217.264 156.227 216.806 155.999C216.74 155.971 216.727 155.94 216.621 155.908L216.342 155.806L215.792 155.601C215.615 155.522 215.417 155.477 215.218 155.434L214.63 155.293C213.037 154.971 211.336 154.922 209.643 155.059C207.946 155.189 206.251 155.55 204.603 156.026C202.947 156.487 201.355 157.16 199.853 157.951C198.338 158.725 196.941 159.696 195.763 160.829L195.309 161.245C195.172 161.394 195.046 161.55 194.914 161.701C194.659 162.012 194.358 162.289 194.161 162.642C193.943 162.985 193.712 163.304 193.497 163.662L192.875 164.81C191.238 167.934 189.897 171.377 188.527 174.771C185.867 181.616 183.368 188.57 180.673 195.488C181.94 188.16 183.704 180.948 185.904 173.832C186.187 172.944 186.458 172.053 186.751 171.166L187.679 168.516C188.016 167.638 188.333 166.755 188.697 165.88L189.261 164.568C189.445 164.131 189.635 163.694 189.863 163.257L190.521 161.949C190.768 161.511 191.063 161.069 191.336 160.63C191.592 160.174 191.955 159.799 192.277 159.393C192.444 159.195 192.607 158.99 192.778 158.798L193.327 158.263C194.789 156.833 196.446 155.68 198.193 154.769C201.686 152.933 205.502 151.888 209.423 151.662C211.385 151.583 213.385 151.692 215.365 152.22L216.105 152.438C216.35 152.509 216.597 152.582 216.837 152.698L217.56 153.013L217.92 153.174C218.031 153.217 218.199 153.336 218.333 153.417C219.444 154.164 220.039 155.034 220.605 155.878C221.687 157.584 222.463 159.319 223.136 161.09C223.806 162.858 224.38 164.639 224.906 166.431C225.909 170.028 226.759 173.65 227.32 177.329" fill="#371A45"/>
<path d="M176.528 164.059C174.046 164.059 170.351 163.397 166.61 162.54C166.483 160.508 165.879 158.689 165.059 157.138C168.845 156.491 172.851 155.632 176.05 154.536C181.831 152.555 194.828 146.475 202.651 141.274C205.128 143.085 206.273 145.747 206.273 145.747L206.678 145.804L207.057 145.856C197.502 152.606 181.918 163.276 178.016 163.951C177.591 164.025 177.09 164.059 176.528 164.059" fill="#52347E"/>
<path d="M207.057 145.855L206.678 145.803L206.273 145.746C206.273 145.746 205.128 143.085 202.651 141.273C203.209 140.902 203.741 140.536 204.241 140.176C206.727 141.575 207.959 144.414 207.984 144.472C208.062 144.659 208.174 144.827 208.314 144.966C207.909 145.254 207.489 145.551 207.057 145.855" fill="#9684AA"/>
<path d="M208.313 144.967C208.174 144.827 208.062 144.66 207.983 144.473C207.958 144.414 206.727 141.575 204.24 140.177C204.707 139.841 205.148 139.51 205.558 139.186C208.182 140.954 209.39 143.873 209.39 143.873L209.771 143.929C209.309 144.259 208.823 144.605 208.313 144.967Z" fill="#371A45"/>
<path d="M17.7489 194.536C17.8294 194.459 17.8273 194.456 17.8484 194.432L17.8864 194.383C17.9076 194.351 17.9229 194.327 17.9364 194.302C17.9651 194.25 17.9828 194.201 18.002 194.148C18.0318 194.042 18.0524 193.929 18.0392 193.825C18.0262 193.623 17.9367 193.536 17.9387 193.564C17.9049 193.606 18.0959 193.865 18.332 194.073C18.8348 194.518 19.5388 194.947 20.2657 195.326C21.7354 196.093 23.3624 196.719 24.997 197.299C28.2859 198.446 31.6888 199.374 35.1055 200.234C31.5916 199.965 28.0778 199.629 24.5569 199.042C22.7953 198.737 21.0351 198.393 19.2516 197.823C18.3577 197.53 17.4616 197.202 16.5203 196.636C16.2833 196.484 16.0436 196.321 15.799 196.111C15.6774 196.011 15.5505 195.878 15.4297 195.757C15.304 195.608 15.1822 195.475 15.0627 195.283C14.8303 194.938 14.5964 194.413 14.5845 193.767C14.5855 193.444 14.6353 193.109 14.756 192.799C14.8129 192.642 14.8861 192.496 14.9732 192.352C15.0166 192.28 15.0622 192.209 15.1191 192.136C15.1474 192.099 15.1705 192.067 15.2098 192.023C15.2498 191.978 15.2656 191.955 15.3663 191.859C16.0994 191.196 17.2268 191.257 17.8845 191.996C18.5426 192.735 18.4817 193.873 17.7489 194.536" fill="#371A45"/>
<path d="M273.88 181.717L274.524 182.743L275.727 182.789C276.052 182.801 276.222 183.184 276.015 183.437L275.247 184.372L275.575 185.54C275.665 185.856 275.356 186.137 275.054 186.016L273.934 185.569L272.935 186.245C272.664 186.427 272.303 186.219 272.324 185.891L272.4 184.68L271.454 183.929C271.198 183.726 271.284 183.315 271.599 183.234L272.765 182.933L273.18 181.794C273.291 181.485 273.706 181.441 273.88 181.717" fill="#FFD243"/>
<path d="M275.576 185.54C275.665 185.856 275.356 186.137 275.054 186.016L273.935 185.569L272.935 186.245C272.664 186.427 272.305 186.219 272.325 185.891L272.348 185.515C272.471 185.656 272.687 185.706 272.865 185.586L273.865 184.91L274.983 185.357C275.182 185.437 275.385 185.342 275.474 185.178L275.576 185.54" fill="#FFA92C"/>
<path d="M272.561 184.787L271.454 183.929C271.248 183.766 271.263 183.468 271.443 183.316L272.596 184.213L272.561 184.787" fill="#FFA92C"/>
<path d="M276.016 183.437L275.116 184.49L274.96 183.936L275.899 182.835C276.105 182.945 276.183 183.233 276.016 183.437" fill="#FFA92C"/>
<path d="M273.55 181.649C273.54 181.649 273.529 181.649 273.518 181.65C273.411 181.662 273.324 181.73 273.287 181.832L272.851 183.029L271.628 183.346C271.522 183.373 271.447 183.452 271.424 183.56C271.402 183.667 271.44 183.77 271.525 183.838L272.518 184.626L272.438 185.898C272.432 186.007 272.484 186.105 272.578 186.159C272.671 186.213 272.781 186.209 272.871 186.149L273.921 185.439L275.096 185.908C275.196 185.949 275.303 185.928 275.385 185.856C275.465 185.783 275.495 185.676 275.465 185.572L275.12 184.345L275.927 183.363C275.996 183.279 276.011 183.17 275.966 183.069C275.922 182.97 275.831 182.908 275.723 182.904L274.46 182.856L273.784 181.779C273.731 181.696 273.645 181.649 273.55 181.649M272.716 186.428C272.63 186.428 272.542 186.405 272.464 186.359C272.295 186.261 272.198 186.079 272.21 185.883L272.283 184.733L271.383 184.02C271.23 183.898 271.161 183.704 271.2 183.511C271.24 183.32 271.382 183.171 271.571 183.122L272.678 182.836L273.073 181.753C273.14 181.569 273.302 181.441 273.494 181.421C273.691 181.399 273.872 181.49 273.976 181.656L274.59 182.629L275.732 182.673C275.925 182.68 276.095 182.796 276.175 182.975C276.254 183.154 276.227 183.359 276.103 183.509L275.374 184.399L275.686 185.508C275.739 185.697 275.682 185.895 275.538 186.027C275.395 186.159 275.192 186.195 275.011 186.123L273.949 185.698L272.998 186.341C272.913 186.398 272.815 186.428 272.716 186.428" fill="#371A45"/>
<path d="M146.854 198.273L147.825 198.99L148.961 198.591C149.269 198.483 149.566 198.776 149.463 199.088L149.088 200.241L149.815 201.207C150.013 201.469 149.827 201.845 149.502 201.843L148.297 201.839L147.612 202.836C147.426 203.105 147.014 203.043 146.915 202.731L146.548 201.574L145.395 201.224C145.084 201.13 145.016 200.716 145.279 200.525L146.256 199.815L146.23 198.601C146.223 198.273 146.592 198.079 146.854 198.273" fill="#FFD243"/>
<path d="M149.816 201.208C150.013 201.469 149.827 201.845 149.501 201.843L148.298 201.839L147.611 202.836C147.425 203.105 147.015 203.043 146.915 202.731L146.801 202.372C146.965 202.459 147.185 202.425 147.308 202.248L147.994 201.251L149.198 201.256C149.411 201.257 149.565 201.094 149.589 200.909L149.816 201.208Z" fill="#FFA92C"/>
<path d="M146.736 201.615L145.395 201.223C145.145 201.147 145.051 200.864 145.163 200.657L146.562 201.067L146.736 201.615Z" fill="#FFA92C"/>
<path d="M149.463 199.087L149.007 200.398L148.661 199.94L149.137 198.57C149.369 198.597 149.546 198.837 149.463 199.087" fill="#FFA92C"/>
<path d="M146.624 198.309C146.58 198.309 146.535 198.319 146.493 198.341C146.397 198.391 146.341 198.488 146.344 198.596L146.371 199.871L145.345 200.616C145.258 200.68 145.216 200.782 145.234 200.89C145.252 200.998 145.325 201.08 145.428 201.112L146.638 201.48L147.024 202.694C147.057 202.797 147.14 202.87 147.248 202.886C147.352 202.902 147.455 202.858 147.517 202.768L148.238 201.721L149.502 201.726H149.504C149.611 201.726 149.704 201.668 149.752 201.57C149.8 201.473 149.79 201.363 149.725 201.276L148.959 200.261L149.355 199.05C149.389 198.947 149.363 198.838 149.286 198.762C149.209 198.686 149.102 198.662 148.999 198.697L147.806 199.117L146.787 198.364C146.737 198.327 146.68 198.309 146.624 198.309M147.29 203.119C147.266 203.119 147.24 203.117 147.214 203.114C147.021 203.085 146.865 202.951 146.806 202.764L146.458 201.666L145.362 201.333C145.176 201.277 145.04 201.121 145.008 200.928C144.977 200.735 145.054 200.544 145.212 200.428L146.141 199.754L146.115 198.601C146.111 198.405 146.216 198.227 146.388 198.137C146.56 198.047 146.765 198.063 146.922 198.178L147.844 198.86L148.923 198.48C149.108 198.415 149.308 198.461 149.446 198.598C149.585 198.735 149.633 198.936 149.572 199.122L149.215 200.218L149.906 201.136C150.024 201.292 150.044 201.498 149.957 201.674C149.871 201.848 149.697 201.956 149.504 201.956H149.501L148.357 201.952L147.705 202.9C147.61 203.039 147.455 203.119 147.29 203.119" fill="#371A45"/>
<path d="M272.637 202.226C258.811 207.492 244.894 212.467 230.981 217.426C224.038 219.941 217.058 222.352 210.154 224.92L204.958 226.85C203.194 227.489 201.392 228.086 199.547 228.584C195.859 229.591 191.979 230.133 188.14 230.087C186.219 230.08 184.312 229.916 182.425 229.684L181.013 229.495C180.542 229.426 180.077 229.34 179.61 229.263C178.665 229.111 177.768 228.933 176.861 228.762L165.981 226.688L155.115 224.54L149.682 223.464L144.256 222.35C129.784 219.394 115.336 216.315 100.953 212.883C115.606 214.842 130.193 217.152 144.756 219.588L150.219 220.495L155.674 221.44L166.584 223.336L177.481 225.303C178.389 225.468 179.304 225.641 180.183 225.774C180.626 225.844 181.069 225.923 181.513 225.984L182.846 226.152C184.622 226.359 186.4 226.492 188.171 226.492C191.714 226.559 195.216 226.098 198.658 225.189C200.382 224.739 202.093 224.186 203.809 223.581L209.026 221.72C216.037 219.321 223.046 216.977 230.103 214.773C244.198 210.312 258.358 206.075 272.637 202.226" fill="#371A45"/>
<path d="M134.576 186.642L135.11 187.535L136.142 187.597C136.42 187.613 136.559 187.946 136.376 188.159L135.699 188.947L135.96 189.955C136.03 190.228 135.76 190.463 135.502 190.354L134.55 189.949L133.68 190.51C133.444 190.662 133.139 190.475 133.163 190.195L133.25 189.156L132.452 188.494C132.237 188.315 132.318 187.964 132.589 187.901L133.596 187.664L133.974 186.694C134.075 186.431 134.431 186.401 134.576 186.642Z" fill="#FFD243"/>
<path d="M135.96 189.955C136.031 190.228 135.76 190.463 135.503 190.354L134.551 189.949L133.68 190.51C133.445 190.662 133.14 190.475 133.163 190.195L133.19 189.872C133.293 189.996 133.477 190.042 133.633 189.943L134.503 189.382L135.455 189.787C135.624 189.859 135.799 189.782 135.88 189.642L135.96 189.955Z" fill="#FFA92C"/>
<path d="M133.386 189.254L132.452 188.496C132.278 188.352 132.297 188.096 132.454 187.97L133.428 188.761L133.386 189.254Z" fill="#FFA92C"/>
<path d="M136.377 188.16L135.584 189.047L135.461 188.568L136.287 187.641C136.462 187.74 136.524 187.988 136.377 188.16" fill="#FFA92C"/>
<path d="M134.288 186.594L134.269 186.595C134.183 186.602 134.112 186.655 134.08 186.736L133.681 187.762L132.616 188.013C132.531 188.033 132.47 188.095 132.45 188.18C132.43 188.266 132.459 188.35 132.525 188.405L133.37 189.105L133.277 190.205C133.27 190.292 133.309 190.37 133.384 190.416C133.458 190.461 133.546 190.459 133.619 190.413L134.54 189.819L135.548 190.248C135.626 190.281 135.714 190.268 135.779 190.211C135.845 190.153 135.872 190.069 135.85 189.984L135.575 188.916L136.29 188.083C136.347 188.017 136.361 187.929 136.327 187.849C136.293 187.768 136.222 187.717 136.135 187.712L135.043 187.646L134.478 186.702C134.437 186.633 134.368 186.594 134.288 186.594M133.498 190.68C133.418 190.68 133.337 190.657 133.266 190.614C133.118 190.523 133.034 190.359 133.049 190.184L133.132 189.207L132.38 188.583C132.246 188.472 132.187 188.298 132.227 188.127C132.267 187.958 132.396 187.828 132.565 187.788L133.512 187.565L133.868 186.652C133.931 186.489 134.077 186.379 134.25 186.364C134.421 186.35 134.585 186.433 134.674 186.582L135.177 187.423L136.149 187.482C136.321 187.492 136.47 187.598 136.538 187.758C136.605 187.92 136.576 188.101 136.463 188.234L135.826 188.976L136.07 189.926C136.114 190.095 136.061 190.271 135.929 190.385C135.798 190.499 135.617 190.528 135.458 190.46L134.562 190.078L133.742 190.608C133.667 190.655 133.584 190.68 133.498 190.68" fill="#371A45"/>
<path d="M151.716 76.918C151.676 76.918 151.637 76.917 151.596 76.916L133.123 76.124C131.916 76.0729 130.876 75.2458 130.546 74.0729C130.216 72.9 130.668 71.6458 131.669 70.9611L142.934 63.2539L134.542 62.6093C132.999 62.49 131.843 61.1326 131.961 59.5758C132.079 58.0189 133.419 56.851 134.968 56.9723L151.359 58.2324C152.547 58.3237 153.548 59.1637 153.854 60.3246C154.16 61.4855 153.705 62.7156 152.719 63.3903L141.831 70.8398L151.833 71.2679C153.379 71.3341 154.58 72.6523 154.514 74.2122C154.45 75.73 153.209 76.918 151.716 76.918" fill="#371A45"/>
<path d="M195.234 45.1699C195.194 45.1699 195.154 45.1689 195.113 45.1669L164.13 43.8396C162.922 43.7885 161.883 42.9614 161.554 41.7885C161.223 40.6156 161.675 39.3615 162.676 38.6768L186.067 22.6729L166.578 21.1742C165.034 21.0559 163.878 19.6975 163.997 18.1406C164.114 16.5847 165.452 15.4168 167.003 15.5371L194.491 17.6514C195.68 17.7426 196.68 18.5817 196.986 19.7426C197.293 20.9035 196.838 22.1336 195.851 22.8082L172.837 38.5544L195.351 39.5189C196.898 39.585 198.097 40.9033 198.032 42.4632C197.968 43.981 196.727 45.1689 195.234 45.1699Z" fill="#371A45"/>
<path d="M138.111 19.1074C138.071 19.1074 138.031 19.1064 137.99 19.1044L120.612 18.3606C119.405 18.3094 118.366 17.4824 118.036 16.3095C117.705 15.1365 118.157 13.8824 119.158 13.1977L129.361 6.21633L121.942 5.64591C120.398 5.52761 119.243 4.16923 119.361 2.61335C119.478 1.05648 120.816 -0.110419 122.367 0.00887782L137.787 1.19382C138.974 1.28505 139.975 2.12413 140.281 3.28503C140.587 4.44692 140.132 5.67598 139.147 6.35167L129.32 13.0754L138.228 13.4574C139.773 13.5235 140.974 14.8408 140.909 16.4007C140.845 17.9195 139.604 19.1074 138.111 19.1074" fill="#371A45"/>
<path d="M107.055 221.195H187.339V205.81H107.055V221.195Z" fill="#C3BAC7"/>
<path d="M190.497 221.705C189.581 221.705 188.516 221.521 187.339 221.197C179.559 218.836 168.247 211.454 159.113 208.226C158.746 208.095 158.363 207.977 157.967 207.869C155.15 206.994 151.667 206.681 147.833 206.681C142.838 206.681 137.247 207.214 131.759 207.737C126.61 208.229 121.657 208.701 117.553 208.701C115.592 208.701 113.824 208.592 112.323 208.327C111.685 208.214 111.095 208.083 110.559 207.936C108.764 207.364 107.656 206.626 107.055 205.811C107.023 205.718 107.003 205.625 106.995 205.531C106.875 204.149 108.961 202.167 110.751 201.515C112.138 201.009 113.61 199.978 114.98 198.796C115.297 198.733 115.593 198.569 115.82 198.315L131.052 181.242C133.576 181.792 136.115 182.044 138.614 182.044C148.627 182.044 157.963 177.97 162.88 172.53C162.319 173.567 161.673 174.556 160.957 175.473C157.019 180.519 151.313 183.809 145.586 186.61C139.859 189.411 133.898 191.887 128.854 195.803C139.376 195.438 147.778 190.867 156.412 185.595C157.3 185.054 158.25 184.806 159.175 184.806C161.963 184.806 164.534 187.043 164.539 190.194C164.544 193.388 164.877 196.307 165.63 197.36C166.857 199.08 168.795 199.603 170.864 199.603C171.758 199.603 172.676 199.506 173.573 199.364C176.872 198.845 179.29 196.056 181.293 192.112C181.075 193.234 180.868 194.36 180.673 195.488C183.368 188.57 185.867 181.615 188.527 174.77C189.897 171.377 191.238 167.933 192.875 164.809L193.497 163.662C193.712 163.304 193.943 162.985 194.16 162.642C194.358 162.288 194.659 162.011 194.914 161.701C195.046 161.549 195.172 161.394 195.309 161.244L195.763 160.828C196.872 159.763 198.174 158.84 199.586 158.09C195.433 169.262 194.192 195.656 205.294 195.656C205.802 195.656 206.333 195.601 206.892 195.488C221.817 192.449 223.701 178.809 221.904 163.902C222.375 164.929 222.823 165.972 223.265 167.02C224.707 170.397 226 173.858 227.32 177.329C226.759 173.649 225.909 170.027 224.906 166.43C224.591 165.358 224.259 164.289 223.899 163.224C224.192 163.305 224.494 163.347 224.795 163.347C224.935 163.347 225.073 163.338 225.21 163.32C226.629 163.127 227.826 162.174 228.626 160.955C228.771 162.187 228.96 163.411 229.157 164.627L229.739 167.569L230.43 170.476L230.18 167.505L230.044 164.537C230.021 162.559 230.025 160.588 230.195 158.639C230.337 156.691 230.606 154.762 231.041 152.908C231.256 151.98 231.515 151.072 231.823 150.204L232.065 149.561L232.33 148.945C232.423 148.746 232.52 148.552 232.615 148.365C232.705 148.203 232.838 147.968 232.878 147.935C233.061 147.78 233.224 147.581 233.339 147.354C233.416 147.204 233.471 147.047 233.504 146.889C233.507 146.886 233.511 146.883 233.514 146.88C232.589 157.131 237.796 183.07 249.252 183.07C259.126 183.07 266.767 173.965 268.814 164.16C269.868 166.08 270.972 168.057 272.186 170.125C275.897 176.447 280.866 179.662 284.887 181.928C285.911 182.537 286.904 183.077 287.84 183.575C291.241 185.537 291.615 186.268 290.856 187.977C289.407 191.24 281.848 192.433 271.385 194.083C262.569 195.474 251.598 197.204 238.952 200.872C222.03 205.78 210.861 211.954 202.706 216.462C197.2 219.506 193.22 221.705 190.497 221.705M204.705 199.096C204.625 199.096 204.545 199.115 204.47 199.154C204.297 199.245 204.193 199.423 204.197 199.619L204.222 200.772L203.294 201.447C203.136 201.561 203.059 201.752 203.091 201.946C203.122 202.139 203.258 202.294 203.444 202.351L204.539 202.684L204.889 203.781C204.947 203.968 205.103 204.102 205.296 204.131C205.322 204.135 205.348 204.137 205.373 204.137C205.538 204.137 205.692 204.057 205.787 203.918L206.439 202.969L207.583 202.974C207.592 202.974 207.601 202.974 207.61 202.974C207.8 202.974 207.956 202.859 208.038 202.692C208.125 202.516 208.106 202.31 207.989 202.153L207.297 201.235L207.655 200.139C207.715 199.953 207.667 199.752 207.527 199.615C207.431 199.519 207.304 199.469 207.174 199.469C207.118 199.469 207.061 199.478 207.006 199.497L205.926 199.877L205.003 199.195C204.914 199.13 204.81 199.096 204.705 199.096M146.622 198.08C146.543 198.08 146.462 198.099 146.388 198.138C146.216 198.229 146.11 198.407 146.114 198.603L146.14 199.755L145.212 200.43C145.054 200.545 144.976 200.737 145.008 200.929C145.04 201.123 145.176 201.278 145.362 201.334L146.457 201.667L146.806 202.766C146.865 202.952 147.021 203.087 147.214 203.116C147.24 203.119 147.265 203.121 147.29 203.121C147.455 203.121 147.609 203.041 147.705 202.901L148.357 201.954L149.501 201.958H149.504C149.696 201.958 149.87 201.85 149.957 201.675C150.043 201.5 150.023 201.293 149.906 201.138L149.214 200.22L149.572 199.124C149.633 198.937 149.585 198.737 149.446 198.6C149.35 198.503 149.222 198.452 149.092 198.452C149.036 198.452 148.979 198.462 148.923 198.481L147.844 198.861L146.922 198.179C146.832 198.113 146.728 198.08 146.622 198.08M134.288 186.364C134.275 186.364 134.262 186.364 134.249 186.365C134.076 186.38 133.93 186.49 133.868 186.653L133.512 187.566L132.565 187.79C132.396 187.829 132.266 187.959 132.227 188.128C132.187 188.299 132.246 188.473 132.38 188.585L133.131 189.208L133.049 190.186C133.034 190.36 133.117 190.524 133.265 190.615C133.337 190.658 133.417 190.681 133.498 190.681C133.583 190.681 133.667 190.656 133.741 190.609L134.561 190.079L135.458 190.461C135.516 190.485 135.575 190.497 135.634 190.497C135.74 190.497 135.845 190.459 135.929 190.386C136.06 190.272 136.114 190.096 136.07 189.927L135.826 188.978L136.463 188.235C136.576 188.102 136.605 187.921 136.537 187.76C136.47 187.599 136.321 187.493 136.149 187.483L135.177 187.424L134.674 186.584C134.591 186.445 134.445 186.364 134.288 186.364M273.552 181.419C273.533 181.419 273.514 181.42 273.494 181.423C273.302 181.443 273.14 181.57 273.073 181.755L272.678 182.837L271.571 183.124C271.382 183.172 271.24 183.321 271.2 183.513C271.161 183.705 271.23 183.9 271.383 184.021L272.283 184.734L272.21 185.885C272.198 186.08 272.295 186.263 272.464 186.36C272.542 186.406 272.63 186.429 272.716 186.429C272.815 186.429 272.913 186.399 272.998 186.342L273.949 185.699L275.011 186.124C275.073 186.15 275.136 186.162 275.199 186.162C275.322 186.162 275.443 186.115 275.538 186.028C275.682 185.897 275.739 185.698 275.686 185.51L275.374 184.4L276.103 183.511C276.227 183.361 276.254 183.155 276.175 182.977C276.095 182.797 275.925 182.682 275.732 182.675L274.59 182.631L273.976 181.657C273.883 181.508 273.726 181.419 273.552 181.419" fill="#52347E"/>
<path d="M287.841 183.574C286.905 183.076 285.912 182.536 284.888 181.927C285.4 182.216 285.897 182.489 286.374 182.75C286.916 183.048 287.404 183.322 287.841 183.574" fill="#9684AA"/>
<path d="M190.498 223.244C183.126 223.244 169.043 213.404 158.094 209.534C155.359 208.565 151.804 208.222 147.837 208.222C143.027 208.222 137.611 208.726 132.318 209.231C127.025 209.735 121.855 210.24 117.537 210.24C115.494 210.24 113.641 210.126 112.057 209.847C101.021 207.895 106.309 201.496 110.232 200.062C111.236 199.697 112.321 198.985 113.38 198.128C113.554 198.368 113.75 198.532 113.987 198.654C114.209 198.769 114.448 198.824 114.685 198.824C114.784 198.824 114.884 198.814 114.98 198.795C113.61 199.977 112.139 201.008 110.751 201.514C108.961 202.167 106.876 204.149 106.995 205.53C107.003 205.624 107.024 205.717 107.056 205.811C107.345 206.646 108.594 207.397 110.559 207.935C111.096 208.082 111.685 208.214 112.323 208.326C113.824 208.592 115.592 208.7 117.553 208.7C121.657 208.7 126.611 208.228 131.759 207.737C137.247 207.213 142.838 206.68 147.833 206.68C151.668 206.68 155.15 206.994 157.967 207.868C158.183 207.934 158.394 208.004 158.601 208.077C163.136 209.681 168.149 212.263 172.997 214.759C178.113 217.395 183.364 220.098 187.34 221.196C188.517 221.52 189.581 221.704 190.497 221.704C193.221 221.704 197.2 219.505 202.706 216.461C210.861 211.953 222.031 205.78 238.953 200.871C251.598 197.203 262.57 195.473 271.386 194.083C281.849 192.432 289.407 191.239 290.856 187.976C291.616 186.267 291.242 185.536 287.841 183.574C287.403 183.322 286.915 183.048 286.374 182.75C285.897 182.489 285.4 182.216 284.888 181.927C280.867 179.662 275.897 176.447 272.187 170.124C270.972 168.057 269.868 166.079 268.815 164.159C268.986 163.337 269.119 162.51 269.21 161.684C270.524 164.105 271.935 166.669 273.5 169.336C281.381 182.764 295.403 181.51 292.25 188.608C289.101 195.705 268.39 193.937 239.374 202.354C210.358 210.767 197.871 223.244 190.498 223.244M233.504 146.888C233.511 146.857 233.517 146.826 233.522 146.794C233.519 146.822 233.517 146.851 233.514 146.879C233.511 146.882 233.507 146.885 233.504 146.888ZM233.544 146.578C233.563 146.117 233.411 145.661 233.118 145.304C233.359 145.062 233.617 144.828 233.891 144.602C233.74 145.155 233.624 145.819 233.544 146.578" fill="#371A45"/>
<path d="M230.43 170.477L229.739 167.569L229.157 164.627C228.96 163.411 228.771 162.187 228.626 160.955C228.873 160.577 229.083 160.173 229.25 159.758C229.92 158.089 228.296 150.144 233.117 145.305C233.411 145.662 233.563 146.118 233.544 146.579C233.536 146.65 233.529 146.722 233.522 146.795C233.517 146.827 233.511 146.858 233.504 146.889C233.471 147.047 233.417 147.204 233.339 147.354C233.224 147.582 233.061 147.78 232.878 147.935C232.838 147.969 232.705 148.203 232.615 148.365C232.52 148.552 232.423 148.746 232.33 148.945L232.065 149.561L231.823 150.204C231.515 151.072 231.256 151.98 231.041 152.908C230.606 154.762 230.337 156.691 230.195 158.639C230.025 160.588 230.021 162.559 230.044 164.537L230.18 167.505L230.43 170.477" fill="#371A45"/>
<path d="M205.069 203.434C205.052 203.434 205.034 203.433 205.017 203.431L204.757 202.615L204.817 202.633L204.643 202.084L203.357 201.707C203.364 201.697 203.37 201.688 203.378 201.68C203.403 201.695 203.43 201.708 203.461 201.718L203.555 201.746L204.505 201.064L204.498 200.723L204.45 200.757L204.427 199.669C204.489 199.631 204.561 199.61 204.634 199.61C204.713 199.61 204.793 199.634 204.865 199.687L205.836 200.404L206.973 200.004C207.005 199.993 207.036 199.986 207.067 199.984L207.131 199.792C207.141 199.76 207.146 199.729 207.148 199.699C207.157 199.698 207.166 199.698 207.174 199.698C207.176 199.698 207.178 199.698 207.18 199.698L206.743 200.957L207.089 201.416L207.107 201.364L207.63 202.058C207.566 202.181 207.441 202.271 207.282 202.271C207.281 202.271 207.281 202.271 207.28 202.271L206.076 202.267L205.39 203.263C205.31 203.379 205.19 203.434 205.069 203.434" fill="#C39A44"/>
<path d="M205.373 203.906C205.36 203.906 205.345 203.905 205.33 203.902C205.222 203.886 205.139 203.815 205.106 203.711L205.017 203.43C205.033 203.432 205.051 203.433 205.069 203.433C205.19 203.433 205.31 203.379 205.39 203.263L206.076 202.266L207.28 202.27C207.281 202.27 207.281 202.27 207.282 202.27C207.441 202.27 207.566 202.181 207.63 202.058L207.806 202.293C207.872 202.379 207.882 202.49 207.834 202.588C207.786 202.685 207.692 202.743 207.585 202.743H207.584L206.32 202.738L205.599 203.785C205.546 203.863 205.464 203.906 205.373 203.906" fill="#C37E34"/>
<path d="M203.555 201.746L203.461 201.718C203.431 201.708 203.403 201.695 203.378 201.68C203.392 201.663 203.409 201.647 203.428 201.633L204.454 200.888L204.451 200.757L204.499 200.723L204.505 201.063L203.555 201.746" fill="#C3AD92"/>
<path d="M205.836 200.404L204.865 199.688C204.794 199.634 204.713 199.61 204.635 199.61C204.561 199.61 204.489 199.631 204.428 199.669L204.427 199.614C204.424 199.505 204.48 199.41 204.576 199.359C204.618 199.338 204.661 199.327 204.705 199.327C204.763 199.327 204.819 199.346 204.869 199.382L205.888 200.136L207.082 199.715C207.103 199.708 207.126 199.703 207.148 199.7C207.146 199.73 207.141 199.761 207.131 199.792L207.068 199.984C207.037 199.986 207.005 199.993 206.973 200.004L205.836 200.404" fill="#C3AD92"/>
<path d="M204.818 202.633L204.758 202.615L204.721 202.497L203.51 202.13C203.407 202.098 203.334 202.015 203.317 201.908C203.305 201.835 203.32 201.765 203.357 201.708L204.644 202.084L204.818 202.633Z" fill="#C37E34"/>
<path d="M207.089 201.414L206.743 200.956L207.181 199.697C207.249 199.698 207.315 199.726 207.368 199.778C207.445 199.855 207.471 199.962 207.437 200.067L207.041 201.277L207.107 201.363L207.089 201.414Z" fill="#C37E34"/>
<path d="M205.373 204.137C205.348 204.137 205.322 204.135 205.296 204.131C205.104 204.102 204.948 203.967 204.889 203.781L204.539 202.683L203.445 202.35C203.258 202.293 203.123 202.139 203.091 201.945C203.059 201.752 203.137 201.56 203.295 201.446L204.222 200.771L204.197 199.618C204.193 199.422 204.298 199.245 204.471 199.153C204.545 199.114 204.626 199.095 204.705 199.095C204.81 199.095 204.915 199.129 205.003 199.194L205.927 199.876L207.006 199.496C207.062 199.477 207.118 199.468 207.174 199.468C207.304 199.468 207.431 199.518 207.528 199.614C207.667 199.752 207.716 199.952 207.655 200.139L207.297 201.234L207.989 202.153C208.106 202.309 208.125 202.516 208.039 202.691C207.956 202.859 207.8 202.974 207.61 202.974C207.601 202.974 207.592 202.974 207.583 202.974L206.439 202.969L205.787 203.917C205.692 204.057 205.538 204.137 205.373 204.137M205.017 203.43L205.107 203.711C205.139 203.815 205.223 203.886 205.33 203.902C205.345 203.905 205.36 203.906 205.374 203.906C205.464 203.906 205.547 203.863 205.6 203.785L206.32 202.738L207.584 202.743H207.585C207.693 202.743 207.786 202.685 207.835 202.588C207.883 202.49 207.873 202.379 207.807 202.293L207.63 202.058L207.107 201.364L207.042 201.278L207.437 200.068C207.471 199.963 207.445 199.856 207.368 199.779C207.315 199.727 207.249 199.699 207.181 199.698C207.179 199.698 207.177 199.698 207.175 199.698C207.166 199.698 207.157 199.698 207.148 199.699C207.126 199.702 207.103 199.707 207.082 199.714L205.888 200.135L204.869 199.381C204.819 199.345 204.763 199.326 204.705 199.326C204.661 199.326 204.618 199.337 204.576 199.358C204.479 199.409 204.424 199.504 204.427 199.613L204.428 199.669L204.451 200.756L204.454 200.888L203.428 201.632C203.409 201.647 203.392 201.663 203.378 201.68C203.37 201.688 203.364 201.697 203.357 201.707C203.32 201.764 203.305 201.834 203.317 201.907C203.335 202.014 203.407 202.098 203.51 202.129L204.721 202.497L204.758 202.614L205.017 203.43" fill="#371A45"/>
<path d="M180.673 195.488C180.868 194.36 181.075 193.235 181.294 192.113C187.319 180.25 189.586 157.938 200.746 155.519C200.341 156.239 199.952 157.106 199.586 158.09C198.174 158.84 196.872 159.763 195.763 160.829L195.309 161.245C195.172 161.394 195.046 161.55 194.914 161.701C194.659 162.012 194.358 162.289 194.161 162.642C193.943 162.985 193.712 163.304 193.497 163.662L192.875 164.81C191.238 167.934 189.897 171.377 188.527 174.771C185.867 181.616 183.368 188.57 180.673 195.488M227.32 177.329C226 173.858 224.707 170.398 223.265 167.02C222.824 165.973 222.375 164.929 221.904 163.903C221.795 162.997 221.673 162.087 221.538 161.175C221.896 162.163 222.839 162.936 223.899 163.225C224.259 164.29 224.591 165.358 224.906 166.431C225.909 170.028 226.759 173.65 227.32 177.329" fill="#371A45"/>
<path d="M272.648 185.654C272.58 185.654 272.515 185.637 272.457 185.604L272.511 184.75L272.56 184.788L272.596 184.214L271.536 183.39C271.545 183.384 271.555 183.378 271.564 183.372C271.582 183.396 271.603 183.418 271.628 183.438L271.705 183.499L272.837 183.213L272.953 182.892L272.897 182.907L273.268 181.886C273.292 181.882 273.316 181.88 273.34 181.88C273.465 181.88 273.592 181.939 273.67 182.063L274.315 183.089L275.517 183.135C275.551 183.136 275.583 183.141 275.614 183.151L275.742 182.994C275.762 182.97 275.779 182.943 275.791 182.915C275.801 182.918 275.811 182.922 275.821 182.926L274.96 183.937L275.116 184.491L275.15 184.45L275.386 185.289C275.316 185.35 275.226 185.387 275.13 185.387C275.082 185.387 275.033 185.378 274.983 185.359L273.865 184.911L272.865 185.587C272.796 185.633 272.721 185.654 272.648 185.654" fill="#C39A44"/>
<path d="M272.716 186.197C272.669 186.197 272.622 186.184 272.578 186.159C272.484 186.105 272.432 186.007 272.438 185.899L272.457 185.603C272.514 185.636 272.58 185.653 272.648 185.653C272.721 185.653 272.796 185.632 272.865 185.586L273.865 184.91L274.983 185.357C275.033 185.376 275.082 185.385 275.129 185.385C275.226 185.385 275.316 185.348 275.386 185.288L275.465 185.572C275.495 185.676 275.465 185.783 275.385 185.856C275.331 185.905 275.267 185.929 275.199 185.929C275.165 185.929 275.13 185.923 275.096 185.909L273.921 185.439L272.871 186.149C272.824 186.181 272.77 186.197 272.716 186.197" fill="#C37E34"/>
<path d="M271.705 183.498L271.628 183.437C271.603 183.417 271.582 183.395 271.564 183.371C271.584 183.361 271.605 183.353 271.628 183.347L272.852 183.03L272.898 182.907L272.954 182.892L272.837 183.212L271.705 183.498" fill="#C3AD92"/>
<path d="M275.613 183.15C275.582 183.14 275.551 183.135 275.517 183.134L274.314 183.088L273.669 182.063C273.592 181.938 273.464 181.879 273.339 181.879C273.315 181.879 273.291 181.881 273.268 181.885L273.286 181.833C273.324 181.731 273.411 181.663 273.518 181.651C273.529 181.65 273.54 181.65 273.55 181.65C273.645 181.65 273.731 181.697 273.783 181.78L274.46 182.857L275.723 182.905C275.746 182.906 275.769 182.909 275.79 182.915C275.778 182.942 275.761 182.969 275.741 182.993L275.613 183.15" fill="#C3AD92"/>
<path d="M272.561 184.787L272.511 184.749L272.519 184.627L271.525 183.839C271.44 183.771 271.402 183.667 271.424 183.56C271.44 183.488 271.479 183.428 271.535 183.389L272.596 184.213L272.561 184.787Z" fill="#C37E34"/>
<path d="M275.116 184.49L274.96 183.936L275.822 182.925C275.886 182.951 275.937 183.003 275.967 183.07C276.012 183.17 275.997 183.279 275.928 183.363L275.121 184.345L275.151 184.449L275.116 184.49" fill="#C37E34"/>
<path d="M272.716 186.428C272.63 186.428 272.542 186.405 272.464 186.359C272.295 186.261 272.198 186.079 272.21 185.883L272.283 184.733L271.383 184.02C271.23 183.898 271.161 183.704 271.2 183.511C271.24 183.32 271.382 183.171 271.571 183.123L272.678 182.836L273.073 181.753C273.14 181.569 273.302 181.441 273.494 181.421C273.514 181.418 273.533 181.417 273.552 181.417C273.726 181.417 273.883 181.506 273.976 181.656L274.59 182.629L275.732 182.673C275.925 182.68 276.095 182.796 276.175 182.975C276.254 183.154 276.227 183.359 276.103 183.509L275.374 184.399L275.686 185.508C275.739 185.697 275.682 185.895 275.538 186.027C275.443 186.114 275.322 186.16 275.199 186.16C275.136 186.16 275.073 186.148 275.011 186.123L273.949 185.698L272.998 186.341C272.913 186.398 272.815 186.428 272.716 186.428M272.457 185.603L272.438 185.898C272.432 186.007 272.484 186.105 272.578 186.159C272.622 186.184 272.668 186.197 272.716 186.197C272.77 186.197 272.823 186.181 272.871 186.149L273.921 185.439L275.096 185.908C275.13 185.922 275.165 185.928 275.199 185.928C275.266 185.928 275.331 185.904 275.385 185.856C275.465 185.783 275.495 185.676 275.465 185.572L275.386 185.288L275.15 184.449L275.12 184.345L275.927 183.363C275.996 183.279 276.011 183.17 275.966 183.069C275.936 183.002 275.885 182.951 275.821 182.925C275.811 182.921 275.801 182.917 275.79 182.914C275.769 182.908 275.747 182.905 275.723 182.904L274.46 182.856L273.784 181.779C273.731 181.696 273.645 181.649 273.55 181.649C273.54 181.649 273.529 181.649 273.518 181.65C273.411 181.662 273.324 181.73 273.287 181.832L273.268 181.884L272.897 182.906L272.851 183.029L271.628 183.346C271.605 183.352 271.584 183.36 271.564 183.37C271.554 183.376 271.544 183.382 271.535 183.388C271.479 183.427 271.44 183.487 271.424 183.56C271.402 183.667 271.44 183.77 271.525 183.838L272.518 184.626L272.51 184.749L272.457 185.603" fill="#371A45"/>
<path d="M146.988 202.418C146.97 202.418 146.953 202.417 146.935 202.414L146.677 201.599L146.735 201.616L146.561 201.068L145.275 200.691C145.282 200.682 145.288 200.673 145.296 200.664C145.321 200.68 145.349 200.693 145.38 200.702L145.473 200.73L146.423 200.048L146.416 199.706L146.369 199.74L146.346 198.653C146.407 198.614 146.479 198.593 146.553 198.593C146.631 198.593 146.712 198.618 146.783 198.671L147.754 199.388L148.891 198.988C148.923 198.977 148.955 198.97 148.987 198.968L149.049 198.775C149.059 198.745 149.064 198.714 149.066 198.685C149.076 198.684 149.085 198.683 149.094 198.683C149.096 198.683 149.097 198.683 149.099 198.683L148.662 199.941L149.007 200.399L149.025 200.349L149.548 201.043C149.485 201.165 149.359 201.255 149.2 201.255C149.199 201.255 149.199 201.255 149.198 201.255L147.995 201.25L147.309 202.248C147.228 202.363 147.108 202.418 146.988 202.418" fill="#C39A44"/>
<path d="M147.29 202.891C147.276 202.891 147.262 202.89 147.248 202.888C147.14 202.872 147.057 202.799 147.024 202.696L146.935 202.414C146.952 202.417 146.969 202.418 146.987 202.418C147.108 202.418 147.228 202.363 147.308 202.248L147.994 201.251L149.198 201.256C149.199 201.256 149.199 201.256 149.2 201.256C149.359 201.256 149.484 201.165 149.548 201.043L149.724 201.278C149.79 201.365 149.8 201.475 149.752 201.572C149.704 201.67 149.611 201.728 149.504 201.728H149.502L148.238 201.723L147.517 202.77C147.464 202.849 147.38 202.891 147.29 202.891" fill="#C37E34"/>
<path d="M145.473 200.73L145.379 200.702C145.349 200.693 145.321 200.68 145.296 200.664C145.31 200.647 145.327 200.632 145.346 200.618L146.372 199.873L146.369 199.741L146.416 199.707L146.423 200.049L145.473 200.73" fill="#C3AD92"/>
<path d="M147.754 199.389L146.783 198.671C146.711 198.618 146.631 198.594 146.552 198.594C146.479 198.594 146.407 198.615 146.345 198.653L146.344 198.598C146.341 198.489 146.397 198.393 146.493 198.343C146.535 198.321 146.58 198.311 146.624 198.311C146.68 198.311 146.737 198.329 146.787 198.366L147.806 199.119L148.999 198.699C149.022 198.692 149.044 198.687 149.066 198.685C149.064 198.714 149.059 198.745 149.049 198.775L148.986 198.969C148.954 198.971 148.923 198.978 148.891 198.989L147.754 199.389" fill="#C3AD92"/>
<path d="M146.736 201.615L146.677 201.598L146.639 201.481L145.428 201.113C145.325 201.081 145.252 200.999 145.234 200.89C145.223 200.818 145.237 200.748 145.275 200.69L146.562 201.067L146.736 201.615" fill="#C37E34"/>
<path d="M149.007 200.398L148.661 199.94L149.098 198.682C149.167 198.683 149.233 198.711 149.286 198.763C149.363 198.84 149.388 198.948 149.355 199.051L148.959 200.262L149.025 200.348L149.007 200.398" fill="#C37E34"/>
<path d="M147.29 203.119C147.266 203.119 147.24 203.117 147.214 203.114C147.021 203.085 146.865 202.951 146.806 202.764L146.458 201.666L145.362 201.333C145.176 201.277 145.04 201.121 145.008 200.928C144.977 200.735 145.054 200.544 145.212 200.428L146.141 199.754L146.115 198.601C146.111 198.405 146.216 198.227 146.388 198.137C146.463 198.098 146.543 198.079 146.623 198.079C146.728 198.079 146.832 198.112 146.922 198.178L147.844 198.86L148.923 198.48C148.979 198.461 149.036 198.451 149.092 198.451C149.223 198.451 149.35 198.502 149.446 198.598C149.585 198.735 149.633 198.936 149.572 199.122L149.215 200.218L149.906 201.136C150.024 201.292 150.044 201.498 149.957 201.674C149.871 201.848 149.697 201.956 149.504 201.956H149.501L148.357 201.952L147.705 202.9C147.61 203.039 147.455 203.119 147.29 203.119M146.935 202.412L147.024 202.694C147.057 202.797 147.14 202.87 147.248 202.886C147.262 202.888 147.277 202.889 147.29 202.889C147.38 202.889 147.464 202.846 147.517 202.768L148.238 201.721L149.502 201.726H149.504C149.611 201.726 149.704 201.668 149.752 201.57C149.8 201.473 149.79 201.363 149.725 201.276L149.548 201.041L149.025 200.347L148.959 200.261L149.355 199.05C149.389 198.947 149.363 198.838 149.286 198.762C149.234 198.71 149.167 198.682 149.098 198.681C149.096 198.681 149.095 198.681 149.093 198.681C149.084 198.681 149.076 198.682 149.066 198.683C149.044 198.685 149.022 198.69 148.999 198.697L147.806 199.117L146.787 198.364C146.737 198.327 146.68 198.309 146.624 198.309C146.58 198.309 146.535 198.319 146.493 198.341C146.397 198.391 146.341 198.488 146.344 198.596L146.345 198.651L146.368 199.739L146.371 199.871L145.345 200.616C145.327 200.63 145.31 200.645 145.296 200.662C145.288 200.671 145.282 200.68 145.275 200.689C145.237 200.747 145.222 200.817 145.234 200.89C145.252 200.998 145.325 201.08 145.428 201.112L146.638 201.48L146.676 201.597L146.935 202.412" fill="#371A45"/>
<path d="M133.451 189.998C133.398 189.998 133.345 189.984 133.297 189.96L133.359 189.231L133.386 189.253L133.427 188.76L132.546 188.043C132.553 188.039 132.56 188.035 132.567 188.031C132.58 188.047 132.595 188.062 132.611 188.076L132.676 188.129L133.652 187.906L133.758 187.633L133.73 187.64L134.066 186.773C134.077 186.772 134.089 186.771 134.101 186.771C134.212 186.771 134.323 186.824 134.389 186.935L134.923 187.828L135.955 187.89C135.984 187.892 136.011 187.897 136.036 187.905L136.15 187.774C136.164 187.756 136.176 187.739 136.186 187.721C136.193 187.724 136.2 187.726 136.207 187.729L135.461 188.567L135.584 189.047L135.602 189.027L135.788 189.747C135.731 189.791 135.661 189.816 135.587 189.816C135.543 189.816 135.499 189.807 135.455 189.788L134.503 189.383L133.632 189.944C133.575 189.981 133.512 189.998 133.451 189.998" fill="#C39A44"/>
<path d="M133.498 190.449C133.46 190.449 133.42 190.438 133.384 190.416C133.309 190.37 133.27 190.292 133.277 190.205L133.298 189.959C133.345 189.983 133.398 189.997 133.452 189.997C133.512 189.997 133.575 189.98 133.632 189.943L134.503 189.382L135.455 189.787C135.499 189.806 135.544 189.815 135.587 189.815C135.661 189.815 135.732 189.79 135.788 189.746L135.85 189.984C135.872 190.069 135.845 190.153 135.779 190.211C135.738 190.247 135.687 190.266 135.635 190.266C135.605 190.266 135.576 190.26 135.548 190.248L134.54 189.819L133.619 190.413C133.582 190.437 133.54 190.449 133.498 190.449" fill="#C37E34"/>
<path d="M221.539 161.174C221.425 160.862 221.371 160.529 221.389 160.184C221.44 160.514 221.49 160.844 221.539 161.174Z" fill="#371A45"/>
<path d="M132.676 188.129L132.611 188.076C132.594 188.062 132.579 188.047 132.566 188.031C132.582 188.024 132.598 188.018 132.615 188.014L133.681 187.763L133.73 187.64L133.759 187.633L133.652 187.905L132.676 188.129" fill="#C3AD92"/>
<path d="M136.036 187.904C136.01 187.896 135.984 187.891 135.955 187.889L134.923 187.827L134.388 186.935C134.323 186.824 134.212 186.77 134.101 186.77C134.089 186.77 134.077 186.771 134.065 186.772L134.079 186.736C134.112 186.655 134.183 186.602 134.268 186.595L134.288 186.594C134.368 186.594 134.436 186.633 134.478 186.702L135.042 187.647L136.135 187.713C136.153 187.714 136.169 187.717 136.185 187.721C136.175 187.739 136.164 187.756 136.15 187.773L136.036 187.904Z" fill="#C3AD92"/>
<path d="M133.386 189.254L133.359 189.232L133.37 189.107L132.525 188.407C132.459 188.352 132.43 188.267 132.45 188.182C132.463 188.123 132.497 188.075 132.546 188.044L133.428 188.761L133.386 189.254" fill="#C37E34"/>
<path d="M135.584 189.047L135.461 188.568L136.208 187.73C136.261 187.752 136.303 187.794 136.327 187.85C136.361 187.93 136.347 188.018 136.29 188.084L135.574 188.918L135.602 189.027L135.584 189.047" fill="#C37E34"/>
<path d="M133.498 190.68C133.418 190.68 133.337 190.657 133.266 190.614C133.118 190.523 133.034 190.359 133.049 190.184L133.132 189.207L132.38 188.583C132.246 188.472 132.187 188.298 132.227 188.127C132.267 187.958 132.396 187.828 132.565 187.788L133.512 187.565L133.868 186.652C133.931 186.489 134.077 186.379 134.25 186.364C134.263 186.363 134.275 186.363 134.288 186.363C134.445 186.363 134.592 186.444 134.674 186.582L135.177 187.423L136.149 187.482C136.321 187.492 136.47 187.598 136.538 187.758C136.605 187.92 136.576 188.101 136.463 188.234L135.826 188.976L136.07 189.926C136.114 190.095 136.061 190.271 135.929 190.385C135.845 190.458 135.741 190.496 135.634 190.496C135.576 190.496 135.516 190.484 135.458 190.46L134.562 190.078L133.742 190.608C133.667 190.655 133.584 190.68 133.498 190.68M133.298 189.959L133.277 190.205C133.27 190.292 133.309 190.37 133.384 190.416C133.42 190.438 133.46 190.449 133.498 190.449C133.54 190.449 133.582 190.437 133.619 190.413L134.54 189.819L135.548 190.248C135.576 190.26 135.605 190.266 135.635 190.266C135.687 190.266 135.738 190.247 135.779 190.211C135.845 190.153 135.872 190.069 135.85 189.984L135.788 189.746L135.602 189.026L135.575 188.916L136.29 188.083C136.347 188.017 136.361 187.929 136.327 187.849C136.303 187.793 136.261 187.75 136.208 187.728C136.201 187.725 136.194 187.723 136.186 187.72C136.17 187.716 136.153 187.713 136.135 187.712L135.043 187.646L134.478 186.702C134.437 186.633 134.368 186.594 134.288 186.594L134.269 186.595C134.183 186.602 134.112 186.655 134.08 186.736L134.066 186.772L133.73 187.639L133.681 187.762L132.616 188.013C132.599 188.017 132.583 188.023 132.567 188.03C132.56 188.034 132.553 188.038 132.546 188.042C132.497 188.073 132.464 188.121 132.45 188.18C132.43 188.266 132.459 188.35 132.525 188.405L133.37 189.105L133.359 189.23L133.298 189.959" fill="#371A45"/>
<path d="M164.667 166.49C162.39 174.769 146.662 183.505 130.516 179.538L114.686 197.283C114.166 197.016 112.525 190.217 112.755 182.293C112.918 176.717 114.013 170.581 117.065 165.761C124.463 154.1 140.4 152.702 145.55 151.695C145.55 151.695 158.839 145.476 161.457 148.123C164.081 150.769 159.806 153.339 159.806 153.339C159.806 153.339 161.274 154.341 162.664 156.212C164.346 158.463 165.91 161.967 164.667 166.49" fill="white"/>
<path d="M159.212 149.011C158.178 149.011 156.298 149.272 152.982 150.385C149.472 151.564 146.226 153.075 146.194 153.09C146.081 153.143 145.963 153.182 145.842 153.206C145.276 153.316 144.584 153.431 143.788 153.564C137.557 154.602 124.587 156.761 118.354 166.592C112.743 175.435 114.158 189.026 115.292 194.296L129.381 178.505C129.757 178.084 130.333 177.904 130.879 178.038C146.388 181.849 161.176 173.411 163.193 166.079C165.141 159.006 159.197 154.791 158.943 154.615C158.513 154.317 158.262 153.818 158.278 153.294C158.295 152.769 158.574 152.286 159.021 152.018C159.677 151.616 160.694 150.699 160.775 150.018C160.787 149.919 160.818 149.659 160.377 149.214C160.373 149.21 160.113 149.011 159.212 149.011ZM114.684 198.824C114.448 198.824 114.208 198.769 113.986 198.654C113.359 198.33 113.023 197.724 112.606 196.163C111.325 191.377 109.158 175.365 115.778 164.93C122.746 153.943 136.622 151.633 143.291 150.522C143.971 150.409 144.573 150.308 145.08 150.213C149.464 148.175 159.532 143.995 162.539 147.034C163.777 148.282 163.913 149.554 163.809 150.401C163.659 151.608 162.944 152.619 162.221 153.356C164.869 155.923 167.825 160.781 166.139 166.904C163.522 176.41 146.975 184.703 131.052 181.241L115.82 198.314C115.523 198.648 115.108 198.824 114.684 198.824" fill="#371A45"/>
<path d="M130.478 180.979C130.272 180.979 130.063 180.936 129.863 180.847C129.703 180.776 125.913 179.068 122.671 175.792C122.074 175.189 122.075 174.213 122.673 173.611C123.27 173.01 124.238 173.011 124.834 173.613C127.657 176.465 131.064 178.011 131.099 178.027C131.869 178.372 132.218 179.283 131.876 180.06C131.624 180.636 131.064 180.979 130.478 180.979Z" fill="#371A45"/>
<path d="M159.954 155.068C159.671 155.068 159.385 154.989 159.129 154.823C154.59 151.882 145.834 153.248 145.746 153.262C144.912 153.395 144.129 152.824 143.996 151.983C143.862 151.143 144.43 150.352 145.261 150.217C145.668 150.151 155.257 148.648 160.781 152.229C161.492 152.689 161.698 153.643 161.241 154.36C160.949 154.818 160.457 155.068 159.954 155.068" fill="#371A45"/>
<path d="M125.092 186.932C124.952 186.932 124.808 186.912 124.667 186.87C116.934 184.617 112.199 177.249 112.001 176.936C111.547 176.218 111.756 175.266 112.467 174.807C113.177 174.349 114.123 174.559 114.577 175.277C114.644 175.381 118.927 181.988 125.515 183.908C126.326 184.145 126.794 185 126.56 185.817C126.366 186.493 125.756 186.932 125.092 186.932" fill="#371A45"/>
<path d="M115.293 194.297C114.7 191.536 114.028 186.492 114.33 181.043C114.54 180.901 114.748 180.755 114.952 180.607C116.764 182.51 119.356 184.72 122.589 186.12L115.293 194.297" fill="#CBC4CF"/>
<path d="M114.687 197.018C114.168 196.75 112.527 189.951 112.756 182.027C113.292 181.719 113.818 181.391 114.33 181.043C114.027 186.492 114.699 191.536 115.293 194.297L122.589 186.119C123.028 186.309 123.48 186.484 123.943 186.642L114.687 197.018" fill="#371A45"/>
<path d="M124.774 183.668C121.663 182.571 119.113 180.471 117.34 178.645C120.994 175.257 123.676 170.795 124.744 165.9C130.161 167.222 135.658 168.469 141.23 168.469C141.287 168.469 141.342 168.469 141.399 168.469C147.03 168.448 152.817 167.03 157.23 163.5C159.155 161.959 160.769 159.966 161.886 157.748C163.164 159.708 164.169 162.534 163.193 166.078C161.522 172.152 151.088 178.985 138.738 178.985C136.318 178.985 133.822 178.722 131.306 178.14C131.24 178.097 131.172 178.06 131.098 178.027C131.064 178.011 127.657 176.465 124.834 173.613C124.535 173.311 124.143 173.161 123.751 173.161C123.361 173.161 122.97 173.311 122.672 173.611C122.075 174.212 122.074 175.189 122.67 175.791C124.576 177.718 126.673 179.103 128.109 179.931L124.774 183.668" fill="#CBC4CF"/>
<path d="M126.097 184.227C125.934 184.082 125.738 183.972 125.515 183.907C125.265 183.834 125.018 183.754 124.775 183.668L128.109 179.931C128.611 180.221 129.033 180.441 129.337 180.595L126.097 184.227M138.715 180.258C136.517 180.258 134.267 180.051 132 179.6C132.06 179.029 131.797 178.458 131.307 178.14C133.822 178.722 136.319 178.986 138.739 178.986C151.088 178.986 161.522 172.152 163.194 166.078C164.17 162.535 163.165 159.709 161.887 157.749C162.183 157.162 162.444 156.56 162.666 155.945C164.348 158.196 165.912 161.7 164.669 166.223C162.782 173.083 151.658 180.258 138.715 180.258" fill="#371A45"/>
<path d="M129.337 180.596C129.033 180.442 128.611 180.222 128.109 179.932C126.673 179.104 124.577 177.72 122.671 175.793C122.074 175.19 122.075 174.214 122.673 173.612C122.971 173.313 123.362 173.162 123.752 173.162C124.144 173.162 124.535 173.313 124.834 173.614C127.657 176.466 131.064 178.012 131.099 178.028C131.173 178.061 131.241 178.098 131.307 178.142C131.797 178.459 132.06 179.03 131.999 179.601C131.506 179.503 131.013 179.394 130.518 179.272L129.337 180.596" fill="#371A45"/>
<path d="M123.943 186.641C123.481 186.483 123.029 186.308 122.589 186.118C119.356 184.719 116.764 182.508 114.952 180.606C115.786 180.002 116.584 179.346 117.34 178.646C119.114 180.471 121.664 182.571 124.775 183.668C125.018 183.754 125.265 183.834 125.515 183.907C125.738 183.972 125.934 184.082 126.097 184.227L123.943 186.641" fill="#371A45"/>
<path d="M172.966 186.356L173.937 187.074L175.073 186.674C175.38 186.566 175.677 186.859 175.575 187.171L175.199 188.325L175.926 189.292C176.123 189.552 175.938 189.928 175.612 189.927L174.409 189.922L173.723 190.92C173.537 191.189 173.126 191.127 173.026 190.814L172.66 189.658L171.507 189.309C171.195 189.213 171.126 188.799 171.39 188.608L172.367 187.898L172.341 186.684C172.334 186.356 172.703 186.163 172.966 186.356" fill="#FFD243"/>
<path d="M175.927 189.292C176.124 189.552 175.939 189.928 175.613 189.927L174.41 189.922L173.723 190.92C173.537 191.189 173.126 191.127 173.026 190.814L172.912 190.455C173.077 190.543 173.297 190.509 173.42 190.331L174.106 189.335L175.309 189.339C175.523 189.34 175.677 189.177 175.701 188.992L175.927 189.292" fill="#FFA92C"/>
<path d="M171.584 188.814L171.491 188.786C171.419 188.764 171.363 188.723 171.321 188.672C171.341 188.649 171.365 188.627 171.39 188.608L172.528 187.791L172.535 188.132L171.584 188.814" fill="#FFEDB4"/>
<path d="M173.937 187.074L172.965 186.356C172.894 186.304 172.815 186.28 172.739 186.279C172.815 186.28 172.894 186.304 172.965 186.356L173.937 187.074L174.698 186.806L173.937 187.074ZM172.344 186.842L172.34 186.684C172.34 186.658 172.342 186.633 172.346 186.609C172.342 186.633 172.34 186.658 172.341 186.684L172.344 186.842" fill="#BFB2D5"/>
<path d="M173.866 187.473L172.895 186.756C172.823 186.702 172.743 186.679 172.664 186.679C172.539 186.679 172.419 186.74 172.345 186.842L172.342 186.685C172.341 186.659 172.343 186.634 172.347 186.61C172.379 186.412 172.552 186.28 172.736 186.28C172.737 186.28 172.738 186.28 172.74 186.28C172.816 186.281 172.895 186.305 172.966 186.357L173.937 187.075L174.699 186.806L175.073 186.675C175.104 186.664 175.135 186.658 175.166 186.655C175.184 186.718 175.184 186.788 175.161 186.859L175.098 187.053C175.066 187.055 175.035 187.062 175.003 187.073L173.866 187.473" fill="#FFEDB4"/>
<path d="M172.847 189.701L171.507 189.308C171.257 189.232 171.163 188.949 171.274 188.743L172.673 189.153L172.847 189.701Z" fill="#FFA92C"/>
<path d="M175.575 187.172L175.118 188.484L174.772 188.025L175.249 186.656C175.48 186.682 175.657 186.921 175.575 187.172Z" fill="#FFA92C"/>
<path d="M172.734 186.394C172.691 186.394 172.647 186.405 172.605 186.427C172.51 186.477 172.453 186.573 172.456 186.681L172.483 187.956L171.457 188.701C171.37 188.765 171.328 188.867 171.346 188.976C171.364 189.083 171.436 189.166 171.54 189.197L172.75 189.565L173.135 190.779C173.169 190.883 173.252 190.954 173.36 190.971C173.468 190.988 173.567 190.943 173.629 190.853L174.349 189.807L175.614 189.812H175.615C175.722 189.812 175.815 189.753 175.864 189.656C175.912 189.558 175.902 189.448 175.836 189.36L175.071 188.346L175.467 187.135C175.5 187.032 175.475 186.923 175.397 186.847C175.32 186.771 175.213 186.746 175.111 186.783L173.918 187.203L172.898 186.449C172.849 186.412 172.792 186.394 172.734 186.394V186.394ZM173.402 191.205C173.377 191.205 173.352 191.203 173.326 191.199C173.134 191.17 172.977 191.037 172.918 190.849L172.568 189.751L171.474 189.419C171.288 189.361 171.152 189.206 171.12 189.013C171.089 188.82 171.166 188.629 171.324 188.514L172.251 187.84L172.227 186.687C172.223 186.49 172.327 186.313 172.5 186.222C172.673 186.131 172.878 186.147 173.033 186.263L173.956 186.944L175.035 186.565C175.218 186.499 175.418 186.545 175.557 186.683C175.696 186.82 175.745 187.021 175.684 187.207L175.326 188.303L176.018 189.221C176.136 189.378 176.154 189.584 176.068 189.759C175.981 189.934 175.809 190.042 175.615 190.042H175.613L174.469 190.037L173.817 190.985C173.721 191.125 173.566 191.205 173.402 191.205Z" fill="#371A45"/>
<path d="M214.684 163.26L214.564 164.483L215.496 165.276C215.747 165.491 215.646 165.903 215.325 165.974L214.134 166.238L213.675 167.375C213.551 167.683 213.13 167.713 212.964 167.427L212.348 166.367L211.132 166.278C210.803 166.254 210.645 165.86 210.864 165.612L211.673 164.693L211.382 163.5C211.303 163.177 211.625 162.903 211.928 163.037L213.044 163.529L214.078 162.88C214.359 162.705 214.716 162.929 214.684 163.26" fill="#FFD243"/>
<path d="M213.675 167.375C213.55 167.683 213.13 167.713 212.963 167.427L212.348 166.367L211.132 166.278C210.804 166.254 210.645 165.86 210.864 165.612L211.115 165.326C211.125 165.516 211.267 165.692 211.483 165.708L212.699 165.798L213.315 166.857C213.424 167.046 213.644 167.098 213.817 167.023L213.675 167.375" fill="#FFA92C"/>
<path d="M212.928 163.797L211.849 163.313L211.825 163.216C211.807 163.142 211.812 163.072 211.835 163.009C211.866 163.014 211.897 163.023 211.928 163.037L213.219 163.614L212.928 163.797Z" fill="#FFEDB4"/>
<path d="M215.369 165.168L214.565 164.483L214.684 163.26C214.691 163.188 214.68 163.121 214.654 163.062C214.68 163.121 214.691 163.188 214.684 163.26L214.565 164.483L215.369 165.168ZM213.945 162.964L214.079 162.88C214.117 162.856 214.158 162.839 214.199 162.83C214.158 162.839 214.118 162.856 214.079 162.88L213.945 162.964Z" fill="#BFB2D5"/>
<path d="M215.182 165.492C215.164 165.466 215.141 165.442 215.116 165.419L214.184 164.627L214.303 163.403C214.326 163.167 214.15 162.985 213.945 162.965L214.079 162.881C214.118 162.857 214.158 162.84 214.199 162.831C214.229 162.824 214.259 162.82 214.287 162.82C214.444 162.82 214.592 162.917 214.654 163.062C214.68 163.121 214.691 163.188 214.684 163.261L214.565 164.484L215.369 165.168L215.496 165.277C215.521 165.298 215.543 165.322 215.561 165.347C215.515 165.396 215.455 165.432 215.381 165.448L215.182 165.492" fill="#FFEDB4"/>
<path d="M211.734 164.881L211.382 163.5C211.319 163.241 211.515 163.013 211.752 163.005L212.118 164.445L211.734 164.881" fill="#FFA92C"/>
<path d="M215.325 165.975L213.956 166.25L214.174 165.71L215.604 165.422C215.7 165.639 215.584 165.918 215.325 165.975Z" fill="#FFA92C"/>
<path d="M211.767 163.121C211.702 163.121 211.64 163.144 211.586 163.188C211.502 163.259 211.469 163.366 211.495 163.472L211.801 164.727L210.951 165.691C210.878 165.773 210.858 165.884 210.9 165.986C210.941 166.089 211.031 166.154 211.141 166.162L212.417 166.256L213.064 167.37C213.119 167.465 213.221 167.52 213.326 167.51C213.436 167.502 213.526 167.435 213.568 167.333L214.05 166.138L215.3 165.861C215.406 165.838 215.486 165.76 215.513 165.653C215.539 165.546 215.505 165.438 215.421 165.367L214.443 164.535L214.569 163.251C214.579 163.141 214.531 163.04 214.437 162.981C214.345 162.924 214.234 162.923 214.14 162.981L213.053 163.662L211.881 163.145C211.843 163.129 211.805 163.121 211.767 163.121V163.121ZM213.305 167.744C213.124 167.744 212.957 167.648 212.864 167.489L212.279 166.481L211.125 166.396C210.928 166.382 210.76 166.258 210.685 166.074C210.612 165.891 210.647 165.684 210.778 165.536L211.546 164.663L211.27 163.529C211.223 163.336 211.287 163.138 211.438 163.009C211.587 162.882 211.793 162.851 211.974 162.931L213.034 163.399L214.018 162.783C214.185 162.679 214.393 162.679 214.561 162.784C214.728 162.888 214.818 163.077 214.799 163.274L214.686 164.436L215.57 165.189C215.721 165.317 215.785 165.516 215.737 165.709C215.69 165.902 215.542 166.047 215.35 166.09L214.219 166.34L213.781 167.421C213.708 167.605 213.54 167.728 213.343 167.742C213.331 167.743 213.318 167.744 213.305 167.744" fill="#371A45"/>
<path d="M251.393 169.142L251.021 170.297L251.754 171.26C251.953 171.521 251.769 171.897 251.443 171.898H250.239L249.557 172.898C249.373 173.169 248.962 173.109 248.861 172.797L248.488 171.643L247.334 171.298C247.022 171.205 246.951 170.791 247.215 170.599L248.188 169.884L248.157 168.67C248.148 168.342 248.516 168.147 248.779 168.339L249.753 169.053L250.888 168.647C251.195 168.537 251.492 168.83 251.393 169.142" fill="#FFD243"/>
<path d="M249.557 172.901C249.373 173.171 248.962 173.11 248.861 172.798L248.488 171.645L247.334 171.3C247.022 171.206 246.951 170.792 247.215 170.6L247.517 170.377C247.487 170.563 247.587 170.763 247.792 170.825L248.947 171.169L249.319 172.323C249.385 172.529 249.586 172.625 249.769 172.59L249.557 172.901" fill="#FFA92C"/>
<path d="M249.586 169.287L248.646 168.59L248.643 168.492C248.642 168.417 248.662 168.35 248.696 168.295C248.725 168.306 248.753 168.321 248.779 168.341L249.905 169.173L249.586 169.287" fill="#FFEDB4"/>
<path d="M251.604 171.064L251.022 170.299L251.393 169.144C251.415 169.075 251.418 169.006 251.405 168.942C251.418 169.006 251.415 169.075 251.393 169.144L251.022 170.299L251.604 171.064ZM250.742 168.701L250.888 168.648C250.92 168.637 250.952 168.63 250.983 168.627C250.952 168.63 250.92 168.637 250.888 168.648L250.742 168.701Z" fill="#BFB2D5"/>
<path d="M251.407 171.402C251.395 171.372 251.378 171.344 251.358 171.317L250.624 170.354L250.996 169.199C251.067 168.975 250.935 168.763 250.742 168.699L250.889 168.646C250.92 168.635 250.952 168.628 250.983 168.625C250.996 168.624 251.009 168.623 251.021 168.623C251.208 168.623 251.369 168.761 251.406 168.94C251.418 169.004 251.415 169.073 251.394 169.142L251.022 170.297L251.604 171.062L251.755 171.26C251.774 171.286 251.79 171.314 251.803 171.342C251.749 171.379 251.683 171.401 251.607 171.401L251.407 171.402" fill="#FFEDB4"/>
<path d="M248.208 170.076L248.157 168.67C248.15 168.406 248.387 168.228 248.618 168.27L248.669 169.738L248.208 170.076" fill="#FFA92C"/>
<path d="M251.445 171.898L250.065 171.872L250.389 171.398L251.828 171.424C251.876 171.655 251.706 171.898 251.445 171.898Z" fill="#FFA92C"/>
<path d="M251.393 169.143H251.396H251.393ZM248.55 168.38C248.506 168.38 248.461 168.391 248.42 168.413C248.323 168.464 248.269 168.56 248.272 168.668L248.304 169.942L247.283 170.693C247.195 170.757 247.154 170.86 247.172 170.968C247.19 171.075 247.263 171.157 247.367 171.189L248.579 171.55L248.97 172.762C249.003 172.867 249.088 172.938 249.195 172.954C249.299 172.968 249.403 172.925 249.464 172.835L250.179 171.784H251.443C251.552 171.783 251.645 171.725 251.693 171.627C251.74 171.529 251.73 171.419 251.664 171.332L250.895 170.32L251.284 169.108C251.318 169.004 251.291 168.897 251.214 168.821C251.135 168.744 251.029 168.721 250.926 168.757L249.736 169.183L248.713 168.435C248.663 168.399 248.607 168.38 248.55 168.38V168.38ZM249.236 173.188C249.212 173.188 249.187 173.185 249.162 173.182C248.969 173.154 248.812 173.021 248.753 172.835L248.399 171.738L247.302 171.41C247.116 171.354 246.98 171.2 246.947 171.007C246.913 170.814 246.991 170.622 247.148 170.507L248.072 169.828L248.042 168.674C248.037 168.479 248.141 168.3 248.313 168.209C248.484 168.118 248.689 168.133 248.847 168.248L249.772 168.925L250.85 168.54C251.034 168.475 251.234 168.519 251.373 168.655C251.512 168.792 251.561 168.993 251.502 169.18L251.149 170.276L251.846 171.192C251.964 171.347 251.984 171.553 251.897 171.729C251.812 171.905 251.638 172.015 251.443 172.015H250.3L249.652 172.966C249.557 173.106 249.402 173.188 249.236 173.188" fill="#371A45"/>
<path d="M255.157 151.807L255.801 152.832L257.004 152.878C257.329 152.89 257.499 153.273 257.292 153.527L256.524 154.461L256.852 155.63C256.942 155.945 256.633 156.226 256.33 156.105L255.211 155.658L254.211 156.335C253.941 156.517 253.58 156.308 253.601 155.981L253.678 154.769L252.731 154.019C252.475 153.815 252.561 153.405 252.876 153.324L254.042 153.022L254.457 151.883C254.569 151.575 254.983 151.53 255.157 151.807" fill="#FFD243"/>
<path d="M256.852 155.63C256.941 155.945 256.632 156.226 256.33 156.105L255.211 155.658L254.211 156.335C253.941 156.517 253.581 156.308 253.601 155.981L253.625 155.605C253.747 155.746 253.964 155.795 254.142 155.675L255.141 154.999L256.26 155.446C256.458 155.526 256.661 155.431 256.751 155.267L256.852 155.63" fill="#FFA92C"/>
<path d="M252.982 153.586L252.905 153.526C252.847 153.479 252.808 153.421 252.788 153.357C252.815 153.342 252.845 153.331 252.876 153.323L254.231 152.98L254.113 153.301L252.982 153.586Z" fill="#FFEDB4"/>
<path d="M256.593 152.861L255.8 152.831L255.156 151.807C255.12 151.75 255.076 151.707 255.025 151.676C255.076 151.707 255.121 151.75 255.156 151.807L255.801 152.831L256.593 152.861M254.403 152.029L254.457 151.882C254.46 151.87 254.465 151.858 254.471 151.846C254.465 151.858 254.46 151.87 254.457 151.882L254.403 152.029Z" fill="#BFB2D5"/>
<path d="M256.89 153.238C256.86 153.228 256.827 153.223 256.793 153.222L255.591 153.176L254.945 152.152C254.868 152.027 254.742 151.967 254.616 151.967C254.541 151.967 254.466 151.988 254.403 152.029L254.457 151.882C254.46 151.87 254.465 151.858 254.471 151.846C254.541 151.699 254.683 151.622 254.826 151.622C254.895 151.622 254.963 151.64 255.025 151.676C255.076 151.707 255.12 151.75 255.156 151.807L255.8 152.831L256.593 152.861L257.004 152.877C257.036 152.878 257.067 152.884 257.096 152.892C257.09 152.959 257.065 153.024 257.018 153.082L256.89 153.238" fill="#FFEDB4"/>
<path d="M253.837 154.877L252.73 154.019C252.525 153.855 252.54 153.558 252.719 153.405L253.873 154.302L253.837 154.877" fill="#FFA92C"/>
<path d="M257.291 153.525L256.391 154.578L256.235 154.025L257.174 152.924C257.381 153.033 257.458 153.321 257.291 153.525Z" fill="#FFA92C"/>
<path d="M254.826 151.737C254.816 151.737 254.805 151.738 254.795 151.739C254.687 151.75 254.6 151.818 254.563 151.921L254.127 153.118L252.904 153.434C252.798 153.461 252.723 153.541 252.701 153.648C252.678 153.755 252.716 153.859 252.801 153.926L253.794 154.714L253.715 155.986C253.708 156.096 253.759 156.193 253.854 156.247C253.947 156.301 254.057 156.298 254.147 156.237L255.197 155.527L256.371 155.997C256.473 156.036 256.579 156.017 256.661 155.944C256.741 155.871 256.771 155.765 256.742 155.659L256.396 154.433L257.203 153.451C257.272 153.367 257.287 153.258 257.242 153.158C257.198 153.058 257.107 152.996 256.999 152.992L255.736 152.944L255.059 151.867C255.007 151.784 254.921 151.737 254.826 151.737V151.737ZM253.992 156.516C253.906 156.516 253.819 156.493 253.74 156.447C253.572 156.349 253.474 156.168 253.486 155.971L253.559 154.82L252.659 154.108C252.506 153.986 252.437 153.792 252.477 153.6C252.517 153.409 252.658 153.26 252.847 153.21L253.954 152.925L254.349 151.842C254.415 151.658 254.577 151.53 254.77 151.509C254.964 151.488 255.148 151.578 255.252 151.744L255.865 152.718L257.007 152.761C257.201 152.769 257.371 152.885 257.451 153.064C257.53 153.242 257.503 153.447 257.379 153.598L256.65 154.487L256.962 155.596C257.014 155.785 256.958 155.984 256.814 156.116C256.671 156.247 256.469 156.284 256.287 156.211L255.224 155.786L254.274 156.428C254.189 156.487 254.09 156.516 253.992 156.516Z" fill="#371A45"/>
<path d="M173.474 170.553L174.445 171.271L175.582 170.871C175.89 170.763 176.186 171.058 176.084 171.369L175.708 172.522L176.436 173.489C176.633 173.75 176.447 174.125 176.122 174.124L174.919 174.119L174.232 175.117C174.047 175.386 173.635 175.324 173.536 175.013L173.168 173.856L172.016 173.506C171.704 173.411 171.636 172.997 171.899 172.805L172.876 172.095L172.85 170.881C172.843 170.553 173.212 170.36 173.474 170.553" fill="#FFD243"/>
<path d="M176.437 173.489C176.634 173.75 176.448 174.125 176.123 174.124L174.919 174.119L174.232 175.117C174.048 175.386 173.636 175.324 173.537 175.013L173.422 174.654C173.587 174.74 173.807 174.707 173.929 174.529L174.616 173.532L175.82 173.537C176.033 173.538 176.187 173.375 176.211 173.189L176.437 173.489" fill="#FFA92C"/>
<path d="M172.093 173.012L172.001 172.984C171.929 172.962 171.871 172.921 171.831 172.87C171.85 172.846 171.873 172.824 171.9 172.805L173.037 171.988L173.045 172.33L172.093 173.012" fill="#FFEDB4"/>
<path d="M174.445 171.271L173.474 170.554C173.423 170.516 173.367 170.493 173.31 170.483C173.367 170.493 173.423 170.516 173.474 170.554L174.445 171.271L175.466 170.913L174.445 171.271ZM172.853 171.039L172.85 170.883C172.849 170.854 172.852 170.827 172.856 170.801C172.852 170.827 172.849 170.854 172.85 170.882L172.853 171.039Z" fill="#BFB2D5"/>
<path d="M174.375 171.67L173.404 170.952C173.331 170.899 173.252 170.875 173.173 170.875C173.048 170.875 172.928 170.936 172.853 171.038L172.85 170.881C172.849 170.854 172.852 170.827 172.856 170.801C172.891 170.606 173.062 170.476 173.245 170.476C173.267 170.476 173.289 170.478 173.31 170.482C173.367 170.492 173.423 170.515 173.474 170.553L174.445 171.271L175.466 170.912L175.583 170.871C175.613 170.861 175.643 170.854 175.674 170.851C175.693 170.914 175.692 170.984 175.669 171.056L175.606 171.249C175.575 171.251 175.543 171.258 175.511 171.27L174.375 171.67Z" fill="#FFEDB4"/>
<path d="M173.357 173.898L172.016 173.506C171.765 173.43 171.672 173.147 171.784 172.94L173.183 173.35L173.357 173.898Z" fill="#FFA92C"/>
<path d="M176.085 171.367L175.628 172.68L175.283 172.222L175.758 170.851C175.991 170.877 176.167 171.117 176.085 171.367" fill="#FFA92C"/>
<path d="M173.244 170.591C173.2 170.591 173.156 170.602 173.114 170.624C173.019 170.675 172.963 170.77 172.966 170.879L172.992 172.154L171.967 172.899C171.88 172.962 171.837 173.065 171.855 173.173C171.873 173.28 171.945 173.363 172.049 173.395L173.259 173.763L173.645 174.976C173.678 175.081 173.762 175.153 173.869 175.169C173.978 175.185 174.077 175.141 174.139 175.05L174.859 174.004L176.122 174.009H176.123C176.232 174.009 176.324 173.951 176.373 173.853C176.422 173.755 176.411 173.646 176.345 173.559L175.581 172.543L175.975 171.333C176.009 171.229 175.984 171.122 175.907 171.044C175.829 170.968 175.722 170.943 175.621 170.98L174.427 171.4L173.407 170.647C173.358 170.61 173.301 170.591 173.244 170.591V170.591ZM173.912 175.402C173.886 175.402 173.86 175.4 173.835 175.396C173.644 175.368 173.487 175.234 173.427 175.047L173.078 173.949L171.983 173.616C171.797 173.56 171.661 173.404 171.629 173.211C171.597 173.017 171.676 172.826 171.833 172.712L172.761 172.037L172.736 170.884C172.732 170.689 172.837 170.51 173.009 170.42C173.182 170.329 173.385 170.345 173.542 170.461L174.465 171.143L175.545 170.763C175.728 170.697 175.929 170.743 176.067 170.88C176.206 171.017 176.254 171.219 176.193 171.405L175.836 172.5L176.528 173.419C176.645 173.575 176.664 173.781 176.578 173.957C176.491 174.131 176.317 174.239 176.123 174.239H176.121L174.978 174.234L174.326 175.183C174.23 175.322 174.076 175.402 173.912 175.402" fill="#371A45"/>
<path d="M175.846 142.749L177.04 142.909L177.847 142.009C178.065 141.766 178.466 141.88 178.525 142.203L178.741 143.397L179.839 143.894C180.137 144.029 180.152 144.448 179.865 144.604L178.807 145.181L178.678 146.389C178.643 146.714 178.252 146.859 178.018 146.632L177.146 145.795L175.967 146.045C175.649 146.112 175.392 145.782 175.533 145.486L176.053 144.392L175.454 143.338C175.292 143.053 175.524 142.705 175.846 142.749" fill="#FFD243"/>
<path d="M179.84 143.894C180.137 144.028 180.152 144.448 179.866 144.604L178.807 145.18L178.678 146.388C178.643 146.714 178.253 146.859 178.018 146.633L177.747 146.372C177.932 146.369 178.109 146.233 178.133 146.018L178.262 144.811L179.32 144.234C179.509 144.132 179.566 143.915 179.5 143.74L179.84 143.894" fill="#FFA92C"/>
<path d="M175.631 145.602C175.585 145.602 175.543 145.593 175.503 145.577C175.509 145.545 175.519 145.515 175.533 145.486L176.142 144.219L176.311 144.516L175.8 145.574L175.706 145.594C175.68 145.599 175.655 145.602 175.631 145.602" fill="#FFEDB4"/>
<path d="M175.531 143.475L175.455 143.338C175.444 143.32 175.435 143.3 175.427 143.281C175.435 143.3 175.444 143.319 175.455 143.338L175.531 143.475ZM177.04 142.909L175.846 142.749C175.828 142.747 175.809 142.746 175.792 142.746C175.742 142.746 175.695 142.755 175.652 142.772C175.695 142.755 175.742 142.745 175.793 142.745C175.809 142.745 175.828 142.747 175.846 142.749L177.04 142.909L177.703 142.17L177.04 142.909Z" fill="#BFB2D5"/>
<path d="M175.531 143.475L175.455 143.338C175.444 143.319 175.435 143.3 175.427 143.281C175.347 143.073 175.459 142.847 175.652 142.772C175.695 142.755 175.742 142.746 175.791 142.746C175.809 142.746 175.828 142.747 175.846 142.749L177.04 142.909L177.703 142.17L177.847 142.01C177.869 141.985 177.893 141.965 177.918 141.948C177.964 141.994 177.998 142.056 178.012 142.13L178.048 142.33C178.022 142.347 177.997 142.368 177.974 142.394L177.166 143.294L175.973 143.133C175.954 143.131 175.937 143.13 175.919 143.13C175.714 143.13 175.557 143.287 175.531 143.475" fill="#FFEDB4"/>
<path d="M177.33 145.742L175.968 146.046C175.711 146.1 175.496 145.896 175.495 145.661L176.917 145.345L177.33 145.742" fill="#FFA92C"/>
<path d="M178.524 142.204L178.746 143.576L178.225 143.341L177.992 141.908C178.208 141.819 178.477 141.944 178.524 142.204Z" fill="#FFA92C"/>
<path d="M177.181 145.669L178.096 146.549C178.175 146.624 178.282 146.646 178.384 146.609C178.485 146.572 178.553 146.484 178.564 146.375L178.7 145.108L179.812 144.502C179.906 144.45 179.961 144.354 179.957 144.245C179.953 144.136 179.891 144.043 179.793 143.999L178.64 143.478L178.411 142.224C178.392 142.117 178.319 142.034 178.215 142.004C178.109 141.974 178.004 142.005 177.932 142.087L177.084 143.032L175.831 142.862C175.727 142.848 175.624 142.894 175.563 142.985C175.503 143.075 175.499 143.186 175.553 143.281L176.182 144.386L175.636 145.536C175.59 145.634 175.602 145.745 175.668 145.83C175.735 145.916 175.839 145.952 175.944 145.931L177.181 145.669ZM178.287 146.857C178.159 146.857 178.035 146.808 177.938 146.716L177.11 145.92L175.99 146.157C175.804 146.199 175.609 146.128 175.488 145.972C175.368 145.818 175.346 145.612 175.43 145.436L175.925 144.396L175.355 143.396C175.258 143.225 175.265 143.019 175.373 142.855C175.482 142.693 175.673 142.608 175.862 142.634L176.995 142.787L177.762 141.931C177.893 141.787 178.089 141.73 178.277 141.783C178.464 141.837 178.602 141.989 178.637 142.183L178.843 143.317L179.886 143.789C180.064 143.869 180.178 144.04 180.185 144.237C180.192 144.432 180.091 144.612 179.92 144.705L178.914 145.253L178.792 146.4C178.771 146.595 178.645 146.758 178.462 146.825C178.404 146.846 178.346 146.857 178.287 146.857Z" fill="#371A45"/>
</svg>
