<svg width="224" height="300" viewBox="0 0 224 300" fill="none" xmlns="http://www.w3.org/2000/svg">
<path d="M15.7402 53.9131C15.4018 56.7386 12.7844 58.7913 9.95064 58.4539C7.0458 58.1083 4.98731 55.4987 5.3258 52.6722C5.67275 49.7759 8.28977 47.7232 11.1946 48.0688C14.0285 48.4062 16.0873 51.0168 15.7402 53.9131ZM8.22564 18.2658C7.60279 19.2663 6.33071 19.6881 5.23092 19.2708L2.00279 18.0263C0.557057 17.4957 -0.098358 15.7695 0.637744 14.4243C4.00369 8.51925 10.1348 6.52729 16.1567 7.24389C24.5875 8.24802 30.4236 15.3205 29.6022 22.1735C28.3841 32.3464 19.0838 32.6004 16.7528 40.0611C16.3257 41.2285 15.2238 42.0285 14.0194 41.8852L10.477 41.4634C8.91834 41.2775 7.88315 39.7209 8.35263 38.2007C10.9894 29.988 19.6455 28.5113 20.3817 22.3649C20.8048 18.8327 18.9301 15.8865 14.5374 15.3632C11.4202 14.9922 9.38346 16.3972 8.22564 18.2658Z" fill="#371A45"/>
<path d="M117.471 300C78.312 300 46.5674 294.892 46.5674 288.592C46.5674 285.65 53.4863 282.969 64.8508 280.945C65.0555 283.878 66.7156 289.152 75.6212 291.093C79.8685 292.02 84.7761 292.362 89.7083 292.362C101.75 292.362 113.94 290.323 117.017 289.771C122.303 292.437 129.511 293.48 136.673 293.48C144.382 293.48 152.041 292.272 157.198 290.578C161.73 289.089 164.535 287.241 165.534 285.083C166.061 283.942 166.422 282.31 166.657 280.375C180.045 282.45 188.375 285.365 188.375 288.592C188.375 294.892 156.63 300 117.471 300Z" fill="#A9A3DA"/>
<path d="M185.013 211.182C184.846 211.937 184.618 212.665 184.338 213.363C182.622 217.667 178.9 220.932 174.286 222.011C161.42 225.028 134.192 228.689 102.227 217.029C102.227 217.029 95.3838 154.142 108.645 122.612C108.645 122.612 138.228 116.491 178.048 128.808C181.449 129.857 184.236 132.099 186.008 134.995C187.267 137.051 188.019 139.44 188.105 141.961C188.684 158.653 189.212 192.455 185.013 211.182Z" fill="white"/>
<path d="M104.12 215.559C134.863 226.444 160.928 223.062 173.821 220.042C178.39 218.973 182.006 215.321 183.033 210.74C187.12 192.497 186.692 159.861 186.075 142.031C185.894 136.819 182.427 132.282 177.448 130.743C142.759 120.016 115.662 123.509 110.103 124.412C98.7403 152.952 103.272 206.679 104.12 215.559ZM147.109 227.07C134.129 227.07 118.492 225.119 101.528 218.932C100.803 218.667 100.291 218.014 100.208 217.248C99.9256 214.66 93.4597 153.479 106.774 121.829C107.032 121.214 107.579 120.765 108.234 120.63C109.463 120.375 138.787 114.547 178.651 126.874C185.279 128.924 189.893 134.959 190.134 141.891C190.759 159.915 191.182 192.94 186.996 211.624C185.633 217.71 180.825 222.563 174.748 223.985C168.349 225.485 158.807 227.07 147.109 227.07Z" fill="#371A45"/>
<path d="M184.593 135.763C184.597 135.756 184.542 135.736 184.501 135.718C184.461 135.701 184.411 135.684 184.362 135.666C184.265 135.63 184.165 135.595 184.057 135.564C183.851 135.494 183.63 135.441 183.412 135.38C182.969 135.274 182.514 135.18 182.052 135.115C181.127 134.981 180.177 134.923 179.223 134.972C178.272 135.018 177.308 135.131 176.364 135.368C175.409 135.575 174.488 135.922 173.565 136.303L173.523 136.321C173.145 136.477 172.712 136.297 172.556 135.921C172.419 135.592 172.538 135.223 172.82 135.029C173.712 134.419 174.642 133.826 175.651 133.373C176.647 132.888 177.709 132.527 178.797 132.242C179.887 131.955 181.013 131.784 182.156 131.71C182.728 131.672 183.306 131.666 183.89 131.683C184.184 131.699 184.477 131.709 184.777 131.742C184.925 131.754 185.078 131.772 185.234 131.793L185.472 131.828C185.557 131.842 185.627 131.851 185.756 131.881C186.83 132.202 187.441 133.33 187.12 134.401C186.799 135.473 185.668 136.082 184.593 135.763Z" fill="#371A45"/>
<path d="M167.154 221.377C167.613 218.061 168.215 215.187 169.002 213.225C169.075 213.045 169.144 212.864 169.212 212.682C169.457 213.246 169.777 213.777 170.191 214.261C171.474 215.761 173.412 216.429 175.408 216.429C176.847 216.429 178.316 216.082 179.594 215.45C180.354 215.075 181.06 214.623 181.725 214.114C180.049 217.054 177.194 219.252 173.821 220.042C171.886 220.495 169.654 220.957 167.154 221.377ZM170.26 192.309C170.23 192.126 170.199 191.95 170.169 191.78C170.22 191.783 170.27 191.785 170.321 191.787C170.301 191.961 170.281 192.135 170.26 192.309ZM176.965 141.334C173.813 136.995 168.961 133.182 162.549 130.03C163.698 129.255 164.82 128.449 165.922 127.609C169.651 128.486 173.501 129.523 177.448 130.743C178.407 131.039 179.309 131.446 180.144 131.949C179.689 132.028 179.24 132.126 178.796 132.243C177.708 132.528 176.647 132.889 175.651 133.373C174.642 133.827 173.711 134.419 172.82 135.029C172.538 135.224 172.419 135.593 172.555 135.921C172.673 136.206 172.949 136.377 173.24 136.377C173.334 136.377 173.43 136.359 173.523 136.321L173.565 136.304C174.487 135.923 175.409 135.575 176.364 135.369C177.307 135.131 178.272 135.019 179.223 134.972C179.45 134.96 179.675 134.955 179.901 134.955C180.626 134.955 181.346 135.013 182.051 135.116C182.091 135.121 182.131 135.126 182.171 135.133C181.386 135.472 180.662 135.931 180.051 136.51C178.624 137.856 177.653 139.516 176.965 141.334Z" fill="#D7D1DA"/>
<path d="M166.979 222.725C167.035 222.268 167.094 221.818 167.155 221.377C169.655 220.957 171.886 220.495 173.821 220.041C177.195 219.251 180.049 217.054 181.725 214.114C182.246 213.715 182.742 213.281 183.22 212.823C181.503 217.126 177.782 220.392 173.167 221.469C171.374 221.89 169.304 222.323 166.979 222.725ZM180.144 131.949C179.31 131.446 178.408 131.039 177.449 130.742C173.502 129.522 169.652 128.485 165.922 127.608C166.689 127.023 167.445 126.422 168.187 125.806C171.04 126.531 173.955 127.347 176.929 128.268C179.143 128.95 181.098 130.138 182.681 131.684C182.506 131.69 182.331 131.698 182.156 131.71C181.478 131.755 180.805 131.833 180.144 131.949Z" fill="#371A45"/>
<path d="M173.241 136.377C172.949 136.377 172.674 136.206 172.556 135.921C172.419 135.592 172.538 135.223 172.82 135.029C173.712 134.419 174.642 133.826 175.651 133.373C176.647 132.888 177.709 132.527 178.797 132.242C179.241 132.125 179.689 132.028 180.144 131.949C180.805 131.832 181.478 131.754 182.156 131.71C182.331 131.698 182.505 131.69 182.681 131.684C183.53 132.513 184.271 133.443 184.89 134.454C183.957 134.536 183.029 134.762 182.172 135.132C182.132 135.126 182.092 135.121 182.052 135.115C181.347 135.013 180.626 134.955 179.901 134.955C179.676 134.955 179.45 134.96 179.223 134.972C178.272 135.018 177.308 135.131 176.364 135.368C175.409 135.575 174.488 135.923 173.565 136.303L173.523 136.321C173.431 136.359 173.334 136.377 173.241 136.377Z" fill="#371A45"/>
<path d="M221.457 158.774C219.989 162.192 209.708 158.774 209.708 158.774C209.708 158.774 212.155 165.609 216.562 170.004C217.507 170.945 218.365 172.089 219.004 173.354C221.365 177.987 220.898 184.229 211.668 188.066C199.915 192.947 192.081 183.672 187.679 177.324C187.679 177.324 182.779 192.263 167.604 189.433C167.604 189.433 171.031 202.708 167.117 212.473C163.198 222.239 163.69 252.503 163.69 252.503C163.69 252.503 166.625 277.887 163.69 284.236C160.75 290.583 130.72 294.973 117.342 287.653C117.342 287.653 91.7236 292.533 76.0555 289.116C66.353 287 65.4751 280.388 68.1959 275.315C69.8615 272.196 72.8871 269.66 76.0555 269.103C76.0555 269.103 69.7497 208.57 71.6791 181.232C71.6791 181.232 56.4731 185.136 47.6593 179.764C38.8456 174.398 30.5248 155.843 30.5248 155.843C30.5248 155.843 22.2035 162.192 15.3494 155.357C8.49553 148.522 29.0575 142.665 29.0575 142.665C29.0575 142.665 24.6506 139.79 26.6105 135.669C27.7958 133.165 29.2249 133.62 31.5728 134.073C33.0956 134.367 35.0049 134.662 37.4856 134.15C43.796 132.844 52.5033 134.58 62.9463 145.429C62.9463 145.429 66.6532 137.891 77.4773 131.487C85.9053 126.486 98.6579 122.172 117.342 122.648C138.173 123.179 157.892 127.853 169.259 136.464C174.377 140.341 177.804 145.019 178.865 150.477C178.865 150.477 192.573 146.442 203.834 147.237C215.095 148.032 222.924 155.357 221.457 158.774Z" fill="white"/>
<path d="M136.89 289.441C129.779 289.441 122.854 288.359 118.318 285.877C118.017 285.712 117.68 285.627 117.341 285.627C117.215 285.627 117.086 285.64 116.961 285.663C116.773 285.699 102.892 288.302 89.5817 288.302C84.9479 288.302 80.3822 287.986 76.4889 287.137C73.0103 286.379 68.8895 284.573 68.8877 280.282C68.8877 280.235 68.8886 280.188 68.8895 280.141C68.9132 278.973 69.2443 277.769 69.7955 276.634C74.4721 280.167 80.3822 282.002 86.2732 282.002C91.2828 282.001 96.2778 280.674 100.48 277.932C100.526 271.65 99.9983 264.537 99.4698 257.419C97.9879 248.838 97.8606 240.029 99.0186 231.392C86.6608 228.709 76.9637 216.959 76.7909 204.439C86.6153 213.122 99.6781 218.062 112.803 218.062C122.313 218.059 131.792 215.457 140.026 210.72C142.543 209.271 141.428 205.499 138.628 205.499C138.546 205.499 138.463 205.502 138.377 205.509C133.317 205.905 128.263 206.107 123.228 206.107C106.186 206.107 89.3807 203.788 73.3896 198.841C73.3605 197.036 73.3441 195.274 73.3441 193.562C73.3441 193.197 73.3451 192.834 73.3469 192.473C74.5858 193.63 76.1832 194.43 77.9889 194.678L120.029 200.437C120.044 200.439 120.057 200.441 120.072 200.442L129.407 201.721C129.798 201.775 130.186 201.8 130.569 201.8C134.748 201.8 138.4 198.719 138.985 194.478L139.796 188.583C143.501 189.312 149.545 190.202 156.947 190.202C159.381 190.202 161.812 190.107 164.172 189.918C164.74 189.872 165.248 189.594 165.591 189.171C165.579 189.258 165.573 189.347 165.573 189.436C165.573 189.603 165.594 189.772 165.637 189.939C165.658 190.019 166.963 195.184 166.963 201.262C166.962 204.708 166.543 208.448 165.23 211.72C161.975 219.835 161.635 240.717 161.636 249.058C161.636 251.027 161.655 252.297 161.659 252.536C161.66 252.602 161.665 252.668 161.672 252.735C162.349 258.59 162.973 266.657 162.972 273.187C162.972 277.784 162.663 281.619 161.846 283.386C161.493 284.149 159.732 285.481 155.927 286.731C150.709 288.445 143.714 289.441 136.89 289.441ZM118.556 275.66C117.988 277.273 117.538 279.131 117.473 281.172C121.409 283.039 125.655 284.373 129.95 284.373C130.536 284.373 131.123 284.348 131.709 284.296C136.593 283.866 141.498 281.289 143.696 276.915C145.534 273.255 145.291 268.941 145.006 264.856C144.089 251.681 143.171 238.501 142.25 225.325C142.068 222.7 139.866 220.781 137.396 220.781C136.902 220.781 136.397 220.858 135.896 221.02C128.909 223.291 121.688 224.845 114.381 225.641C116.95 229.463 119.027 233.795 120.514 238.402C120.036 237.194 119.69 236.468 119.621 236.326C119.276 235.615 118.557 235.184 117.794 235.184C117.631 235.184 117.468 235.203 117.305 235.243C116.373 235.474 115.73 236.323 115.764 237.28C115.961 242.908 112.625 252.726 112.592 252.825C112.419 253.33 112.453 253.882 112.685 254.362C115.766 260.712 117.488 273.999 117.505 274.133C117.589 274.796 117.992 275.357 118.556 275.66ZM119.905 264.203C119.118 260.507 118.045 256.426 116.693 253.357C117.115 252.048 117.972 249.263 118.685 246.127C119.874 250.884 120.812 257.314 119.905 264.203ZM166.023 188.162C166.127 187.368 165.751 186.578 165.05 186.161C162.859 184.856 159.538 182.193 156.161 176.917C155.801 176.354 155.184 176.005 154.515 175.983C148.727 175.797 144.183 175.019 141.737 174.505L143.066 164.847C143.867 163.186 144.358 161.389 144.566 159.551C145.06 155.176 141.555 151.421 137.22 151.421C137.027 151.421 136.833 151.429 136.638 151.444C135.088 151.564 133.32 151.652 131.344 151.652C120.069 151.652 102.025 148.8 79.2834 132.781C80.556 132.061 81.9487 131.345 83.4687 130.655C92.9966 136.87 104.101 140.868 116.037 141.958C118.232 142.157 120.415 142.256 122.585 142.256C135.439 142.255 147.766 138.8 158.453 132.597C161.992 134.14 165.172 135.912 167.863 137.919C166.32 139.454 164.649 140.878 162.875 142.169C160.268 144.067 159.641 147.739 161.508 150.364C162.778 152.151 164.584 153.533 166.67 154.157C167.539 154.419 168.442 154.544 169.345 154.543C172.197 154.543 175.061 153.298 176.959 151.177C177.061 151.454 177.223 151.704 177.432 151.912C174.585 156.021 171.952 159.871 169.315 163.716C170.763 165.108 172.552 165.647 174.401 165.647C175.812 165.647 177.257 165.333 178.611 164.844C180.797 164.058 182.793 162.859 184.719 161.546C185.064 161.31 185.448 161.201 185.824 161.201C186.664 161.201 187.465 161.745 187.712 162.642C189.409 168.831 194.229 174.155 200.315 176.296C202.379 177.023 204.559 177.374 206.744 177.374C210.435 177.374 214.138 176.372 217.305 174.488C217.836 175.587 218.179 176.801 218.179 178.051C218.179 178.474 218.139 178.9 218.055 179.327C217.505 182.1 215.027 184.476 210.887 186.197C208.853 187.041 206.956 187.413 205.182 187.413C198.198 187.413 193.14 181.64 189.348 176.173C188.966 175.621 188.34 175.301 187.679 175.301C187.584 175.301 187.487 175.308 187.391 175.322C186.629 175.43 185.993 175.961 185.75 176.69C185.585 177.182 181.921 187.76 171.273 187.76C170.241 187.76 169.143 187.66 167.977 187.443C167.853 187.42 167.728 187.409 167.604 187.409C167.048 187.409 166.509 187.637 166.12 188.05C166.086 188.086 166.054 188.124 166.023 188.162Z" fill="#D7D1DA"/>
<path d="M116.693 253.358C118.045 256.426 119.118 260.507 119.906 264.204C120.813 257.315 119.874 250.885 118.685 246.128C117.973 249.264 117.116 252.049 116.693 253.358ZM119.521 275.903C119.438 275.903 119.354 275.898 119.271 275.888C118.349 275.774 117.622 275.051 117.505 274.133C117.488 274 115.767 260.712 112.686 254.363C112.453 253.883 112.419 253.33 112.592 252.826C112.626 252.727 115.961 242.909 115.764 237.281C115.73 236.324 116.373 235.475 117.305 235.244C118.236 235.013 119.203 235.466 119.621 236.326C120 237.107 128.828 255.673 121.411 274.614C121.105 275.399 120.348 275.903 119.521 275.903ZM117.341 285.628C117.681 285.628 118.017 285.713 118.318 285.878C127.207 290.742 145.273 290.231 155.928 286.732C159.732 285.482 161.493 284.149 161.846 283.386C162.663 281.62 162.972 277.784 162.972 273.188C162.973 266.658 162.349 258.591 161.672 252.735C161.665 252.669 161.66 252.603 161.659 252.537C161.655 252.297 161.637 251.027 161.637 249.059C161.636 240.718 161.975 219.836 165.231 211.721C166.543 208.449 166.963 204.709 166.964 201.263C166.964 195.185 165.658 190.02 165.637 189.939C165.595 189.772 165.574 189.604 165.574 189.437C165.573 188.928 165.765 188.432 166.12 188.051C166.595 187.545 167.296 187.316 167.977 187.444C181.178 189.905 185.569 177.231 185.75 176.69C185.993 175.962 186.629 175.431 187.391 175.323C188.152 175.214 188.911 175.541 189.349 176.173C194.104 183.03 200.847 190.367 210.887 186.198C215.027 184.477 217.506 182.101 218.055 179.328C218.14 178.901 218.18 178.475 218.18 178.052C218.18 175.447 216.686 172.992 215.126 171.436C210.449 166.773 207.901 159.753 207.795 159.456C207.716 159.234 207.677 159.003 207.677 158.775C207.677 158.254 207.879 157.743 208.257 157.358C208.8 156.805 209.613 156.609 210.35 156.854C214.612 158.266 218.858 158.606 219.595 157.957C219.6 157.938 219.602 157.91 219.602 157.874C219.602 157.687 219.524 157.273 219.128 156.624C217.182 153.444 211.11 149.781 203.691 149.258C192.923 148.498 179.574 152.381 179.44 152.42C178.891 152.581 178.299 152.504 177.811 152.208C177.322 151.912 176.98 151.424 176.872 150.864C173.531 133.735 144.54 125.367 117.29 124.673C95.9761 124.123 82.825 130.06 75.5468 135.129C67.6945 140.598 64.7945 146.272 64.7663 146.329C64.4716 146.917 63.9058 147.33 63.2535 147.429C62.6004 147.527 61.9391 147.307 61.4815 146.832C53.1826 138.211 45.2467 134.613 37.8975 136.133C34.7882 136.775 32.4677 136.316 30.7721 135.981C28.8845 135.607 28.8854 135.607 28.446 136.534C28.2395 136.969 28.154 137.384 28.1531 137.774C28.1522 139.555 29.9352 140.815 30.1799 140.979C30.7466 141.36 31.0813 141.997 31.0823 142.665C31.0823 142.769 31.0732 142.874 31.0568 142.979C30.934 143.756 30.3745 144.396 29.6159 144.613C24.5531 146.058 16.7313 149.473 16.021 152.209C16.0049 152.271 15.9805 152.365 15.9805 152.491C15.981 152.784 16.1131 153.256 16.7852 153.926C22.2739 159.399 29.0119 154.445 29.2957 154.231C29.7896 153.86 30.4291 153.731 31.0277 153.886C31.6262 154.039 32.1256 154.454 32.3785 155.017C32.4586 155.197 40.5473 173.061 48.718 178.037C56.6857 182.891 71.0294 179.308 71.174 179.272C71.8053 179.111 72.4775 179.261 72.9788 179.677C73.4427 180.064 73.7092 180.634 73.7092 181.231C73.7092 181.278 73.7083 181.327 73.7047 181.375C73.4536 184.928 73.3445 189.062 73.3445 193.563C73.3435 223.078 78.021 268.371 78.0747 268.895C78.0829 268.965 78.0856 269.035 78.0865 269.104C78.0875 270.076 77.3879 270.926 76.4082 271.098C72.6249 271.763 68.9708 276.159 68.8898 280.142C68.8889 280.189 68.888 280.235 68.888 280.282C68.8898 284.574 73.0106 286.38 76.4892 287.138C91.5642 290.427 116.708 285.712 116.961 285.664C117.087 285.641 117.215 285.628 117.341 285.628ZM136.673 293.48C129.511 293.48 122.304 292.437 117.018 289.771C112.68 290.55 90.237 294.283 75.6214 291.094C65.9625 288.989 64.8272 282.962 64.8263 280.256C64.8263 280.188 64.8272 280.123 64.8291 280.059C64.9364 274.806 68.9753 269.434 73.8621 267.614C72.9897 258.939 69.2782 220.445 69.2773 193.782C69.2773 190.193 69.3437 186.82 69.4947 183.762C64.5234 184.662 53.8003 185.881 46.6003 181.493C39.0873 176.918 32.1757 163.902 29.6614 158.767C25.6943 160.822 19.2373 162.098 13.9133 156.79C12.3686 155.25 11.9185 153.742 11.9189 152.508C11.919 152.022 11.9891 151.579 12.0894 151.193C13.2702 146.649 20.7531 143.354 25.3368 141.733C24.6073 140.63 24.0724 139.285 24.0725 137.78C24.0725 136.842 24.2795 135.844 24.7755 134.802C26.5667 131.02 29.4539 131.591 31.5626 132.009C33.0662 132.305 34.7709 132.643 37.0733 132.167C42.8051 130.983 51.769 131.851 62.5676 142.187C64.2442 139.774 67.5026 135.841 72.977 131.98C80.771 126.483 94.8035 120.051 117.393 120.624C133.138 121.026 147.89 123.784 158.932 128.392C170.53 133.232 177.876 139.974 180.331 147.982C184.642 146.88 194.962 144.583 203.977 145.218C212.848 145.844 220.057 150.368 222.594 154.514C223.398 155.828 223.667 156.951 223.667 157.866C223.667 158.555 223.514 159.127 223.323 159.572C221.924 162.831 217.229 162.657 213.308 161.848C214.396 163.96 215.987 166.566 217.998 168.572C220.174 170.742 222.24 174.232 222.239 178.076C222.239 178.747 222.176 179.427 222.039 180.114C221.465 183.015 219.334 187.074 212.45 189.937C200.569 194.868 192.294 186.746 188.099 181.354C185.28 186.425 179.445 192.276 170.169 191.781C170.572 194.046 171.029 197.442 171.029 201.209C171.029 205.1 170.541 209.387 169.002 213.226C166 220.706 165.702 241.449 165.702 249.356V249.363V249.37C165.702 250.978 165.715 252.053 165.719 252.373C165.943 254.333 167.026 264.23 167.026 272.92C167.026 277.993 166.657 282.654 165.534 285.084C164.535 287.242 161.73 289.089 157.198 290.579C152.042 292.272 144.382 293.48 136.673 293.48Z" fill="#371A45"/>
<path d="M167.26 191.428L167.011 191.373L166.835 191.324L166.488 191.222L165.865 190.998C165.458 190.843 165.084 190.663 164.696 190.491L163.605 189.91C163.254 189.701 162.917 189.48 162.574 189.265C162.224 189.056 161.912 188.81 161.59 188.573C161.273 188.331 160.943 188.103 160.639 187.849L159.747 187.072C159.45 186.812 159.147 186.558 158.882 186.273L158.061 185.438C157.787 185.16 157.509 184.886 157.268 184.584C156.772 183.99 156.261 183.408 155.781 182.807L154.431 180.945C154.197 180.64 153.999 180.315 153.799 179.991L153.196 179.022C152.351 177.751 151.707 176.384 150.983 175.058C150.625 174.393 150.35 173.694 150.03 173.014C149.726 172.327 149.404 171.648 149.114 170.957C148.589 169.556 148.034 168.166 147.538 166.759L146.192 162.502C145.987 161.855 146.347 161.165 146.996 160.961C147.626 160.763 148.297 161.096 148.522 161.708L148.546 161.773L150.039 165.843C150.58 167.179 151.175 168.49 151.738 169.813C152.045 170.461 152.382 171.093 152.702 171.734C153.036 172.367 153.327 173.024 153.694 173.635C154.435 174.851 155.098 176.119 155.938 177.258L156.537 178.132C156.737 178.424 156.932 178.718 157.16 178.986L158.471 180.631C158.931 181.157 159.415 181.655 159.882 182.17C160.11 182.434 160.368 182.662 160.621 182.895L161.377 183.598C161.621 183.842 161.893 184.047 162.16 184.259L162.957 184.894C163.226 185.1 163.512 185.274 163.787 185.466C164.066 185.653 164.338 185.853 164.63 186.004C164.917 186.165 165.201 186.336 165.489 186.491L166.363 186.907C166.654 187.016 166.948 187.145 167.232 187.238L167.653 187.368L167.839 187.412L167.928 187.434L167.948 187.436L168.262 187.528C169.333 187.84 169.948 188.958 169.635 190.026C169.335 191.048 168.287 191.652 167.26 191.428Z" fill="#371A45"/>
<path d="M69.6649 180.962C70.2216 177.591 70.8893 174.33 71.6298 171.047C72.373 167.773 73.2035 164.521 74.1168 161.29C75.0219 158.058 76.0644 154.861 77.1833 151.692C78.3167 148.525 79.6075 145.41 81.0239 142.349C81.295 141.764 81.9909 141.508 82.5776 141.778C83.1489 142.041 83.4063 142.704 83.1716 143.279L83.1607 143.304C81.9126 146.339 80.7856 149.425 79.8113 152.568C78.8516 155.715 77.9656 158.887 77.2151 162.096C76.4565 165.302 75.7788 168.528 75.1884 171.77C74.6026 175.003 74.0795 178.287 73.6911 181.498L73.6865 181.534C73.5519 182.645 72.5403 183.436 71.426 183.302C70.3126 183.168 69.5184 182.159 69.6531 181.048C69.6558 181.021 69.6612 180.988 69.6649 180.962Z" fill="#371A45"/>
<path d="M70.64 175.018C71.5342 171.71 72.5148 168.437 73.5809 165.197C73.7829 164.582 74.4469 164.247 75.0637 164.449C75.6158 164.63 75.9424 165.182 75.8587 165.736C75.3611 169.066 74.9536 172.404 74.6361 175.741C74.5306 176.858 73.5363 177.678 72.4156 177.573C71.2949 177.467 70.4717 176.475 70.5781 175.358C70.589 175.245 70.6081 175.137 70.6363 175.031L70.64 175.018Z" fill="#39005E"/>
<path d="M45.6305 179.846C45.504 176.438 45.5786 173.002 45.9998 169.576C46.4301 166.155 47.1532 162.732 48.3749 159.438C49.583 156.145 51.2886 152.977 53.5655 150.199C54.7071 148.816 55.9806 147.525 57.4088 146.395C58.1165 145.823 58.8725 145.304 59.6593 144.82C60.0523 144.577 60.4617 144.351 60.8819 144.135C61.0957 144.027 61.3067 143.922 61.5333 143.822L61.878 143.673L62.0627 143.598L62.2946 143.512L62.502 143.441C63.5127 143.091 64.6161 143.625 64.9672 144.632C65.1619 145.193 65.0791 145.789 64.7971 146.262C64.7062 146.412 64.5797 146.67 64.4724 146.885L64.1458 147.58C63.9311 148.049 63.7274 148.532 63.5272 149.017C63.1297 149.991 62.764 150.986 62.4175 151.993C62.0736 152.999 61.7552 154.02 61.4559 155.049C61.1557 156.079 60.8837 157.118 60.6227 158.163L60.6199 158.174C60.4917 158.685 59.9732 158.995 59.461 158.867C59.0007 158.753 58.7024 158.323 58.7397 157.867C58.8279 156.769 58.928 155.67 59.059 154.57C59.1881 153.471 59.341 152.372 59.5229 151.273C59.7076 150.174 59.915 149.074 60.1633 147.974C60.2897 147.424 60.4207 146.874 60.5708 146.321L60.8046 145.486C60.8947 145.196 60.9647 144.947 61.093 144.6L63.5946 147.349L63.429 147.416L63.2016 147.514C63.0478 147.582 62.8859 147.663 62.7276 147.743C62.4084 147.908 62.0881 148.083 61.7734 148.278C61.1448 148.666 60.5244 149.089 59.9386 149.563C58.756 150.499 57.6799 151.588 56.7066 152.767C54.7644 155.136 53.2644 157.897 52.1864 160.837C51.0957 163.776 50.4308 166.898 50.0323 170.062C49.6421 173.231 49.5693 176.458 49.6885 179.686V179.697C49.7303 180.814 48.8552 181.754 47.7345 181.795C46.6138 181.836 45.6714 180.964 45.6305 179.846Z" fill="#371A45"/>
<path d="M173.195 191.711C172.565 191.712 171.944 191.421 171.548 190.873C162.836 178.859 164.97 168.035 168.295 161.072C171.833 153.658 177.343 149.099 177.577 148.909C178.443 148.2 179.723 148.325 180.434 149.19C181.145 150.054 181.02 151.329 180.154 152.039C180.083 152.098 175.029 156.311 171.905 162.933C167.823 171.583 168.81 180.185 174.839 188.5C175.496 189.406 175.292 190.672 174.383 191.327C174.023 191.587 173.607 191.711 173.195 191.711Z" fill="#371A45"/>
<path d="M185.904 178.314C185.694 177.794 185.553 177.362 185.398 176.892C185.249 176.431 185.106 175.972 184.976 175.511C184.712 174.59 184.474 173.67 184.264 172.746C183.846 170.899 183.526 169.045 183.302 167.192C183.27 166.931 183.457 166.694 183.719 166.662C183.935 166.636 184.135 166.759 184.216 166.949L184.218 166.952C184.936 168.641 185.734 170.283 186.608 171.865C187.044 172.657 187.504 173.433 187.978 174.189C188.215 174.569 188.461 174.94 188.707 175.306C188.95 175.661 189.218 176.05 189.448 176.335C190.161 177.218 190.02 178.51 189.134 179.221C188.248 179.931 186.951 179.791 186.239 178.907C186.112 178.748 186.012 178.578 185.938 178.398L185.904 178.314Z" fill="#371A45"/>
<path d="M211.735 158.671C211.735 158.855 211.725 158.935 211.718 159.055L211.686 159.374C211.662 159.584 211.632 159.786 211.595 159.987C211.525 160.388 211.436 160.78 211.324 161.167C211.107 161.941 210.811 162.693 210.427 163.408C209.67 164.837 208.54 166.102 207.186 166.95C206.51 167.376 205.794 167.702 205.068 167.953C204.337 168.179 203.603 168.357 202.869 168.436C201.403 168.624 199.965 168.555 198.573 168.364C198.221 168.315 197.975 167.99 198.023 167.639C198.067 167.323 198.332 167.094 198.641 167.084H198.646C199.967 167.042 201.272 166.873 202.47 166.504C203.074 166.334 203.635 166.081 204.168 165.815C204.69 165.524 205.169 165.192 205.589 164.812C206.428 164.05 207.008 163.093 207.349 162.046C207.522 161.522 207.633 160.974 207.687 160.418C207.717 160.143 207.728 159.864 207.728 159.591C207.728 159.454 207.724 159.319 207.716 159.189L207.7 159C207.694 158.951 207.685 158.862 207.679 158.876C207.622 157.76 208.483 156.808 209.604 156.751C210.724 156.694 211.678 157.554 211.735 158.671Z" fill="#371A45"/>
<path d="M115.422 288.313C114.343 285.65 113.785 282.583 114.303 279.488C114.565 277.952 115.095 276.433 115.912 275.061C116.328 274.378 116.803 273.731 117.366 273.124C117.664 272.817 117.922 272.539 118.398 272.19C118.744 271.949 119.059 271.759 119.386 271.569C121.969 270.099 124.785 269.262 127.647 269.027C130.502 268.784 133.369 269.191 135.961 270.148C136.361 270.296 136.565 270.739 136.418 271.139C136.292 271.475 135.956 271.673 135.613 271.638L135.603 271.636C133.032 271.368 130.498 271.461 128.1 272.025C126.903 272.305 125.74 272.689 124.628 273.169C123.526 273.664 122.451 274.229 121.501 274.903C121.27 275.068 121.032 275.247 120.848 275.405C120.794 275.456 120.594 275.663 120.449 275.846C120.134 276.233 119.847 276.679 119.605 277.145C119.118 278.082 118.79 279.112 118.628 280.187C118.297 282.345 118.623 284.665 119.261 286.993L119.269 287.019C119.564 288.098 118.927 289.214 117.843 289.51C116.838 289.784 115.802 289.255 115.422 288.313Z" fill="#371A45"/>
<path d="M75.5532 267.141C75.6942 267.113 75.7897 267.102 75.8916 267.086C75.9962 267.071 76.0954 267.058 76.1918 267.048C76.3865 267.025 76.582 267.003 76.7722 266.99C77.1551 266.955 77.5326 266.939 77.9102 266.923C78.6634 266.899 79.4111 266.913 80.1552 266.953C81.6416 267.034 83.1125 267.257 84.5453 267.608C85.2657 267.761 85.9662 268.005 86.6657 268.218C87.3516 268.489 88.0448 268.718 88.6997 269.05C90.0378 269.635 91.2641 270.434 92.4375 271.259C92.765 271.489 92.8442 271.94 92.6131 272.267C92.4048 272.562 92.0164 272.655 91.7016 272.501L91.657 272.479C90.4517 271.892 89.2401 271.347 87.9583 271.014C87.3334 270.809 86.6775 270.705 86.0417 270.56C85.3894 270.472 84.7499 270.352 84.095 270.319C82.796 270.211 81.4915 270.219 80.2071 270.352C79.5648 270.419 78.9281 270.508 78.3031 270.627C77.992 270.691 77.6809 270.753 77.3807 270.83C77.227 270.864 77.0815 270.906 76.9359 270.947C76.8622 270.967 76.7913 270.988 76.7258 271.008C76.6594 271.03 76.5848 271.052 76.5575 271.066C75.5377 271.576 74.297 271.166 73.7857 270.149C73.2736 269.133 73.6848 267.895 74.7045 267.386C74.871 267.302 75.0438 267.243 75.2185 267.208L75.5532 267.141Z" fill="#371A45"/>
<path d="M141.525 259.342C130.847 259.342 122.476 257.645 121.902 257.526C120.805 257.297 120.1 256.225 120.329 255.13C120.557 254.035 121.634 253.334 122.73 253.56C122.955 253.607 145.386 258.141 163.222 252.209C164.286 251.856 165.436 252.428 165.791 253.489C166.146 254.55 165.571 255.696 164.507 256.051C156.914 258.575 148.699 259.342 141.525 259.342Z" fill="#371A45"/>
<path d="M94.6753 259.934C83.813 259.934 74.7091 257.099 74.1005 256.906C73.0316 256.566 72.4422 255.426 72.7833 254.36C73.1235 253.296 74.2651 252.709 75.334 253.047C75.5605 253.119 98.1375 260.123 113.537 251.705C114.521 251.167 115.755 251.526 116.294 252.506C116.834 253.487 116.474 254.718 115.49 255.256C108.967 258.822 101.476 259.934 94.6753 259.934Z" fill="#371A45"/>
<path d="M117.794 239.234C116.966 239.234 116.189 238.726 115.887 237.906L111.519 226.026C111.132 224.975 111.674 223.812 112.726 223.427C113.779 223.042 114.946 223.581 115.332 224.631L119.7 236.511C120.087 237.562 119.546 238.725 118.493 239.11C118.262 239.194 118.026 239.234 117.794 239.234Z" fill="#371A45"/>
<path d="M82.0507 213.795C82.9349 214.378 83.9328 214.952 84.9043 215.487C85.8922 216.015 86.8838 216.535 87.8971 217.01C89.9166 217.975 91.997 218.805 94.0974 219.554C94.6223 219.742 95.149 219.925 95.683 220.087C96.2133 220.257 96.7445 220.425 97.2822 220.572C98.3474 220.898 99.4262 221.174 100.507 221.434C102.673 221.944 104.863 222.336 107.067 222.609C108.168 222.765 109.278 222.824 110.383 222.935C111.492 222.989 112.601 223.082 113.713 223.072C114.268 223.075 114.824 223.092 115.38 223.083L117.048 223.053C117.605 223.055 118.16 222.998 118.716 222.971C119.272 222.93 119.829 222.914 120.384 222.857C124.832 222.484 129.253 221.678 133.67 220.612L133.676 220.61C134.204 220.483 134.735 220.806 134.863 221.332C134.977 221.801 134.731 222.272 134.304 222.46C130.023 224.34 125.441 225.587 120.763 226.259C118.42 226.55 116.055 226.773 113.684 226.746C112.499 226.769 111.315 226.689 110.13 226.644C108.948 226.555 107.766 226.451 106.593 226.28C104.245 225.959 101.907 225.532 99.6264 224.89C98.4857 224.573 97.3495 224.24 96.2315 223.857C95.6693 223.673 95.1172 223.46 94.565 223.25C94.011 223.046 93.4634 222.823 92.9194 222.593C90.7371 221.691 88.6267 220.624 86.5981 219.427C85.5893 218.819 84.5914 218.191 83.6326 217.504C82.662 216.819 81.7514 216.113 80.829 215.283C80.4333 214.927 80.4015 214.319 80.759 213.924C81.0828 213.566 81.6159 213.507 82.007 213.765L82.0507 213.795Z" fill="#371A45"/>
<path d="M164.01 187.899C161.548 188.097 159.182 188.178 156.947 188.178C145.108 188.178 136.822 185.844 136.371 185.712C133.675 184.933 132.121 182.128 132.903 179.44C133.68 176.757 136.493 175.213 139.184 175.982C139.341 176.027 145.474 177.718 154.45 178.007C157.978 183.52 161.501 186.406 164.01 187.899Z" fill="white"/>
<path d="M137.78 177.81C136.46 177.81 135.238 178.675 134.854 180.002C134.626 180.785 134.718 181.605 135.11 182.315C135.503 183.025 136.151 183.542 136.935 183.768C137.021 183.793 145.265 186.153 156.947 186.153C157.445 186.153 157.942 186.149 158.439 186.141C156.824 184.598 155.076 182.592 153.324 179.991C144.596 179.598 138.675 177.945 138.616 177.928C138.338 177.848 138.057 177.81 137.78 177.81ZM156.947 190.203C144.69 190.203 136.158 187.761 135.801 187.657C133.98 187.131 132.471 185.928 131.554 184.271C130.636 182.612 130.423 180.696 130.952 178.876C132.036 175.133 135.979 172.96 139.743 174.036C139.802 174.054 145.725 175.702 154.515 175.984C155.184 176.006 155.801 176.355 156.161 176.918C159.538 182.194 162.859 184.857 165.05 186.162C165.809 186.613 166.187 187.502 165.986 188.36C165.786 189.218 165.052 189.848 164.172 189.918C161.812 190.108 159.381 190.203 156.947 190.203Z" fill="#371A45"/>
<path d="M72.994 166.534C72.8921 166.723 72.9203 166.872 72.9021 166.837C72.9403 166.831 72.732 166.747 72.6101 166.692C72.4709 166.631 72.3454 166.601 72.2071 166.559C71.6622 166.434 71.0664 166.478 70.5242 166.684C69.983 166.898 69.5145 167.271 69.1452 167.71C68.7822 168.157 68.5375 168.692 68.4174 169.261C68.1673 170.388 68.5557 171.611 69.3589 172.416C69.7492 172.829 70.2522 173.126 70.7862 173.288C70.8581 173.308 70.9072 173.329 70.9954 173.351L71.2811 173.415L71.8523 173.541L72.9931 173.796L71.0364 175.089L71.4393 172.566L71.8587 170.043L72.2953 167.521L72.5228 166.26L72.5773 165.945L72.6046 165.787L72.611 165.748C72.6146 165.731 72.6155 165.72 72.611 165.742C72.6046 165.765 72.6001 165.792 72.5974 165.82C72.5637 166.046 72.7274 166.389 72.994 166.534ZM76.4452 164.399C76.6153 164.954 76.6818 165.709 76.5517 166.346L76.5007 166.578L76.4716 166.687L76.427 166.836L76.3388 167.138C76.2187 167.539 76.1141 167.943 76.0041 168.347L75.3664 170.775C75.1553 171.585 74.9634 172.4 74.7778 173.216C74.5941 174.032 74.4058 174.849 74.2402 175.669L74.2193 175.768C74.0492 176.61 73.2259 177.156 72.3818 176.987C72.3499 176.979 72.3135 176.971 72.2826 176.963L71.0527 176.632L70.4387 176.466L70.1322 176.383C70.0239 176.352 69.8838 176.297 69.7619 176.255C68.7576 175.889 67.8443 175.292 67.1294 174.509C65.6739 172.967 65.0708 170.703 65.5238 168.653C65.7448 167.636 66.206 166.66 66.8774 165.85C67.5523 165.045 68.4174 164.414 69.3735 163.988C70.3332 163.57 71.3857 163.339 72.4655 163.333C72.7293 163.353 73.0131 163.343 73.2705 163.377C73.5434 163.415 73.7326 163.42 74.1665 163.513C74.9379 163.674 75.7575 164.016 76.4452 164.399Z" fill="#371A45"/>
<path d="M27.4117 141.479C27.489 141.385 27.5399 141.333 27.5909 141.281C27.6436 141.226 27.6955 141.172 27.7446 141.127C27.8447 141.033 27.9447 140.933 28.0457 140.849C28.2449 140.671 28.4496 140.506 28.657 140.349C29.07 140.031 29.5066 139.754 29.9505 139.497C30.8466 138.992 31.8208 138.619 32.8205 138.41C33.8175 138.198 34.8436 138.138 35.8233 138.275C36.3164 138.311 36.7885 138.445 37.2552 138.558C37.72 138.679 38.1566 138.876 38.5969 139.032C39.009 139.178 39.2246 139.629 39.0781 140.04C38.9544 140.387 38.6115 140.594 38.2603 140.562L38.1184 140.548C37.7164 140.512 37.327 140.433 36.9368 140.429C36.5465 140.433 36.1636 140.412 35.7897 140.48C35.0392 140.553 34.3324 140.78 33.6874 141.094C33.0407 141.406 32.4494 141.817 31.9327 142.306C31.678 142.557 31.4324 142.811 31.2159 143.086C31.1067 143.223 31.003 143.36 30.9093 143.5C30.8584 143.569 30.8211 143.636 30.7774 143.703C30.7547 143.738 30.7392 143.768 30.7238 143.797C30.7065 143.829 30.6892 143.861 30.7019 143.854C30.0451 144.76 28.7753 144.962 27.8665 144.307C26.9577 143.651 26.754 142.385 27.4117 141.479Z" fill="#371A45"/>
<path d="M60.1115 180.578C56.5475 180.578 52.7287 180.097 49.6549 178.554C49.5903 175.704 49.6877 172.86 50.0324 170.061C50.3845 167.263 50.9448 164.498 51.8245 161.864C52.7132 162.994 53.9777 163.867 55.3412 164.262C56.1654 164.5 57.0087 164.604 57.8583 164.604C59.8523 164.604 61.8772 164.033 63.7566 163.304C67.7491 161.754 71.456 159.479 74.6516 156.635L73.9066 162.037C73.7802 162.494 73.6547 162.952 73.53 163.409C73.4445 163.399 73.3627 163.39 73.2708 163.377C73.0133 163.344 72.7295 163.354 72.4657 163.334C71.3859 163.339 70.3335 163.57 69.3738 163.989C68.4177 164.414 67.5526 165.045 66.8776 165.851C66.2063 166.66 65.7451 167.636 65.5241 168.654C65.071 170.704 65.6742 172.968 67.1296 174.51C67.8446 175.293 68.7579 175.889 69.7622 176.255C69.8841 176.298 70.0242 176.352 70.1324 176.383L70.439 176.466L70.4781 176.477C70.278 177.495 70.0869 178.519 69.905 179.551C68.0138 179.935 64.2332 180.578 60.1115 180.578Z" fill="#D7D1DA"/>
<path d="M62.663 181.354C58.2102 181.354 53.7647 180.439 49.6584 178.707C49.6575 178.656 49.6557 178.605 49.6548 178.554C52.7285 180.097 56.5473 180.578 60.1114 180.578C64.2331 180.578 68.0137 179.935 69.9049 179.551C69.8467 179.887 69.7884 180.223 69.732 180.561C67.406 181.094 65.0336 181.354 62.663 181.354Z" fill="#371A45"/>
<path d="M45.5887 175.545C38.6006 168.762 32.4485 155.174 32.3785 155.017C32.1256 154.454 31.6262 154.039 31.0276 153.886C30.8612 153.842 30.692 153.821 30.5228 153.821C30.0852 153.821 29.6522 153.964 29.2956 154.231C29.1119 154.37 26.2282 156.492 22.7283 156.492C20.8176 156.492 18.7235 155.859 16.7852 153.927C16.1131 153.256 15.9809 152.785 15.9805 152.492C15.9805 152.365 16.0048 152.271 16.021 152.209C16.0513 152.092 16.0945 151.974 16.1501 151.855C16.8298 151.891 17.51 151.909 18.1906 151.909C23.2553 151.909 28.3205 150.911 33.0089 149C33.8239 148.667 34.6727 148.508 35.5123 148.508C37.5627 148.508 39.5494 149.464 40.812 151.202C42.8851 154.055 45.8434 156.282 49.1891 157.413C48.8962 158.082 48.6251 158.758 48.375 159.438C47.1533 162.732 46.4301 166.155 45.9998 169.576C45.756 171.565 45.6278 173.557 45.5887 175.545Z" fill="#D7D1DA"/>
<path d="M45.575 176.646C38.1466 172.233 32.4767 164.95 30.0479 156.671C28.2868 157.895 26.1381 158.538 23.9925 158.538C22.9433 158.538 21.895 158.383 20.8933 158.07C17.8432 157.113 15.2932 154.691 14.1885 151.699C14.8411 151.768 15.4949 151.82 16.1501 151.854C16.0945 151.974 16.0513 152.092 16.0209 152.209C16.0048 152.271 15.9804 152.365 15.9804 152.491C15.9809 152.784 16.1131 153.256 16.7851 153.926C18.7234 155.858 20.8176 156.491 22.7282 156.491C26.2282 156.491 29.1118 154.37 29.2956 154.231C29.6522 153.963 30.0852 153.821 30.5227 153.821C30.6919 153.821 30.8611 153.842 31.0276 153.885C31.6262 154.038 32.1256 154.454 32.3784 155.016C32.4485 155.173 38.6006 168.761 45.5886 175.544C45.5813 175.912 45.5768 176.279 45.575 176.646Z" fill="#371A45"/>
<path d="M69.7324 180.562C69.7888 180.225 69.847 179.889 69.9053 179.553C70.0872 178.521 70.2782 177.497 70.4783 176.479L70.8495 176.579C71.0642 176.944 71.3917 177.239 71.7892 177.413L71.4153 180.125C70.8577 180.288 70.2964 180.433 69.7324 180.562ZM73.7149 163.434C73.6494 163.425 73.5894 163.418 73.5303 163.411C73.6549 162.953 73.7804 162.495 73.9069 162.039L73.7149 163.434Z" fill="#371A45"/>
<path d="M71.7888 177.412C71.3913 177.238 71.0638 176.943 70.8491 176.577L71.0529 176.633L71.8661 176.851L71.7888 177.412Z" fill="#390559"/>
<path d="M49.6582 178.707C48.4429 178.195 47.2567 177.61 46.1096 176.957C45.9304 176.855 45.7521 176.751 45.5747 176.646C45.5765 176.279 45.5811 175.911 45.5884 175.544C45.6275 173.556 45.7557 171.564 45.9995 169.575C46.4298 166.154 47.153 162.732 48.3747 159.437C48.6248 158.757 48.8959 158.081 49.1888 157.412C49.6427 157.566 50.103 157.699 50.5697 157.812C50.3959 159.275 50.9135 160.705 51.8241 161.864C50.9445 164.499 50.3841 167.263 50.0321 170.061C49.6873 172.86 49.59 175.705 49.6546 178.555C49.6555 178.605 49.6573 178.656 49.6582 178.707Z" fill="#371A45"/>
<path d="M71.0929 173.373L70.9956 173.351C70.9073 173.33 70.8582 173.308 70.7863 173.288C70.2524 173.126 69.7493 172.829 69.3591 172.416C68.5558 171.612 68.1674 170.388 68.4176 169.261C68.5376 168.693 68.7823 168.157 69.1453 167.71C69.5146 167.271 69.9831 166.898 70.5243 166.684C70.8655 166.555 71.2266 166.489 71.5841 166.489C71.7951 166.489 72.0044 166.512 72.2072 166.559C72.2927 166.584 72.3737 166.606 72.4556 166.633L72.2955 167.521L71.8588 170.043L71.857 170.058C71.7806 170.387 71.7042 170.716 71.6296 171.046C71.4822 171.699 71.3376 172.351 71.1966 173.004C71.162 173.126 71.1275 173.25 71.0929 173.373Z" fill="#D7D1DA"/>
<path d="M71.1968 173.004C71.3378 172.351 71.4824 171.7 71.6298 171.046C71.7044 170.716 71.7808 170.387 71.8572 170.058L71.6034 171.584C71.466 172.057 71.3305 172.53 71.1968 173.004Z" fill="#371A45"/>
<path d="M71.3043 173.42L71.2816 173.415L71.0933 173.374C71.1278 173.25 71.1624 173.127 71.197 173.004C71.3307 172.53 71.4662 172.057 71.6036 171.584L71.4399 172.566L71.3043 173.42Z" fill="#390559"/>
<path d="M72.5938 165.846C72.5947 165.838 72.5956 165.828 72.5974 165.819C72.6001 165.791 72.6046 165.765 72.611 165.741C72.6128 165.732 72.6137 165.729 72.6137 165.729C72.6146 165.729 72.6128 165.737 72.611 165.748L72.6046 165.787L72.5938 165.846Z" fill="#D7D1DA"/>
<path d="M71.866 176.852L71.0527 176.633L70.849 176.578L70.4778 176.478L70.4387 176.467L70.1322 176.384C70.0239 176.353 69.8838 176.298 69.7619 176.256C68.7576 175.89 67.8443 175.293 67.1294 174.51C65.6739 172.968 65.0708 170.704 65.5238 168.654C65.7448 167.637 66.206 166.661 66.8774 165.851C67.5523 165.046 68.4174 164.415 69.3735 163.989C70.3332 163.571 71.3857 163.34 72.4655 163.334C72.7293 163.354 73.0131 163.344 73.2705 163.378C73.3624 163.391 73.4443 163.4 73.5298 163.41C73.5889 163.417 73.6489 163.424 73.7144 163.433L71.866 176.852ZM71.0928 173.374L71.2811 173.416L71.3038 173.42L71.4394 172.567L71.6031 171.585L71.8569 170.058L71.8587 170.044L72.2953 167.522L72.4554 166.634C72.3736 166.607 72.2926 166.585 72.2071 166.56C72.0042 166.513 71.795 166.49 71.584 166.49C71.2265 166.49 70.8653 166.555 70.5242 166.685C69.983 166.899 69.5145 167.272 69.1452 167.711C68.7822 168.158 68.5375 168.693 68.4174 169.262C68.1673 170.389 68.5557 171.612 69.3589 172.417C69.7492 172.83 70.2522 173.127 70.7862 173.289C70.8581 173.309 70.9072 173.33 70.9954 173.352L71.0928 173.374ZM72.6137 165.73C72.6137 165.73 72.6128 165.734 72.611 165.743C72.6046 165.766 72.6001 165.792 72.5974 165.821C72.5955 165.83 72.5946 165.839 72.5937 165.847L72.6046 165.788L72.611 165.749C72.6128 165.738 72.6146 165.73 72.6137 165.73Z" fill="#371A45"/>
<path d="M129.684 199.714L78.2666 192.671C74.7262 192.186 72.2519 188.932 72.7376 185.403L76.8575 155.5C77.3433 151.97 80.6072 149.502 84.1467 149.988L135.564 157.031C139.103 157.516 141.578 160.77 141.093 164.299L136.973 194.202C136.486 197.732 133.223 200.2 129.684 199.714Z" fill="white"/>
<path d="M83.2632 151.953C81.0818 151.953 79.1742 153.562 78.8695 155.777L74.7496 185.679C74.4166 188.097 76.1177 190.333 78.542 190.665L129.96 197.709C132.382 198.045 134.627 196.345 134.96 193.927L139.08 164.025C139.413 161.607 137.712 159.37 135.287 159.038L83.8699 151.995C83.6661 151.967 83.4633 151.953 83.2632 151.953ZM130.569 201.801C130.186 201.801 129.798 201.775 129.407 201.722L77.9889 194.678C73.346 194.042 70.0875 189.757 70.7252 185.128L74.8451 155.226C75.4837 150.596 79.7782 147.35 84.423 147.982L135.84 155.025C140.483 155.662 143.742 159.946 143.104 164.576L138.985 194.479C138.4 198.719 134.748 201.801 130.569 201.801Z" fill="#371A45"/>
<path d="M83.2632 151.953C81.0818 151.953 79.1742 153.563 78.8695 155.777L74.7496 185.68C74.4166 188.097 76.1177 190.334 78.542 190.666L120.582 196.425C121.758 196.589 122.924 196.282 123.868 195.567C124.813 194.853 125.423 193.814 125.584 192.643L129.703 162.74C130.036 160.323 128.334 158.086 125.91 157.754L83.8699 151.995C83.6661 151.967 83.4633 151.953 83.2632 151.953ZM121.204 200.518C120.815 200.518 120.422 200.491 120.029 200.438L77.9889 194.679C73.346 194.042 70.0875 189.758 70.7252 185.128L74.8451 155.226C75.4837 150.597 79.7782 147.35 84.423 147.982L126.463 153.741C131.106 154.378 134.365 158.662 133.727 163.292L129.607 193.194C129.298 195.437 128.132 197.425 126.323 198.794C124.829 199.923 123.047 200.518 121.204 200.518Z" fill="#371A45"/>
<path d="M122.572 171.901C122.572 175.735 119.455 178.844 115.61 178.844C111.763 178.844 108.647 175.735 108.647 171.901C108.647 168.067 111.763 164.958 115.61 164.958C119.455 164.958 122.572 168.067 122.572 171.901Z" fill="#4599F4"/>
<path d="M108.647 171.957C108.647 171.955 108.647 171.953 108.647 171.951C108.647 171.953 108.647 171.955 108.647 171.957ZM108.647 171.942C108.647 171.936 108.647 171.931 108.647 171.925C108.647 171.931 108.647 171.936 108.647 171.942ZM108.647 171.921C108.647 171.913 108.647 171.907 108.647 171.901C108.647 171.907 108.647 171.913 108.647 171.921ZM122.572 171.916C122.572 171.912 122.572 171.906 122.572 171.901C122.572 171.906 122.572 171.911 122.572 171.916Z" fill="white"/>
<path d="M109.365 174.955C108.917 174.048 108.656 173.034 108.647 171.956C108.647 171.954 108.647 171.952 108.647 171.95C108.647 171.947 108.647 171.944 108.647 171.941C108.647 171.935 108.647 171.93 108.647 171.925C108.647 171.923 108.647 171.921 108.647 171.92C108.647 171.913 108.647 171.906 108.647 171.9C108.647 168.066 111.763 164.957 115.61 164.957C119.455 164.957 122.572 168.066 122.572 171.9C122.572 171.905 122.572 171.911 122.572 171.915C122.571 172.191 122.55 172.462 122.518 172.728C121.384 170.428 119.017 168.841 116.273 168.841C112.71 168.841 109.776 171.512 109.365 174.955Z" fill="#C7E0FC"/>
<path d="M115.609 166.982C112.889 166.982 110.677 169.188 110.677 171.9C110.677 174.611 112.889 176.817 115.609 176.817C118.328 176.817 120.541 174.611 120.541 171.9C120.541 169.188 118.328 166.982 115.609 166.982ZM115.609 180.867C110.65 180.867 106.615 176.844 106.615 171.9C106.615 166.954 110.65 162.932 115.609 162.932C120.568 162.932 124.602 166.954 124.602 171.9C124.602 176.844 120.568 180.867 115.609 180.867Z" fill="#371A45"/>
<path d="M97.1862 196.125C97.1052 196.125 97.0234 196.12 96.9415 196.11C95.8281 195.977 95.0339 194.968 95.1676 193.858L96.7487 180.726C96.9088 179.393 96.3948 178.076 95.3742 177.202L92.3167 174.588C90.2827 172.849 89.2466 170.226 89.5459 167.571L91.4062 151.033C91.5308 149.922 92.5369 149.127 93.6503 149.246C94.7656 149.371 95.567 150.374 95.4424 151.485L93.5821 168.023C93.4329 169.344 93.9487 170.649 94.9603 171.514L98.0176 174.128C100.071 175.884 101.104 178.53 100.781 181.208L99.2002 194.341C99.0756 195.369 98.1996 196.125 97.1862 196.125Z" fill="#371A45"/>
<path d="M130.572 197.752C130.37 197.752 130.166 197.738 129.96 197.709L127.768 197.409C128.753 196.214 129.391 194.766 129.607 193.194L130.474 186.901C131.63 186.739 132.749 186.424 133.793 185.878C134.785 185.359 135.631 184.672 136.348 183.862L134.961 193.928C134.656 196.14 132.751 197.752 130.572 197.752ZM121.201 196.468C121.011 196.468 120.819 196.456 120.627 196.431L99.2998 193.51L100.427 184.15C108.324 185.112 116.231 185.992 124.147 186.792C124.878 186.865 125.619 186.937 126.363 186.986L125.584 192.643C125.423 193.814 124.813 194.853 123.868 195.567C123.09 196.156 122.162 196.468 121.201 196.468Z" fill="#D7D1DA"/>
<path d="M129.199 199.766C128.165 199.766 127.112 199.636 126.096 199.499C125.863 199.468 125.63 199.436 125.397 199.406C125.716 199.223 126.025 199.019 126.323 198.794C126.865 198.384 127.348 197.92 127.768 197.409L129.96 197.709C130.166 197.738 130.37 197.752 130.572 197.752C132.751 197.752 134.656 196.14 134.961 193.928L136.348 183.862C138.674 181.234 139.637 177.318 139.783 173.697C139.972 168.96 139.191 164.113 140.42 159.534C141.139 170.513 139.767 181.724 136.736 192.471C136.034 194.962 135.068 197.653 132.817 198.939C131.718 199.567 130.474 199.766 129.199 199.766ZM120.627 196.431C120.612 196.429 120.598 196.427 120.582 196.425L99.2998 193.51L120.627 196.431Z" fill="#371A45"/>
<path d="M125.397 199.404C116.376 198.192 107.357 196.979 98.3364 195.766C98.7985 195.448 99.1269 194.941 99.1997 194.34L99.2998 193.508L120.582 196.424C120.598 196.425 120.612 196.428 120.627 196.43C120.819 196.454 121.011 196.467 121.201 196.467C122.162 196.467 123.09 196.154 123.868 195.566C124.813 194.852 125.423 193.813 125.584 192.642L126.363 186.985C126.966 187.024 127.57 187.049 128.171 187.049C128.948 187.049 129.719 187.007 130.474 186.9L129.607 193.193C129.391 194.765 128.753 196.212 127.768 197.408C127.348 197.919 126.864 198.383 126.323 198.793C126.025 199.018 125.716 199.222 125.397 199.404Z" fill="#371A45"/>
<path d="M95.2756 192.957L78.5423 190.665C76.3218 190.361 74.708 188.458 74.708 186.283C74.708 186.083 74.7216 185.881 74.7498 185.679L75.4175 180.832C82.4011 181.835 89.3955 182.775 96.3963 183.652L95.2756 192.957Z" fill="#D7D1DA"/>
<path d="M95.2756 192.957L78.5423 190.665C76.3218 190.361 74.708 188.458 74.708 186.283C74.708 188.458 76.3218 190.361 78.5423 190.665L95.2756 192.957Z" fill="#371A45"/>
<path d="M95.6283 195.402C92.7637 195.017 89.9001 194.632 87.0346 194.247C83.2431 193.737 79.2452 193.142 76.2605 190.754C73.2768 188.367 71.9105 183.532 74.4676 180.695C74.7841 180.74 75.1007 180.786 75.4173 180.832L74.7496 185.678C74.7214 185.881 74.7077 186.083 74.7077 186.283C74.7077 188.458 76.3215 190.361 78.542 190.665L95.2753 192.957L95.167 193.858C95.097 194.437 95.2799 194.989 95.6283 195.402Z" fill="#371A45"/>
<path d="M98.3364 195.768C97.434 195.646 96.5307 195.525 95.6283 195.404C95.2799 194.99 95.0971 194.439 95.1671 193.859L95.2754 192.958L96.3961 183.654C97.7397 183.821 99.0824 183.987 100.427 184.151L99.2998 193.51L99.1997 194.342C99.1269 194.942 98.7985 195.449 98.3364 195.768Z" fill="#371A45"/>
<path d="M198.596 167.088C197.492 166.72 196.463 166.131 195.608 165.34C194.392 164.214 193.497 162.448 194.132 160.92C194.61 159.768 195.807 159.093 196.969 158.634C198.904 157.869 200.979 157.474 203.029 157.474C204.646 157.474 206.247 157.72 207.752 158.226C207.694 158.432 207.667 158.651 207.679 158.877V158.876C207.684 158.969 207.695 159.061 207.713 159.153L207.716 159.19C207.724 159.32 207.728 159.455 207.728 159.592C207.728 159.865 207.716 160.143 207.686 160.419C207.633 160.974 207.522 161.523 207.349 162.046C207.008 163.094 206.428 164.051 205.589 164.813C205.169 165.192 204.69 165.525 204.168 165.815C203.635 166.082 203.074 166.334 202.47 166.505C201.271 166.874 199.967 167.043 198.646 167.084H198.641C198.626 167.085 198.611 167.086 198.596 167.088Z" fill="#D7D1DA"/>
<path d="M207.713 159.152C207.695 159.061 207.684 158.968 207.68 158.876L207.681 158.875C207.687 158.875 207.695 158.955 207.701 159L207.713 159.152Z" fill="#371A45"/>
<path d="M201.393 167.541C200.446 167.541 199.496 167.387 198.596 167.087C198.611 167.086 198.626 167.085 198.641 167.084H198.646C199.967 167.042 201.272 166.873 202.47 166.504C203.074 166.334 203.635 166.082 204.168 165.815C204.69 165.525 205.169 165.192 205.589 164.813C206.428 164.051 207.008 163.094 207.349 162.046C207.522 161.523 207.633 160.974 207.686 160.419C207.717 160.143 207.728 159.864 207.728 159.591C207.728 159.454 207.724 159.319 207.716 159.19L207.713 159.152L207.7 159C207.695 158.955 207.686 158.875 207.68 158.875L207.679 158.876V158.877C207.667 158.651 207.694 158.431 207.752 158.225C208.426 158.452 209.081 158.731 209.709 159.063C209.764 162.321 207.722 165.519 204.738 166.847C203.688 167.315 202.541 167.541 201.393 167.541Z" fill="#371A45"/>
<path d="M188.567 58.2318C188.567 58.2318 202.935 65.2172 204.213 68.1036C206.581 73.4562 203.308 103.348 194.747 110.438C191.395 113.214 168.563 114.012 168.563 114.012L188.567 58.2318Z" fill="white"/>
<path d="M168.563 114.014C168.563 114.014 191.395 113.215 194.745 110.438C198.086 107.672 200.626 101.426 202.331 94.5242C202.061 94.7256 193.46 100.858 178.838 85.4625C178.83 85.4534 178.819 85.4443 178.811 85.4353L168.563 114.014Z" fill="#E2E2E2"/>
<path d="M121.177 83.5937L121.153 83.8496L121.002 83.709L121.177 83.5937Z" fill="#D8D8D8"/>
<path d="M121.001 83.7096L120.828 83.8203L120.851 83.5653L121.001 83.7096Z" fill="#D8D8D8"/>
<path d="M69.482 104.973C69.482 104.973 47.1751 100.056 44.3852 96.7191C41.6034 93.3947 40.2426 86.793 39.8223 79.6969L39.8178 79.6924C39.1564 68.6169 40.7665 56.3251 42.7805 53.3771C44.5617 50.7693 59.9623 46.4978 59.9623 46.4978L64.6053 75.0155L69.482 104.973Z" fill="white"/>
<path d="M69.4819 104.973C69.4819 104.973 47.1751 100.056 44.3851 96.7191C41.6034 93.3947 40.2425 86.793 39.8223 79.6969C40.0506 79.9436 47.3925 87.5314 64.5743 75.0373C64.5825 75.03 64.5961 75.0227 64.6052 75.0155L69.4819 104.973Z" fill="#D8D8D8"/>
<path d="M189.709 61.0636L171.491 111.862C181.376 111.375 191.87 110.188 193.449 108.881C196.744 106.153 199.783 98.447 201.577 88.2696C203.314 78.4251 203.145 70.7077 202.354 68.9225C201.624 67.6463 195.579 64.0461 189.709 61.0636ZM168.563 116.037C167.916 116.037 167.307 115.73 166.924 115.207C166.526 114.666 166.424 113.963 166.651 113.33L186.655 57.5514C186.849 57.009 187.266 56.5745 187.801 56.3577C188.335 56.1409 188.939 56.1608 189.457 56.413C193.978 58.6109 204.647 64.0697 206.07 67.2871C208.722 73.2801 205.476 104.185 196.044 111.997C192.439 114.983 174.153 115.843 168.634 116.036C168.61 116.037 168.587 116.037 168.563 116.037Z" fill="#371A45"/>
<path d="M58.3251 49.0774C52.0092 50.9478 45.4078 53.3979 44.4399 54.5435C43.3565 56.1309 41.7855 63.6887 41.7018 73.6838C41.6154 84.0172 43.2018 92.1446 45.9454 95.4237C47.2599 96.9957 57.3635 100.062 66.996 102.328L58.3251 49.0774ZM69.4839 106.998C69.3384 106.998 69.191 106.983 69.0455 106.951C63.6539 105.763 45.8281 101.607 42.8262 98.0189C34.9721 88.6297 37.4036 57.6502 41.1023 52.2377C43.0881 49.3305 54.5727 45.8927 59.4185 44.5493C59.9743 44.3951 60.571 44.484 61.0577 44.7951C61.5444 45.1053 61.8746 45.6079 61.9674 46.1757L71.4888 104.649C71.5962 105.311 71.3679 105.984 70.8794 106.445C70.4982 106.804 69.997 106.998 69.4839 106.998Z" fill="#371A45"/>
<path d="M191.546 77.4256C188.059 115.43 154.336 143.42 116.223 139.942C78.1108 136.466 50.0403 102.838 53.527 64.8336C57.0147 26.8297 90.7379 -1.16093 128.851 2.3159C166.963 5.79364 195.034 39.4209 191.546 77.4256Z" fill="white"/>
<path d="M191.548 77.4237C188.062 115.428 154.339 143.418 116.226 139.94C78.1129 136.464 50.0388 102.836 53.5255 64.8316C53.894 60.8196 54.5989 56.9164 55.615 53.1548C58.2413 86.0618 84.2968 113.289 118.386 116.399C152.475 119.508 183.048 97.4474 191.619 65.5627C191.934 69.445 191.917 73.4108 191.548 77.4237Z" fill="#D8D8D8"/>
<path d="M122.418 3.68221C106.656 3.68221 91.5332 9.1165 79.2691 19.2948C65.384 30.8193 56.8313 47.046 55.1848 64.9853C53.5392 82.9246 58.9981 100.429 70.5554 114.274C82.1118 128.12 98.3849 136.649 116.375 138.29C134.367 139.933 151.921 134.488 165.805 122.964C179.69 111.44 188.244 95.2137 189.889 77.2744L191.547 77.4259L189.889 77.2744C191.536 59.3351 186.077 41.8303 174.519 27.9846C162.962 14.1399 146.69 5.61064 128.7 3.96974C126.599 3.77744 124.501 3.68221 122.418 3.68221ZM122.663 141.896C120.475 141.896 118.277 141.797 116.071 141.595C97.1959 139.874 80.1224 130.925 67.9965 116.399C55.8707 101.871 50.1434 83.5051 51.87 64.6832C53.5974 45.8605 62.5713 28.8355 77.1396 16.7441C91.7079 4.65187 110.129 -1.0582 129.002 0.663437C147.879 2.38597 164.952 11.3343 177.078 25.8612C189.204 40.388 194.931 58.7546 193.204 77.5764C191.477 96.3992 182.504 113.424 167.935 125.516C155.068 136.195 139.198 141.896 122.663 141.896Z" fill="#371A45"/>
<path d="M122.418 3.68221C106.656 3.68221 91.5332 9.1165 79.2691 19.2948C65.384 30.8193 56.8313 47.046 55.1848 64.9853C53.5392 82.9246 58.9981 100.429 70.5554 114.274C82.1118 128.12 98.3849 136.649 116.375 138.29C134.367 139.933 151.921 134.488 165.805 122.964C179.69 111.44 188.244 95.2137 189.889 77.2744L191.547 77.4259L189.889 77.2744C191.536 59.3351 186.077 41.8303 174.519 27.9846C162.962 14.1399 146.69 5.61064 128.7 3.96974C126.599 3.77744 124.501 3.68221 122.418 3.68221ZM122.663 141.896C120.475 141.896 118.277 141.797 116.071 141.595C97.1959 139.874 80.1224 130.925 67.9965 116.399C55.8707 101.871 50.1434 83.5051 51.87 64.6832C53.5974 45.8605 62.5713 28.8355 77.1396 16.7441C91.7079 4.65187 110.129 -1.0582 129.002 0.663437C147.879 2.38597 164.952 11.3343 177.078 25.8612C189.204 40.388 194.931 58.7546 193.204 77.5764C191.477 96.3992 182.504 113.424 167.935 125.516C155.068 136.195 139.198 141.896 122.663 141.896Z" fill="#371A45"/>
<path d="M122.418 3.68221C106.656 3.68221 91.5332 9.1165 79.2691 19.2948C65.384 30.8193 56.8313 47.046 55.1848 64.9853C53.5392 82.9246 58.9981 100.429 70.5554 114.274C82.1118 128.12 98.3849 136.649 116.375 138.29C134.367 139.933 151.921 134.488 165.805 122.964C179.69 111.44 188.244 95.2137 189.889 77.2744L191.547 77.4259L189.889 77.2744C191.536 59.3351 186.077 41.8303 174.519 27.9846C162.962 14.1399 146.69 5.61064 128.7 3.96974C126.599 3.77744 124.501 3.68221 122.418 3.68221ZM122.663 141.896C120.475 141.896 118.277 141.797 116.071 141.595C97.1959 139.874 80.1224 130.925 67.9965 116.399C55.8707 101.871 50.1434 83.5051 51.87 64.6832C53.5974 45.8605 62.5713 28.8355 77.1396 16.7441C91.7079 4.65187 110.129 -1.0582 129.002 0.663437C147.879 2.38597 164.952 11.3343 177.078 25.8612C189.204 40.388 194.931 58.7546 193.204 77.5764C191.477 96.3992 182.504 113.424 167.935 125.516C155.068 136.195 139.198 141.896 122.663 141.896Z" fill="#371A45"/>
<path d="M191.545 77.4242H191.55H191.545ZM56.1484 81.9923C61.0825 112.138 85.8581 135.137 116.407 137.925C146.956 140.709 175.509 122.579 185.852 93.8224C185.87 93.7725 185.889 93.7235 185.911 93.6745C187.79 88.4071 189.005 82.8785 189.523 77.2401C189.751 74.7429 189.841 72.2203 189.79 69.7413C189.129 35.5698 162.851 7.45218 128.665 4.33365C94.4891 1.21147 63.534 24.1043 56.6597 57.5746C56.1539 59.9965 55.7809 62.4983 55.5499 65.0181C55.0323 70.6638 55.2233 76.3194 56.1175 81.8308C56.1293 81.8843 56.1402 81.9378 56.1484 81.9923ZM122.586 142.256C120.415 142.256 118.232 142.157 116.037 141.957C83.6768 139.005 57.4265 114.664 52.1559 82.7451C52.1459 82.7016 52.1368 82.6572 52.1295 82.6118C51.1626 76.7222 50.9524 70.6792 51.5055 64.6489C51.7502 61.9767 52.1459 59.3217 52.6817 56.7564C59.9708 21.2679 92.7989 -3.00281 129.035 0.299866C165.285 3.60707 193.15 33.4255 193.851 69.6605C193.906 72.2874 193.81 74.9624 193.567 77.6093C193.014 83.6305 191.711 89.5346 189.691 95.1594C189.676 95.203 189.658 95.2456 189.64 95.2882C179.388 123.659 152.408 142.255 122.586 142.256Z" fill="#371A45"/>
<path d="M121.112 8.56244C123.477 8.56244 125.856 8.6695 128.248 8.88811C149.754 10.8501 168.793 21.4657 181.154 37.4702C170.395 18.8932 151.033 6.0045 128.699 3.96721C106.375 1.929 84.9935 11.0968 71.031 27.4107C84.4231 15.4191 102.227 8.56244 121.112 8.56244ZM190.797 60.8184C190.093 60.8184 189.443 60.3693 189.216 59.6736C180.63 33.4427 156.58 14.8059 127.944 12.1935C99.3317 9.58019 72.2909 23.5447 59.0653 47.7628C58.6477 48.5283 57.709 48.8404 56.913 48.4794C56.1189 48.1183 55.7386 47.2067 56.0434 46.3904C67.1722 16.562 97.1739 -2.24084 129.002 0.660904C160.852 3.56718 186.937 27.5041 192.438 58.8727C192.588 59.7299 192.048 60.558 191.201 60.7685C191.066 60.8029 190.931 60.8184 190.797 60.8184Z" fill="#371A45"/>
<path d="M191.542 77.4266C190.996 83.3825 189.708 89.0998 187.777 94.4788L187.771 94.4851C173.683 116.455 146.437 133.98 117.014 131.296C87.59 128.612 63.9923 106.449 54.137 82.294L54.1315 82.2867C53.2055 76.6465 52.979 70.7913 53.5257 64.8354C53.764 62.2312 54.1452 59.6724 54.6673 57.1706C66.3338 32.3339 95.2175 16.2278 127.303 19.155C159.395 22.083 184.872 43.1608 191.819 69.7019C191.871 72.2499 191.78 74.8287 191.542 77.4266Z" fill="#371A45"/>
<path d="M123.028 129.91C121.092 129.91 119.137 129.823 117.166 129.643C87.1654 126.907 64.7221 103.681 55.7427 81.8232C55.3407 79.3278 55.0814 76.8034 54.9668 74.2645C68.8592 91.9172 89.4796 105.503 113.509 107.696C115.797 107.904 118.078 108.006 120.338 108.006C132.604 108.006 144.41 105.022 155.128 99.9602C155.49 101.39 156.41 102.576 157.755 103.126C158.27 103.336 158.808 103.437 159.346 103.437C161.362 103.437 163.385 102.031 164.309 99.7834C164.992 98.1216 164.922 96.3673 164.259 94.9958C174.432 88.7025 183.289 80.546 190.168 71.4762C190.157 73.4046 190.062 75.3476 189.885 77.2751C189.367 82.9199 188.154 88.4549 186.277 93.7322C174.311 112.297 150.567 129.911 123.028 129.91Z" fill="#2A1A3B"/>
<path d="M55.7423 81.8233C64.7216 103.681 87.1649 126.907 117.166 129.644C147.17 132.382 173.47 113.602 186.277 93.7324C188.153 88.455 189.367 82.92 189.884 77.2752C190.109 74.8316 190.201 72.3625 190.158 69.9315C183.102 43.336 157.809 23.6052 127.151 20.8087C96.4999 18.0121 68.0382 32.8302 56.2571 57.6987C55.7705 60.0689 55.4093 62.5198 55.1828 64.987C54.6643 70.639 54.8526 76.3019 55.7423 81.8233ZM122.973 133.227C120.931 133.227 118.892 133.134 116.862 132.949C102.704 131.657 88.9806 125.84 77.1777 116.126C66.4891 107.33 57.7736 95.5692 52.6285 83.0016C52.5621 82.8628 52.5148 82.7132 52.4884 82.5553C51.526 76.6956 51.3177 70.6826 51.868 64.6841C52.1118 62.0263 52.5057 59.3849 53.0378 56.8324C53.0642 56.7063 53.1051 56.5829 53.1597 56.4659C59.1108 43.7986 69.2708 33.3635 82.5429 26.2874C96.0423 19.0925 111.572 16.0556 127.454 17.5023C143.34 18.9519 158.062 24.7517 170.028 34.2761C181.795 43.6407 189.886 55.7457 193.429 69.283C193.462 69.4081 193.48 69.5378 193.483 69.6676C193.537 72.2845 193.441 74.9458 193.199 77.5782V77.5773C192.651 83.5676 191.354 89.4419 189.344 95.0386C189.29 95.19 189.215 95.3297 189.124 95.4549C181.778 106.882 171.066 116.871 158.952 123.587C147.494 129.939 135.171 133.226 122.973 133.227Z" fill="#371A45"/>
<path d="M170.962 86.7148C170.421 86.7148 169.88 86.6486 169.345 86.5126C164.626 85.3098 162.15 79.07 163.814 72.5753C165.291 66.8172 169.526 62.7915 173.757 62.7915C174.298 62.7915 174.839 62.8578 175.374 62.9938C180.094 64.1966 182.57 70.4364 180.905 76.9311C179.429 82.6892 175.193 86.7148 170.962 86.7148Z" fill="#9B8DA2"/>
<path d="M155.128 99.959C154.83 98.7825 154.908 97.4418 155.436 96.1574C156.359 93.9097 158.382 92.5037 160.399 92.5037C160.936 92.5037 161.474 92.6035 161.991 92.8148C163.01 93.2312 163.785 94.0158 164.258 94.9945C161.321 96.8114 158.269 98.4759 155.128 99.959Z" fill="#9B8DA2"/>
<path d="M159.346 103.438C158.808 103.438 158.27 103.337 157.755 103.126C156.41 102.577 155.49 101.39 155.128 99.9607C158.269 98.4776 161.321 96.8131 164.259 94.9962C164.922 96.3677 164.992 98.122 164.309 99.7838C163.385 102.032 161.362 103.438 159.346 103.438Z" fill="#958D9D"/>
<path d="M66.9877 86.8203C66.9877 86.8203 58.4905 51.1521 78.3385 38.5855C91.0893 30.5125 106.844 28.4425 116.279 28.4425C121.531 28.4425 124.826 29.0838 124.555 29.688C124.555 29.688 94.0029 34.8093 80.5635 57.6523C70.1988 75.2677 66.9877 86.8203 66.9877 86.8203Z" fill="#9B8DA2"/>
</svg>
