<svg width="24" height="24" viewBox="0 0 24 24" fill="none" xmlns="http://www.w3.org/2000/svg">
<path d="M5.4085 12.4276L5.40853 12.4276L5.41147 12.4226C5.56163 12.1661 5.69073 11.8206 5.78202 11.489C5.87321 11.1578 5.93996 10.7923 5.93996 10.49V8.63005C5.93996 5.27767 8.66477 2.55967 12.0206 2.55005C15.3637 2.55042 18.09 5.27593 18.09 8.63005V10.5C18.09 10.8025 18.1568 11.1683 18.2496 11.5008C18.3423 11.8325 18.4746 12.18 18.6322 12.4389C18.6325 12.4394 18.6328 12.4399 18.6331 12.4404L19.7601 14.3155C19.7603 14.3158 19.7605 14.3161 19.7607 14.3164C20.0943 14.8785 20.1572 15.5395 19.932 16.1439C19.7044 16.7447 19.2269 17.2144 18.6008 17.426C17.5447 17.778 16.4614 18.0511 15.3706 18.2264L15.3706 18.2263L15.3605 18.2281C15.2466 18.2488 15.1587 18.2645 15.0747 18.2721L15.0561 18.2738L15.0378 18.2769C14.8734 18.3042 14.7069 18.3229 14.5247 18.3431L14.5247 18.343L14.5124 18.3446C14.3066 18.3727 14.089 18.3917 13.8566 18.4119L13.8566 18.4119L13.8518 18.4124C13.2481 18.4708 12.6342 18.5 12.02 18.5C11.3955 18.5 10.7713 18.4708 10.1574 18.4123L10.1574 18.4122L10.1469 18.4114C9.89031 18.3924 9.64335 18.3639 9.39599 18.3259L9.396 18.3258L9.38604 18.3244C9.23874 18.3048 9.09422 18.2855 8.95945 18.2663C8.89697 18.2552 8.83646 18.247 8.7866 18.2402L8.78252 18.2396C8.72574 18.2319 8.6817 18.2258 8.6394 18.2181L8.63941 18.2181L8.63432 18.2172C7.54557 18.0309 6.48062 17.7766 5.42808 17.4257L5.4245 17.4245C4.76179 17.2092 4.27292 16.7352 4.05892 16.1566L4.05812 16.1545C3.84852 15.5955 3.9163 14.9237 4.2797 14.3056L5.4085 12.4276ZM11.99 11.26C12.6861 11.26 13.25 10.6962 13.25 10V6.90005C13.25 6.20391 12.6861 5.64005 11.99 5.64005C11.2938 5.64005 10.73 6.20391 10.73 6.90005V10C10.73 10.6962 11.2938 11.26 11.99 11.26Z" fill="#1A79FF" stroke="#1A79FF"/>
<path d="M10.0955 20.6143C10.1459 20.6193 10.1966 20.6239 10.2473 20.6282C10.8288 20.6792 11.4233 20.71 12.0199 20.71C12.6073 20.71 13.1923 20.6791 13.7644 20.628L13.7644 20.628L13.7673 20.6277C13.8103 20.6237 13.8579 20.6197 13.9085 20.6156C13.4473 21.1572 12.762 21.5 11.9999 21.5C11.341 21.5 10.6923 21.2319 10.2397 20.7628L10.231 20.7538L10.2219 20.7452C10.1781 20.7042 10.1359 20.6604 10.0955 20.6143Z" fill="#1A79FF" stroke="#1A79FF"/>
</svg>
