<svg width="24" height="24" viewBox="0 0 24 24" fill="none" xmlns="http://www.w3.org/2000/svg">
<g clip-path="url(#clip0_3979_55)">
<path d="M22 2.66797H2C0.895833 2.66797 0 3.5638 0 4.66797V5.33464H24V4.66797C24 3.5638 23.1042 2.66797 22 2.66797ZM0 19.3346C0 20.4388 0.895833 21.3346 2 21.3346H22C23.1042 21.3346 24 20.4388 24 19.3346V6.66797H0V19.3346ZM14.6667 9.66797C14.6667 9.48463 14.8167 9.33463 15 9.33463H21C21.1833 9.33463 21.3333 9.48463 21.3333 9.66797V10.3346C21.3333 10.518 21.1833 10.668 21 10.668H15C14.8167 10.668 14.6667 10.518 14.6667 10.3346V9.66797ZM14.6667 12.3346C14.6667 12.1513 14.8167 12.0013 15 12.0013H21C21.1833 12.0013 21.3333 12.1513 21.3333 12.3346V13.0013C21.3333 13.1846 21.1833 13.3346 21 13.3346H15C14.8167 13.3346 14.6667 13.1846 14.6667 13.0013V12.3346ZM14.6667 15.0013C14.6667 14.818 14.8167 14.668 15 14.668H21C21.1833 14.668 21.3333 14.818 21.3333 15.0013V15.668C21.3333 15.8513 21.1833 16.0013 21 16.0013H15C14.8167 16.0013 14.6667 15.8513 14.6667 15.668V15.0013ZM7.33333 9.33463C8.80417 9.33463 10 10.5305 10 12.0013C10 13.4721 8.80417 14.668 7.33333 14.668C5.8625 14.668 4.66667 13.4721 4.66667 12.0013C4.66667 10.5305 5.8625 9.33463 7.33333 9.33463ZM2.79583 17.843C3.14583 16.7721 4.15 16.0013 5.33333 16.0013H5.675C6.1875 16.2138 6.74583 16.3346 7.33333 16.3346C7.92083 16.3346 8.48333 16.2138 8.99167 16.0013H9.33333C10.5167 16.0013 11.5208 16.7721 11.8708 17.843C12.0042 18.2555 11.6542 18.668 11.2208 18.668H3.44583C3.0125 18.668 2.6625 18.2513 2.79583 17.843Z" fill="white"/>
</g>
<defs>
<clipPath id="clip0_3979_55">
<rect width="24" height="24" fill="white"/>
</clipPath>
</defs>
</svg>
