<svg width="25" height="24" viewBox="0 0 25 24" fill="none" xmlns="http://www.w3.org/2000/svg">
<path d="M9.52643 10.87C9.42243 10.86 9.29763 10.86 9.18323 10.87C6.70803 10.79 4.74243 8.84 4.74243 6.44C4.74243 3.99 6.80163 2 9.36003 2C11.908 2 13.9776 3.99 13.9776 6.44C13.9672 8.84 12.0016 10.79 9.52643 10.87Z" stroke="url(#paint0_linear_11229_146177)" stroke-width="1.5" stroke-linecap="round" stroke-linejoin="round"/>
<path d="M17.0664 4C19.084 4 20.7064 5.57 20.7064 7.5C20.7064 9.39 19.1464 10.93 17.2016 11C17.1184 10.99 17.0248 10.99 16.9312 11" stroke="url(#paint1_linear_11229_146177)" stroke-width="1.5" stroke-linecap="round" stroke-linejoin="round"/>
<path d="M4.32632 14.56C1.80952 16.18 1.80952 18.82 4.32632 20.43C7.18632 22.27 11.8767 22.27 14.7367 20.43C17.2535 18.81 17.2535 16.17 14.7367 14.56C11.8871 12.73 7.19672 12.73 4.32632 14.56Z" stroke="url(#paint2_linear_11229_146177)" stroke-width="1.5" stroke-linecap="round" stroke-linejoin="round"/>
<path d="M19.0735 20C19.8223 19.85 20.5295 19.56 21.1119 19.13C22.7343 17.96 22.7343 16.03 21.1119 14.86C20.5399 14.44 19.8431 14.16 19.1047 14" stroke="url(#paint3_linear_11229_146177)" stroke-width="1.5" stroke-linecap="round" stroke-linejoin="round"/>
<defs>
<linearGradient id="paint0_linear_11229_146177" x1="9.36003" y1="2" x2="9.36003" y2="10.87" gradientUnits="userSpaceOnUse">
<stop stop-color="#1A79FF"/>
<stop offset="1" stop-color="#1A79FF"/>
</linearGradient>
<linearGradient id="paint1_linear_11229_146177" x1="18.8188" y1="4" x2="18.8188" y2="11" gradientUnits="userSpaceOnUse">
<stop stop-color="#1A79FF"/>
<stop offset="1" stop-color="#1A79FF"/>
</linearGradient>
<linearGradient id="paint2_linear_11229_146177" x1="9.53152" y1="13.1875" x2="9.53152" y2="21.81" gradientUnits="userSpaceOnUse">
<stop stop-color="#1A79FF"/>
<stop offset="1" stop-color="#1A79FF"/>
</linearGradient>
<linearGradient id="paint3_linear_11229_146177" x1="20.7011" y1="14" x2="20.7011" y2="20" gradientUnits="userSpaceOnUse">
<stop stop-color="#1A79FF"/>
<stop offset="1" stop-color="#1A79FF"/>
</linearGradient>
</defs>
</svg>
