<svg width="30" height="30" viewBox="0 0 30 30" fill="none" xmlns="http://www.w3.org/2000/svg">
<path d="M21.25 26.25H8.75C3.75 26.25 2.5 25 2.5 20V10C2.5 5 3.75 3.75 8.75 3.75H21.25C26.25 3.75 27.5 5 27.5 10V20C27.5 25 26.25 26.25 21.25 26.25Z" stroke="url(#paint0_linear_10973_84404)" stroke-width="1.5" stroke-linecap="round" stroke-linejoin="round"/>
<path d="M17.5 10H23.75" stroke="url(#paint1_linear_10973_84404)" stroke-width="1.5" stroke-linecap="round" stroke-linejoin="round"/>
<path d="M18.75 15H23.75" stroke="url(#paint2_linear_10973_84404)" stroke-width="1.5" stroke-linecap="round" stroke-linejoin="round"/>
<path d="M21.25 20H23.75" stroke="url(#paint3_linear_10973_84404)" stroke-width="1.5" stroke-linecap="round" stroke-linejoin="round"/>
<path d="M10.6248 14.1124C11.8743 14.1124 12.8873 13.0994 12.8873 11.8499C12.8873 10.6004 11.8743 9.5874 10.6248 9.5874C9.37526 9.5874 8.3623 10.6004 8.3623 11.8499C8.3623 13.0994 9.37526 14.1124 10.6248 14.1124Z" stroke="url(#paint4_linear_10973_84404)" stroke-width="1.5" stroke-linecap="round" stroke-linejoin="round"/>
<path d="M15 20.4125C14.825 18.6 13.3875 17.175 11.575 17.0125C10.95 16.95 10.3125 16.95 9.675 17.0125C7.8625 17.1875 6.425 18.6 6.25 20.4125" stroke="url(#paint5_linear_10973_84404)" stroke-width="1.5" stroke-linecap="round" stroke-linejoin="round"/>
<defs>
<linearGradient id="paint0_linear_10973_84404" x1="15" y1="3.75" x2="15" y2="26.25" gradientUnits="userSpaceOnUse">
<stop stop-color="#1A79FF"/>
<stop offset="1" stop-color="#1A79FF"/>
</linearGradient>
<linearGradient id="paint1_linear_10973_84404" x1="20.625" y1="10" x2="20.625" y2="11" gradientUnits="userSpaceOnUse">
<stop stop-color="#1A79FF"/>
<stop offset="1" stop-color="#1A79FF"/>
</linearGradient>
<linearGradient id="paint2_linear_10973_84404" x1="21.25" y1="15" x2="21.25" y2="16" gradientUnits="userSpaceOnUse">
<stop stop-color="#1A79FF"/>
<stop offset="1" stop-color="#1A79FF"/>
</linearGradient>
<linearGradient id="paint3_linear_10973_84404" x1="22.5" y1="20" x2="22.5" y2="21" gradientUnits="userSpaceOnUse">
<stop stop-color="#1A79FF"/>
<stop offset="1" stop-color="#1A79FF"/>
</linearGradient>
<linearGradient id="paint4_linear_10973_84404" x1="10.6248" y1="9.5874" x2="10.6248" y2="14.1124" gradientUnits="userSpaceOnUse">
<stop stop-color="#1A79FF"/>
<stop offset="1" stop-color="#1A79FF"/>
</linearGradient>
<linearGradient id="paint5_linear_10973_84404" x1="10.625" y1="16.9656" x2="10.625" y2="20.4125" gradientUnits="userSpaceOnUse">
<stop stop-color="#1A79FF"/>
<stop offset="1" stop-color="#1A79FF"/>
</linearGradient>
</defs>
</svg>
