<svg width="16" height="16" viewBox="0 0 16 16" fill="none" xmlns="http://www.w3.org/2000/svg">
<path d="M14.6665 4.83337H10.6665C10.3932 4.83337 10.1665 4.60671 10.1665 4.33337C10.1665 4.06004 10.3932 3.83337 10.6665 3.83337H14.6665C14.9398 3.83337 15.1665 4.06004 15.1665 4.33337C15.1665 4.60671 14.9398 4.83337 14.6665 4.83337Z" fill="#222222"/>
<path d="M4.00016 4.83337H1.3335C1.06016 4.83337 0.833496 4.60671 0.833496 4.33337C0.833496 4.06004 1.06016 3.83337 1.3335 3.83337H4.00016C4.2735 3.83337 4.50016 4.06004 4.50016 4.33337C4.50016 4.60671 4.2735 4.83337 4.00016 4.83337Z" fill="#222222"/>
<path d="M6.66683 7.16667C5.10683 7.16667 3.8335 5.89333 3.8335 4.33333C3.8335 2.77333 5.10683 1.5 6.66683 1.5C8.22683 1.5 9.50016 2.77333 9.50016 4.33333C9.50016 5.89333 8.22683 7.16667 6.66683 7.16667ZM6.66683 2.5C5.6535 2.5 4.8335 3.32 4.8335 4.33333C4.8335 5.34667 5.6535 6.16667 6.66683 6.16667C7.68016 6.16667 8.50016 5.34667 8.50016 4.33333C8.50016 3.32 7.68016 2.5 6.66683 2.5Z" fill="#222222"/>
<path d="M14.6667 12.1666H12C11.7267 12.1666 11.5 11.94 11.5 11.6666C11.5 11.3933 11.7267 11.1666 12 11.1666H14.6667C14.94 11.1666 15.1667 11.3933 15.1667 11.6666C15.1667 11.94 14.94 12.1666 14.6667 12.1666Z" fill="#222222"/>
<path d="M5.3335 12.1666H1.3335C1.06016 12.1666 0.833496 11.94 0.833496 11.6666C0.833496 11.3933 1.06016 11.1666 1.3335 11.1666H5.3335C5.60683 11.1666 5.8335 11.3933 5.8335 11.6666C5.8335 11.94 5.60683 12.1666 5.3335 12.1666Z" fill="#222222"/>
<path d="M9.33333 14.5C7.77333 14.5 6.5 13.2267 6.5 11.6667C6.5 10.1067 7.77333 8.83337 9.33333 8.83337C10.8933 8.83337 12.1667 10.1067 12.1667 11.6667C12.1667 13.2267 10.8933 14.5 9.33333 14.5ZM9.33333 9.83337C8.32 9.83337 7.5 10.6534 7.5 11.6667C7.5 12.68 8.32 13.5 9.33333 13.5C10.3467 13.5 11.1667 12.68 11.1667 11.6667C11.1667 10.6534 10.3467 9.83337 9.33333 9.83337Z" fill="#222222"/>
</svg>
