<svg width="33" height="32" viewBox="0 0 33 32" fill="none" xmlns="http://www.w3.org/2000/svg">
<path d="M27.3002 12.2926C24.8869 12.2926 23.9002 10.5859 25.1002 8.4926C25.7935 7.27926 25.3802 5.7326 24.1669 5.03926L21.8602 3.71926C20.8069 3.0926 19.4469 3.46593 18.8202 4.51926L18.6735 4.7726C17.4735 6.86593 15.5002 6.86593 14.2869 4.7726L14.1402 4.51926C13.5402 3.46593 12.1802 3.0926 11.1269 3.71926L8.8202 5.03926C7.60687 5.7326 7.19354 7.2926 7.88687 8.50593C9.1002 10.5859 8.11354 12.2926 5.7002 12.2926C4.31354 12.2926 3.16687 13.4259 3.16687 14.8259V17.1726C3.16687 18.5593 4.3002 19.7059 5.7002 19.7059C8.11354 19.7059 9.1002 21.4126 7.88687 23.5059C7.19354 24.7193 7.60687 26.2659 8.8202 26.9593L11.1269 28.2793C12.1802 28.9059 13.5402 28.5326 14.1669 27.4793L14.3135 27.2259C15.5135 25.1326 17.4869 25.1326 18.7002 27.2259L18.8469 27.4793C19.4735 28.5326 20.8335 28.9059 21.8869 28.2793L24.1935 26.9593C25.4069 26.2659 25.8202 24.7059 25.1269 23.5059C23.9135 21.4126 24.9002 19.7059 27.3135 19.7059C28.7002 19.7059 29.8469 18.5726 29.8469 17.1726V14.8259C29.8335 13.4393 28.7002 12.2926 27.3002 12.2926ZM16.5002 20.3326C14.1135 20.3326 12.1669 18.3859 12.1669 15.9993C12.1669 13.6126 14.1135 11.6659 16.5002 11.6659C18.8869 11.6659 20.8335 13.6126 20.8335 15.9993C20.8335 18.3859 18.8869 20.3326 16.5002 20.3326Z" fill="white" fill-opacity="0.5"/>
</svg>
