<svg width="32" height="32" viewBox="0 0 32 32" fill="none" xmlns="http://www.w3.org/2000/svg">
<path d="M21.6668 30.0007C22.9555 30.0007 24.0002 28.956 24.0002 27.6673C24.0002 26.3787 22.9555 25.334 21.6668 25.334C20.3782 25.334 19.3335 26.3787 19.3335 27.6673C19.3335 28.956 20.3782 30.0007 21.6668 30.0007Z" fill="url(#paint0_linear_409_3392)"/>
<path d="M10.9998 30.0007C12.2885 30.0007 13.3332 28.956 13.3332 27.6673C13.3332 26.3787 12.2885 25.334 10.9998 25.334C9.71117 25.334 8.6665 26.3787 8.6665 27.6673C8.6665 28.956 9.71117 30.0007 10.9998 30.0007Z" fill="url(#paint1_linear_409_3392)"/>
<path d="M6.45317 5.25268L6.1865 8.51935C6.13317 9.14602 6.6265 9.66602 7.25317 9.66602H27.6665C28.2265 9.66602 28.6932 9.23935 28.7332 8.67935C28.9065 6.31935 27.1065 4.39935 24.7465 4.39935H8.35984C8.2265 3.81268 7.95984 3.25268 7.5465 2.78602C6.87984 2.07935 5.9465 1.66602 4.9865 1.66602H2.6665C2.11984 1.66602 1.6665 2.11935 1.6665 2.66602C1.6665 3.21268 2.11984 3.66602 2.6665 3.66602H4.9865C5.39984 3.66602 5.7865 3.83935 6.0665 4.13268C6.3465 4.43935 6.47984 4.83935 6.45317 5.25268Z" fill="url(#paint2_linear_409_3392)"/>
<path d="M27.3469 11.666H6.89357C6.33357 11.666 5.88023 12.0927 5.8269 12.6393L5.3469 18.4393C5.16023 20.7193 6.9469 22.666 9.2269 22.666H24.0536C26.0536 22.666 27.8136 21.026 27.9602 19.026L28.4002 12.7993C28.4536 12.186 27.9736 11.666 27.3469 11.666Z" fill="url(#paint3_linear_409_3392)"/>
<defs>
<linearGradient id="paint0_linear_409_3392" x1="21.6668" y1="25.334" x2="21.6668" y2="30.0007" gradientUnits="userSpaceOnUse">
<stop stop-color="#1A79FF"/>
<stop offset="1" stop-color="#1A79FF"/>
</linearGradient>
<linearGradient id="paint1_linear_409_3392" x1="10.9998" y1="25.334" x2="10.9998" y2="30.0007" gradientUnits="userSpaceOnUse">
<stop stop-color="#1A79FF"/>
<stop offset="1" stop-color="#1A79FF"/>
</linearGradient>
<linearGradient id="paint2_linear_409_3392" x1="15.2056" y1="1.66602" x2="15.2056" y2="9.66602" gradientUnits="userSpaceOnUse">
<stop stop-color="#1A79FF"/>
<stop offset="1" stop-color="#1A79FF"/>
</linearGradient>
<linearGradient id="paint3_linear_409_3392" x1="16.8689" y1="11.666" x2="16.8689" y2="22.666" gradientUnits="userSpaceOnUse">
<stop stop-color="#1A79FF"/>
<stop offset="1" stop-color="#1A79FF"/>
</linearGradient>
</defs>
</svg>
