<svg xmlns="http://www.w3.org/2000/svg" width="25" height="24" viewBox="0 0 25 24" fill="none">
  <path d="M7.15515 18.15V16.08" stroke="url(#paint0_linear_12095_10013)" stroke-width="1.5" stroke-linecap="round"/>
  <path d="M12.48 18.15V14.01" stroke="url(#paint1_linear_12095_10013)" stroke-width="1.5" stroke-linecap="round"/>
  <path d="M17.8048 18.1501V11.9301" stroke="url(#paint2_linear_12095_10013)" stroke-width="1.5" stroke-linecap="round"/>
  <path d="M17.8048 5.84998L17.3264 6.38998C14.6744 9.36998 11.1176 11.48 7.15515 12.43" stroke="url(#paint3_linear_12095_10013)" stroke-width="1.5" stroke-linecap="round"/>
  <path d="M14.7576 5.84998H17.8048V8.76998" stroke="url(#paint4_linear_12095_10013)" stroke-width="1.5" stroke-linecap="round" stroke-linejoin="round"/>
  <path d="M9.35996 22H15.6C20.8 22 22.88 20 22.88 15V9C22.88 4 20.8 2 15.6 2H9.35996C4.15996 2 2.07996 4 2.07996 9V15C2.07996 20 4.15996 22 9.35996 22Z" stroke="url(#paint5_linear_12095_10013)" stroke-width="1.5" stroke-linecap="round" stroke-linejoin="round"/>
  <defs>
    <linearGradient id="paint0_linear_12095_10013" x1="7.65515" y1="16.08" x2="7.65515" y2="18.15" gradientUnits="userSpaceOnUse">
      <stop stop-color="#1A79FF"/>
      <stop offset="1" stop-color="#1A79FF"/>
    </linearGradient>
    <linearGradient id="paint1_linear_12095_10013" x1="12.98" y1="14.01" x2="12.98" y2="18.15" gradientUnits="userSpaceOnUse">
      <stop stop-color="#1A79FF"/>
      <stop offset="1" stop-color="#1A79FF"/>
    </linearGradient>
    <linearGradient id="paint2_linear_12095_10013" x1="18.3048" y1="11.9301" x2="18.3048" y2="18.1501" gradientUnits="userSpaceOnUse">
      <stop stop-color="#1A79FF"/>
      <stop offset="1" stop-color="#1A79FF"/>
    </linearGradient>
    <linearGradient id="paint3_linear_12095_10013" x1="12.48" y1="5.84998" x2="12.48" y2="12.43" gradientUnits="userSpaceOnUse">
      <stop stop-color="#1A79FF"/>
      <stop offset="1" stop-color="#1A79FF"/>
    </linearGradient>
    <linearGradient id="paint4_linear_12095_10013" x1="16.2812" y1="5.84998" x2="16.2812" y2="8.76998" gradientUnits="userSpaceOnUse">
      <stop stop-color="#1A79FF"/>
      <stop offset="1" stop-color="#1A79FF"/>
    </linearGradient>
    <linearGradient id="paint5_linear_12095_10013" x1="12.48" y1="2" x2="12.48" y2="22" gradientUnits="userSpaceOnUse">
      <stop stop-color="#1A79FF"/>
      <stop offset="1" stop-color="#1A79FF"/>
    </linearGradient>
  </defs>
</svg>