<svg width="16" height="16" viewBox="0 0 16 16" fill="none" xmlns="http://www.w3.org/2000/svg">
  <g opacity="0.5"> <path d="M7.89016 9.74916L7.89036 9.74928L9.94828 10.9774C10.1213 11.0888 10.304 11.1266 10.4666 11.1266C10.8051 11.1266 11.1404 10.9564 11.3292 10.6363C11.6191 10.1565 11.4574 9.54251 10.981 9.2628L8.91615 8.03056L8.91617 8.03053L8.91291 8.02865C8.91291 8.02865 8.91291 8.02864 8.91291 8.02864C8.91273 8.02838 8.90171 8.02056 8.88277 7.99927C8.86067 7.97442 8.83623 7.94066 8.81371 7.90106C8.7912 7.8615 8.77441 7.82276 8.76399 7.79016C8.75442 7.76023 8.75337 7.74543 8.75326 7.74543C8.75326 7.74543 8.75325 7.74547 8.75325 7.74555V5.01325C8.75325 4.46378 8.30273 4.01325 7.75325 4.01325C7.20378 4.01325 6.75325 4.46378 6.75325 5.01325V7.74659C6.75325 8.51549 7.22541 9.35204 7.89016 9.74916ZM1.83325 7.99992C1.83325 4.60273 4.60273 1.83325 7.99992 1.83325C11.3971 1.83325 14.1666 4.60273 14.1666 7.99992C14.1666 11.3971 11.3971 14.1666 7.99992 14.1666C4.60273 14.1666 1.83325 11.3971 1.83325 7.99992Z" fill="white" stroke="white"/>
  </g> </svg>
  