<svg width="25" height="24" viewBox="0 0 25 24" fill="none" xmlns="http://www.w3.org/2000/svg">
<path d="M11.2516 16.8604V18.8904C11.2516 20.6104 9.65158 22.0004 7.68158 22.0004C5.71158 22.0004 4.10156 20.6104 4.10156 18.8904V16.8604C4.10156 18.5804 5.70158 19.8004 7.68158 19.8004C9.65158 19.8004 11.2516 18.5704 11.2516 16.8604Z" stroke="url(#paint0_linear_11164_4659)" stroke-width="1.5" stroke-linecap="round" stroke-linejoin="round"/>
<path d="M11.2498 14.11C11.2498 14.61 11.1098 15.07 10.8698 15.47C10.2798 16.44 9.0698 17.05 7.6698 17.05C6.2698 17.05 5.05979 16.43 4.46979 15.47C4.22979 15.07 4.08984 14.61 4.08984 14.11C4.08984 13.25 4.48982 12.48 5.12982 11.92C5.77982 11.35 6.66979 11.01 7.65979 11.01C8.64979 11.01 9.53982 11.36 10.1898 11.92C10.8498 12.47 11.2498 13.25 11.2498 14.11Z" stroke="url(#paint1_linear_11164_4659)" stroke-width="1.5" stroke-linecap="round" stroke-linejoin="round"/>
<path d="M11.2516 14.11V16.86C11.2516 18.58 9.65158 19.8 7.68158 19.8C5.71158 19.8 4.10156 18.57 4.10156 16.86V14.11C4.10156 12.39 5.70158 11 7.68158 11C8.67158 11 9.56161 11.35 10.2116 11.91C10.8516 12.47 11.2516 13.25 11.2516 14.11Z" stroke="url(#paint2_linear_11164_4659)" stroke-width="1.5" stroke-linecap="round" stroke-linejoin="round"/>
<path d="M22.5002 10.9699V13.03C22.5002 13.58 22.0602 14.0299 21.5002 14.0499H19.5402C18.4602 14.0499 17.4702 13.2599 17.3802 12.1799C17.3202 11.5499 17.5602 10.9599 17.9802 10.5499C18.3502 10.1699 18.8602 9.94995 19.4202 9.94995H21.5002C22.0602 9.96995 22.5002 10.4199 22.5002 10.9699Z" stroke="url(#paint3_linear_11164_4659)" stroke-width="1.5" stroke-linecap="round" stroke-linejoin="round"/>
<path d="M2.5 10.5V8.5C2.5 5.78 4.14 3.88 6.69 3.56C6.95 3.52 7.22 3.5 7.5 3.5H16.5C16.76 3.5 17.01 3.50999 17.25 3.54999C19.83 3.84999 21.5 5.76 21.5 8.5V9.95001H19.42C18.86 9.95001 18.35 10.17 17.98 10.55C17.56 10.96 17.32 11.55 17.38 12.18C17.47 13.26 18.46 14.05 19.54 14.05H21.5V15.5C21.5 18.5 19.5 20.5 16.5 20.5H14" stroke="url(#paint4_linear_11164_4659)" stroke-width="1.5" stroke-linecap="round" stroke-linejoin="round"/>
<defs>
<linearGradient id="paint0_linear_11164_4659" x1="7.67657" y1="16.8604" x2="7.67657" y2="22.0004" gradientUnits="userSpaceOnUse">
<stop stop-color="#1A79FF"/>
<stop offset="1" stop-color="#1A79FF"/>
</linearGradient>
<linearGradient id="paint1_linear_11164_4659" x1="7.66983" y1="11.01" x2="7.66983" y2="17.05" gradientUnits="userSpaceOnUse">
<stop stop-color="#1A79FF"/>
<stop offset="1" stop-color="#1A79FF"/>
</linearGradient>
<linearGradient id="paint2_linear_11164_4659" x1="7.67657" y1="11" x2="7.67657" y2="19.8" gradientUnits="userSpaceOnUse">
<stop stop-color="#1A79FF"/>
<stop offset="1" stop-color="#1A79FF"/>
</linearGradient>
<linearGradient id="paint3_linear_11164_4659" x1="19.9357" y1="9.94995" x2="19.9357" y2="14.0499" gradientUnits="userSpaceOnUse">
<stop stop-color="#1A79FF"/>
<stop offset="1" stop-color="#1A79FF"/>
</linearGradient>
<linearGradient id="paint4_linear_11164_4659" x1="12" y1="3.5" x2="12" y2="20.5" gradientUnits="userSpaceOnUse">
<stop stop-color="#1A79FF"/>
<stop offset="1" stop-color="#1A79FF"/>
</linearGradient>
</defs>
</svg>
